<svg width="95" height="65" viewBox="0 0 95 65" fill="none" xmlns="http://www.w3.org/2000/svg">
<path fill-rule="evenodd" clip-rule="evenodd" d="M86.2844 0C88.7222 0 90.9263 0.888631 92.5081 2.32096C92.936 2.70847 92.8576 3.37737 92.3945 3.72218L47.6495 37.0413C47.2964 37.3042 46.8129 37.3053 46.4586 37.0439L2.05093 4.28464C1.61682 3.9644 1.51064 3.35263 1.86895 2.94937C3.46499 1.15307 5.93863 0 8.7156 0H86.2844ZM0 57.2619V11.7945C0 10.9741 0.933445 10.5027 1.59364 10.9897L31.7595 33.2429C32.3013 33.6426 32.3013 34.4527 31.7595 34.8523L0.850255 57.6539C0.496939 57.9145 0 57.701 0 57.2619ZM4.07145 62.3201C3.53674 62.7145 3.53071 63.5121 4.1121 63.8338C5.44797 64.573 7.02561 65 8.7156 65H86.2844C87.6264 65 88.8975 64.7307 90.0331 64.2497C90.6797 63.9757 90.7181 63.1247 90.1548 62.7053L57.014 38.0272C56.6595 37.7632 56.1739 37.7632 55.8195 38.0272L50.1394 42.2568C48.364 43.5788 45.7777 43.5841 43.9955 42.2694L38.2172 38.0068C37.8643 37.7464 37.3829 37.7464 37.0299 38.0068L4.07145 62.3201ZM62.2408 33.2456C61.7038 33.6454 61.7038 34.4498 62.2408 34.8497L93.5813 58.1872C94.1476 58.6089 94.9554 58.3203 94.9911 57.6152C94.997 57.4981 95 57.3803 95 57.2619V10.8431C95 10.0206 94.0624 9.54979 93.4027 10.041L62.2408 33.2456Z" fill="#FF914D"/>
</svg>
