<svg width="24" height="24" viewBox="0 0 24 24" fill="none" xmlns="http://www.w3.org/2000/svg">
<path fill-rule="evenodd" clip-rule="evenodd" d="M12 4C7.58172 4 4 7.58172 4 12C4 16.4183 7.58172 20 12 20C16.4183 20 20 16.4183 20 12C20 7.58172 16.4183 4 12 4ZM2 12C2 6.47715 6.47715 2 12 2C17.5228 2 22 6.47715 22 12C22 17.5228 17.5229 22 12 22C6.47715 22 2 17.5229 2 12ZM12 8C12.5523 8 13 8.44772 13 9V12.5858L14.2929 11.2929C14.6834 10.9024 15.3166 10.9024 15.7071 11.2929C16.0976 11.6834 16.0976 12.3166 15.7071 12.7071L12.7071 15.7071C12.5196 15.8946 12.2652 16 12 16C11.7348 16 11.4804 15.8946 11.2929 15.7071L8.29289 12.7071C7.90237 12.3166 7.90237 11.6834 8.29289 11.2929C8.68342 10.9024 9.31658 10.9024 9.70711 11.2929L11 12.5858V9C11 8.44772 11.4477 8 12 8Z" fill="#0F0F0F"/>
</svg>
