<svg width="404" height="411" viewBox="0 0 404 411" fill="none" xmlns="http://www.w3.org/2000/svg">
<path d="M121.884 16.752V23H118.65V7.248H127.098C128.433 7.248 129.452 7.60733 130.156 8.326C130.948 9.13267 131.344 10.196 131.344 11.516C131.344 13.4227 130.449 14.7207 128.66 15.41C129.672 15.806 130.288 16.2973 130.508 16.884C130.669 17.3093 130.787 18.7247 130.86 21.13C130.875 21.7313 131.102 22.1567 131.542 22.406V23H128.066C127.743 22.3987 127.582 21.5113 127.582 20.338C127.582 20.0447 127.589 19.6853 127.604 19.26C127.604 18.9667 127.604 18.754 127.604 18.622C127.604 17.3753 126.937 16.752 125.602 16.752H121.884ZM121.884 14.046H125.8C126.621 14.046 127.193 13.914 127.516 13.65C127.912 13.3127 128.11 12.7553 128.11 11.978C128.11 11.23 127.912 10.6947 127.516 10.372C127.179 10.0933 126.607 9.954 125.8 9.954H121.884V14.046ZM144.039 17.962H136.207C136.251 18.9007 136.398 19.568 136.647 19.964C137.073 20.6093 137.74 20.932 138.649 20.932C139.779 20.932 140.534 20.4627 140.915 19.524H143.907C143.57 20.668 142.91 21.5773 141.927 22.252C140.959 22.912 139.823 23.242 138.517 23.242C136.743 23.242 135.379 22.648 134.425 21.46C133.589 20.4187 133.171 19.0473 133.171 17.346C133.171 15.278 133.714 13.6793 134.799 12.55C135.753 11.582 137.007 11.098 138.561 11.098C139.749 11.098 140.791 11.3913 141.685 11.978C142.58 12.5647 143.218 13.386 143.599 14.442C143.907 15.2633 144.061 16.2533 144.061 17.412C144.061 17.5587 144.054 17.742 144.039 17.962ZM140.893 15.96C140.747 14.2587 139.962 13.408 138.539 13.408C137.205 13.408 136.442 14.2587 136.251 15.96H140.893ZM153.578 11.34H156.46V22.89C156.46 24.694 155.896 25.9847 154.766 26.762C153.813 27.3927 152.508 27.708 150.85 27.708C149.12 27.708 147.8 27.334 146.89 26.586C146.142 25.9847 145.754 25.2587 145.724 24.408H148.848C149.098 25.3173 149.816 25.772 151.004 25.772C151.752 25.772 152.383 25.5373 152.896 25.068C153.351 24.6573 153.578 24.0193 153.578 23.154V21.416C153.021 22.1053 152.5 22.582 152.016 22.846C151.532 23.11 150.946 23.242 150.256 23.242C148.746 23.242 147.55 22.626 146.67 21.394C145.893 20.338 145.504 18.996 145.504 17.368C145.504 15.4467 146.025 13.8773 147.066 12.66C147.976 11.6187 149.076 11.098 150.366 11.098C151.628 11.098 152.698 11.7067 153.578 12.924V11.34ZM150.982 13.628C150.249 13.628 149.655 13.9653 149.2 14.64C148.76 15.3147 148.54 16.1947 148.54 17.28C148.54 18.3213 148.76 19.1573 149.2 19.788C149.655 20.4187 150.249 20.734 150.982 20.734C151.745 20.734 152.376 20.4113 152.874 19.766C153.344 19.1647 153.578 18.3287 153.578 17.258C153.578 16.0993 153.307 15.1827 152.764 14.508C152.295 13.9213 151.701 13.628 150.982 13.628ZM162.415 11.34V23H159.379V11.34H162.415ZM160.875 7.336C161.271 7.336 161.601 7.47533 161.865 7.754C162.143 8.03267 162.283 8.37 162.283 8.766C162.283 9.162 162.143 9.49933 161.865 9.778C161.601 10.042 161.271 10.174 160.875 10.174C160.479 10.174 160.141 10.042 159.863 9.778C159.584 9.49933 159.445 9.162 159.445 8.766C159.445 8.37 159.584 8.03267 159.863 7.754C160.141 7.47533 160.479 7.336 160.875 7.336ZM175.052 14.772H171.972C171.958 14.3027 171.789 13.9727 171.466 13.782C171.144 13.5767 170.586 13.474 169.794 13.474C168.636 13.474 168.056 13.8113 168.056 14.486C168.056 14.882 168.408 15.1753 169.112 15.366L172.94 16.444C174.466 16.8693 175.228 17.8373 175.228 19.348C175.228 20.536 174.766 21.4967 173.842 22.23C172.977 22.9047 171.73 23.242 170.102 23.242C168.108 23.242 166.678 22.9487 165.812 22.362C164.962 21.8047 164.507 20.9027 164.448 19.656H167.462C167.55 20.14 167.756 20.4627 168.078 20.624C168.416 20.7853 169.032 20.866 169.926 20.866C171.437 20.866 172.192 20.5067 172.192 19.788C172.192 19.3627 171.855 19.0473 171.18 18.842L167.572 17.742C166.648 17.4633 166.018 17.1407 165.68 16.774C165.24 16.3193 165.02 15.7033 165.02 14.926C165.02 13.65 165.504 12.6673 166.472 11.978C167.323 11.3913 168.438 11.098 169.816 11.098C171.488 11.098 172.808 11.472 173.776 12.22C174.612 12.88 175.038 13.7307 175.052 14.772ZM182.882 11.34V13.342H180.836V19.832C180.836 20.2573 180.909 20.5507 181.056 20.712C181.217 20.8733 181.503 20.954 181.914 20.954C182.251 20.954 182.684 20.822 183.212 20.558C183.256 20.5287 183.293 20.5067 183.322 20.492L183.674 22.56C182.75 23.0147 181.782 23.242 180.77 23.242C178.79 23.242 177.8 22.3327 177.8 20.514V13.342H176.304V11.34H177.8V9.404L180.836 7.666V11.34H182.882ZM195.774 17.962H187.942C187.986 18.9007 188.132 19.568 188.382 19.964C188.807 20.6093 189.474 20.932 190.384 20.932C191.513 20.932 192.268 20.4627 192.65 19.524H195.642C195.304 20.668 194.644 21.5773 193.662 22.252C192.694 22.912 191.557 23.242 190.252 23.242C188.477 23.242 187.113 22.648 186.16 21.46C185.324 20.4187 184.906 19.0473 184.906 17.346C184.906 15.278 185.448 13.6793 186.534 12.55C187.487 11.582 188.741 11.098 190.296 11.098C191.484 11.098 192.525 11.3913 193.42 11.978C194.314 12.5647 194.952 13.386 195.334 14.442C195.642 15.2633 195.796 16.2533 195.796 17.412C195.796 17.5587 195.788 17.742 195.774 17.962ZM192.628 15.96C192.481 14.2587 191.696 13.408 190.274 13.408C188.939 13.408 188.176 14.2587 187.986 15.96H192.628ZM197.921 11.34H200.957V13.562C201.338 11.9193 202.423 11.098 204.213 11.098C204.491 11.098 204.689 11.098 204.807 11.098L204.829 14.09C204.462 14.0167 204.081 13.98 203.685 13.98C202.687 13.98 201.998 14.1633 201.617 14.53C201.177 14.9407 200.957 15.6813 200.957 16.752V23H197.921V11.34Z" fill="white"/>
<line x1="41.5" y1="49.9984" x2="42.5" y2="360.998" stroke="white" stroke-dasharray="8 8"/>
<circle cx="40" cy="356" r="40" fill="#FF914D"/>
<path d="M34.58 346C36.1 345.52 37.35 345.28 38.33 345.28C40.43 345.28 42.1 345.83 43.34 346.93C44.54 347.99 45.14 349.4 45.14 351.16C45.14 353.74 43.9 355.37 41.42 356.05C42.88 356.35 44 356.97 44.78 357.91C45.6 358.91 46.01 360.03 46.01 361.27C46.01 363.33 45.15 364.92 43.43 366.04C42.11 366.9 40.52 367.33 38.66 367.33C37.36 367.33 36.08 367.17 34.82 366.85L33.65 365.41V364.03C35.05 364.29 36.25 364.42 37.25 364.42C40.65 364.42 42.35 363.38 42.35 361.3C42.35 360.22 41.88 359.31 40.94 358.57C40.34 358.11 39.7 357.8 39.02 357.64C38.36 357.48 37.33 357.38 35.93 357.34V354.55H38.96C39.72 354.55 40.35 354.29 40.85 353.77C41.35 353.23 41.6 352.56 41.6 351.76C41.6 350.74 41.25 349.95 40.55 349.39C39.87 348.81 38.93 348.52 37.73 348.52C36.97 348.52 35.92 348.69 34.58 349.03V346Z" fill="white"/>
<circle cx="40" cy="197" r="40" fill="#FF914D"/>
<path d="M33.86 188.14C35.76 186.9 37.68 186.28 39.62 186.28C41.56 186.28 43.04 186.85 44.06 187.99C44.96 188.97 45.41 190.28 45.41 191.92C45.41 193.14 45.12 194.34 44.54 195.52C43.96 196.7 42.95 198.17 41.51 199.93C39.89 201.89 38.99 202.96 38.81 203.14L37.04 204.94H45.83V206.14L44.33 208H32.96V204.94L35.18 202.66L37.34 200.2C39 198.36 40.07 197.09 40.55 196.39C41.57 194.93 42.08 193.64 42.08 192.52C42.08 191.64 41.79 190.93 41.21 190.39C40.65 189.83 39.91 189.55 38.99 189.55C37.91 189.55 36.81 189.94 35.69 190.72L33.86 188.14Z" fill="white"/>
<circle cx="40" cy="40" r="40" fill="#FF914D"/>
<path d="M41.84 29.52V49.38L39.98 51H38.18V33.69L34.7 36.63L32.96 34.44L38.78 29.52H41.84Z" fill="white"/>
<path d="M127.824 173.832H121.928L120.872 177H117.572L123.16 161.248H126.746L132.202 177H128.858L127.824 173.832ZM126.944 171.126L124.898 164.966L122.83 171.126H126.944ZM143.818 169.608H140.936C140.76 168.845 140.503 168.31 140.166 168.002C139.843 167.694 139.381 167.54 138.78 167.54C137.87 167.54 137.24 167.863 136.888 168.508C136.506 169.256 136.316 170.173 136.316 171.258C136.316 172.358 136.528 173.231 136.954 173.876C137.394 174.507 137.995 174.822 138.758 174.822C139.359 174.822 139.821 174.668 140.144 174.36C140.481 174.037 140.745 173.509 140.936 172.776H143.818C143.671 174.243 143.084 175.379 142.058 176.186C141.163 176.905 140.056 177.264 138.736 177.264C136.888 177.264 135.487 176.67 134.534 175.482C133.698 174.455 133.28 173.069 133.28 171.324C133.28 169.212 133.83 167.613 134.93 166.528C135.883 165.575 137.174 165.098 138.802 165.098C140.356 165.098 141.588 165.545 142.498 166.44C143.275 167.232 143.715 168.288 143.818 169.608ZM155.784 169.608H152.902C152.726 168.845 152.47 168.31 152.132 168.002C151.81 167.694 151.348 167.54 150.746 167.54C149.837 167.54 149.206 167.863 148.854 168.508C148.473 169.256 148.282 170.173 148.282 171.258C148.282 172.358 148.495 173.231 148.92 173.876C149.36 174.507 149.962 174.822 150.724 174.822C151.326 174.822 151.788 174.668 152.11 174.36C152.448 174.037 152.712 173.509 152.902 172.776H155.784C155.638 174.243 155.051 175.379 154.024 176.186C153.13 176.905 152.022 177.264 150.702 177.264C148.854 177.264 147.454 176.67 146.5 175.482C145.664 174.455 145.246 173.069 145.246 171.324C145.246 169.212 145.796 167.613 146.896 166.528C147.85 165.575 149.14 165.098 150.768 165.098C152.323 165.098 153.555 165.545 154.464 166.44C155.242 167.232 155.682 168.288 155.784 169.608ZM163.043 165.098C164.965 165.098 166.439 165.714 167.465 166.946C168.36 168.002 168.807 169.41 168.807 171.17C168.807 173.194 168.228 174.749 167.069 175.834C166.057 176.773 164.715 177.242 163.043 177.242C161.122 177.242 159.648 176.633 158.621 175.416C157.727 174.345 157.279 172.93 157.279 171.17C157.279 169.161 157.859 167.613 159.017 166.528C160.029 165.575 161.371 165.098 163.043 165.098ZM163.043 167.54C162.222 167.54 161.562 167.877 161.063 168.552C160.565 169.212 160.315 170.085 160.315 171.17C160.315 172.343 160.594 173.267 161.151 173.942C161.65 174.514 162.281 174.8 163.043 174.8C163.865 174.8 164.525 174.47 165.023 173.81C165.537 173.135 165.793 172.255 165.793 171.17C165.793 170.011 165.507 169.095 164.935 168.42C164.437 167.833 163.806 167.54 163.043 167.54ZM181.362 177H178.348V175.35C177.526 176.611 176.36 177.242 174.85 177.242C173.515 177.242 172.503 176.846 171.814 176.054C171.227 175.365 170.934 174.419 170.934 173.216V165.34H173.97V172.578C173.97 173.971 174.615 174.668 175.906 174.668C176.639 174.668 177.226 174.463 177.666 174.052C178.12 173.641 178.348 173.084 178.348 172.38V165.34H181.362V177ZM184.235 165.34H187.271V166.99C188.092 165.729 189.251 165.098 190.747 165.098C192.082 165.098 193.094 165.494 193.783 166.286C194.37 166.99 194.663 167.943 194.663 169.146V177H191.649V169.762C191.649 168.369 190.996 167.672 189.691 167.672C188.958 167.672 188.371 167.885 187.931 168.31C187.491 168.721 187.271 169.271 187.271 169.96V177H184.235V165.34ZM202.97 165.34V167.342H200.924V173.832C200.924 174.257 200.997 174.551 201.144 174.712C201.305 174.873 201.591 174.954 202.002 174.954C202.339 174.954 202.772 174.822 203.3 174.558C203.344 174.529 203.381 174.507 203.41 174.492L203.762 176.56C202.838 177.015 201.87 177.242 200.858 177.242C198.878 177.242 197.888 176.333 197.888 174.514V167.342H196.392V165.34H197.888V163.404L200.924 161.666V165.34H202.97Z" fill="white"/>
<path d="M121.884 334.224V341H118.65V325.248H129.716V327.954H121.884V331.518H128.792V334.224H121.884ZM141.916 341H138.902V339.35C138.081 340.611 136.915 341.242 135.404 341.242C134.07 341.242 133.058 340.846 132.368 340.054C131.782 339.365 131.488 338.419 131.488 337.216V329.34H134.524V336.578C134.524 337.971 135.17 338.668 136.46 338.668C137.194 338.668 137.78 338.463 138.22 338.052C138.675 337.641 138.902 337.084 138.902 336.38V329.34H141.916V341ZM144.79 329.34H147.826V330.99C148.647 329.729 149.806 329.098 151.302 329.098C152.636 329.098 153.648 329.494 154.338 330.286C154.924 330.99 155.218 331.943 155.218 333.146V341H152.204V333.762C152.204 332.369 151.551 331.672 150.246 331.672C149.512 331.672 148.926 331.885 148.486 332.31C148.046 332.721 147.826 333.271 147.826 333.96V341H144.79V329.34ZM168.431 325.248V341H165.395V339.702C164.691 340.729 163.627 341.242 162.205 341.242C160.665 341.242 159.425 340.597 158.487 339.306C157.68 338.206 157.277 336.835 157.277 335.192C157.277 333.241 157.79 331.701 158.817 330.572C159.711 329.589 160.833 329.098 162.183 329.098C163.605 329.098 164.676 329.641 165.395 330.726V325.248H168.431ZM162.865 331.584C162.102 331.584 161.486 331.914 161.017 332.574C160.547 333.234 160.313 334.099 160.313 335.17C160.313 336.226 160.54 337.084 160.995 337.744C161.464 338.389 162.087 338.712 162.865 338.712C163.642 338.712 164.258 338.389 164.713 337.744C165.182 337.099 165.417 336.241 165.417 335.17C165.417 334.085 165.182 333.219 164.713 332.574C164.243 331.914 163.627 331.584 162.865 331.584ZM185.285 340.23V341H181.985C181.765 340.721 181.648 340.325 181.633 339.812C180.826 340.765 179.653 341.242 178.113 341.242C176.984 341.242 176.074 340.897 175.385 340.208C174.828 339.651 174.549 338.881 174.549 337.898C174.549 336.431 175.136 335.39 176.309 334.774C176.808 334.51 177.798 334.246 179.279 333.982L181.655 333.542L181.633 332.706C181.618 331.929 181.032 331.54 179.873 331.54C179.125 331.54 178.597 331.657 178.289 331.892C177.996 332.112 177.812 332.523 177.739 333.124H174.835C175.011 330.44 176.668 329.098 179.807 329.098C181.538 329.098 182.784 329.406 183.547 330.022C184.236 330.609 184.581 331.496 184.581 332.684V339.196C184.581 339.724 184.816 340.069 185.285 340.23ZM181.655 335.368L179.433 335.874C178.802 336.021 178.333 336.233 178.025 336.512C177.732 336.791 177.585 337.135 177.585 337.546C177.585 338.382 178.128 338.8 179.213 338.8C180.782 338.8 181.589 337.942 181.633 336.226L181.655 335.368ZM187.329 329.34H190.365V330.99C191.186 329.729 192.345 329.098 193.841 329.098C195.176 329.098 196.188 329.494 196.877 330.286C197.464 330.99 197.757 331.943 197.757 333.146V341H194.743V333.762C194.743 332.369 194.09 331.672 192.785 331.672C192.052 331.672 191.465 331.885 191.025 332.31C190.585 332.721 190.365 333.271 190.365 333.96V341H187.329V329.34ZM210.97 325.248V341H207.934V339.702C207.23 340.729 206.166 341.242 204.744 341.242C203.204 341.242 201.964 340.597 201.026 339.306C200.219 338.206 199.816 336.835 199.816 335.192C199.816 333.241 200.329 331.701 201.356 330.572C202.25 329.589 203.372 329.098 204.722 329.098C206.144 329.098 207.215 329.641 207.934 330.726V325.248H210.97ZM205.404 331.584C204.641 331.584 204.025 331.914 203.556 332.574C203.086 333.234 202.852 334.099 202.852 335.17C202.852 336.226 203.079 337.084 203.534 337.744C204.003 338.389 204.626 338.712 205.404 338.712C206.181 338.712 206.797 338.389 207.252 337.744C207.721 337.099 207.956 336.241 207.956 335.17C207.956 334.085 207.721 333.219 207.252 332.574C206.782 331.914 206.166 331.584 205.404 331.584ZM223.38 329.34V331.342H221.334V337.832C221.334 338.257 221.407 338.551 221.554 338.712C221.715 338.873 222.001 338.954 222.412 338.954C222.749 338.954 223.182 338.822 223.71 338.558C223.754 338.529 223.791 338.507 223.82 338.492L224.172 340.56C223.248 341.015 222.28 341.242 221.268 341.242C219.288 341.242 218.298 340.333 218.298 338.514V331.342H216.802V329.34H218.298V327.404L221.334 325.666V329.34H223.38ZM226.13 329.34H229.166V331.562C229.547 329.919 230.632 329.098 232.422 329.098C232.7 329.098 232.898 329.098 233.016 329.098L233.038 332.09C232.671 332.017 232.29 331.98 231.894 331.98C230.896 331.98 230.207 332.163 229.826 332.53C229.386 332.941 229.166 333.681 229.166 334.752V341H226.13V329.34ZM244.496 340.23V341H241.196C240.976 340.721 240.859 340.325 240.844 339.812C240.037 340.765 238.864 341.242 237.324 341.242C236.195 341.242 235.285 340.897 234.596 340.208C234.039 339.651 233.76 338.881 233.76 337.898C233.76 336.431 234.347 335.39 235.52 334.774C236.019 334.51 237.009 334.246 238.49 333.982L240.866 333.542L240.844 332.706C240.829 331.929 240.243 331.54 239.084 331.54C238.336 331.54 237.808 331.657 237.5 331.892C237.207 332.112 237.023 332.523 236.95 333.124H234.046C234.222 330.44 235.879 329.098 239.018 329.098C240.749 329.098 241.995 329.406 242.758 330.022C243.447 330.609 243.792 331.496 243.792 332.684V339.196C243.792 339.724 244.027 340.069 244.496 340.23ZM240.866 335.368L238.644 335.874C238.013 336.021 237.544 336.233 237.236 336.512C236.943 336.791 236.796 337.135 236.796 337.546C236.796 338.382 237.339 338.8 238.424 338.8C239.993 338.8 240.8 337.942 240.844 336.226L240.866 335.368ZM256.968 325.248V341H253.932V339.702C253.228 340.729 252.164 341.242 250.742 341.242C249.202 341.242 247.962 340.597 247.024 339.306C246.217 338.206 245.814 336.835 245.814 335.192C245.814 333.241 246.327 331.701 247.354 330.572C248.248 329.589 249.37 329.098 250.72 329.098C252.142 329.098 253.213 329.641 253.932 330.726V325.248H256.968ZM251.402 331.584C250.639 331.584 250.023 331.914 249.554 332.574C249.084 333.234 248.85 334.099 248.85 335.17C248.85 336.226 249.077 337.084 249.532 337.744C250.001 338.389 250.624 338.712 251.402 338.712C252.179 338.712 252.795 338.389 253.25 337.744C253.719 337.099 253.954 336.241 253.954 335.17C253.954 334.085 253.719 333.219 253.25 332.574C252.78 331.914 252.164 331.584 251.402 331.584ZM269.959 335.962H262.127C262.171 336.901 262.318 337.568 262.567 337.964C262.992 338.609 263.66 338.932 264.569 338.932C265.698 338.932 266.454 338.463 266.835 337.524H269.827C269.49 338.668 268.83 339.577 267.847 340.252C266.879 340.912 265.742 341.242 264.437 341.242C262.662 341.242 261.298 340.648 260.345 339.46C259.509 338.419 259.091 337.047 259.091 335.346C259.091 333.278 259.634 331.679 260.719 330.55C261.672 329.582 262.926 329.098 264.481 329.098C265.669 329.098 266.71 329.391 267.605 329.978C268.5 330.565 269.138 331.386 269.519 332.442C269.827 333.263 269.981 334.253 269.981 335.412C269.981 335.559 269.974 335.742 269.959 335.962ZM266.813 333.96C266.666 332.259 265.882 331.408 264.459 331.408C263.124 331.408 262.362 332.259 262.171 333.96H266.813Z" fill="white"/>
<path d="M120.938 59.828V67H118.936V51.248H129.496V53.03H120.938V58.046H128.462V59.828H120.938ZM133.403 55.692V67H131.621V55.692H133.403ZM132.545 51.27C132.853 51.27 133.11 51.38 133.315 51.6C133.535 51.8053 133.645 52.0547 133.645 52.348C133.645 52.656 133.535 52.92 133.315 53.14C133.11 53.3453 132.853 53.448 132.545 53.448C132.252 53.448 131.995 53.3453 131.775 53.14C131.57 52.92 131.467 52.656 131.467 52.348C131.467 52.0547 131.57 51.8053 131.775 51.6C131.995 51.38 132.252 51.27 132.545 51.27ZM138.26 51.248V67H136.456V51.248H138.26ZM143.051 51.248V67H141.247V51.248H143.051ZM154.544 55.692V57.144H152.234V64.668C152.234 64.932 152.322 65.1593 152.498 65.35C152.688 65.526 152.93 65.614 153.224 65.614C153.502 65.614 153.928 65.548 154.5 65.416L154.698 67C153.788 67.1613 153.099 67.242 152.63 67.242C151.178 67.242 150.452 66.648 150.452 65.46V57.144H148.912V55.692H150.452V53.382L152.234 52.568V55.692H154.544ZM156.653 51.248H158.435V57.276C158.977 56.6013 159.52 56.132 160.063 55.868C160.605 55.5893 161.28 55.45 162.087 55.45C163.187 55.45 164.052 55.7287 164.683 56.286C165.313 56.8287 165.629 57.5767 165.629 58.53V67H163.847V59.256C163.847 58.464 163.605 57.8847 163.121 57.518C162.666 57.1807 162.131 57.012 161.515 57.012C160.591 57.012 159.843 57.3567 159.271 58.046C158.713 58.7353 158.435 59.652 158.435 60.796V67H156.653V51.248ZM178.211 61.874H169.873C169.887 62.842 170.093 63.612 170.489 64.184C171.119 65.108 172.029 65.57 173.217 65.57C174.683 65.57 175.673 64.8733 176.187 63.48H177.991C177.756 64.668 177.213 65.592 176.363 66.252C175.512 66.912 174.441 67.242 173.151 67.242C171.435 67.242 170.122 66.6553 169.213 65.482C168.406 64.4553 168.003 63.0987 168.003 61.412C168.003 59.4613 168.531 57.9433 169.587 56.858C170.511 55.9193 171.706 55.45 173.173 55.45C174.243 55.45 175.182 55.7067 175.989 56.22C176.81 56.7333 177.397 57.4373 177.749 58.332C178.057 59.0947 178.211 60.2533 178.211 61.808V61.874ZM176.275 60.4C176.275 59.4173 175.981 58.6253 175.395 58.024C174.823 57.408 174.082 57.1 173.173 57.1C172.249 57.1 171.493 57.4007 170.907 58.002C170.335 58.5887 170.012 59.388 169.939 60.4H176.275ZM192.741 58.794H190.761C190.703 57.6647 189.947 57.1 188.495 57.1C187.747 57.1 187.153 57.2467 186.713 57.54C186.288 57.8187 186.075 58.2 186.075 58.684C186.075 59.4173 186.772 59.9453 188.165 60.268L189.903 60.664C191.033 60.928 191.847 61.302 192.345 61.786C192.844 62.27 193.093 62.93 193.093 63.766C193.093 64.8367 192.675 65.6873 191.839 66.318C191.003 66.934 189.874 67.242 188.451 67.242C186.897 67.242 185.716 66.8753 184.909 66.142C184.235 65.5407 183.875 64.7413 183.831 63.744H185.877C185.995 64.2573 186.156 64.6313 186.361 64.866C186.757 65.3353 187.498 65.57 188.583 65.57C189.39 65.57 190.028 65.4233 190.497 65.13C190.981 64.822 191.223 64.4187 191.223 63.92C191.223 63.172 190.644 62.6587 189.485 62.38L187.791 61.984C186.501 61.676 185.599 61.3093 185.085 60.884C184.499 60.4 184.205 59.7033 184.205 58.794C184.205 57.7673 184.594 56.9533 185.371 56.352C186.163 55.7507 187.219 55.45 188.539 55.45C189.918 55.45 190.989 55.7947 191.751 56.484C192.411 57.0853 192.741 57.8553 192.741 58.794ZM197.212 55.692V67H195.43V55.692H197.212ZM196.354 51.27C196.662 51.27 196.919 51.38 197.124 51.6C197.344 51.8053 197.454 52.0547 197.454 52.348C197.454 52.656 197.344 52.92 197.124 53.14C196.919 53.3453 196.662 53.448 196.354 53.448C196.061 53.448 195.804 53.3453 195.584 53.14C195.379 52.92 195.276 52.656 195.276 52.348C195.276 52.0547 195.379 51.8053 195.584 51.6C195.804 51.38 196.061 51.27 196.354 51.27ZM200.309 55.692H201.981V57.32C202.861 56.0733 204.02 55.45 205.457 55.45C206.85 55.45 207.862 56.0073 208.493 57.122C209.036 56.4913 209.556 56.0587 210.055 55.824C210.568 55.5747 211.199 55.45 211.947 55.45C214.147 55.45 215.247 56.484 215.247 58.552V67H213.443V59.256C213.443 57.76 212.739 57.012 211.331 57.012C210.598 57.012 209.974 57.298 209.461 57.87C208.948 58.442 208.691 59.124 208.691 59.916V67H206.887V59.256C206.887 57.76 206.19 57.012 204.797 57.012C204.049 57.012 203.411 57.298 202.883 57.87C202.37 58.4273 202.113 59.1093 202.113 59.916V67H200.309V55.692ZM217.961 71.708V55.692H219.633V57.43C220.469 56.11 221.672 55.45 223.241 55.45C224.84 55.45 226.072 56.066 226.937 57.298C227.7 58.3687 228.081 59.7767 228.081 61.522C228.081 63.3847 227.582 64.8367 226.585 65.878C225.72 66.7873 224.598 67.242 223.219 67.242C221.826 67.242 220.674 66.736 219.765 65.724V71.708H217.961ZM222.933 57.122C221.98 57.122 221.21 57.5107 220.623 58.288C220.051 59.0653 219.765 60.1067 219.765 61.412C219.765 62.7613 220.095 63.8173 220.755 64.58C221.312 65.2253 222.038 65.548 222.933 65.548C223.93 65.548 224.722 65.174 225.309 64.426C225.91 63.6633 226.211 62.6587 226.211 61.412C226.211 60.0333 225.874 58.948 225.199 58.156C224.598 57.4667 223.842 57.122 222.933 57.122ZM232.083 51.248V67H230.279V51.248H232.083ZM244.662 61.874H236.324C236.338 62.842 236.544 63.612 236.94 64.184C237.57 65.108 238.48 65.57 239.668 65.57C241.134 65.57 242.124 64.8733 242.638 63.48H244.442C244.207 64.668 243.664 65.592 242.814 66.252C241.963 66.912 240.892 67.242 239.602 67.242C237.886 67.242 236.573 66.6553 235.664 65.482C234.857 64.4553 234.454 63.0987 234.454 61.412C234.454 59.4613 234.982 57.9433 236.038 56.858C236.962 55.9193 238.157 55.45 239.624 55.45C240.694 55.45 241.633 55.7067 242.44 56.22C243.261 56.7333 243.848 57.4373 244.2 58.332C244.508 59.0947 244.662 60.2533 244.662 61.808V61.874ZM242.726 60.4C242.726 59.4173 242.432 58.6253 241.846 58.024C241.274 57.408 240.533 57.1 239.624 57.1C238.7 57.1 237.944 57.4007 237.358 58.002C236.786 58.5887 236.463 59.388 236.39 60.4H242.726ZM251.141 55.692H252.813V57.76C253.473 56.2053 254.514 55.428 255.937 55.428C256.113 55.428 256.325 55.45 256.575 55.494V57.342C255.401 57.3567 254.595 57.5253 254.155 57.848C253.348 58.4347 252.945 59.5273 252.945 61.126V67H251.141V55.692ZM267.908 61.874H259.57C259.584 62.842 259.79 63.612 260.186 64.184C260.816 65.108 261.726 65.57 262.914 65.57C264.38 65.57 265.37 64.8733 265.884 63.48H267.688C267.453 64.668 266.91 65.592 266.06 66.252C265.209 66.912 264.138 67.242 262.848 67.242C261.132 67.242 259.819 66.6553 258.91 65.482C258.103 64.4553 257.7 63.0987 257.7 61.412C257.7 59.4613 258.228 57.9433 259.284 56.858C260.208 55.9193 261.403 55.45 262.87 55.45C263.94 55.45 264.879 55.7067 265.686 56.22C266.507 56.7333 267.094 57.4373 267.446 58.332C267.754 59.0947 267.908 60.2533 267.908 61.808V61.874ZM265.972 60.4C265.972 59.4173 265.678 58.6253 265.092 58.024C264.52 57.408 263.779 57.1 262.87 57.1C261.946 57.1 261.19 57.4007 260.604 58.002C260.032 58.5887 259.709 59.388 259.636 60.4H265.972ZM277.74 55.692H279.412V65.152C279.412 67.6013 279.016 69.3027 278.224 70.256C277.432 71.224 276.134 71.708 274.33 71.708C272.922 71.708 271.822 71.3707 271.03 70.696C270.326 70.0947 269.93 69.2953 269.842 68.298H271.69C271.778 68.8847 271.998 69.3173 272.35 69.596C272.863 69.992 273.552 70.19 274.418 70.19C275.591 70.19 276.427 69.838 276.926 69.134C277.351 68.5327 277.564 67.506 277.564 66.054V65.328C276.625 66.604 275.496 67.242 274.176 67.242C272.885 67.242 271.792 66.758 270.898 65.79C269.944 64.7487 269.468 63.326 269.468 61.522C269.468 59.586 269.966 58.046 270.964 56.902C271.844 55.934 272.951 55.45 274.286 55.45C275.723 55.45 276.874 56.0953 277.74 57.386V55.692ZM274.484 57.1C273.516 57.1 272.746 57.4887 272.174 58.266C271.616 59.0287 271.338 60.0773 271.338 61.412C271.338 62.8053 271.66 63.8687 272.306 64.602C272.848 65.2473 273.582 65.57 274.506 65.57C275.474 65.57 276.222 65.2033 276.75 64.47C277.292 63.7367 277.564 62.7173 277.564 61.412C277.564 59.9747 277.256 58.8747 276.64 58.112C276.097 57.4373 275.378 57.1 274.484 57.1ZM284.073 55.692V67H282.291V55.692H284.073ZM283.215 51.27C283.523 51.27 283.78 51.38 283.985 51.6C284.205 51.8053 284.315 52.0547 284.315 52.348C284.315 52.656 284.205 52.92 283.985 53.14C283.78 53.3453 283.523 53.448 283.215 53.448C282.922 53.448 282.665 53.3453 282.445 53.14C282.24 52.92 282.137 52.656 282.137 52.348C282.137 52.0547 282.24 51.8053 282.445 51.6C282.665 51.38 282.922 51.27 283.215 51.27ZM295.2 58.794H293.22C293.162 57.6647 292.406 57.1 290.954 57.1C290.206 57.1 289.612 57.2467 289.172 57.54C288.747 57.8187 288.534 58.2 288.534 58.684C288.534 59.4173 289.231 59.9453 290.624 60.268L292.362 60.664C293.492 60.928 294.306 61.302 294.804 61.786C295.303 62.27 295.552 62.93 295.552 63.766C295.552 64.8367 295.134 65.6873 294.298 66.318C293.462 66.934 292.333 67.242 290.91 67.242C289.356 67.242 288.175 66.8753 287.368 66.142C286.694 65.5407 286.334 64.7413 286.29 63.744H288.336C288.454 64.2573 288.615 64.6313 288.82 64.866C289.216 65.3353 289.957 65.57 291.042 65.57C291.849 65.57 292.487 65.4233 292.956 65.13C293.44 64.822 293.682 64.4187 293.682 63.92C293.682 63.172 293.103 62.6587 291.944 62.38L290.25 61.984C288.96 61.676 288.058 61.3093 287.544 60.884C286.958 60.4 286.664 59.7033 286.664 58.794C286.664 57.7673 287.053 56.9533 287.83 56.352C288.622 55.7507 289.678 55.45 290.998 55.45C292.377 55.45 293.448 55.7947 294.21 56.484C294.87 57.0853 295.2 57.8553 295.2 58.794ZM302.399 55.692V57.144H300.089V64.668C300.089 64.932 300.177 65.1593 300.353 65.35C300.544 65.526 300.786 65.614 301.079 65.614C301.358 65.614 301.783 65.548 302.355 65.416L302.553 67C301.644 67.1613 300.954 67.242 300.485 67.242C299.033 67.242 298.307 66.648 298.307 65.46V57.144H296.767V55.692H298.307V53.382L300.089 52.568V55.692H302.399ZM304.486 55.692H306.158V57.76C306.818 56.2053 307.86 55.428 309.282 55.428C309.458 55.428 309.671 55.45 309.92 55.494V57.342C308.747 57.3567 307.94 57.5253 307.5 57.848C306.694 58.4347 306.29 59.5273 306.29 61.126V67H304.486V55.692ZM321.738 65.482V66.934C321.239 67.11 320.85 67.198 320.572 67.198C319.398 67.198 318.76 66.6627 318.658 65.592C317.851 66.692 316.568 67.242 314.808 67.242C313.59 67.242 312.644 66.9047 311.97 66.23C311.383 65.6433 311.09 64.888 311.09 63.964C311.09 62.908 311.464 62.094 312.212 61.522C312.637 61.1993 313.524 60.884 314.874 60.576L318.57 59.74L318.592 58.794C318.592 57.6647 317.741 57.1 316.04 57.1C314.412 57.1 313.539 57.76 313.421 59.08H311.596C311.64 58.0827 311.889 57.32 312.344 56.792C313.121 55.8973 314.382 55.45 316.128 55.45C318.958 55.45 320.374 56.4767 320.374 58.53V64.844C320.374 65.4013 320.616 65.68 321.1 65.68C321.158 65.68 321.312 65.636 321.562 65.548C321.65 65.5187 321.708 65.4967 321.738 65.482ZM318.592 61.214L315.688 61.962C314.646 62.226 313.928 62.4973 313.532 62.776C313.15 63.0547 312.96 63.4433 312.96 63.942C312.96 65.1007 313.708 65.68 315.204 65.68C316.26 65.68 317.154 65.3353 317.888 64.646C318.357 64.2207 318.592 63.7367 318.592 63.194V61.214ZM328.137 55.692V57.144H325.827V64.668C325.827 64.932 325.915 65.1593 326.091 65.35C326.282 65.526 326.524 65.614 326.817 65.614C327.096 65.614 327.521 65.548 328.093 65.416L328.291 67C327.382 67.1613 326.693 67.242 326.223 67.242C324.771 67.242 324.045 66.648 324.045 65.46V57.144H322.505V55.692H324.045V53.382L325.827 52.568V55.692H328.137ZM331.941 55.692V67H330.159V55.692H331.941ZM331.083 51.27C331.391 51.27 331.647 51.38 331.853 51.6C332.073 51.8053 332.183 52.0547 332.183 52.348C332.183 52.656 332.073 52.92 331.853 53.14C331.647 53.3453 331.391 53.448 331.083 53.448C330.789 53.448 330.533 53.3453 330.313 53.14C330.107 52.92 330.005 52.656 330.005 52.348C330.005 52.0547 330.107 51.8053 330.313 51.6C330.533 51.38 330.789 51.27 331.083 51.27ZM339.46 55.45C341.161 55.45 342.459 56.044 343.354 57.232C344.146 58.2587 344.542 59.652 344.542 61.412C344.542 63.3773 344.028 64.8733 343.002 65.9C342.122 66.7947 340.934 67.242 339.438 67.242C337.707 67.242 336.387 66.6627 335.478 65.504C334.686 64.492 334.29 63.128 334.29 61.412C334.29 59.4173 334.81 57.8847 335.852 56.814C336.746 55.9047 337.949 55.45 339.46 55.45ZM339.46 57.1C338.433 57.1 337.626 57.4887 337.04 58.266C336.453 59.0287 336.16 60.0773 336.16 61.412C336.16 62.8053 336.49 63.8687 337.15 64.602C337.722 65.2473 338.484 65.57 339.438 65.57C340.45 65.57 341.234 65.2033 341.792 64.47C342.364 63.7367 342.65 62.7173 342.65 61.412C342.65 59.9747 342.327 58.8747 341.682 58.112C341.124 57.4373 340.384 57.1 339.46 57.1ZM347.047 55.692H348.719V57.606C349.629 56.1687 350.875 55.45 352.459 55.45C353.559 55.45 354.432 55.7287 355.077 56.286C355.723 56.8287 356.045 57.562 356.045 58.486V67H354.263V59.212C354.263 58.5373 354.051 58.002 353.625 57.606C353.215 57.21 352.65 57.012 351.931 57.012C350.993 57.012 350.245 57.3567 349.687 58.046C349.13 58.7353 348.851 59.652 348.851 60.796V67H347.047V55.692ZM367.144 55.692V57.144H365.274V67H363.492V57.144H361.974V55.692H363.492V53.756C363.492 52.9493 363.719 52.3187 364.174 51.864C364.643 51.4093 365.296 51.182 366.132 51.182C366.455 51.182 366.792 51.2187 367.144 51.292V52.788H366.946C366.785 52.7733 366.645 52.766 366.528 52.766C365.692 52.766 365.274 53.1473 365.274 53.91V55.692H367.144ZM373.534 55.45C375.235 55.45 376.533 56.044 377.428 57.232C378.22 58.2587 378.616 59.652 378.616 61.412C378.616 63.3773 378.102 64.8733 377.076 65.9C376.196 66.7947 375.008 67.242 373.512 67.242C371.781 67.242 370.461 66.6627 369.552 65.504C368.76 64.492 368.364 63.128 368.364 61.412C368.364 59.4173 368.884 57.8847 369.926 56.814C370.82 55.9047 372.023 55.45 373.534 55.45ZM373.534 57.1C372.507 57.1 371.7 57.4887 371.114 58.266C370.527 59.0287 370.234 60.0773 370.234 61.412C370.234 62.8053 370.564 63.8687 371.224 64.602C371.796 65.2473 372.558 65.57 373.512 65.57C374.524 65.57 375.308 65.2033 375.866 64.47C376.438 63.7367 376.724 62.7173 376.724 61.412C376.724 59.9747 376.401 58.8747 375.756 58.112C375.198 57.4373 374.458 57.1 373.534 57.1ZM381.1 55.692H382.772V57.76C383.432 56.2053 384.473 55.428 385.896 55.428C386.072 55.428 386.284 55.45 386.534 55.494V57.342C385.36 57.3567 384.554 57.5253 384.114 57.848C383.307 58.4347 382.904 59.5273 382.904 61.126V67H381.1V55.692ZM388.319 55.692H389.991V57.32C390.871 56.0733 392.029 55.45 393.467 55.45C394.86 55.45 395.872 56.0073 396.503 57.122C397.045 56.4913 397.566 56.0587 398.065 55.824C398.578 55.5747 399.209 55.45 399.957 55.45C402.157 55.45 403.257 56.484 403.257 58.552V67H401.453V59.256C401.453 57.76 400.749 57.012 399.341 57.012C398.607 57.012 397.984 57.298 397.471 57.87C396.957 58.442 396.701 59.124 396.701 59.916V67H394.897V59.256C394.897 57.76 394.2 57.012 392.807 57.012C392.059 57.012 391.421 57.298 390.893 57.87C390.379 58.4273 390.123 59.1093 390.123 59.916V67H388.319V55.692Z" fill="white"/>
<path d="M131.3 213.066H129.232C129.012 212.01 128.631 211.24 128.088 210.756C127.384 210.111 126.357 209.788 125.008 209.788C123.365 209.788 122.097 210.433 121.202 211.724C120.425 212.853 120.036 214.335 120.036 216.168C120.036 218.236 120.557 219.842 121.598 220.986C122.522 221.969 123.71 222.46 125.162 222.46C126.937 222.46 128.161 221.807 128.836 220.502C129.144 219.901 129.386 219.101 129.562 218.104H131.63C131.146 222.196 128.997 224.242 125.184 224.242C123.131 224.242 121.51 223.641 120.322 222.438C118.797 220.898 118.034 218.83 118.034 216.234C118.034 213.711 118.767 211.636 120.234 210.008C121.437 208.673 123.094 208.006 125.206 208.006C128.638 208.006 130.669 209.693 131.3 213.066ZM134.116 208.248H135.898V214.276C136.44 213.601 136.983 213.132 137.526 212.868C138.068 212.589 138.743 212.45 139.55 212.45C140.65 212.45 141.515 212.729 142.146 213.286C142.776 213.829 143.092 214.577 143.092 215.53V224H141.31V216.256C141.31 215.464 141.068 214.885 140.584 214.518C140.129 214.181 139.594 214.012 138.978 214.012C138.054 214.012 137.306 214.357 136.734 215.046C136.176 215.735 135.898 216.652 135.898 217.796V224H134.116V208.248ZM150.547 212.45C152.249 212.45 153.547 213.044 154.441 214.232C155.233 215.259 155.629 216.652 155.629 218.412C155.629 220.377 155.116 221.873 154.089 222.9C153.209 223.795 152.021 224.242 150.525 224.242C148.795 224.242 147.475 223.663 146.565 222.504C145.773 221.492 145.377 220.128 145.377 218.412C145.377 216.417 145.898 214.885 146.939 213.814C147.834 212.905 149.037 212.45 150.547 212.45ZM150.547 214.1C149.521 214.1 148.714 214.489 148.127 215.266C147.541 216.029 147.247 217.077 147.247 218.412C147.247 219.805 147.577 220.869 148.237 221.602C148.809 222.247 149.572 222.57 150.525 222.57C151.537 222.57 152.322 222.203 152.879 221.47C153.451 220.737 153.737 219.717 153.737 218.412C153.737 216.975 153.415 215.875 152.769 215.112C152.212 214.437 151.471 214.1 150.547 214.1ZM162.557 212.45C164.259 212.45 165.557 213.044 166.451 214.232C167.243 215.259 167.639 216.652 167.639 218.412C167.639 220.377 167.126 221.873 166.099 222.9C165.219 223.795 164.031 224.242 162.535 224.242C160.805 224.242 159.485 223.663 158.575 222.504C157.783 221.492 157.387 220.128 157.387 218.412C157.387 216.417 157.908 214.885 158.949 213.814C159.844 212.905 161.047 212.45 162.557 212.45ZM162.557 214.1C161.531 214.1 160.724 214.489 160.137 215.266C159.551 216.029 159.257 217.077 159.257 218.412C159.257 219.805 159.587 220.869 160.247 221.602C160.819 222.247 161.582 222.57 162.535 222.57C163.547 222.57 164.332 222.203 164.889 221.47C165.461 220.737 165.747 219.717 165.747 218.412C165.747 216.975 165.425 215.875 164.779 215.112C164.222 214.437 163.481 214.1 162.557 214.1ZM178.175 215.794H176.195C176.136 214.665 175.381 214.1 173.929 214.1C173.181 214.1 172.587 214.247 172.147 214.54C171.722 214.819 171.509 215.2 171.509 215.684C171.509 216.417 172.206 216.945 173.599 217.268L175.337 217.664C176.466 217.928 177.28 218.302 177.779 218.786C178.278 219.27 178.527 219.93 178.527 220.766C178.527 221.837 178.109 222.687 177.273 223.318C176.437 223.934 175.308 224.242 173.885 224.242C172.33 224.242 171.15 223.875 170.343 223.142C169.668 222.541 169.309 221.741 169.265 220.744H171.311C171.428 221.257 171.59 221.631 171.795 221.866C172.191 222.335 172.932 222.57 174.017 222.57C174.824 222.57 175.462 222.423 175.931 222.13C176.415 221.822 176.657 221.419 176.657 220.92C176.657 220.172 176.078 219.659 174.919 219.38L173.225 218.984C171.934 218.676 171.032 218.309 170.519 217.884C169.932 217.4 169.639 216.703 169.639 215.794C169.639 214.767 170.028 213.953 170.805 213.352C171.597 212.751 172.653 212.45 173.973 212.45C175.352 212.45 176.422 212.795 177.185 213.484C177.845 214.085 178.175 214.855 178.175 215.794ZM190.5 218.874H182.162C182.176 219.842 182.382 220.612 182.778 221.184C183.408 222.108 184.318 222.57 185.506 222.57C186.972 222.57 187.962 221.873 188.476 220.48H190.28C190.045 221.668 189.502 222.592 188.652 223.252C187.801 223.912 186.73 224.242 185.44 224.242C183.724 224.242 182.411 223.655 181.502 222.482C180.695 221.455 180.292 220.099 180.292 218.412C180.292 216.461 180.82 214.943 181.876 213.858C182.8 212.919 183.995 212.45 185.462 212.45C186.532 212.45 187.471 212.707 188.278 213.22C189.099 213.733 189.686 214.437 190.038 215.332C190.346 216.095 190.5 217.253 190.5 218.808V218.874ZM188.564 217.4C188.564 216.417 188.27 215.625 187.684 215.024C187.112 214.408 186.371 214.1 185.462 214.1C184.538 214.1 183.782 214.401 183.196 215.002C182.624 215.589 182.301 216.388 182.228 217.4H188.564ZM207.032 222.482V223.934C206.534 224.11 206.145 224.198 205.866 224.198C204.693 224.198 204.055 223.663 203.952 222.592C203.146 223.692 201.862 224.242 200.102 224.242C198.885 224.242 197.939 223.905 197.264 223.23C196.678 222.643 196.384 221.888 196.384 220.964C196.384 219.908 196.758 219.094 197.506 218.522C197.932 218.199 198.819 217.884 200.168 217.576L203.864 216.74L203.886 215.794C203.886 214.665 203.036 214.1 201.334 214.1C199.706 214.1 198.834 214.76 198.716 216.08H196.89C196.934 215.083 197.184 214.32 197.638 213.792C198.416 212.897 199.677 212.45 201.422 212.45C204.253 212.45 205.668 213.477 205.668 215.53V221.844C205.668 222.401 205.91 222.68 206.394 222.68C206.453 222.68 206.607 222.636 206.856 222.548C206.944 222.519 207.003 222.497 207.032 222.482ZM203.886 218.214L200.982 218.962C199.941 219.226 199.222 219.497 198.826 219.776C198.445 220.055 198.254 220.443 198.254 220.942C198.254 222.101 199.002 222.68 200.498 222.68C201.554 222.68 202.449 222.335 203.182 221.646C203.652 221.221 203.886 220.737 203.886 220.194V218.214ZM217.656 216.476H215.852C215.632 214.892 214.738 214.1 213.168 214.1C212.186 214.1 211.416 214.489 210.858 215.266C210.301 216.043 210.022 217.121 210.022 218.5C210.022 219.864 210.352 220.905 211.012 221.624C211.57 222.255 212.318 222.57 213.256 222.57C214.767 222.57 215.669 221.749 215.962 220.106H217.788C217.671 221.514 217.165 222.577 216.27 223.296C215.493 223.927 214.474 224.242 213.212 224.242C211.555 224.242 210.264 223.655 209.34 222.482C208.548 221.47 208.152 220.143 208.152 218.5C208.152 216.535 208.673 214.995 209.714 213.88C210.609 212.927 211.768 212.45 213.19 212.45C214.833 212.45 216.065 213 216.886 214.1C217.312 214.672 217.568 215.464 217.656 216.476ZM228.463 216.476H226.659C226.439 214.892 225.544 214.1 223.975 214.1C222.992 214.1 222.222 214.489 221.665 215.266C221.107 216.043 220.829 217.121 220.829 218.5C220.829 219.864 221.159 220.905 221.819 221.624C222.376 222.255 223.124 222.57 224.063 222.57C225.573 222.57 226.475 221.749 226.769 220.106H228.595C228.477 221.514 227.971 222.577 227.077 223.296C226.299 223.927 225.28 224.242 224.019 224.242C222.361 224.242 221.071 223.655 220.147 222.482C219.355 221.47 218.959 220.143 218.959 218.5C218.959 216.535 219.479 214.995 220.521 213.88C221.415 212.927 222.574 212.45 223.997 212.45C225.639 212.45 226.871 213 227.693 214.1C228.118 214.672 228.375 215.464 228.463 216.476ZM235.045 212.45C236.747 212.45 238.045 213.044 238.939 214.232C239.731 215.259 240.127 216.652 240.127 218.412C240.127 220.377 239.614 221.873 238.587 222.9C237.707 223.795 236.519 224.242 235.023 224.242C233.293 224.242 231.973 223.663 231.063 222.504C230.271 221.492 229.875 220.128 229.875 218.412C229.875 216.417 230.396 214.885 231.437 213.814C232.332 212.905 233.535 212.45 235.045 212.45ZM235.045 214.1C234.019 214.1 233.212 214.489 232.625 215.266C232.039 216.029 231.745 217.077 231.745 218.412C231.745 219.805 232.075 220.869 232.735 221.602C233.307 222.247 234.07 222.57 235.023 222.57C236.035 222.57 236.82 222.203 237.377 221.47C237.949 220.737 238.235 219.717 238.235 218.412C238.235 216.975 237.913 215.875 237.267 215.112C236.71 214.437 235.969 214.1 235.045 214.1ZM251.521 224H249.739V222.218C248.933 223.567 247.73 224.242 246.131 224.242C245.031 224.242 244.151 223.971 243.491 223.428C242.846 222.871 242.523 222.13 242.523 221.206V212.692H244.305V220.48C244.305 221.14 244.518 221.668 244.943 222.064C245.369 222.46 245.941 222.658 246.659 222.658C247.598 222.658 248.346 222.321 248.903 221.646C249.461 220.957 249.739 220.033 249.739 218.874V212.692H251.521V224ZM254.643 212.692H256.315V214.606C257.224 213.169 258.471 212.45 260.055 212.45C261.155 212.45 262.028 212.729 262.673 213.286C263.318 213.829 263.641 214.562 263.641 215.486V224H261.859V216.212C261.859 215.537 261.646 215.002 261.221 214.606C260.81 214.21 260.246 214.012 259.527 214.012C258.588 214.012 257.84 214.357 257.283 215.046C256.726 215.735 256.447 216.652 256.447 217.796V224H254.643V212.692ZM271.075 212.692V214.144H268.765V221.668C268.765 221.932 268.853 222.159 269.029 222.35C269.219 222.526 269.461 222.614 269.755 222.614C270.033 222.614 270.459 222.548 271.031 222.416L271.229 224C270.319 224.161 269.63 224.242 269.161 224.242C267.709 224.242 266.983 223.648 266.983 222.46V214.144H265.443V212.692H266.983V210.382L268.765 209.568V212.692H271.075ZM281.645 212.45C283.346 212.45 284.644 213.044 285.539 214.232C286.331 215.259 286.727 216.652 286.727 218.412C286.727 220.377 286.214 221.873 285.187 222.9C284.307 223.795 283.119 224.242 281.623 224.242C279.892 224.242 278.572 223.663 277.663 222.504C276.871 221.492 276.475 220.128 276.475 218.412C276.475 216.417 276.996 214.885 278.037 213.814C278.932 212.905 280.134 212.45 281.645 212.45ZM281.645 214.1C280.618 214.1 279.812 214.489 279.225 215.266C278.638 216.029 278.345 217.077 278.345 218.412C278.345 219.805 278.675 220.869 279.335 221.602C279.907 222.247 280.67 222.57 281.623 222.57C282.635 222.57 283.42 222.203 283.977 221.47C284.549 220.737 284.835 219.717 284.835 218.412C284.835 216.975 284.512 215.875 283.867 215.112C283.31 214.437 282.569 214.1 281.645 214.1ZM293.281 212.692V214.144H291.411V224H289.629V214.144H288.111V212.692H289.629V210.756C289.629 209.949 289.856 209.319 290.311 208.864C290.78 208.409 291.433 208.182 292.269 208.182C292.592 208.182 292.929 208.219 293.281 208.292V209.788H293.083C292.922 209.773 292.782 209.766 292.665 209.766C291.829 209.766 291.411 210.147 291.411 210.91V212.692H293.281ZM306.174 212.692H308.11L303.072 226.376C302.485 227.931 301.51 228.708 300.146 228.708C299.5 228.708 298.936 228.561 298.452 228.268L298.804 226.706C299.17 226.853 299.53 226.926 299.882 226.926C300.586 226.926 301.077 226.559 301.356 225.826L302.038 224.022L298.21 212.692H300.146L303.028 221.492L306.174 212.692ZM314.516 212.45C316.218 212.45 317.516 213.044 318.41 214.232C319.202 215.259 319.598 216.652 319.598 218.412C319.598 220.377 319.085 221.873 318.058 222.9C317.178 223.795 315.99 224.242 314.494 224.242C312.764 224.242 311.444 223.663 310.534 222.504C309.742 221.492 309.346 220.128 309.346 218.412C309.346 216.417 309.867 214.885 310.908 213.814C311.803 212.905 313.006 212.45 314.516 212.45ZM314.516 214.1C313.49 214.1 312.683 214.489 312.096 215.266C311.51 216.029 311.216 217.077 311.216 218.412C311.216 219.805 311.546 220.869 312.206 221.602C312.778 222.247 313.541 222.57 314.494 222.57C315.506 222.57 316.291 222.203 316.848 221.47C317.42 220.737 317.706 219.717 317.706 218.412C317.706 216.975 317.384 215.875 316.738 215.112C316.181 214.437 315.44 214.1 314.516 214.1ZM330.992 224H329.21V222.218C328.403 223.567 327.201 224.242 325.602 224.242C324.502 224.242 323.622 223.971 322.962 223.428C322.317 222.871 321.994 222.13 321.994 221.206V212.692H323.776V220.48C323.776 221.14 323.989 221.668 324.414 222.064C324.839 222.46 325.411 222.658 326.13 222.658C327.069 222.658 327.817 222.321 328.374 221.646C328.931 220.957 329.21 220.033 329.21 218.874V212.692H330.992V224ZM334.092 212.692H335.764V214.76C336.424 213.205 337.465 212.428 338.888 212.428C339.064 212.428 339.276 212.45 339.526 212.494V214.342C338.352 214.357 337.546 214.525 337.106 214.848C336.299 215.435 335.896 216.527 335.896 218.126V224H334.092V212.692ZM122.94 237.692V239.144H120.63V246.668C120.63 246.932 120.718 247.159 120.894 247.35C121.085 247.526 121.327 247.614 121.62 247.614C121.899 247.614 122.324 247.548 122.896 247.416L123.094 249C122.185 249.161 121.495 249.242 121.026 249.242C119.574 249.242 118.848 248.648 118.848 247.46V239.144H117.308V237.692H118.848V235.382L120.63 234.568V237.692H122.94ZM131.935 237.692H133.871L128.833 251.376C128.247 252.931 127.271 253.708 125.907 253.708C125.262 253.708 124.697 253.561 124.213 253.268L124.565 251.706C124.932 251.853 125.291 251.926 125.643 251.926C126.347 251.926 126.839 251.559 127.117 250.826L127.799 249.022L123.971 237.692H125.907L128.789 246.492L131.935 237.692ZM135.504 253.708V237.692H137.176V239.43C138.012 238.11 139.215 237.45 140.784 237.45C142.383 237.45 143.615 238.066 144.48 239.298C145.243 240.369 145.624 241.777 145.624 243.522C145.624 245.385 145.125 246.837 144.128 247.878C143.263 248.787 142.141 249.242 140.762 249.242C139.369 249.242 138.217 248.736 137.308 247.724V253.708H135.504ZM140.476 239.122C139.523 239.122 138.753 239.511 138.166 240.288C137.594 241.065 137.308 242.107 137.308 243.412C137.308 244.761 137.638 245.817 138.298 246.58C138.855 247.225 139.581 247.548 140.476 247.548C141.473 247.548 142.265 247.174 142.852 246.426C143.453 245.663 143.754 244.659 143.754 243.412C143.754 242.033 143.417 240.948 142.742 240.156C142.141 239.467 141.385 239.122 140.476 239.122ZM157.414 243.874H149.076C149.09 244.842 149.296 245.612 149.692 246.184C150.322 247.108 151.232 247.57 152.42 247.57C153.886 247.57 154.876 246.873 155.39 245.48H157.194C156.959 246.668 156.416 247.592 155.566 248.252C154.715 248.912 153.644 249.242 152.354 249.242C150.638 249.242 149.325 248.655 148.416 247.482C147.609 246.455 147.206 245.099 147.206 243.412C147.206 241.461 147.734 239.943 148.79 238.858C149.714 237.919 150.909 237.45 152.376 237.45C153.446 237.45 154.385 237.707 155.192 238.22C156.013 238.733 156.6 239.437 156.952 240.332C157.26 241.095 157.414 242.253 157.414 243.808V243.874ZM155.478 242.4C155.478 241.417 155.184 240.625 154.598 240.024C154.026 239.408 153.285 239.1 152.376 239.1C151.452 239.1 150.696 239.401 150.11 240.002C149.538 240.589 149.215 241.388 149.142 242.4H155.478Z" fill="white"/>
<path d="M125.426 369.006C127.861 369.006 129.782 369.849 131.19 371.536C132.407 373.003 133.016 374.865 133.016 377.124C133.016 379.72 132.231 381.773 130.662 383.284C129.283 384.589 127.538 385.242 125.426 385.242C122.977 385.242 121.048 384.399 119.64 382.712C118.423 381.245 117.814 379.383 117.814 377.124C117.814 374.528 118.606 372.475 120.19 370.964C121.554 369.659 123.299 369.006 125.426 369.006ZM125.404 370.788C123.615 370.788 122.199 371.441 121.158 372.746C120.263 373.89 119.816 375.349 119.816 377.124C119.816 379.163 120.395 380.769 121.554 381.942C122.566 382.954 123.849 383.46 125.404 383.46C127.208 383.46 128.631 382.807 129.672 381.502C130.567 380.358 131.014 378.899 131.014 377.124C131.014 375.085 130.435 373.479 129.276 372.306C128.264 371.294 126.973 370.788 125.404 370.788ZM135.319 373.692H136.991V375.606C137.9 374.169 139.147 373.45 140.731 373.45C141.831 373.45 142.703 373.729 143.349 374.286C143.994 374.829 144.317 375.562 144.317 376.486V385H142.535V377.212C142.535 376.537 142.322 376.002 141.897 375.606C141.486 375.21 140.921 375.012 140.203 375.012C139.264 375.012 138.516 375.357 137.959 376.046C137.401 376.735 137.123 377.652 137.123 378.796V385H135.319V373.692ZM155.975 377.476H154.171C153.951 375.892 153.056 375.1 151.487 375.1C150.504 375.1 149.734 375.489 149.177 376.266C148.619 377.043 148.341 378.121 148.341 379.5C148.341 380.864 148.671 381.905 149.331 382.624C149.888 383.255 150.636 383.57 151.575 383.57C153.085 383.57 153.987 382.749 154.281 381.106H156.107C155.989 382.514 155.483 383.577 154.589 384.296C153.811 384.927 152.792 385.242 151.531 385.242C149.873 385.242 148.583 384.655 147.659 383.482C146.867 382.47 146.471 381.143 146.471 379.5C146.471 377.535 146.991 375.995 148.033 374.88C148.927 373.927 150.086 373.45 151.509 373.45C153.151 373.45 154.383 374 155.205 375.1C155.63 375.672 155.887 376.464 155.975 377.476ZM167.683 379.874H159.345C159.36 380.842 159.565 381.612 159.961 382.184C160.592 383.108 161.501 383.57 162.689 383.57C164.156 383.57 165.146 382.873 165.659 381.48H167.463C167.229 382.668 166.686 383.592 165.835 384.252C164.985 384.912 163.914 385.242 162.623 385.242C160.907 385.242 159.595 384.655 158.685 383.482C157.879 382.455 157.475 381.099 157.475 379.412C157.475 377.461 158.003 375.943 159.059 374.858C159.983 373.919 161.179 373.45 162.645 373.45C163.716 373.45 164.655 373.707 165.461 374.22C166.283 374.733 166.869 375.437 167.221 376.332C167.529 377.095 167.683 378.253 167.683 379.808V379.874ZM165.747 378.4C165.747 377.417 165.454 376.625 164.867 376.024C164.295 375.408 163.555 375.1 162.645 375.1C161.721 375.1 160.966 375.401 160.379 376.002C159.807 376.589 159.485 377.388 159.411 378.4H165.747ZM184.216 383.482V384.934C183.717 385.11 183.329 385.198 183.05 385.198C181.877 385.198 181.239 384.663 181.136 383.592C180.329 384.692 179.046 385.242 177.286 385.242C176.069 385.242 175.123 384.905 174.448 384.23C173.861 383.643 173.568 382.888 173.568 381.964C173.568 380.908 173.942 380.094 174.69 379.522C175.115 379.199 176.003 378.884 177.352 378.576L181.048 377.74L181.07 376.794C181.07 375.665 180.219 375.1 178.518 375.1C176.89 375.1 176.017 375.76 175.9 377.08H174.074C174.118 376.083 174.367 375.32 174.822 374.792C175.599 373.897 176.861 373.45 178.606 373.45C181.437 373.45 182.852 374.477 182.852 376.53V382.844C182.852 383.401 183.094 383.68 183.578 383.68C183.637 383.68 183.791 383.636 184.04 383.548C184.128 383.519 184.187 383.497 184.216 383.482ZM181.07 379.214L178.166 379.962C177.125 380.226 176.406 380.497 176.01 380.776C175.629 381.055 175.438 381.443 175.438 381.942C175.438 383.101 176.186 383.68 177.682 383.68C178.738 383.68 179.633 383.335 180.366 382.646C180.835 382.221 181.07 381.737 181.07 381.194V379.214ZM185.842 389.708V373.692H187.514V375.43C188.35 374.11 189.552 373.45 191.122 373.45C192.72 373.45 193.952 374.066 194.818 375.298C195.58 376.369 195.962 377.777 195.962 379.522C195.962 381.385 195.463 382.837 194.466 383.878C193.6 384.787 192.478 385.242 191.1 385.242C189.706 385.242 188.555 384.736 187.646 383.724V389.708H185.842ZM190.814 375.122C189.86 375.122 189.09 375.511 188.504 376.288C187.932 377.065 187.646 378.107 187.646 379.412C187.646 380.761 187.976 381.817 188.636 382.58C189.193 383.225 189.919 383.548 190.814 383.548C191.811 383.548 192.603 383.174 193.19 382.426C193.791 381.663 194.092 380.659 194.092 379.412C194.092 378.033 193.754 376.948 193.08 376.156C192.478 375.467 191.723 375.122 190.814 375.122ZM197.852 389.708V373.692H199.524V375.43C200.36 374.11 201.562 373.45 203.132 373.45C204.73 373.45 205.962 374.066 206.828 375.298C207.59 376.369 207.972 377.777 207.972 379.522C207.972 381.385 207.473 382.837 206.476 383.878C205.61 384.787 204.488 385.242 203.11 385.242C201.716 385.242 200.565 384.736 199.656 383.724V389.708H197.852ZM202.824 375.122C201.87 375.122 201.1 375.511 200.514 376.288C199.942 377.065 199.656 378.107 199.656 379.412C199.656 380.761 199.986 381.817 200.646 382.58C201.203 383.225 201.929 383.548 202.824 383.548C203.821 383.548 204.613 383.174 205.2 382.426C205.801 381.663 206.102 380.659 206.102 379.412C206.102 378.033 205.764 376.948 205.09 376.156C204.488 375.467 203.733 375.122 202.824 375.122ZM210.191 373.692H211.863V375.76C212.523 374.205 213.565 373.428 214.987 373.428C215.163 373.428 215.376 373.45 215.625 373.494V375.342C214.452 375.357 213.645 375.525 213.205 375.848C212.399 376.435 211.995 377.527 211.995 379.126V385H210.191V373.692ZM221.833 373.45C223.534 373.45 224.832 374.044 225.727 375.232C226.519 376.259 226.915 377.652 226.915 379.412C226.915 381.377 226.401 382.873 225.375 383.9C224.495 384.795 223.307 385.242 221.811 385.242C220.08 385.242 218.76 384.663 217.851 383.504C217.059 382.492 216.663 381.128 216.663 379.412C216.663 377.417 217.183 375.885 218.225 374.814C219.119 373.905 220.322 373.45 221.833 373.45ZM221.833 375.1C220.806 375.1 219.999 375.489 219.413 376.266C218.826 377.029 218.533 378.077 218.533 379.412C218.533 380.805 218.863 381.869 219.523 382.602C220.095 383.247 220.857 383.57 221.811 383.57C222.823 383.57 223.607 383.203 224.165 382.47C224.737 381.737 225.023 380.717 225.023 379.412C225.023 377.975 224.7 376.875 224.055 376.112C223.497 375.437 222.757 375.1 221.833 375.1ZM234.062 385H232.104L228.122 373.692H230.168L233.16 382.844L236.372 373.692H238.396L234.062 385ZM249.775 379.874H241.437C241.452 380.842 241.657 381.612 242.053 382.184C242.684 383.108 243.593 383.57 244.781 383.57C246.248 383.57 247.238 382.873 247.751 381.48H249.555C249.32 382.668 248.778 383.592 247.927 384.252C247.076 384.912 246.006 385.242 244.715 385.242C242.999 385.242 241.686 384.655 240.777 383.482C239.97 382.455 239.567 381.099 239.567 379.412C239.567 377.461 240.095 375.943 241.151 374.858C242.075 373.919 243.27 373.45 244.737 373.45C245.808 373.45 246.746 373.707 247.553 374.22C248.374 374.733 248.961 375.437 249.313 376.332C249.621 377.095 249.775 378.253 249.775 379.808V379.874ZM247.839 378.4C247.839 377.417 247.546 376.625 246.959 376.024C246.387 375.408 245.646 375.1 244.737 375.1C243.813 375.1 243.058 375.401 242.471 376.002C241.899 376.589 241.576 377.388 241.503 378.4H247.839ZM261.433 369.248V385H259.629V383.438C258.91 384.655 257.795 385.264 256.285 385.264C254.627 385.264 253.351 384.663 252.457 383.46C251.679 382.404 251.291 381.011 251.291 379.28C251.291 377.388 251.797 375.907 252.809 374.836C253.674 373.912 254.796 373.45 256.175 373.45C257.7 373.45 258.851 374.022 259.629 375.166V369.248H261.433ZM256.483 375.122C255.485 375.122 254.679 375.518 254.063 376.31C253.461 377.087 253.161 378.121 253.161 379.412C253.161 380.747 253.513 381.795 254.217 382.558C254.818 383.233 255.581 383.57 256.505 383.57C257.458 383.57 258.213 383.196 258.771 382.448C259.343 381.7 259.629 380.688 259.629 379.412C259.629 378.019 259.306 376.933 258.661 376.156C258.089 375.467 257.363 375.122 256.483 375.122ZM272.334 373.692V375.144H270.464V385H268.682V375.144H267.164V373.692H268.682V371.756C268.682 370.949 268.909 370.319 269.364 369.864C269.833 369.409 270.486 369.182 271.322 369.182C271.644 369.182 271.982 369.219 272.334 369.292V370.788H272.136C271.974 370.773 271.835 370.766 271.718 370.766C270.882 370.766 270.464 371.147 270.464 371.91V373.692H272.334ZM283.189 385H281.407V383.218C280.601 384.567 279.398 385.242 277.799 385.242C276.699 385.242 275.819 384.971 275.159 384.428C274.514 383.871 274.191 383.13 274.191 382.206V373.692H275.973V381.48C275.973 382.14 276.186 382.668 276.611 383.064C277.037 383.46 277.609 383.658 278.327 383.658C279.266 383.658 280.014 383.321 280.571 382.646C281.129 381.957 281.407 381.033 281.407 379.874V373.692H283.189V385ZM286.311 373.692H287.983V375.606C288.892 374.169 290.139 373.45 291.723 373.45C292.823 373.45 293.696 373.729 294.341 374.286C294.986 374.829 295.309 375.562 295.309 376.486V385H293.527V377.212C293.527 376.537 293.314 376.002 292.889 375.606C292.478 375.21 291.914 375.012 291.195 375.012C290.256 375.012 289.508 375.357 288.951 376.046C288.394 376.735 288.115 377.652 288.115 378.796V385H286.311V373.692ZM307.517 369.248V385H305.713V383.438C304.994 384.655 303.879 385.264 302.369 385.264C300.711 385.264 299.435 384.663 298.541 383.46C297.763 382.404 297.375 381.011 297.375 379.28C297.375 377.388 297.881 375.907 298.893 374.836C299.758 373.912 300.88 373.45 302.259 373.45C303.784 373.45 304.935 374.022 305.713 375.166V369.248H307.517ZM302.567 375.122C301.569 375.122 300.763 375.518 300.147 376.31C299.545 377.087 299.245 378.121 299.245 379.412C299.245 380.747 299.597 381.795 300.301 382.558C300.902 383.233 301.665 383.57 302.589 383.57C303.542 383.57 304.297 383.196 304.855 382.448C305.427 381.7 305.713 380.688 305.713 379.412C305.713 378.019 305.39 376.933 304.745 376.156C304.173 375.467 303.447 375.122 302.567 375.122ZM321.256 373.692H323.192L318.154 387.376C317.567 388.931 316.592 389.708 315.228 389.708C314.582 389.708 314.018 389.561 313.534 389.268L313.886 387.706C314.252 387.853 314.612 387.926 314.964 387.926C315.668 387.926 316.159 387.559 316.438 386.826L317.12 385.022L313.292 373.692H315.228L318.11 382.492L321.256 373.692ZM329.598 373.45C331.3 373.45 332.598 374.044 333.492 375.232C334.284 376.259 334.68 377.652 334.68 379.412C334.68 381.377 334.167 382.873 333.14 383.9C332.26 384.795 331.072 385.242 329.576 385.242C327.846 385.242 326.526 384.663 325.616 383.504C324.824 382.492 324.428 381.128 324.428 379.412C324.428 377.417 324.949 375.885 325.99 374.814C326.885 373.905 328.088 373.45 329.598 373.45ZM329.598 375.1C328.572 375.1 327.765 375.489 327.178 376.266C326.592 377.029 326.298 378.077 326.298 379.412C326.298 380.805 326.628 381.869 327.288 382.602C327.86 383.247 328.623 383.57 329.576 383.57C330.588 383.57 331.373 383.203 331.93 382.47C332.502 381.737 332.788 380.717 332.788 379.412C332.788 377.975 332.466 376.875 331.82 376.112C331.263 375.437 330.522 375.1 329.598 375.1ZM346.074 385H344.292V383.218C343.485 384.567 342.283 385.242 340.684 385.242C339.584 385.242 338.704 384.971 338.044 384.428C337.399 383.871 337.076 383.13 337.076 382.206V373.692H338.858V381.48C338.858 382.14 339.071 382.668 339.496 383.064C339.921 383.46 340.493 383.658 341.212 383.658C342.151 383.658 342.899 383.321 343.456 382.646C344.013 381.957 344.292 381.033 344.292 379.874V373.692H346.074V385ZM349.174 373.692H350.846V375.76C351.506 374.205 352.547 373.428 353.97 373.428C354.146 373.428 354.358 373.45 354.608 373.494V375.342C353.434 375.357 352.628 375.525 352.188 375.848C351.381 376.435 350.978 377.527 350.978 379.126V385H349.174V373.692ZM128.55 408.482V409.934C128.051 410.11 127.663 410.198 127.384 410.198C126.211 410.198 125.573 409.663 125.47 408.592C124.663 409.692 123.38 410.242 121.62 410.242C120.403 410.242 119.457 409.905 118.782 409.23C118.195 408.643 117.902 407.888 117.902 406.964C117.902 405.908 118.276 405.094 119.024 404.522C119.449 404.199 120.337 403.884 121.686 403.576L125.382 402.74L125.404 401.794C125.404 400.665 124.553 400.1 122.852 400.1C121.224 400.1 120.351 400.76 120.234 402.08H118.408C118.452 401.083 118.701 400.32 119.156 399.792C119.933 398.897 121.195 398.45 122.94 398.45C125.771 398.45 127.186 399.477 127.186 401.53V407.844C127.186 408.401 127.428 408.68 127.912 408.68C127.971 408.68 128.125 408.636 128.374 408.548C128.462 408.519 128.521 408.497 128.55 408.482ZM125.404 404.214L122.5 404.962C121.459 405.226 120.74 405.497 120.344 405.776C119.963 406.055 119.772 406.443 119.772 406.942C119.772 408.101 120.52 408.68 122.016 408.68C123.072 408.68 123.967 408.335 124.7 407.646C125.169 407.221 125.404 406.737 125.404 406.194V404.214ZM139.174 402.476H137.37C137.15 400.892 136.255 400.1 134.686 400.1C133.703 400.1 132.933 400.489 132.376 401.266C131.818 402.043 131.54 403.121 131.54 404.5C131.54 405.864 131.87 406.905 132.53 407.624C133.087 408.255 133.835 408.57 134.774 408.57C136.284 408.57 137.186 407.749 137.48 406.106H139.306C139.188 407.514 138.682 408.577 137.788 409.296C137.01 409.927 135.991 410.242 134.73 410.242C133.072 410.242 131.782 409.655 130.858 408.482C130.066 407.47 129.67 406.143 129.67 404.5C129.67 402.535 130.19 400.995 131.232 399.88C132.126 398.927 133.285 398.45 134.708 398.45C136.35 398.45 137.582 399 138.404 400.1C138.829 400.672 139.086 401.464 139.174 402.476ZM149.98 402.476H148.176C147.956 400.892 147.062 400.1 145.492 400.1C144.51 400.1 143.74 400.489 143.182 401.266C142.625 402.043 142.346 403.121 142.346 404.5C142.346 405.864 142.676 406.905 143.336 407.624C143.894 408.255 144.642 408.57 145.58 408.57C147.091 408.57 147.993 407.749 148.286 406.106H150.112C149.995 407.514 149.489 408.577 148.594 409.296C147.817 409.927 146.798 410.242 145.536 410.242C143.879 410.242 142.588 409.655 141.664 408.482C140.872 407.47 140.476 406.143 140.476 404.5C140.476 402.535 140.997 400.995 142.038 399.88C142.933 398.927 144.092 398.45 145.514 398.45C147.157 398.45 148.389 399 149.21 400.1C149.636 400.672 149.892 401.464 149.98 402.476ZM156.563 398.45C158.264 398.45 159.562 399.044 160.457 400.232C161.249 401.259 161.645 402.652 161.645 404.412C161.645 406.377 161.132 407.873 160.105 408.9C159.225 409.795 158.037 410.242 156.541 410.242C154.81 410.242 153.49 409.663 152.581 408.504C151.789 407.492 151.393 406.128 151.393 404.412C151.393 402.417 151.914 400.885 152.955 399.814C153.85 398.905 155.052 398.45 156.563 398.45ZM156.563 400.1C155.536 400.1 154.73 400.489 154.143 401.266C153.556 402.029 153.263 403.077 153.263 404.412C153.263 405.805 153.593 406.869 154.253 407.602C154.825 408.247 155.588 408.57 156.541 408.57C157.553 408.57 158.338 408.203 158.895 407.47C159.467 406.737 159.753 405.717 159.753 404.412C159.753 402.975 159.43 401.875 158.785 401.112C158.228 400.437 157.487 400.1 156.563 400.1ZM173.039 410H171.257V408.218C170.45 409.567 169.247 410.242 167.649 410.242C166.549 410.242 165.669 409.971 165.009 409.428C164.363 408.871 164.041 408.13 164.041 407.206V398.692H165.823V406.48C165.823 407.14 166.035 407.668 166.461 408.064C166.886 408.46 167.458 408.658 168.177 408.658C169.115 408.658 169.863 408.321 170.421 407.646C170.978 406.957 171.257 406.033 171.257 404.874V398.692H173.039V410ZM176.161 398.692H177.833V400.606C178.742 399.169 179.989 398.45 181.573 398.45C182.673 398.45 183.545 398.729 184.191 399.286C184.836 399.829 185.159 400.562 185.159 401.486V410H183.377V402.212C183.377 401.537 183.164 401.002 182.739 400.606C182.328 400.21 181.763 400.012 181.045 400.012C180.106 400.012 179.358 400.357 178.801 401.046C178.243 401.735 177.965 402.652 177.965 403.796V410H176.161V398.692ZM192.592 398.692V400.144H190.282V407.668C190.282 407.932 190.37 408.159 190.546 408.35C190.737 408.526 190.979 408.614 191.272 408.614C191.551 408.614 191.976 408.548 192.548 408.416L192.746 410C191.837 410.161 191.148 410.242 190.678 410.242C189.226 410.242 188.5 409.648 188.5 408.46V400.144H186.96V398.692H188.5V396.382L190.282 395.568V398.692H192.592ZM208.773 408.482V409.934C208.274 410.11 207.885 410.198 207.607 410.198C206.433 410.198 205.795 409.663 205.693 408.592C204.886 409.692 203.603 410.242 201.843 410.242C200.625 410.242 199.679 409.905 199.005 409.23C198.418 408.643 198.125 407.888 198.125 406.964C198.125 405.908 198.499 405.094 199.247 404.522C199.672 404.199 200.559 403.884 201.909 403.576L205.605 402.74L205.627 401.794C205.627 400.665 204.776 400.1 203.075 400.1C201.447 400.1 200.574 400.76 200.457 402.08H198.631C198.675 401.083 198.924 400.32 199.379 399.792C200.156 398.897 201.417 398.45 203.163 398.45C205.993 398.45 207.409 399.477 207.409 401.53V407.844C207.409 408.401 207.651 408.68 208.135 408.68C208.193 408.68 208.347 408.636 208.597 408.548C208.685 408.519 208.743 408.497 208.773 408.482ZM205.627 404.214L202.723 404.962C201.681 405.226 200.963 405.497 200.567 405.776C200.185 406.055 199.995 406.443 199.995 406.942C199.995 408.101 200.743 408.68 202.239 408.68C203.295 408.68 204.189 408.335 204.923 407.646C205.392 407.221 205.627 406.737 205.627 406.194V404.214ZM210.75 398.692H212.422V400.606C213.332 399.169 214.578 398.45 216.162 398.45C217.262 398.45 218.135 398.729 218.78 399.286C219.426 399.829 219.748 400.562 219.748 401.486V410H217.966V402.212C217.966 401.537 217.754 401.002 217.328 400.606C216.918 400.21 216.353 400.012 215.634 400.012C214.696 400.012 213.948 400.357 213.39 401.046C212.833 401.735 212.554 402.652 212.554 403.796V410H210.75V398.692ZM231.956 394.248V410H230.152V408.438C229.434 409.655 228.319 410.264 226.808 410.264C225.151 410.264 223.875 409.663 222.98 408.46C222.203 407.404 221.814 406.011 221.814 404.28C221.814 402.388 222.32 400.907 223.332 399.836C224.198 398.912 225.32 398.45 226.698 398.45C228.224 398.45 229.375 399.022 230.152 400.166V394.248H231.956ZM227.006 400.122C226.009 400.122 225.202 400.518 224.586 401.31C223.985 402.087 223.684 403.121 223.684 404.412C223.684 405.747 224.036 406.795 224.74 407.558C225.342 408.233 226.104 408.57 227.028 408.57C227.982 408.57 228.737 408.196 229.294 407.448C229.866 406.7 230.152 405.688 230.152 404.412C230.152 403.019 229.83 401.933 229.184 401.156C228.612 400.467 227.886 400.122 227.006 400.122ZM243.231 398.692V400.144H240.921V407.668C240.921 407.932 241.009 408.159 241.185 408.35C241.376 408.526 241.618 408.614 241.911 408.614C242.19 408.614 242.615 408.548 243.187 408.416L243.385 410C242.476 410.161 241.786 410.242 241.317 410.242C239.865 410.242 239.139 409.648 239.139 408.46V400.144H237.599V398.692H239.139V396.382L240.921 395.568V398.692H243.231ZM245.318 398.692H246.99V400.76C247.65 399.205 248.692 398.428 250.114 398.428C250.29 398.428 250.503 398.45 250.752 398.494V400.342C249.579 400.357 248.772 400.525 248.332 400.848C247.526 401.435 247.122 402.527 247.122 404.126V410H245.318V398.692ZM262.57 408.482V409.934C262.071 410.11 261.682 410.198 261.404 410.198C260.23 410.198 259.592 409.663 259.49 408.592C258.683 409.692 257.4 410.242 255.64 410.242C254.422 410.242 253.476 409.905 252.802 409.23C252.215 408.643 251.922 407.888 251.922 406.964C251.922 405.908 252.296 405.094 253.044 404.522C253.469 404.199 254.356 403.884 255.706 403.576L259.402 402.74L259.424 401.794C259.424 400.665 258.573 400.1 256.872 400.1C255.244 400.1 254.371 400.76 254.254 402.08H252.428C252.472 401.083 252.721 400.32 253.176 399.792C253.953 398.897 255.214 398.45 256.96 398.45C259.79 398.45 261.206 399.477 261.206 401.53V407.844C261.206 408.401 261.448 408.68 261.932 408.68C261.99 408.68 262.144 408.636 262.394 408.548C262.482 408.519 262.54 408.497 262.57 408.482ZM259.424 404.214L256.52 404.962C255.478 405.226 254.76 405.497 254.364 405.776C253.982 406.055 253.792 406.443 253.792 406.942C253.792 408.101 254.54 408.68 256.036 408.68C257.092 408.68 257.986 408.335 258.72 407.646C259.189 407.221 259.424 406.737 259.424 406.194V404.214ZM273.743 394.248V410H271.939V408.438C271.221 409.655 270.106 410.264 268.595 410.264C266.938 410.264 265.662 409.663 264.767 408.46C263.99 407.404 263.601 406.011 263.601 404.28C263.601 402.388 264.107 400.907 265.119 399.836C265.985 398.912 267.107 398.45 268.485 398.45C270.011 398.45 271.162 399.022 271.939 400.166V394.248H273.743ZM268.793 400.122C267.796 400.122 266.989 400.518 266.373 401.31C265.772 402.087 265.471 403.121 265.471 404.412C265.471 405.747 265.823 406.795 266.527 407.558C267.129 408.233 267.891 408.57 268.815 408.57C269.769 408.57 270.524 408.196 271.081 407.448C271.653 406.7 271.939 405.688 271.939 404.412C271.939 403.019 271.617 401.933 270.971 401.156C270.399 400.467 269.673 400.122 268.793 400.122ZM286.105 404.874H277.767C277.782 405.842 277.987 406.612 278.383 407.184C279.014 408.108 279.923 408.57 281.111 408.57C282.578 408.57 283.568 407.873 284.081 406.48H285.885C285.65 407.668 285.108 408.592 284.257 409.252C283.406 409.912 282.336 410.242 281.045 410.242C279.329 410.242 278.016 409.655 277.107 408.482C276.3 407.455 275.897 406.099 275.897 404.412C275.897 402.461 276.425 400.943 277.481 399.858C278.405 398.919 279.6 398.45 281.067 398.45C282.138 398.45 283.076 398.707 283.883 399.22C284.704 399.733 285.291 400.437 285.643 401.332C285.951 402.095 286.105 403.253 286.105 404.808V404.874ZM284.169 403.4C284.169 402.417 283.876 401.625 283.289 401.024C282.717 400.408 281.976 400.1 281.067 400.1C280.143 400.1 279.388 400.401 278.801 401.002C278.229 401.589 277.906 402.388 277.833 403.4H284.169Z" fill="white"/>
</svg>
