<svg width="1092" height="313" viewBox="0 0 1092 313" fill="none" xmlns="http://www.w3.org/2000/svg">
<rect width="1092" height="313" rx="30" fill="#49BEB7"/>
<path d="M51.68 96H46.4L41.56 73.68L36.92 96H31.6L23.52 67.36H29.76L34.2 88.84L38.64 67.36H44.44L49.08 88.88L53.36 67.36H59.6L51.68 96ZM80.6703 94.6V96H74.6703C74.2703 95.4933 74.057 94.7733 74.0303 93.84C72.5636 95.5733 70.4303 96.44 67.6303 96.44C65.577 96.44 63.9236 95.8133 62.6703 94.56C61.657 93.5467 61.1503 92.1467 61.1503 90.36C61.1503 87.6933 62.217 85.8 64.3503 84.68C65.257 84.2 67.057 83.72 69.7503 83.24L74.0703 82.44L74.0303 80.92C74.0036 79.5067 72.937 78.8 70.8303 78.8C69.4703 78.8 68.5103 79.0133 67.9503 79.44C67.417 79.84 67.0836 80.5867 66.9503 81.68H61.6703C61.9903 76.8 65.0036 74.36 70.7103 74.36C73.857 74.36 76.1236 74.92 77.5103 76.04C78.7636 77.1067 79.3903 78.72 79.3903 80.88V92.72C79.3903 93.68 79.817 94.3067 80.6703 94.6ZM74.0703 85.76L70.0303 86.68C68.8836 86.9467 68.0303 87.3333 67.4703 87.84C66.937 88.3467 66.6703 88.9733 66.6703 89.72C66.6703 91.24 67.657 92 69.6303 92C72.4836 92 73.9503 90.44 74.0303 87.32L74.0703 85.76ZM84.3863 74.8H89.9063V77.8C91.3996 75.5067 93.5063 74.36 96.2263 74.36C98.6529 74.36 100.493 75.08 101.746 76.52C102.813 77.8 103.346 79.5333 103.346 81.72V96H97.8663V82.84C97.8663 80.3067 96.6796 79.04 94.3063 79.04C92.9729 79.04 91.9063 79.4267 91.1063 80.2C90.3063 80.9467 89.9063 81.9467 89.9063 83.2V96H84.3863V74.8ZM108.41 74.8H113.93V77.8C115.423 75.5067 117.53 74.36 120.25 74.36C122.676 74.36 124.516 75.08 125.77 76.52C126.836 77.8 127.37 79.5333 127.37 81.72V96H121.89V82.84C121.89 80.3067 120.703 79.04 118.33 79.04C116.996 79.04 115.93 79.4267 115.13 80.2C114.33 80.9467 113.93 81.9467 113.93 83.2V96H108.41V74.8ZM150.553 94.6V96H144.553C144.153 95.4933 143.94 94.7733 143.913 93.84C142.446 95.5733 140.313 96.44 137.513 96.44C135.46 96.44 133.806 95.8133 132.553 94.56C131.54 93.5467 131.033 92.1467 131.033 90.36C131.033 87.6933 132.1 85.8 134.233 84.68C135.14 84.2 136.94 83.72 139.633 83.24L143.953 82.44L143.913 80.92C143.886 79.5067 142.82 78.8 140.713 78.8C139.353 78.8 138.393 79.0133 137.833 79.44C137.3 79.84 136.966 80.5867 136.833 81.68H131.553C131.873 76.8 134.886 74.36 140.593 74.36C143.74 74.36 146.006 74.92 147.393 76.04C148.646 77.1067 149.273 78.72 149.273 80.88V92.72C149.273 93.68 149.7 94.3067 150.553 94.6ZM143.953 85.76L139.913 86.68C138.766 86.9467 137.913 87.3333 137.353 87.84C136.82 88.3467 136.553 88.9733 136.553 89.72C136.553 91.24 137.54 92 139.513 92C142.366 92 143.833 90.44 143.913 87.32L143.953 85.76ZM171.653 74.8V78.44H167.933V90.24C167.933 91.0133 168.066 91.5467 168.333 91.84C168.626 92.1333 169.146 92.28 169.893 92.28C170.506 92.28 171.293 92.04 172.253 91.56C172.333 91.5067 172.399 91.4667 172.453 91.44L173.093 95.2C171.413 96.0267 169.653 96.44 167.813 96.44C164.213 96.44 162.413 94.7867 162.413 91.48V78.44H159.693V74.8H162.413V71.28L167.933 68.12V74.8H171.653ZM194.772 94.6V96H188.772C188.372 95.4933 188.159 94.7733 188.132 93.84C186.665 95.5733 184.532 96.44 181.732 96.44C179.679 96.44 178.025 95.8133 176.772 94.56C175.759 93.5467 175.252 92.1467 175.252 90.36C175.252 87.6933 176.319 85.8 178.452 84.68C179.359 84.2 181.159 83.72 183.852 83.24L188.172 82.44L188.132 80.92C188.105 79.5067 187.039 78.8 184.932 78.8C183.572 78.8 182.612 79.0133 182.052 79.44C181.519 79.84 181.185 80.5867 181.052 81.68H175.772C176.092 76.8 179.105 74.36 184.812 74.36C187.959 74.36 190.225 74.92 191.612 76.04C192.865 77.1067 193.492 78.72 193.492 80.88V92.72C193.492 93.68 193.919 94.3067 194.772 94.6ZM188.172 85.76L184.132 86.68C182.985 86.9467 182.132 87.3333 181.572 87.84C181.039 88.3467 180.772 88.9733 180.772 89.72C180.772 91.24 181.759 92 183.732 92C186.585 92 188.052 90.44 188.132 87.32L188.172 85.76ZM204.088 67.36V96H198.568V67.36H204.088ZM214.945 83.04L221.865 74.8H228.145L220.905 82.8L228.625 96H222.185L217.105 86.64L214.945 89.04V96H209.425V67.36H214.945V83.04ZM243.458 88.28H238.578V87.36C238.604 86 238.911 84.8 239.497 83.76C240.084 82.72 241.084 81.6267 242.498 80.48C243.644 79.5467 244.391 78.8133 244.738 78.28C245.084 77.72 245.258 76.9867 245.258 76.08C245.258 74.8 244.858 73.7333 244.058 72.88C243.284 72 242.311 71.56 241.138 71.56C239.884 71.56 238.844 72.0533 238.018 73.04C237.218 74 236.818 75.24 236.818 76.76V77.28H231.458C231.511 74.2933 232.124 72.0133 233.298 70.44C235.031 68.0933 237.604 66.92 241.018 66.92C244.138 66.92 246.604 67.8667 248.418 69.76C249.991 71.4133 250.778 73.5067 250.778 76.04C250.778 77.6667 250.444 79.0133 249.778 80.08C249.138 81.12 247.898 82.2933 246.058 83.6C244.831 84.4533 244.084 85.12 243.818 85.6C243.578 86.0533 243.458 86.9467 243.458 88.28ZM241.098 91.04C241.844 91.04 242.458 91.2933 242.938 91.8C243.444 92.28 243.698 92.88 243.698 93.6C243.698 94.32 243.444 94.9333 242.938 95.44C242.431 95.9467 241.818 96.2 241.098 96.2C240.404 96.2 239.804 95.9467 239.298 95.44C238.791 94.9333 238.538 94.32 238.538 93.6C238.538 92.88 238.791 92.28 239.298 91.8C239.804 91.2933 240.404 91.04 241.098 91.04Z" fill="#020202"/>
<path d="M31.88 137.64V149H26V120.36H41.36C43.7867 120.36 45.64 121.013 46.92 122.32C48.36 123.787 49.08 125.72 49.08 128.12C49.08 131.587 47.4533 133.947 44.2 135.2C46.04 135.92 47.16 136.813 47.56 137.88C47.8533 138.653 48.0667 141.227 48.2 145.6C48.2267 146.693 48.64 147.467 49.44 147.92V149H43.12C42.5333 147.907 42.24 146.293 42.24 144.16C42.24 143.627 42.2533 142.973 42.28 142.2C42.28 141.667 42.28 141.28 42.28 141.04C42.28 138.773 41.0667 137.64 38.64 137.64H31.88ZM31.88 132.72H39C40.4933 132.72 41.5333 132.48 42.12 132C42.84 131.387 43.2 130.373 43.2 128.96C43.2 127.6 42.84 126.627 42.12 126.04C41.5067 125.533 40.4667 125.28 39 125.28H31.88V132.72ZM72.1622 139.84H57.9222C58.0022 141.547 58.2689 142.76 58.7222 143.48C59.4955 144.653 60.7089 145.24 62.3622 145.24C64.4155 145.24 65.7889 144.387 66.4822 142.68H71.9222C71.3089 144.76 70.1089 146.413 68.3222 147.64C66.5622 148.84 64.4955 149.44 62.1222 149.44C58.8955 149.44 56.4155 148.36 54.6822 146.2C53.1622 144.307 52.4022 141.813 52.4022 138.72C52.4022 134.96 53.3889 132.053 55.3622 130C57.0955 128.24 59.3755 127.36 62.2022 127.36C64.3622 127.36 66.2555 127.893 67.8822 128.96C69.5089 130.027 70.6689 131.52 71.3622 133.44C71.9222 134.933 72.2022 136.733 72.2022 138.84C72.2022 139.107 72.1889 139.44 72.1622 139.84ZM66.4422 136.2C66.1755 133.107 64.7489 131.56 62.1622 131.56C59.7355 131.56 58.3489 133.107 58.0022 136.2H66.4422ZM89.5459 127.8H95.0659V157.56H89.5459V146.44C88.2393 148.44 86.2793 149.44 83.6659 149.44C80.8926 149.44 78.6659 148.293 76.9859 146C75.5193 144 74.7859 141.52 74.7859 138.56C74.7859 135.413 75.5459 132.787 77.0659 130.68C77.7859 129.693 78.7459 128.893 79.9459 128.28C81.1459 127.667 82.3859 127.36 83.6659 127.36C86.2793 127.36 88.2393 128.52 89.5459 130.84V127.8ZM84.9459 131.96C83.5593 131.96 82.4393 132.56 81.5859 133.76C80.7326 134.933 80.3059 136.493 80.3059 138.44C80.3059 140.333 80.7326 141.88 81.5859 143.08C82.4393 144.253 83.5593 144.84 84.9459 144.84C86.3326 144.84 87.4526 144.253 88.3059 143.08C89.1593 141.907 89.5859 140.36 89.5859 138.44C89.5859 136.493 89.1459 134.933 88.2659 133.76C87.4126 132.56 86.3059 131.96 84.9459 131.96ZM118.967 149H113.487V146C111.993 148.293 109.873 149.44 107.127 149.44C104.7 149.44 102.86 148.72 101.607 147.28C100.54 146.027 100.007 144.307 100.007 142.12V127.8H105.527V140.96C105.527 143.493 106.7 144.76 109.047 144.76C110.38 144.76 111.447 144.387 112.247 143.64C113.073 142.893 113.487 141.88 113.487 140.6V127.8H118.967V149ZM142.631 139.84H128.391C128.471 141.547 128.738 142.76 129.191 143.48C129.964 144.653 131.178 145.24 132.831 145.24C134.884 145.24 136.258 144.387 136.951 142.68H142.391C141.778 144.76 140.578 146.413 138.791 147.64C137.031 148.84 134.964 149.44 132.591 149.44C129.364 149.44 126.884 148.36 125.151 146.2C123.631 144.307 122.871 141.813 122.871 138.72C122.871 134.96 123.858 132.053 125.831 130C127.564 128.24 129.844 127.36 132.671 127.36C134.831 127.36 136.724 127.893 138.351 128.96C139.978 130.027 141.138 131.52 141.831 133.44C142.391 134.933 142.671 136.733 142.671 138.84C142.671 139.107 142.658 139.44 142.631 139.84ZM136.911 136.2C136.644 133.107 135.218 131.56 132.631 131.56C130.204 131.56 128.818 133.107 128.471 136.2H136.911ZM164.175 134.04H158.575C158.548 133.187 158.241 132.587 157.655 132.24C157.068 131.867 156.055 131.68 154.615 131.68C152.508 131.68 151.455 132.293 151.455 133.52C151.455 134.24 152.095 134.773 153.375 135.12L160.335 137.08C163.108 137.853 164.495 139.613 164.495 142.36C164.495 144.52 163.655 146.267 161.975 147.6C160.401 148.827 158.135 149.44 155.175 149.44C151.548 149.44 148.948 148.907 147.375 147.84C145.828 146.827 145.001 145.187 144.895 142.92H150.375C150.535 143.8 150.908 144.387 151.495 144.68C152.108 144.973 153.228 145.12 154.855 145.12C157.601 145.12 158.975 144.467 158.975 143.16C158.975 142.387 158.361 141.813 157.135 141.44L150.575 139.44C148.895 138.933 147.748 138.347 147.135 137.68C146.335 136.853 145.935 135.733 145.935 134.32C145.935 132 146.815 130.213 148.575 128.96C150.121 127.893 152.148 127.36 154.655 127.36C157.695 127.36 160.095 128.04 161.855 129.4C163.375 130.6 164.148 132.147 164.175 134.04ZM178.411 127.8V131.44H174.691V143.24C174.691 144.013 174.824 144.547 175.091 144.84C175.384 145.133 175.904 145.28 176.651 145.28C177.264 145.28 178.051 145.04 179.011 144.56C179.091 144.507 179.157 144.467 179.211 144.44L179.851 148.2C178.171 149.027 176.411 149.44 174.571 149.44C170.971 149.44 169.171 147.787 169.171 144.48V131.44H166.451V127.8H169.171V124.28L174.691 121.12V127.8H178.411ZM208.873 147.6V149H202.873C202.473 148.493 202.26 147.773 202.233 146.84C200.767 148.573 198.633 149.44 195.833 149.44C193.78 149.44 192.127 148.813 190.873 147.56C189.86 146.547 189.353 145.147 189.353 143.36C189.353 140.693 190.42 138.8 192.553 137.68C193.46 137.2 195.26 136.72 197.953 136.24L202.273 135.44L202.233 133.92C202.207 132.507 201.14 131.8 199.033 131.8C197.673 131.8 196.713 132.013 196.153 132.44C195.62 132.84 195.287 133.587 195.153 134.68H189.873C190.193 129.8 193.207 127.36 198.913 127.36C202.06 127.36 204.327 127.92 205.713 129.04C206.967 130.107 207.593 131.72 207.593 133.88V145.72C207.593 146.68 208.02 147.307 208.873 147.6ZM202.273 138.76L198.233 139.68C197.087 139.947 196.233 140.333 195.673 140.84C195.14 141.347 194.873 141.973 194.873 142.72C194.873 144.24 195.86 145 197.833 145C200.687 145 202.153 143.44 202.233 140.32L202.273 138.76ZM237.853 135.56H232.613C232.293 134.173 231.826 133.2 231.213 132.64C230.626 132.08 229.786 131.8 228.693 131.8C227.04 131.8 225.893 132.387 225.253 133.56C224.56 134.92 224.213 136.587 224.213 138.56C224.213 140.56 224.6 142.147 225.373 143.32C226.173 144.467 227.266 145.04 228.653 145.04C229.746 145.04 230.586 144.76 231.173 144.2C231.786 143.613 232.266 142.653 232.613 141.32H237.853C237.586 143.987 236.52 146.053 234.653 147.52C233.026 148.827 231.013 149.48 228.613 149.48C225.253 149.48 222.706 148.4 220.973 146.24C219.453 144.373 218.693 141.853 218.693 138.68C218.693 134.84 219.693 131.933 221.693 129.96C223.426 128.227 225.773 127.36 228.733 127.36C231.56 127.36 233.8 128.173 235.453 129.8C236.866 131.24 237.666 133.16 237.853 135.56ZM259.811 147.6V149H253.811C253.411 148.493 253.198 147.773 253.171 146.84C251.704 148.573 249.571 149.44 246.771 149.44C244.718 149.44 243.064 148.813 241.811 147.56C240.798 146.547 240.291 145.147 240.291 143.36C240.291 140.693 241.358 138.8 243.491 137.68C244.398 137.2 246.198 136.72 248.891 136.24L253.211 135.44L253.171 133.92C253.144 132.507 252.078 131.8 249.971 131.8C248.611 131.8 247.651 132.013 247.091 132.44C246.558 132.84 246.224 133.587 246.091 134.68H240.811C241.131 129.8 244.144 127.36 249.851 127.36C252.998 127.36 255.264 127.92 256.651 129.04C257.904 130.107 258.531 131.72 258.531 133.88V145.72C258.531 146.68 258.958 147.307 259.811 147.6ZM253.211 138.76L249.171 139.68C248.024 139.947 247.171 140.333 246.611 140.84C246.078 141.347 245.811 141.973 245.811 142.72C245.811 144.24 246.798 145 248.771 145C251.624 145 253.091 143.44 253.171 140.32L253.211 138.76ZM269.127 120.36V149H263.607V120.36H269.127ZM280.064 120.36V149H274.544V120.36H280.064ZM292.746 120.36H298.266V130.2C299.572 128.307 301.506 127.36 304.066 127.36C306.919 127.36 309.172 128.507 310.826 130.8C312.292 132.827 313.026 135.36 313.026 138.4C313.026 141.867 312.079 144.64 310.186 146.72C308.532 148.533 306.492 149.44 304.066 149.44C301.479 149.44 299.546 148.507 298.266 146.64V149H292.746V120.36ZM302.866 131.96C301.452 131.96 300.319 132.547 299.466 133.72C298.639 134.867 298.226 136.44 298.226 138.44C298.226 140.413 298.639 141.973 299.466 143.12C300.292 144.267 301.426 144.84 302.866 144.84C304.279 144.84 305.399 144.267 306.226 143.12C307.079 141.947 307.506 140.387 307.506 138.44C307.506 136.467 307.079 134.893 306.226 133.72C305.399 132.547 304.279 131.96 302.866 131.96ZM335.006 147.6V149H329.006C328.606 148.493 328.393 147.773 328.366 146.84C326.9 148.573 324.766 149.44 321.966 149.44C319.913 149.44 318.26 148.813 317.006 147.56C315.993 146.547 315.486 145.147 315.486 143.36C315.486 140.693 316.553 138.8 318.686 137.68C319.593 137.2 321.393 136.72 324.086 136.24L328.406 135.44L328.366 133.92C328.34 132.507 327.273 131.8 325.166 131.8C323.806 131.8 322.846 132.013 322.286 132.44C321.753 132.84 321.42 133.587 321.286 134.68H316.006C316.326 129.8 319.34 127.36 325.046 127.36C328.193 127.36 330.46 127.92 331.846 129.04C333.1 130.107 333.726 131.72 333.726 133.88V145.72C333.726 146.68 334.153 147.307 335.006 147.6ZM328.406 138.76L324.366 139.68C323.22 139.947 322.366 140.333 321.806 140.84C321.273 141.347 321.006 141.973 321.006 142.72C321.006 144.24 321.993 145 323.966 145C326.82 145 328.286 143.44 328.366 140.32L328.406 138.76ZM356.642 135.56H351.402C351.082 134.173 350.616 133.2 350.002 132.64C349.416 132.08 348.576 131.8 347.482 131.8C345.829 131.8 344.682 132.387 344.042 133.56C343.349 134.92 343.002 136.587 343.002 138.56C343.002 140.56 343.389 142.147 344.162 143.32C344.962 144.467 346.056 145.04 347.442 145.04C348.536 145.04 349.376 144.76 349.962 144.2C350.576 143.613 351.056 142.653 351.402 141.32H356.642C356.376 143.987 355.309 146.053 353.442 147.52C351.816 148.827 349.802 149.48 347.402 149.48C344.042 149.48 341.496 148.4 339.762 146.24C338.242 144.373 337.482 141.853 337.482 138.68C337.482 134.84 338.482 131.933 340.482 129.96C342.216 128.227 344.562 127.36 347.522 127.36C350.349 127.36 352.589 128.173 354.242 129.8C355.656 131.24 356.456 133.16 356.642 135.56ZM366 136.04L372.92 127.8H379.2L371.96 135.8L379.68 149H373.24L368.16 139.64L366 142.04V149H360.48V120.36H366V136.04ZM387.392 120.36V140.36L385.192 142.12H383.032V120.36H387.392ZM385.312 144.04C386.032 144.04 386.646 144.293 387.152 144.8C387.659 145.28 387.912 145.88 387.912 146.6C387.912 147.32 387.659 147.933 387.152 148.44C386.646 148.947 386.032 149.2 385.312 149.2C384.619 149.2 384.019 148.947 383.512 148.44C383.006 147.933 382.752 147.32 382.752 146.6C382.752 145.88 382.992 145.28 383.472 144.8C383.979 144.293 384.592 144.04 385.312 144.04Z" fill="white"/>
</svg>
