<svg width="93" height="89" viewBox="0 0 93 89" fill="none" xmlns="http://www.w3.org/2000/svg">
<path d="M30.8379 34.9235C33.4961 50.2263 38.6063 55.5609 53.7936 59.3877L44.3513 70.4747C27.07 65.3744 20.7988 52.4244 18.8713 41.7537L30.8379 34.9235Z" fill="#FF914D"/>
<path d="M41.2945 11.1072C44.7007 10.4466 46.6839 12.6475 45.7674 15.7417C44.325 20.611 43.9365 23.9999 44.0198 28.0931C44.0655 30.3415 42.2274 32.9839 39.8144 34.9199C36.5619 37.5293 33.8391 40.5836 31.6357 43.1861C28.5818 46.7933 20.5643 48.1024 19.5528 44.9987C17.4739 38.6203 17.9148 26.0559 25.2468 16.2279C26.3984 14.6841 28.2549 13.6363 30.0113 13.2957L41.2945 11.1072Z" fill="#FF914D"/>
<path d="M81.2026 53.6384C82.3067 50.5243 80.2316 48.4003 76.8688 48.8875C71.5769 49.6542 67.9678 49.6109 63.6751 49.0406C61.3171 48.7273 58.3185 50.1329 55.9932 52.1624C52.8591 54.8979 49.321 57.0834 46.3204 58.8362C42.1613 61.2656 39.821 68.625 42.9618 69.9466C49.4167 72.6628 62.6772 73.7604 73.89 68.0682C75.6512 67.1741 76.9759 65.5596 77.5452 63.9538L81.2026 53.6384Z" fill="#FF914D"/>
</svg>
