<svg width="187" height="46" viewBox="0 0 187 46" fill="none" xmlns="http://www.w3.org/2000/svg">
<path d="M180.089 45.8249H7.31301C3.51367 45.8249 0.401978 43.2985 0.401978 40.2139V6.54799C0.401978 3.46335 3.51367 0.937004 7.31301 0.937004H180.089C183.888 0.937004 187 3.46335 187 6.54799V40.2139C187 43.2985 183.888 45.8249 180.089 45.8249Z" fill="#FF914D"/>
<path d="M180.089 1.83616C183.289 1.83616 185.892 3.9501 185.892 6.54799V40.2139C185.892 42.8118 183.289 44.9257 180.089 44.9257H7.31301C4.1132 44.9257 1.50947 42.8118 1.50947 40.2139V6.54799C1.50947 3.9501 4.1132 1.83616 7.31301 1.83616H180.089ZM180.089 0.937004H7.31301C3.51367 0.937004 0.401978 3.46335 0.401978 6.54799V40.2139C0.401978 43.2985 3.51367 45.8249 7.31301 45.8249H180.089C183.888 45.8249 187 43.2985 187 40.2139V6.54799C187 3.46335 183.888 0.937004 180.089 0.937004Z" fill="#A6A6A6"/>
<path d="M13.7886 9.39704C13.3826 9.74211 13.1476 10.2794 13.1476 10.9751V35.7925C13.1476 36.4882 13.3826 37.0255 13.7886 37.3705L13.8889 37.4463L31.0178 23.5451V23.2169L13.8889 9.31568L13.7886 9.39704Z" fill="black"/>
<path d="M38.7945 28.1811L33.0912 23.5451V23.2168L38.8014 18.5808L38.9293 18.6411L45.6917 21.765C47.6216 22.6515 47.6216 24.1104 45.6917 25.0025L38.9293 28.1208L38.7945 28.1811Z" fill="black"/>
<path d="M37.8927 28.9841L32.0546 24.2442L14.8253 38.2338C15.4663 38.7808 16.5116 38.8468 17.7003 38.2997L37.8927 28.9841Z" fill="black"/>
<path d="M37.8927 17.7778L17.7003 8.46223C16.5116 7.92078 15.4663 7.9867 14.8253 8.53377L32.0546 22.5177L37.8927 17.7778Z" fill="black"/>
<path d="M65.9428 12.4326C65.9428 13.3696 65.5972 14.1201 64.9165 14.6798C64.1338 15.3433 63.1144 15.6771 61.8653 15.6771C60.6714 15.6771 59.652 15.3377 58.8158 14.6685C57.9778 13.9896 57.5597 13.1564 57.5597 12.159C57.5597 11.1617 57.9778 10.3285 58.8158 9.65514C59.652 8.98043 60.6714 8.64096 61.8653 8.64096C62.4596 8.64096 63.0263 8.74056 63.5671 8.92572C64.1062 9.11228 64.545 9.36478 64.8629 9.67619L64.1407 10.2681C63.5861 9.7365 62.8311 9.47419 61.8653 9.47419C60.9945 9.47419 60.2394 9.72107 59.5984 10.219C58.9644 10.7184 58.6464 11.3651 58.6464 12.159C58.6464 12.953 58.9644 13.6053 59.5984 14.1046C60.2394 14.597 60.9945 14.8495 61.8653 14.8495C62.7896 14.8495 63.5671 14.597 64.1805 14.099C64.5848 13.7694 64.8146 13.3149 64.875 12.7342H61.8653V11.9234H65.8806C65.929 12.0987 65.9428 12.2685 65.9428 12.4326Z" fill="black" stroke="black" stroke-width="0.16" stroke-miterlimit="10"/>
<path d="M72.313 9.62149H68.5413V11.7537H71.9416V12.5644H68.5413V14.6966H72.313V15.5228H67.4736V8.79527H72.313V9.62149Z" fill="black" stroke="black" stroke-width="0.16" stroke-miterlimit="10"/>
<path d="M76.8086 15.5228H75.7409V9.62149H73.4274V8.79527H79.1238V9.62149H76.8086V15.5228Z" fill="black" stroke="black" stroke-width="0.16" stroke-miterlimit="10"/>
<path d="M83.2463 15.5228V8.79527H84.3123V15.5228H83.2463Z" fill="black" stroke="black" stroke-width="0.16" stroke-miterlimit="10"/>
<path d="M89.0377 15.5228H87.9786V9.62149H85.6565V8.79527H91.3598V9.62149H89.0377V15.5228Z" fill="black" stroke="black" stroke-width="0.16" stroke-miterlimit="10"/>
<path d="M102.145 14.6573C101.327 15.3377 100.315 15.6771 99.1071 15.6771C97.8925 15.6771 96.8801 15.3377 96.0628 14.6573C95.2473 13.9784 94.8413 13.1452 94.8413 12.159C94.8413 11.1729 95.2473 10.3397 96.0628 9.66076C96.8801 8.98042 97.8925 8.64096 99.1071 8.64096C100.308 8.64096 101.32 8.98042 102.138 9.66637C102.96 10.3509 103.366 11.1785 103.366 12.159C103.366 13.1452 102.96 13.9784 102.145 14.6573ZM96.8524 14.0934C97.4675 14.597 98.2156 14.8495 99.1071 14.8495C99.9918 14.8495 100.747 14.597 101.355 14.0934C101.968 13.5898 102.279 12.9432 102.279 12.159C102.279 11.3749 101.968 10.7282 101.355 10.2247C100.747 9.72107 99.9918 9.46858 99.1071 9.46858C98.2156 9.46858 97.4675 9.72107 96.8524 10.2247C96.2391 10.7282 95.9281 11.3749 95.9281 12.159C95.9281 12.9432 96.2391 13.5898 96.8524 14.0934Z" fill="black" stroke="black" stroke-width="0.16" stroke-miterlimit="10"/>
<path d="M104.864 15.5228V8.79527H106.16L110.189 14.0275H110.236L110.189 12.7342V8.79527H111.255V15.5228H110.142L105.923 10.0325H105.876L105.923 11.3314V15.5228H104.864Z" fill="black" stroke="black" stroke-width="0.16" stroke-miterlimit="10"/>
<path d="M94.5786 25.3476C91.3322 25.3476 88.6801 27.3536 88.6801 30.1212C88.6801 32.8663 91.3322 34.8933 94.5786 34.8933C97.832 34.8933 100.484 32.8663 100.484 30.1212C100.484 27.3536 97.832 25.3476 94.5786 25.3476ZM94.5786 33.0136C92.7973 33.0136 91.2648 31.8199 91.2648 30.1212C91.2648 28.4 92.7973 27.2273 94.5786 27.2273C96.36 27.2273 97.8994 28.4 97.8994 30.1212C97.8994 31.8199 96.36 33.0136 94.5786 33.0136ZM81.7086 25.3476C78.4552 25.3476 75.81 27.3536 75.81 30.1212C75.81 32.8663 78.4552 34.8933 81.7086 34.8933C84.9602 34.8933 87.6071 32.8663 87.6071 30.1212C87.6071 27.3536 84.9602 25.3476 81.7086 25.3476ZM81.7086 33.0136C79.9255 33.0136 78.3878 31.8199 78.3878 30.1212C78.3878 28.4 79.9255 27.2273 81.7086 27.2273C83.4899 27.2273 85.0224 28.4 85.0224 30.1212C85.0224 31.8199 83.4899 33.0136 81.7086 33.0136ZM66.3937 26.8107V28.8391H72.3597C72.1852 29.9725 71.7187 30.8057 71.0034 31.3865C70.1326 32.0878 68.7763 32.8663 66.3937 32.8663C62.7222 32.8663 59.8472 30.4606 59.8472 27.4798C59.8472 24.499 62.7222 22.0933 66.3937 22.0933C68.3789 22.0933 69.8233 22.7231 70.8893 23.5395L72.6499 22.1101C71.1589 20.9542 69.1754 20.0663 66.3937 20.0663C61.359 20.0663 57.1277 23.3922 57.1277 27.4798C57.1277 31.5674 61.359 34.8933 66.3937 34.8933C69.1149 34.8933 71.1589 34.1695 72.7657 32.8116C74.4122 31.4748 74.9254 29.5951 74.9254 28.0774C74.9254 27.6061 74.877 27.1726 74.7906 26.8107H66.3937ZM129.018 28.3832C128.533 27.3157 127.035 25.3476 123.983 25.3476C120.96 25.3476 118.442 27.282 118.442 30.1212C118.442 32.7948 120.934 34.8933 124.274 34.8933C126.974 34.8933 128.533 33.5565 129.174 32.778L127.169 31.6937C126.501 32.4876 125.59 33.0136 124.274 33.0136C122.966 33.0136 122.028 32.5269 121.426 31.5674L129.289 28.926L129.018 28.3832ZM121.001 29.9725C120.934 28.1321 122.762 27.1894 124.071 27.1894C125.098 27.1894 125.969 27.6061 126.259 28.2022L121.001 29.9725ZM114.61 34.6029H117.195V20.5755H114.61V34.6029ZM110.377 26.4109H110.291C109.71 25.8526 108.603 25.3476 107.2 25.3476C104.256 25.3476 101.564 27.4461 101.564 30.1366C101.564 32.8116 104.256 34.8933 107.2 34.8933C108.603 34.8933 109.71 34.3841 110.291 33.809H110.377V34.4935C110.377 36.3185 109.176 37.299 107.24 37.299C105.66 37.299 104.681 36.3732 104.277 35.5947L102.029 36.3564C102.677 37.6216 104.392 39.1787 107.24 39.1787C110.27 39.1787 112.827 37.7311 112.827 34.2088V25.638H110.377V26.4109ZM107.421 33.0136C105.64 33.0136 104.149 31.8031 104.149 30.1366C104.149 28.4547 105.64 27.2273 107.421 27.2273C109.176 27.2273 110.56 28.4547 110.56 30.1366C110.56 31.8031 109.176 33.0136 107.421 33.0136ZM141.119 20.5755H134.937V34.6029H137.515V29.2879H141.119C143.982 29.2879 146.79 27.6061 146.79 24.931C146.79 22.2574 143.975 20.5755 141.119 20.5755ZM141.187 27.3367H137.515V22.5267H141.187C143.111 22.5267 144.21 23.8243 144.21 24.931C144.21 26.0167 143.111 27.3367 141.187 27.3367ZM157.122 25.321C155.259 25.321 153.322 25.9887 152.526 27.4686L154.814 28.2471C155.306 27.4686 156.211 27.2161 157.168 27.2161C158.506 27.2161 159.862 27.8684 159.883 29.02V29.1673C159.416 28.9485 158.418 28.6244 157.189 28.6244C154.725 28.6244 152.215 29.7256 152.215 31.7806C152.215 33.6603 154.233 34.8709 156.502 34.8709C158.236 34.8709 159.193 34.2354 159.795 33.4962H159.883V34.5805H162.372V29.1996C162.372 26.7125 160.085 25.321 157.122 25.321ZM156.811 33.008C155.968 33.008 154.793 32.6686 154.793 31.8199C154.793 30.7342 156.258 30.3176 157.526 30.3176C158.661 30.3176 159.193 30.521 159.883 30.7889C159.681 32.0878 158.304 33.008 156.811 33.008ZM171.443 25.6282L168.48 31.7091H168.392L165.329 25.6282H162.549L167.151 34.126L164.525 38.8547H167.219L174.311 25.6282H171.443ZM148.207 34.6029H150.791V20.5755H148.207V34.6029Z" fill="black"/>
</svg>
