<svg width="187" height="48" viewBox="0 0 187 48" fill="none" xmlns="http://www.w3.org/2000/svg">
<path d="M185.961 42.256C185.961 44.7976 183.581 46.8563 180.636 46.8563H6.3709C3.4278 46.8563 1.03888 44.7976 1.03888 42.256V5.56991C1.03888 3.02952 3.4278 0.963577 6.3709 0.963577H180.635C183.581 0.963577 185.96 3.02952 185.96 5.56991L185.961 42.256Z" fill="#FF914D"/>
<path d="M180.074 1.01907C183.281 1.01907 185.89 3.26509 185.89 6.02529V41.7947C185.89 44.5549 183.281 46.8009 180.074 46.8009H6.92593C3.71922 46.8009 1.10988 44.5549 1.10988 41.7947V6.02529C1.10988 3.26509 3.71922 1.01907 6.92593 1.01907H180.074ZM180.074 0.0637283H6.92593C3.1184 0.0637283 0 2.74792 0 6.02529V41.7947C0 45.072 3.1184 47.7562 6.92593 47.7562H180.074C183.882 47.7562 187 45.072 187 41.7947V6.02529C187 2.74792 183.882 0.0637283 180.074 0.0637283Z" fill="#A6A6A6"/>
<path d="M41.7329 23.6524C41.6927 19.8096 45.3884 17.94 45.5574 17.853C43.4644 15.2263 40.2203 14.8675 39.0802 14.8388C36.3556 14.592 33.7127 16.2422 32.3247 16.2422C30.909 16.2422 28.7717 14.8627 26.4681 14.9032C23.5038 14.9426 20.7307 16.4199 19.2098 18.7139C16.0709 23.3913 18.4119 30.265 21.4191 34.0458C22.9235 35.8975 24.6813 37.9649 26.982 37.8922C29.233 37.8123 30.0738 36.657 32.7901 36.657C35.4815 36.657 36.2711 37.8922 38.6176 37.8457C41.0334 37.8123 42.5543 35.9857 44.006 34.1173C45.7444 31.995 46.4425 29.9049 46.4702 29.7976C46.4134 29.7809 41.7786 28.2583 41.7329 23.6524Z" fill="black"/>
<path d="M37.3003 12.3517C38.5109 11.0485 39.3393 9.27552 39.1093 7.47632C37.3571 7.54309 35.1657 8.51959 33.9038 9.79417C32.7874 10.9173 31.79 12.7583 32.0477 14.4895C34.016 14.6159 36.037 13.6346 37.3003 12.3517Z" fill="black"/>
<path d="M67.9433 11.9976C67.9433 13.4009 67.4544 14.4573 66.4778 15.1668C65.5733 15.8213 64.2878 16.1492 62.6229 16.1492C61.7973 16.1492 61.0908 16.1182 60.4994 16.0562V8.38846C61.2709 8.28115 62.102 8.2263 62.9996 8.2263C64.5857 8.2263 65.7811 8.52319 66.5873 9.11696C67.4904 9.78823 67.9433 10.748 67.9433 11.9976ZM66.4127 12.0322C66.4127 11.1224 66.1329 10.4249 65.5733 9.93846C65.0137 9.45319 64.1964 9.20996 63.1201 9.20996C62.663 9.20996 62.2738 9.23619 61.951 9.29104V15.1203C62.1297 15.1441 62.4566 15.1548 62.9317 15.1548C64.0427 15.1548 64.9001 14.8889 65.504 14.3572C66.108 13.8254 66.4127 13.0504 66.4127 12.0322Z" fill="black"/>
<path d="M76.0592 13.2233C76.0592 14.0877 75.7724 14.7959 75.199 15.3515C74.5978 15.9227 73.8013 16.2076 72.8067 16.2076C71.8482 16.2076 71.085 15.9346 70.5156 15.3861C69.9477 14.8389 69.6638 14.1485 69.6638 13.3163C69.6638 12.4459 69.956 11.7317 70.5433 11.1773C71.1307 10.6228 71.9202 10.345 72.9148 10.345C73.8733 10.345 74.6435 10.6181 75.2267 11.1653C75.7807 11.6971 76.0592 12.3839 76.0592 13.2233ZM74.5535 13.2638C74.5535 12.7452 74.4233 12.3004 74.1642 11.9296C73.8595 11.4813 73.4259 11.2571 72.8622 11.2571C72.279 11.2571 71.8357 11.4813 71.531 11.9296C71.2706 12.3004 71.1418 12.7523 71.1418 13.2865C71.1418 13.8051 71.272 14.2499 71.531 14.6207C71.8454 15.069 72.2831 15.2931 72.8483 15.2931C73.4024 15.2931 73.8373 15.0654 74.1504 14.6087C74.4191 14.2308 74.5535 13.7825 74.5535 13.2638Z" fill="black"/>
<path d="M86.9411 10.4595L84.898 16.0801H83.5682L82.7219 13.6394C82.5072 13.0301 82.3326 12.4244 82.1969 11.8235H82.1706C82.0445 12.4411 81.87 13.0456 81.6456 13.6394L80.7466 16.0801H79.4016L77.4803 10.4595H78.9722L79.7105 13.1315C79.8892 13.7634 80.036 14.3655 80.1538 14.9354H80.1801C80.2881 14.4657 80.4668 13.8671 80.7189 13.1434L81.6456 10.4607H82.8285L83.7164 13.0862C83.9311 13.7264 84.1057 14.3429 84.24 14.9366H84.2802C84.3786 14.3584 84.5268 13.7419 84.7235 13.0862L85.5158 10.4607H86.9411V10.4595Z" fill="black"/>
<path d="M94.4669 16.0801H93.0152V12.8608C93.0152 11.8688 92.5775 11.3728 91.6993 11.3728C91.2685 11.3728 90.9208 11.5087 90.6507 11.7818C90.3833 12.0548 90.2476 12.3767 90.2476 12.7452V16.0789H88.7959V12.0655C88.7959 11.5719 88.7779 11.0366 88.7433 10.4571H90.019L90.0869 11.3359H90.1271C90.2961 11.0628 90.5482 10.8375 90.8792 10.6574C91.2726 10.4476 91.7131 10.3415 92.1952 10.3415C92.8046 10.3415 93.3116 10.5108 93.7147 10.8506C94.2161 11.2667 94.4669 11.8879 94.4669 12.713V16.0801Z" fill="black"/>
<path d="M98.4701 16.0801H97.0198V7.88052H98.4701V16.0801Z" fill="black"/>
<path d="M107.017 13.2233C107.017 14.0877 106.73 14.7959 106.156 15.3515C105.555 15.9227 104.757 16.2076 103.764 16.2076C102.804 16.2076 102.041 15.9346 101.473 15.3861C100.905 14.8389 100.621 14.1485 100.621 13.3163C100.621 12.4459 100.914 11.7317 101.501 11.1773C102.088 10.6228 102.878 10.345 103.871 10.345C104.831 10.345 105.6 10.6181 106.184 11.1653C106.738 11.6971 107.017 12.3839 107.017 13.2233ZM105.51 13.2638C105.51 12.7452 105.379 12.3004 105.12 11.9296C104.817 11.4813 104.382 11.2571 103.82 11.2571C103.235 11.2571 102.792 11.4813 102.488 11.9296C102.228 12.3004 102.099 12.7523 102.099 13.2865C102.099 13.8051 102.229 14.2499 102.488 14.6207C102.803 15.069 103.241 15.2931 103.806 15.2931C104.36 15.2931 104.793 15.0654 105.106 14.6087C105.377 14.2308 105.51 13.7825 105.51 13.2638Z" fill="black"/>
<path d="M114.042 16.0801H112.739L112.631 15.4326H112.591C112.145 15.9489 111.509 16.2076 110.683 16.2076C110.067 16.2076 109.568 16.0371 109.193 15.6985C108.852 15.3909 108.682 15.0082 108.682 14.5539C108.682 13.8671 109.014 13.3437 109.683 12.9812C110.351 12.6188 111.29 12.4411 112.499 12.4495V12.3445C112.499 11.6041 112.048 11.2345 111.143 11.2345C110.499 11.2345 109.931 11.374 109.441 11.6506L109.146 10.8303C109.752 10.5072 110.502 10.345 111.386 10.345C113.092 10.345 113.948 11.12 113.948 12.67V14.7399C113.948 15.3015 113.98 15.7486 114.042 16.0801ZM112.535 14.1485V13.2817C110.934 13.2578 110.133 13.6358 110.133 14.4144C110.133 14.7077 110.225 14.9271 110.412 15.0737C110.599 15.2204 110.837 15.2931 111.121 15.2931C111.44 15.2931 111.737 15.2061 112.009 15.0332C112.282 14.8591 112.449 14.6385 112.512 14.3679C112.527 14.3071 112.535 14.2332 112.535 14.1485Z" fill="black"/>
<path d="M122.291 16.0801H121.003L120.935 15.1775H120.895C120.483 15.8642 119.783 16.2076 118.798 16.2076C118.011 16.2076 117.356 15.9417 116.836 15.41C116.317 14.8782 116.058 14.1879 116.058 13.3401C116.058 12.4304 116.339 11.6935 116.904 11.1308C117.451 10.6061 118.122 10.3438 118.92 10.3438C119.796 10.3438 120.41 10.5978 120.759 11.1069H120.787V7.88052H122.24V14.5658C122.24 15.1131 122.256 15.6174 122.291 16.0801ZM120.787 13.7097V12.7726C120.787 12.6104 120.773 12.4793 120.747 12.3791C120.665 12.0787 120.489 11.8259 120.222 11.622C119.952 11.4181 119.626 11.3156 119.251 11.3156C118.709 11.3156 118.285 11.5004 117.973 11.8712C117.665 12.242 117.508 12.7153 117.508 13.2936C117.508 13.8492 117.656 14.2999 117.954 14.6469C118.269 15.0165 118.692 15.2013 119.223 15.2013C119.699 15.2013 120.08 15.0475 120.37 14.7387C120.65 14.4537 120.787 14.1104 120.787 13.7097Z" fill="black"/>
<path d="M134.706 13.2233C134.706 14.0877 134.42 14.7959 133.846 15.3515C133.245 15.9227 132.45 16.2076 131.454 16.2076C130.497 16.2076 129.734 15.9346 129.163 15.3861C128.595 14.8389 128.311 14.1485 128.311 13.3163C128.311 12.4459 128.603 11.7317 129.191 11.1773C129.778 10.6228 130.568 10.345 131.564 10.345C132.521 10.345 133.292 10.6181 133.874 11.1653C134.428 11.6971 134.706 12.3839 134.706 13.2233ZM133.202 13.2638C133.202 12.7452 133.072 12.3004 132.813 11.9296C132.507 11.4813 132.075 11.2571 131.509 11.2571C130.928 11.2571 130.484 11.4813 130.178 11.9296C129.918 12.3004 129.789 12.7523 129.789 13.2865C129.789 13.8051 129.919 14.2499 130.178 14.6207C130.493 15.069 130.93 15.2931 131.496 15.2931C132.05 15.2931 132.486 15.0654 132.799 14.6087C133.066 14.2308 133.202 13.7825 133.202 13.2638Z" fill="black"/>
<path d="M142.512 16.0801H141.062V12.8608C141.062 11.8688 140.624 11.3728 139.744 11.3728C139.314 11.3728 138.966 11.5087 138.697 11.7818C138.428 12.0548 138.294 12.3767 138.294 12.7452V16.0789H136.841V12.0655C136.841 11.5719 136.824 11.0366 136.79 10.4571H138.064L138.132 11.3359H138.172C138.343 11.0628 138.595 10.8375 138.924 10.6574C139.319 10.4476 139.758 10.3415 140.242 10.3415C140.85 10.3415 141.357 10.5108 141.76 10.8506C142.263 11.2667 142.512 11.8879 142.512 12.713V16.0801Z" fill="black"/>
<path d="M152.282 11.3955H150.683V14.1259C150.683 14.8198 150.967 15.1667 151.53 15.1667C151.79 15.1667 152.006 15.1477 152.176 15.1083L152.214 16.0562C151.927 16.1492 151.55 16.1957 151.086 16.1957C150.513 16.1957 150.067 16.0455 149.744 15.745C149.42 15.4446 149.259 14.939 149.259 14.2296V11.3955H148.305V10.4595H149.259V9.42934L150.682 9.05972V10.4583H152.28V11.3955H152.282Z" fill="black"/>
<path d="M159.967 16.0801H158.514V12.8847C158.514 11.8772 158.076 11.3728 157.199 11.3728C156.526 11.3728 156.066 11.6649 155.814 12.2492C155.771 12.372 155.746 12.5222 155.746 12.6987V16.0789H154.296V7.88052H155.746V11.2679H155.774C156.231 10.6515 156.886 10.3438 157.735 10.3438C158.336 10.3438 158.834 10.5131 159.228 10.853C159.72 11.2762 159.967 11.9058 159.967 12.738V16.0801Z" fill="black"/>
<path d="M167.894 13.0039C167.894 13.228 167.875 13.4164 167.84 13.5702H163.486C163.506 14.1259 163.714 14.5491 164.117 14.8424C164.485 15.1047 164.96 15.2359 165.542 15.2359C166.186 15.2359 166.774 15.1477 167.303 14.97L167.53 15.838C166.911 16.0693 166.182 16.185 165.338 16.185C164.327 16.185 163.531 15.9286 162.955 15.4159C162.376 14.9032 162.089 14.2153 162.089 13.352C162.089 12.5043 162.356 11.7985 162.895 11.2357C163.457 10.6348 164.218 10.3343 165.178 10.3343C166.117 10.3343 166.83 10.6348 167.312 11.2357C167.702 11.7126 167.894 12.3028 167.894 13.0039ZM166.509 12.6808C166.52 12.31 166.424 11.9904 166.228 11.721C165.976 11.374 165.592 11.1999 165.072 11.1999C164.599 11.1999 164.212 11.3692 163.917 11.709C163.676 11.9797 163.534 12.3028 163.486 12.6808H166.509Z" fill="black"/>
<path d="M74.3083 37.6263H71.1625L69.4393 32.9655H63.4498L61.8083 37.6263H58.7457L64.6798 21.759H68.345L74.3083 37.6263ZM68.9199 31.0102L67.3615 26.8669C67.1967 26.4436 66.8878 25.4468 66.4321 23.8777H66.3767C66.1952 24.5526 65.9029 25.5494 65.5012 26.8669L63.9706 31.0102H68.9199Z" fill="black"/>
<path d="M89.5688 31.7649C89.5688 33.7108 88.958 35.2489 87.7362 36.378C86.6419 37.3831 85.2831 37.8851 83.661 37.8851C81.9101 37.8851 80.6524 37.3437 79.8864 36.2611H79.831V42.2883H76.8778V29.9514C76.8778 28.7281 76.8404 27.4726 76.7683 26.1849H79.3656L79.5304 27.9984H79.5858C80.5707 26.632 82.0653 25.95 84.071 25.95C85.6391 25.95 86.9481 26.483 87.9953 27.5501C89.0452 28.6184 89.5688 30.0229 89.5688 31.7649ZM86.5602 31.8579C86.5602 30.7443 86.2693 29.8262 85.6848 29.1037C85.0462 28.3501 84.1888 27.9734 83.1139 27.9734C82.3853 27.9734 81.7231 28.1832 81.1317 28.5969C80.5388 29.0143 80.151 29.5591 79.9695 30.234C79.8781 30.5488 79.8324 30.8063 79.8324 31.009V32.9167C79.8324 33.7489 80.1288 34.4512 80.7217 35.0247C81.3145 35.5982 82.0847 35.8844 83.0321 35.8844C84.1445 35.8844 85.0102 35.5147 85.6294 34.7779C86.2499 34.0398 86.5602 33.0669 86.5602 31.8579Z" fill="black"/>
<path d="M104.857 31.7649C104.857 33.7108 104.246 35.2489 103.023 36.378C101.93 37.3831 100.571 37.8851 98.9493 37.8851C97.1984 37.8851 95.9407 37.3437 95.1761 36.2611H95.1207V42.2883H92.1674V29.9514C92.1674 28.7281 92.13 27.4726 92.058 26.1849H94.6552L94.8201 27.9984H94.8755C95.859 26.632 97.3536 25.95 99.3607 25.95C100.927 25.95 102.236 26.483 103.286 27.5501C104.332 28.6184 104.857 30.0229 104.857 31.7649ZM101.849 31.8579C101.849 30.7443 101.556 29.8262 100.972 29.1037C100.333 28.3501 99.4785 27.9734 98.4022 27.9734C97.6722 27.9734 97.0114 28.1832 96.4186 28.5969C95.8257 29.0143 95.4392 29.5591 95.2578 30.234C95.1678 30.5488 95.1207 30.8063 95.1207 31.009V32.9167C95.1207 33.7489 95.4171 34.4512 96.0072 35.0247C96.6 35.597 97.3702 35.8844 98.3204 35.8844C99.4327 35.8844 100.298 35.5147 100.918 34.7779C101.538 34.0398 101.849 33.0669 101.849 31.8579Z" fill="black"/>
<path d="M121.95 33.1766C121.95 34.5263 121.406 35.6244 120.313 36.4722C119.112 37.3986 117.44 37.8612 115.292 37.8612C113.308 37.8612 111.718 37.5321 110.514 36.8728L111.199 34.754C112.495 35.4289 113.918 35.7675 115.468 35.7675C116.58 35.7675 117.446 35.5505 118.068 35.1189C118.687 34.6873 118.996 34.1078 118.996 33.3853C118.996 32.7414 118.741 32.1989 118.23 31.7589C117.721 31.319 116.872 30.91 115.687 30.5321C112.459 29.4959 110.847 27.9781 110.847 25.9822C110.847 24.6778 111.412 23.6083 112.544 22.7761C113.671 21.9426 115.175 21.5265 117.056 21.5265C118.734 21.5265 120.127 21.7781 121.24 22.2801L120.501 24.3523C119.463 23.8658 118.288 23.6226 116.973 23.6226C115.934 23.6226 115.123 23.8432 114.541 24.282C114.049 24.6742 113.803 25.1523 113.803 25.7187C113.803 26.3458 114.084 26.8645 114.649 27.2723C115.141 27.649 116.034 28.0568 117.331 28.4968C118.917 29.0464 120.082 29.6891 120.831 30.4259C121.578 31.1604 121.95 32.0797 121.95 33.1766Z" fill="black"/>
<path d="M131.715 28.0926H128.459V33.6475C128.459 35.0604 129.033 35.7663 130.182 35.7663C130.71 35.7663 131.148 35.7269 131.494 35.6482L131.576 37.5786C130.994 37.7658 130.228 37.86 129.279 37.86C128.113 37.86 127.202 37.5536 126.544 36.9419C125.888 36.3291 125.559 35.3013 125.559 33.8574V28.0902H123.619V26.1825H125.559V24.0876L128.459 23.334V26.1825H131.715V28.0926Z" fill="black"/>
<path d="M146.402 31.8114C146.402 33.5701 145.817 35.014 144.651 36.1431C143.428 37.3056 141.804 37.885 139.78 37.885C137.83 37.885 136.277 37.3282 135.119 36.2146C133.961 35.101 133.382 33.6953 133.382 32.001C133.382 30.228 133.978 28.7758 135.173 27.6467C136.366 26.5163 137.976 25.9512 139.999 25.9512C141.95 25.9512 143.519 26.508 144.703 27.6228C145.836 28.7042 146.402 30.1004 146.402 31.8114ZM143.338 31.8937C143.338 30.8385 143.076 29.9335 142.545 29.1788C141.926 28.2655 141.041 27.81 139.894 27.81C138.707 27.81 137.805 28.2667 137.186 29.1788C136.655 29.9347 136.394 30.854 136.394 31.9414C136.394 32.9966 136.655 33.9015 137.186 34.6551C137.825 35.5684 138.717 36.0238 139.868 36.0238C140.995 36.0238 141.88 35.5588 142.519 34.6312C143.063 33.8622 143.338 32.9477 143.338 31.8937Z" fill="black"/>
<path d="M156.001 28.4205C155.709 28.374 155.397 28.3501 155.07 28.3501C154.031 28.3501 153.228 28.6876 152.663 29.3636C152.171 29.9598 151.924 30.7133 151.924 31.623V37.6263H148.972L149 29.7881C149 28.4694 148.963 27.2687 148.889 26.1861H151.462L151.57 28.3752H151.651C151.963 27.6228 152.455 27.0171 153.128 26.5629C153.786 26.1539 154.497 25.95 155.263 25.95C155.536 25.95 155.782 25.9667 156.001 25.9965V28.4205Z" fill="black"/>
<path d="M169.209 31.3643C169.209 31.8197 169.174 32.2037 169.101 32.5172H160.241C160.276 33.6476 160.704 34.512 161.526 35.1081C162.273 35.6411 163.239 35.9082 164.424 35.9082C165.736 35.9082 166.933 35.7281 168.009 35.3669L168.472 37.1315C167.214 37.6036 165.729 37.8385 164.016 37.8385C161.954 37.8385 160.337 37.3163 159.159 36.273C157.985 35.2298 157.396 33.8288 157.396 32.0713C157.396 30.346 157.943 28.9093 159.039 27.7635C160.186 26.5402 161.736 25.9285 163.686 25.9285C165.602 25.9285 167.052 26.5402 168.037 27.7635C168.817 28.7352 169.209 29.9371 169.209 31.3643ZM166.393 30.7049C166.412 29.9514 166.219 29.3004 165.819 28.7507C165.308 28.0437 164.523 27.6908 163.466 27.6908C162.5 27.6908 161.715 28.0353 161.115 28.7269C160.623 29.2765 160.331 29.9359 160.241 30.7037H166.393V30.7049Z" fill="black"/>
</svg>
