<svg width="32" height="30" viewBox="0 0 32 30" fill="none" xmlns="http://www.w3.org/2000/svg">
<path fill-rule="evenodd" clip-rule="evenodd" d="M31.8352 0.990585C31.9397 0.88402 32 0.72669 32 0.560859C32 0.251105 31.7936 0 31.539 0H0.715705C0.320432 0 0 0.389811 0 0.870668C0 1.12951 0.0946674 1.37492 0.258319 1.54034L15.2846 16.7287C15.6121 17.0597 16.0873 17.0583 16.4134 16.7255L31.8352 0.990585ZM1.44358 5.98874C0.869707 5.40867 0 5.90515 0 6.81283V28.9286C0 29.5203 0.394318 30 0.880733 30H31.1193C31.6057 30 32 29.5203 32 28.9286V6.38236C32 5.47238 31.1264 4.97668 30.5533 5.56144L16.5135 19.8863L16.4196 19.9821C16.0934 20.3149 15.6182 20.3163 15.2908 19.9853L15.1966 19.89L1.44358 5.98874Z" fill="black"/>
</svg>
