<svg width="1440" height="512" viewBox="0 0 1440 512" fill="none" xmlns="http://www.w3.org/2000/svg">
<rect width="1440" height="512" fill="white"/>
<path d="M109.96 33.334V40H107.958V24.248H114.47C116.127 24.248 117.374 24.7027 118.21 25.612C118.943 26.404 119.31 27.4893 119.31 28.868C119.31 30.2613 118.863 31.3687 117.968 32.19C117.147 32.9527 116.127 33.334 114.91 33.334H109.96ZM109.96 31.552H114.162C115.115 31.552 115.863 31.31 116.406 30.826C116.949 30.342 117.22 29.66 117.22 28.78C117.22 27.9147 116.949 27.24 116.406 26.756C115.863 26.272 115.115 26.03 114.162 26.03H109.96V31.552ZM131.966 38.482V39.934C131.467 40.11 131.079 40.198 130.8 40.198C129.627 40.198 128.989 39.6627 128.886 38.592C128.079 39.692 126.796 40.242 125.036 40.242C123.819 40.242 122.873 39.9047 122.198 39.23C121.611 38.6433 121.318 37.888 121.318 36.964C121.318 35.908 121.692 35.094 122.44 34.522C122.865 34.1993 123.753 33.884 125.102 33.576L128.798 32.74L128.82 31.794C128.82 30.6647 127.969 30.1 126.268 30.1C124.64 30.1 123.767 30.76 123.65 32.08H121.824C121.868 31.0827 122.117 30.32 122.572 29.792C123.349 28.8973 124.611 28.45 126.356 28.45C129.187 28.45 130.602 29.4767 130.602 31.53V37.844C130.602 38.4013 130.844 38.68 131.328 38.68C131.387 38.68 131.541 38.636 131.79 38.548C131.878 38.5187 131.937 38.4967 131.966 38.482ZM128.82 34.214L125.916 34.962C124.875 35.226 124.156 35.4973 123.76 35.776C123.379 36.0547 123.188 36.4433 123.188 36.942C123.188 38.1007 123.936 38.68 125.432 38.68C126.488 38.68 127.383 38.3353 128.116 37.646C128.585 37.2207 128.82 36.7367 128.82 36.194V34.214ZM140.83 28.692H142.766L137.728 42.376C137.141 43.9307 136.166 44.708 134.802 44.708C134.156 44.708 133.592 44.5613 133.108 44.268L133.46 42.706C133.826 42.8527 134.186 42.926 134.538 42.926C135.242 42.926 135.733 42.5593 136.012 41.826L136.694 40.022L132.866 28.692H134.802L137.684 37.492L140.83 28.692ZM144.75 28.692H146.422V30.32C147.302 29.0733 148.461 28.45 149.898 28.45C151.292 28.45 152.304 29.0073 152.934 30.122C153.477 29.4913 153.998 29.0587 154.496 28.824C155.01 28.5747 155.64 28.45 156.388 28.45C158.588 28.45 159.688 29.484 159.688 31.552V40H157.884V32.256C157.884 30.76 157.18 30.012 155.772 30.012C155.039 30.012 154.416 30.298 153.902 30.87C153.389 31.442 153.132 32.124 153.132 32.916V40H151.328V32.256C151.328 30.76 150.632 30.012 149.238 30.012C148.49 30.012 147.852 30.298 147.324 30.87C146.811 31.4273 146.554 32.1093 146.554 32.916V40H144.75V28.692ZM172.302 34.874H163.964C163.979 35.842 164.184 36.612 164.58 37.184C165.211 38.108 166.12 38.57 167.308 38.57C168.775 38.57 169.765 37.8733 170.278 36.48H172.082C171.848 37.668 171.305 38.592 170.454 39.252C169.604 39.912 168.533 40.242 167.242 40.242C165.526 40.242 164.214 39.6553 163.304 38.482C162.498 37.4553 162.094 36.0987 162.094 34.412C162.094 32.4613 162.622 30.9433 163.678 29.858C164.602 28.9193 165.798 28.45 167.264 28.45C168.335 28.45 169.274 28.7067 170.08 29.22C170.902 29.7333 171.488 30.4373 171.84 31.332C172.148 32.0947 172.302 33.2533 172.302 34.808V34.874ZM170.366 33.4C170.366 32.4173 170.073 31.6253 169.486 31.024C168.914 30.408 168.174 30.1 167.264 30.1C166.34 30.1 165.585 30.4007 164.998 31.002C164.426 31.5887 164.104 32.388 164.03 33.4H170.366ZM174.764 28.692H176.436V30.606C177.345 29.1687 178.592 28.45 180.176 28.45C181.276 28.45 182.149 28.7287 182.794 29.286C183.439 29.8287 183.762 30.562 183.762 31.486V40H181.98V32.212C181.98 31.5373 181.767 31.002 181.342 30.606C180.931 30.21 180.367 30.012 179.648 30.012C178.709 30.012 177.961 30.3567 177.404 31.046C176.847 31.7353 176.568 32.652 176.568 33.796V40H174.764V28.692ZM191.196 28.692V30.144H188.886V37.668C188.886 37.932 188.974 38.1593 189.15 38.35C189.341 38.526 189.583 38.614 189.876 38.614C190.155 38.614 190.58 38.548 191.152 38.416L191.35 40C190.441 40.1613 189.751 40.242 189.282 40.242C187.83 40.242 187.104 39.648 187.104 38.46V30.144H185.564V28.692H187.104V26.382L188.886 25.568V28.692H191.196ZM205.946 40H203.834L199.346 26.8V40H197.454V24.248H200.226L204.912 37.954L209.488 24.248H212.282V40H210.368V26.8L205.946 40ZM224.896 34.874H216.558C216.573 35.842 216.778 36.612 217.174 37.184C217.805 38.108 218.714 38.57 219.902 38.57C221.369 38.57 222.359 37.8733 222.872 36.48H224.676C224.441 37.668 223.899 38.592 223.048 39.252C222.197 39.912 221.127 40.242 219.836 40.242C218.12 40.242 216.807 39.6553 215.898 38.482C215.091 37.4553 214.688 36.0987 214.688 34.412C214.688 32.4613 215.216 30.9433 216.272 29.858C217.196 28.9193 218.391 28.45 219.858 28.45C220.929 28.45 221.867 28.7067 222.674 29.22C223.495 29.7333 224.082 30.4373 224.434 31.332C224.742 32.0947 224.896 33.2533 224.896 34.808V34.874ZM222.96 33.4C222.96 32.4173 222.667 31.6253 222.08 31.024C221.508 30.408 220.767 30.1 219.858 30.1C218.934 30.1 218.179 30.4007 217.592 31.002C217.02 31.5887 216.697 32.388 216.624 33.4H222.96ZM231.78 28.692V30.144H229.47V37.668C229.47 37.932 229.558 38.1593 229.734 38.35C229.925 38.526 230.167 38.614 230.46 38.614C230.739 38.614 231.164 38.548 231.736 38.416L231.934 40C231.025 40.1613 230.335 40.242 229.866 40.242C228.414 40.242 227.688 39.648 227.688 38.46V30.144H226.148V28.692H227.688V26.382L229.47 25.568V28.692H231.78ZM233.889 24.248H235.671V30.276C236.214 29.6013 236.756 29.132 237.299 28.868C237.842 28.5893 238.516 28.45 239.323 28.45C240.423 28.45 241.288 28.7287 241.919 29.286C242.55 29.8287 242.865 30.5767 242.865 31.53V40H241.083V32.256C241.083 31.464 240.841 30.8847 240.357 30.518C239.902 30.1807 239.367 30.012 238.751 30.012C237.827 30.012 237.079 30.3567 236.507 31.046C235.95 31.7353 235.671 32.652 235.671 33.796V40H233.889V24.248ZM250.321 28.45C252.022 28.45 253.32 29.044 254.215 30.232C255.007 31.2587 255.403 32.652 255.403 34.412C255.403 36.3773 254.89 37.8733 253.863 38.9C252.983 39.7947 251.795 40.242 250.299 40.242C248.568 40.242 247.248 39.6627 246.339 38.504C245.547 37.492 245.151 36.128 245.151 34.412C245.151 32.4173 245.672 30.8847 246.713 29.814C247.608 28.9047 248.81 28.45 250.321 28.45ZM250.321 30.1C249.294 30.1 248.488 30.4887 247.901 31.266C247.314 32.0287 247.021 33.0773 247.021 34.412C247.021 35.8053 247.351 36.8687 248.011 37.602C248.583 38.2473 249.346 38.57 250.299 38.57C251.311 38.57 252.096 38.2033 252.653 37.47C253.225 36.7367 253.511 35.7173 253.511 34.412C253.511 32.9747 253.188 31.8747 252.543 31.112C251.986 30.4373 251.245 30.1 250.321 30.1ZM267.105 24.248V40H265.301V38.438C264.582 39.6553 263.467 40.264 261.957 40.264C260.299 40.264 259.023 39.6627 258.129 38.46C257.351 37.404 256.963 36.0107 256.963 34.28C256.963 32.388 257.469 30.9067 258.481 29.836C259.346 28.912 260.468 28.45 261.847 28.45C263.372 28.45 264.523 29.022 265.301 30.166V24.248H267.105ZM262.155 30.122C261.157 30.122 260.351 30.518 259.735 31.31C259.133 32.0873 258.833 33.1213 258.833 34.412C258.833 35.7467 259.185 36.7953 259.889 37.558C260.49 38.2327 261.253 38.57 262.177 38.57C263.13 38.57 263.885 38.196 264.443 37.448C265.015 36.7 265.301 35.688 265.301 34.412C265.301 33.0187 264.978 31.9333 264.333 31.156C263.761 30.4667 263.035 30.122 262.155 30.122Z" fill="black"/>
<path d="M408.12 40H406.008L401.52 26.8V40H399.628V24.248H402.4L407.086 37.954L411.662 24.248H414.456V40H412.542V26.8L408.12 40ZM419.216 28.692V40H417.434V28.692H419.216ZM418.358 24.27C418.666 24.27 418.923 24.38 419.128 24.6C419.348 24.8053 419.458 25.0547 419.458 25.348C419.458 25.656 419.348 25.92 419.128 26.14C418.923 26.3453 418.666 26.448 418.358 26.448C418.065 26.448 417.808 26.3453 417.588 26.14C417.383 25.92 417.28 25.656 417.28 25.348C417.28 25.0547 417.383 24.8053 417.588 24.6C417.808 24.38 418.065 24.27 418.358 24.27ZM422.313 28.692H423.985V30.606C424.894 29.1687 426.141 28.45 427.725 28.45C428.825 28.45 429.698 28.7287 430.343 29.286C430.988 29.8287 431.311 30.562 431.311 31.486V40H429.529V32.212C429.529 31.5373 429.316 31.002 428.891 30.606C428.48 30.21 427.916 30.012 427.197 30.012C426.258 30.012 425.51 30.3567 424.953 31.046C424.396 31.7353 424.117 32.652 424.117 33.796V40H422.313V28.692ZM436.017 28.692V40H434.235V28.692H436.017ZM435.159 24.27C435.467 24.27 435.723 24.38 435.929 24.6C436.149 24.8053 436.259 25.0547 436.259 25.348C436.259 25.656 436.149 25.92 435.929 26.14C435.723 26.3453 435.467 26.448 435.159 26.448C434.865 26.448 434.609 26.3453 434.389 26.14C434.183 25.92 434.081 25.656 434.081 25.348C434.081 25.0547 434.183 24.8053 434.389 24.6C434.609 24.38 434.865 24.27 435.159 24.27ZM439.114 28.692H440.786V30.32C441.666 29.0733 442.824 28.45 444.262 28.45C445.655 28.45 446.667 29.0073 447.298 30.122C447.84 29.4913 448.361 29.0587 448.86 28.824C449.373 28.5747 450.004 28.45 450.752 28.45C452.952 28.45 454.052 29.484 454.052 31.552V40H452.248V32.256C452.248 30.76 451.544 30.012 450.136 30.012C449.402 30.012 448.779 30.298 448.266 30.87C447.752 31.442 447.496 32.124 447.496 32.916V40H445.692V32.256C445.692 30.76 444.995 30.012 443.602 30.012C442.854 30.012 442.216 30.298 441.688 30.87C441.174 31.4273 440.918 32.1093 440.918 32.916V40H439.114V28.692ZM466.006 40H464.224V38.218C463.417 39.5673 462.214 40.242 460.616 40.242C459.516 40.242 458.636 39.9707 457.976 39.428C457.33 38.8707 457.008 38.13 457.008 37.206V28.692H458.79V36.48C458.79 37.14 459.002 37.668 459.428 38.064C459.853 38.46 460.425 38.658 461.144 38.658C462.082 38.658 462.83 38.3207 463.388 37.646C463.945 36.9567 464.224 36.0327 464.224 34.874V28.692H466.006V40ZM469.127 28.692H470.799V30.32C471.679 29.0733 472.838 28.45 474.275 28.45C475.669 28.45 476.681 29.0073 477.311 30.122C477.854 29.4913 478.375 29.0587 478.873 28.824C479.387 28.5747 480.017 28.45 480.765 28.45C482.965 28.45 484.065 29.484 484.065 31.552V40H482.261V32.256C482.261 30.76 481.557 30.012 480.149 30.012C479.416 30.012 478.793 30.298 478.279 30.87C477.766 31.442 477.509 32.124 477.509 32.916V40H475.705V32.256C475.705 30.76 475.009 30.012 473.615 30.012C472.867 30.012 472.229 30.298 471.701 30.87C471.188 31.4273 470.931 32.1093 470.931 32.916V40H469.127V28.692ZM499.904 35.27H493.832L492.16 40H490.026L495.636 24.248H498.232L503.754 40H501.532L499.904 35.27ZM499.332 33.576L496.912 26.426L494.338 33.576H499.332ZM505.586 28.692H507.258V30.32C508.138 29.0733 509.297 28.45 510.734 28.45C512.128 28.45 513.14 29.0073 513.77 30.122C514.313 29.4913 514.834 29.0587 515.332 28.824C515.846 28.5747 516.476 28.45 517.224 28.45C519.424 28.45 520.524 29.484 520.524 31.552V40H518.72V32.256C518.72 30.76 518.016 30.012 516.608 30.012C515.875 30.012 515.252 30.298 514.738 30.87C514.225 31.442 513.968 32.124 513.968 32.916V40H512.164V32.256C512.164 30.76 511.468 30.012 510.074 30.012C509.326 30.012 508.688 30.298 508.16 30.87C507.647 31.4273 507.39 32.1093 507.39 32.916V40H505.586V28.692ZM528.012 28.45C529.714 28.45 531.012 29.044 531.906 30.232C532.698 31.2587 533.094 32.652 533.094 34.412C533.094 36.3773 532.581 37.8733 531.554 38.9C530.674 39.7947 529.486 40.242 527.99 40.242C526.26 40.242 524.94 39.6627 524.03 38.504C523.238 37.492 522.842 36.128 522.842 34.412C522.842 32.4173 523.363 30.8847 524.404 29.814C525.299 28.9047 526.502 28.45 528.012 28.45ZM528.012 30.1C526.986 30.1 526.179 30.4887 525.592 31.266C525.006 32.0287 524.712 33.0773 524.712 34.412C524.712 35.8053 525.042 36.8687 525.702 37.602C526.274 38.2473 527.037 38.57 527.99 38.57C529.002 38.57 529.787 38.2033 530.344 37.47C530.916 36.7367 531.202 35.7173 531.202 34.412C531.202 32.9747 530.88 31.8747 530.234 31.112C529.677 30.4373 528.936 30.1 528.012 30.1ZM544.488 40H542.706V38.218C541.899 39.5673 540.697 40.242 539.098 40.242C537.998 40.242 537.118 39.9707 536.458 39.428C535.813 38.8707 535.49 38.13 535.49 37.206V28.692H537.272V36.48C537.272 37.14 537.485 37.668 537.91 38.064C538.335 38.46 538.907 38.658 539.626 38.658C540.565 38.658 541.313 38.3207 541.87 37.646C542.427 36.9567 542.706 36.0327 542.706 34.874V28.692H544.488V40ZM547.61 28.692H549.282V30.606C550.191 29.1687 551.438 28.45 553.022 28.45C554.122 28.45 554.994 28.7287 555.64 29.286C556.285 29.8287 556.608 30.562 556.608 31.486V40H554.826V32.212C554.826 31.5373 554.613 31.002 554.188 30.606C553.777 30.21 553.212 30.012 552.494 30.012C551.555 30.012 550.807 30.3567 550.25 31.046C549.692 31.7353 549.414 32.652 549.414 33.796V40H547.61V28.692ZM564.042 28.692V30.144H561.732V37.668C561.732 37.932 561.82 38.1593 561.996 38.35C562.186 38.526 562.428 38.614 562.722 38.614C563 38.614 563.426 38.548 563.998 38.416L564.196 40C563.286 40.1613 562.597 40.242 562.128 40.242C560.676 40.242 559.95 39.648 559.95 38.46V30.144H558.41V28.692H559.95V26.382L561.732 25.568V28.692H564.042Z" fill="black"/>
<path d="M710.3 29.066H708.232C708.012 28.01 707.631 27.24 707.088 26.756C706.384 26.1107 705.357 25.788 704.008 25.788C702.365 25.788 701.097 26.4333 700.202 27.724C699.425 28.8533 699.036 30.3347 699.036 32.168C699.036 34.236 699.557 35.842 700.598 36.986C701.522 37.9687 702.71 38.46 704.162 38.46C705.937 38.46 707.161 37.8073 707.836 36.502C708.144 35.9007 708.386 35.1013 708.562 34.104H710.63C710.146 38.196 707.997 40.242 704.184 40.242C702.131 40.242 700.51 39.6407 699.322 38.438C697.797 36.898 697.034 34.83 697.034 32.234C697.034 29.7113 697.767 27.636 699.234 26.008C700.437 24.6733 702.094 24.006 704.206 24.006C707.638 24.006 709.669 25.6927 710.3 29.066ZM717.538 28.45C719.239 28.45 720.537 29.044 721.432 30.232C722.224 31.2587 722.62 32.652 722.62 34.412C722.62 36.3773 722.106 37.8733 721.08 38.9C720.2 39.7947 719.012 40.242 717.516 40.242C715.785 40.242 714.465 39.6627 713.556 38.504C712.764 37.492 712.368 36.128 712.368 34.412C712.368 32.4173 712.888 30.8847 713.93 29.814C714.824 28.9047 716.027 28.45 717.538 28.45ZM717.538 30.1C716.511 30.1 715.704 30.4887 715.118 31.266C714.531 32.0287 714.238 33.0773 714.238 34.412C714.238 35.8053 714.568 36.8687 715.228 37.602C715.8 38.2473 716.562 38.57 717.516 38.57C718.528 38.57 719.312 38.2033 719.87 37.47C720.442 36.7367 720.728 35.7173 720.728 34.412C720.728 32.9747 720.405 31.8747 719.76 31.112C719.202 30.4373 718.462 30.1 717.538 30.1ZM725.125 28.692H726.797V30.32C727.677 29.0733 728.836 28.45 730.273 28.45C731.667 28.45 732.679 29.0073 733.309 30.122C733.852 29.4913 734.373 29.0587 734.871 28.824C735.385 28.5747 736.015 28.45 736.763 28.45C738.963 28.45 740.063 29.484 740.063 31.552V40H738.259V32.256C738.259 30.76 737.555 30.012 736.147 30.012C735.414 30.012 734.791 30.298 734.277 30.87C733.764 31.442 733.507 32.124 733.507 32.916V40H731.703V32.256C731.703 30.76 731.007 30.012 729.613 30.012C728.865 30.012 728.227 30.298 727.699 30.87C727.186 31.4273 726.929 32.1093 726.929 32.916V40H725.125V28.692ZM743.129 28.692H744.801V30.32C745.681 29.0733 746.84 28.45 748.277 28.45C749.671 28.45 750.683 29.0073 751.313 30.122C751.856 29.4913 752.377 29.0587 752.875 28.824C753.389 28.5747 754.019 28.45 754.767 28.45C756.967 28.45 758.067 29.484 758.067 31.552V40H756.263V32.256C756.263 30.76 755.559 30.012 754.151 30.012C753.418 30.012 752.795 30.298 752.281 30.87C751.768 31.442 751.511 32.124 751.511 32.916V40H749.707V32.256C749.707 30.76 749.011 30.012 747.617 30.012C746.869 30.012 746.231 30.298 745.703 30.87C745.19 31.4273 744.933 32.1093 744.933 32.916V40H743.129V28.692ZM762.827 28.692V40H761.045V28.692H762.827ZM761.969 24.27C762.277 24.27 762.534 24.38 762.739 24.6C762.959 24.8053 763.069 25.0547 763.069 25.348C763.069 25.656 762.959 25.92 762.739 26.14C762.534 26.3453 762.277 26.448 761.969 26.448C761.676 26.448 761.419 26.3453 761.199 26.14C760.994 25.92 760.891 25.656 760.891 25.348C760.891 25.0547 760.994 24.8053 761.199 24.6C761.419 24.38 761.676 24.27 761.969 24.27ZM773.954 31.794H771.974C771.916 30.6647 771.16 30.1 769.708 30.1C768.96 30.1 768.366 30.2467 767.926 30.54C767.501 30.8187 767.288 31.2 767.288 31.684C767.288 32.4173 767.985 32.9453 769.378 33.268L771.116 33.664C772.246 33.928 773.06 34.302 773.558 34.786C774.057 35.27 774.306 35.93 774.306 36.766C774.306 37.8367 773.888 38.6873 773.052 39.318C772.216 39.934 771.087 40.242 769.664 40.242C768.11 40.242 766.929 39.8753 766.122 39.142C765.448 38.5407 765.088 37.7413 765.044 36.744H767.09C767.208 37.2573 767.369 37.6313 767.574 37.866C767.97 38.3353 768.711 38.57 769.796 38.57C770.603 38.57 771.241 38.4233 771.71 38.13C772.194 37.822 772.436 37.4187 772.436 36.92C772.436 36.172 771.857 35.6587 770.698 35.38L769.004 34.984C767.714 34.676 766.812 34.3093 766.298 33.884C765.712 33.4 765.418 32.7033 765.418 31.794C765.418 30.7673 765.807 29.9533 766.584 29.352C767.376 28.7507 768.432 28.45 769.752 28.45C771.131 28.45 772.202 28.7947 772.964 29.484C773.624 30.0853 773.954 30.8553 773.954 31.794ZM784.761 31.794H782.781C782.722 30.6647 781.967 30.1 780.515 30.1C779.767 30.1 779.173 30.2467 778.733 30.54C778.308 30.8187 778.095 31.2 778.095 31.684C778.095 32.4173 778.792 32.9453 780.185 33.268L781.923 33.664C783.052 33.928 783.866 34.302 784.365 34.786C784.864 35.27 785.113 35.93 785.113 36.766C785.113 37.8367 784.695 38.6873 783.859 39.318C783.023 39.934 781.894 40.242 780.471 40.242C778.916 40.242 777.736 39.8753 776.929 39.142C776.254 38.5407 775.895 37.7413 775.851 36.744H777.897C778.014 37.2573 778.176 37.6313 778.381 37.866C778.777 38.3353 779.518 38.57 780.603 38.57C781.41 38.57 782.048 38.4233 782.517 38.13C783.001 37.822 783.243 37.4187 783.243 36.92C783.243 36.172 782.664 35.6587 781.505 35.38L779.811 34.984C778.52 34.676 777.618 34.3093 777.105 33.884C776.518 33.4 776.225 32.7033 776.225 31.794C776.225 30.7673 776.614 29.9533 777.391 29.352C778.183 28.7507 779.239 28.45 780.559 28.45C781.938 28.45 783.008 28.7947 783.771 29.484C784.431 30.0853 784.761 30.8553 784.761 31.794ZM789.232 28.692V40H787.45V28.692H789.232ZM788.374 24.27C788.682 24.27 788.938 24.38 789.144 24.6C789.364 24.8053 789.474 25.0547 789.474 25.348C789.474 25.656 789.364 25.92 789.144 26.14C788.938 26.3453 788.682 26.448 788.374 26.448C788.08 26.448 787.824 26.3453 787.604 26.14C787.398 25.92 787.296 25.656 787.296 25.348C787.296 25.0547 787.398 24.8053 787.604 24.6C787.824 24.38 788.08 24.27 788.374 24.27ZM796.751 28.45C798.452 28.45 799.75 29.044 800.645 30.232C801.437 31.2587 801.833 32.652 801.833 34.412C801.833 36.3773 801.319 37.8733 800.293 38.9C799.413 39.7947 798.225 40.242 796.729 40.242C794.998 40.242 793.678 39.6627 792.769 38.504C791.977 37.492 791.581 36.128 791.581 34.412C791.581 32.4173 792.101 30.8847 793.143 29.814C794.037 28.9047 795.24 28.45 796.751 28.45ZM796.751 30.1C795.724 30.1 794.917 30.4887 794.331 31.266C793.744 32.0287 793.451 33.0773 793.451 34.412C793.451 35.8053 793.781 36.8687 794.441 37.602C795.013 38.2473 795.775 38.57 796.729 38.57C797.741 38.57 798.525 38.2033 799.083 37.47C799.655 36.7367 799.941 35.7173 799.941 34.412C799.941 32.9747 799.618 31.8747 798.973 31.112C798.415 30.4373 797.675 30.1 796.751 30.1ZM804.338 28.692H806.01V30.606C806.92 29.1687 808.166 28.45 809.75 28.45C810.85 28.45 811.723 28.7287 812.368 29.286C813.014 29.8287 813.336 30.562 813.336 31.486V40H811.554V32.212C811.554 31.5373 811.342 31.002 810.916 30.606C810.506 30.21 809.941 30.012 809.222 30.012C808.284 30.012 807.536 30.3567 806.978 31.046C806.421 31.7353 806.142 32.652 806.142 33.796V40H804.338V28.692Z" fill="black"/>
<path d="M936.938 32.828V38.218H946.222V40H934.936V24.248H945.848V26.03H936.938V31.046H945.518V32.828H936.938ZM953.73 34.148L957.646 40H955.556L952.718 35.644L949.836 40H947.79L951.794 34.236L947.988 28.692H950.056L952.784 32.784L955.512 28.692H957.536L953.73 34.148ZM969.289 34.874H960.951C960.965 35.842 961.171 36.612 961.567 37.184C962.197 38.108 963.107 38.57 964.295 38.57C965.761 38.57 966.751 37.8733 967.265 36.48H969.069C968.834 37.668 968.291 38.592 967.441 39.252C966.59 39.912 965.519 40.242 964.229 40.242C962.513 40.242 961.2 39.6553 960.291 38.482C959.484 37.4553 959.081 36.0987 959.081 34.412C959.081 32.4613 959.609 30.9433 960.665 29.858C961.589 28.9193 962.784 28.45 964.251 28.45C965.321 28.45 966.26 28.7067 967.067 29.22C967.888 29.7333 968.475 30.4373 968.827 31.332C969.135 32.0947 969.289 33.2533 969.289 34.808V34.874ZM967.353 33.4C967.353 32.4173 967.059 31.6253 966.473 31.024C965.901 30.408 965.16 30.1 964.251 30.1C963.327 30.1 962.571 30.4007 961.985 31.002C961.413 31.5887 961.09 32.388 961.017 33.4H967.353ZM980.396 32.476H978.592C978.372 30.892 977.478 30.1 975.908 30.1C974.926 30.1 974.156 30.4887 973.598 31.266C973.041 32.0433 972.762 33.1213 972.762 34.5C972.762 35.864 973.092 36.9053 973.752 37.624C974.31 38.2547 975.058 38.57 975.996 38.57C977.507 38.57 978.409 37.7487 978.702 36.106H980.528C980.411 37.514 979.905 38.5773 979.01 39.296C978.233 39.9267 977.214 40.242 975.952 40.242C974.295 40.242 973.004 39.6553 972.08 38.482C971.288 37.47 970.892 36.1427 970.892 34.5C970.892 32.5347 971.413 30.9947 972.454 29.88C973.349 28.9267 974.508 28.45 975.93 28.45C977.573 28.45 978.805 29 979.626 30.1C980.052 30.672 980.308 31.464 980.396 32.476ZM991.445 40H989.663V38.218C988.856 39.5673 987.654 40.242 986.055 40.242C984.955 40.242 984.075 39.9707 983.415 39.428C982.77 38.8707 982.447 38.13 982.447 37.206V28.692H984.229V36.48C984.229 37.14 984.442 37.668 984.867 38.064C985.292 38.46 985.864 38.658 986.583 38.658C987.522 38.658 988.27 38.3207 988.827 37.646C989.384 36.9567 989.663 36.0327 989.663 34.874V28.692H991.445V40ZM998.989 28.692V30.144H996.679V37.668C996.679 37.932 996.767 38.1593 996.943 38.35C997.133 38.526 997.375 38.614 997.669 38.614C997.947 38.614 998.373 38.548 998.945 38.416L999.143 40C998.233 40.1613 997.544 40.242 997.075 40.242C995.623 40.242 994.897 39.648 994.897 38.46V30.144H993.357V28.692H994.897V26.382L996.679 25.568V28.692H998.989ZM1002.79 28.692V40H1001.01V28.692H1002.79ZM1001.93 24.27C1002.24 24.27 1002.5 24.38 1002.7 24.6C1002.92 24.8053 1003.03 25.0547 1003.03 25.348C1003.03 25.656 1002.92 25.92 1002.7 26.14C1002.5 26.3453 1002.24 26.448 1001.93 26.448C1001.64 26.448 1001.38 26.3453 1001.16 26.14C1000.96 25.92 1000.86 25.656 1000.86 25.348C1000.86 25.0547 1000.96 24.8053 1001.16 24.6C1001.38 24.38 1001.64 24.27 1001.93 24.27ZM1010.31 28.45C1012.01 28.45 1013.31 29.044 1014.21 30.232C1015 31.2587 1015.39 32.652 1015.39 34.412C1015.39 36.3773 1014.88 37.8733 1013.85 38.9C1012.97 39.7947 1011.79 40.242 1010.29 40.242C1008.56 40.242 1007.24 39.6627 1006.33 38.504C1005.54 37.492 1005.14 36.128 1005.14 34.412C1005.14 32.4173 1005.66 30.8847 1006.7 29.814C1007.6 28.9047 1008.8 28.45 1010.31 28.45ZM1010.31 30.1C1009.28 30.1 1008.48 30.4887 1007.89 31.266C1007.3 32.0287 1007.01 33.0773 1007.01 34.412C1007.01 35.8053 1007.34 36.8687 1008 37.602C1008.57 38.2473 1009.34 38.57 1010.29 38.57C1011.3 38.57 1012.09 38.2033 1012.64 37.47C1013.22 36.7367 1013.5 35.7173 1013.5 34.412C1013.5 32.9747 1013.18 31.8747 1012.53 31.112C1011.98 30.4373 1011.24 30.1 1010.31 30.1ZM1017.9 28.692H1019.57V30.606C1020.48 29.1687 1021.73 28.45 1023.31 28.45C1024.41 28.45 1025.28 28.7287 1025.93 29.286C1026.57 29.8287 1026.9 30.562 1026.9 31.486V40H1025.11V32.212C1025.11 31.5373 1024.9 31.002 1024.48 30.606C1024.07 30.21 1023.5 30.012 1022.78 30.012C1021.84 30.012 1021.1 30.3567 1020.54 31.046C1019.98 31.7353 1019.7 32.652 1019.7 33.796V40H1017.9V28.692ZM1040.09 26.03V40H1038.08V26.03H1032.89V24.248H1045.23V26.03H1040.09ZM1048.83 28.692V40H1047.05V28.692H1048.83ZM1047.98 24.27C1048.28 24.27 1048.54 24.38 1048.75 24.6C1048.97 24.8053 1049.08 25.0547 1049.08 25.348C1049.08 25.656 1048.97 25.92 1048.75 26.14C1048.54 26.3453 1048.28 26.448 1047.98 26.448C1047.68 26.448 1047.43 26.3453 1047.21 26.14C1047 25.92 1046.9 25.656 1046.9 25.348C1046.9 25.0547 1047 24.8053 1047.21 24.6C1047.43 24.38 1047.68 24.27 1047.98 24.27ZM1051.93 28.692H1053.6V30.32C1054.48 29.0733 1055.64 28.45 1057.08 28.45C1058.47 28.45 1059.48 29.0073 1060.11 30.122C1060.66 29.4913 1061.18 29.0587 1061.68 28.824C1062.19 28.5747 1062.82 28.45 1063.57 28.45C1065.77 28.45 1066.87 29.484 1066.87 31.552V40H1065.06V32.256C1065.06 30.76 1064.36 30.012 1062.95 30.012C1062.22 30.012 1061.6 30.298 1061.08 30.87C1060.57 31.442 1060.31 32.124 1060.31 32.916V40H1058.51V32.256C1058.51 30.76 1057.81 30.012 1056.42 30.012C1055.67 30.012 1055.03 30.298 1054.5 30.87C1053.99 31.4273 1053.73 32.1093 1053.73 32.916V40H1051.93V28.692ZM1079.48 34.874H1071.14C1071.16 35.842 1071.36 36.612 1071.76 37.184C1072.39 38.108 1073.3 38.57 1074.49 38.57C1075.95 38.57 1076.94 37.8733 1077.46 36.48H1079.26C1079.03 37.668 1078.48 38.592 1077.63 39.252C1076.78 39.912 1075.71 40.242 1074.42 40.242C1072.71 40.242 1071.39 39.6553 1070.48 38.482C1069.68 37.4553 1069.27 36.0987 1069.27 34.412C1069.27 32.4613 1069.8 30.9433 1070.86 29.858C1071.78 28.9193 1072.98 28.45 1074.44 28.45C1075.51 28.45 1076.45 28.7067 1077.26 29.22C1078.08 29.7333 1078.67 30.4373 1079.02 31.332C1079.33 32.0947 1079.48 33.2533 1079.48 34.808V34.874ZM1077.55 33.4C1077.55 32.4173 1077.25 31.6253 1076.67 31.024C1076.09 30.408 1075.35 30.1 1074.44 30.1C1073.52 30.1 1072.76 30.4007 1072.18 31.002C1071.61 31.5887 1071.28 32.388 1071.21 33.4H1077.55ZM1083.88 24.248H1085.22L1085.13 26.69L1087.42 25.854L1087.82 27.13L1085.49 27.79L1087 29.682L1085.9 30.474L1084.56 28.45L1083.2 30.474L1082.12 29.682L1083.62 27.79L1081.28 27.13L1081.7 25.854L1083.99 26.69L1083.88 24.248Z" fill="black"/>
<rect x="81" y="78" width="1032" height="80" fill="#FFF7F7"/>
<path d="M196.61 136.333H188.645L193.627 98.6814H201.592L196.61 136.333Z" fill="#00579F"/>
<path d="M225.485 99.603C223.913 98.8412 221.422 98 218.34 98C210.474 98 204.935 103.127 204.901 110.456C204.836 115.864 208.867 118.868 211.882 120.671C214.964 122.514 216.011 123.716 216.011 125.359C215.98 127.881 213.521 129.044 211.228 129.044C208.048 129.044 206.344 128.444 203.754 127.041L202.705 126.439L201.591 134.891C203.459 135.932 206.901 136.855 210.474 136.895C218.832 136.895 224.273 131.848 224.338 124.037C224.37 119.751 222.241 116.466 217.652 113.783C214.866 112.06 213.159 110.898 213.159 109.136C213.192 107.533 214.603 105.892 217.747 105.892C220.337 105.812 222.24 106.572 223.681 107.334L224.401 107.733L225.485 99.603Z" fill="#00579F"/>
<path d="M236.072 122.994C236.728 120.831 239.252 112.46 239.252 112.46C239.219 112.54 239.907 110.257 240.3 108.855L240.857 112.099C240.857 112.099 242.365 121.112 242.693 122.994C241.448 122.994 237.645 122.994 236.072 122.994ZM245.904 98.6814H239.743C237.843 98.6814 236.399 99.3618 235.579 101.805L223.748 136.332H232.106C232.106 136.332 233.482 131.685 233.777 130.684C234.694 130.684 242.825 130.684 244.004 130.684C244.233 132.006 244.955 136.332 244.955 136.332H252.33L245.904 98.6814Z" fill="#00579F"/>
<path d="M181.992 98.6814L174.191 124.356L173.338 119.149C171.896 113.141 167.373 106.613 162.326 103.367L169.471 136.293H177.894L190.414 98.6814H181.992Z" fill="#00579F"/>
<path d="M166.947 98.6814H154.131L154 99.4422C163.997 102.567 170.618 110.098 173.338 119.151L170.552 101.846C170.093 99.4416 168.684 98.7607 166.947 98.6814Z" fill="#FAA61A"/>
<path d="M458.148 111.112V123.316L457.374 124H456.618V112.948L454.386 114.82L453.576 113.812L456.78 111.112H458.148ZM464.15 124.234C462.554 124.234 461.414 123.4 460.73 121.732C460.286 120.664 460.064 119.338 460.064 117.754C460.064 115.762 460.412 114.118 461.108 112.822C461.792 111.526 462.806 110.878 464.15 110.878C465.458 110.878 466.46 111.508 467.156 112.768C467.888 114.052 468.254 115.696 468.254 117.7C468.254 119.584 467.954 121.096 467.354 122.236C466.646 123.568 465.578 124.234 464.15 124.234ZM466.688 117.736C466.688 114.076 465.842 112.246 464.15 112.246C462.47 112.246 461.63 114.064 461.63 117.7C461.63 119.224 461.768 120.37 462.044 121.138C462.44 122.278 463.142 122.848 464.15 122.848C465.842 122.848 466.688 121.144 466.688 117.736ZM473.66 124.234C472.064 124.234 470.924 123.4 470.24 121.732C469.796 120.664 469.574 119.338 469.574 117.754C469.574 115.762 469.922 114.118 470.618 112.822C471.302 111.526 472.316 110.878 473.66 110.878C474.968 110.878 475.97 111.508 476.666 112.768C477.398 114.052 477.764 115.696 477.764 117.7C477.764 119.584 477.464 121.096 476.864 122.236C476.156 123.568 475.088 124.234 473.66 124.234ZM476.198 117.736C476.198 114.076 475.352 112.246 473.66 112.246C471.98 112.246 471.14 114.064 471.14 117.7C471.14 119.224 471.278 120.37 471.554 121.138C471.95 122.278 472.652 122.848 473.66 122.848C475.352 122.848 476.198 121.144 476.198 117.736ZM491.479 111.112H493.117V119.95C493.117 121.342 492.607 122.422 491.587 123.19C490.711 123.862 489.565 124.198 488.149 124.198C486.517 124.198 485.257 123.772 484.369 122.92C483.601 122.164 483.217 121.174 483.217 119.95V111.112H484.855V119.95C484.855 120.838 485.143 121.528 485.719 122.02C486.295 122.5 487.105 122.74 488.149 122.74C489.253 122.74 490.105 122.464 490.705 121.912C491.221 121.42 491.479 120.766 491.479 119.95V111.112ZM505.014 114.82H503.466C503.43 113.14 502.356 112.3 500.244 112.3C499.38 112.3 498.684 112.498 498.156 112.894C497.628 113.278 497.364 113.788 497.364 114.424C497.364 114.904 497.52 115.288 497.832 115.576C498.156 115.852 498.708 116.092 499.488 116.296L502.548 117.088C504.492 117.604 505.464 118.684 505.464 120.328C505.464 121.516 504.99 122.482 504.042 123.226C503.202 123.874 501.996 124.198 500.424 124.198C498.432 124.198 496.986 123.598 496.086 122.398C495.606 121.75 495.354 120.88 495.33 119.788H496.878V119.824C496.878 120.76 497.196 121.486 497.832 122.002C498.48 122.506 499.38 122.758 500.532 122.758C501.588 122.758 502.374 122.584 502.89 122.236C503.502 121.816 503.808 121.228 503.808 120.472C503.808 119.512 503.022 118.834 501.45 118.438L498.246 117.61C496.566 117.178 495.726 116.188 495.726 114.64C495.726 113.416 496.188 112.468 497.112 111.796C497.916 111.208 498.978 110.914 500.298 110.914C502.17 110.914 503.508 111.46 504.312 112.552C504.78 113.188 505.014 113.878 505.014 114.622C505.014 114.658 505.014 114.724 505.014 114.82ZM507.845 124V111.112H512.813C514.553 111.112 515.891 111.76 516.827 113.056C517.643 114.196 518.051 115.696 518.051 117.556C518.051 119.692 517.523 121.336 516.467 122.488C515.543 123.496 514.325 124 512.813 124H507.845ZM509.483 122.542H512.525C515.117 122.542 516.413 120.88 516.413 117.556C516.413 114.232 515.117 112.57 512.525 112.57H509.483V122.542Z" fill="black"/>
<rect x="81" y="185" width="1032" height="80" fill="#FFF7F7"/>
<rect x="81" y="292" width="1032" height="80" fill="#FFF7F7"/>
<rect x="81" y="399" width="1032" height="80" fill="#FFF7F7"/>
<path d="M741.222 118.132V124H739.584V111.112H748.224V112.57H741.222V116.674H747.378V118.132H741.222ZM750.017 114.748H751.385V116.44C751.925 115.168 752.777 114.532 753.941 114.532C754.085 114.532 754.259 114.55 754.463 114.586V116.098C753.503 116.11 752.843 116.248 752.483 116.512C751.823 116.992 751.493 117.886 751.493 119.194V124H750.017V114.748ZM763.736 119.806H756.914C756.926 120.598 757.094 121.228 757.418 121.696C757.934 122.452 758.678 122.83 759.65 122.83C760.85 122.83 761.66 122.26 762.08 121.12H763.556C763.364 122.092 762.92 122.848 762.224 123.388C761.528 123.928 760.652 124.198 759.596 124.198C758.192 124.198 757.118 123.718 756.374 122.758C755.714 121.918 755.384 120.808 755.384 119.428C755.384 117.832 755.816 116.59 756.68 115.702C757.436 114.934 758.414 114.55 759.614 114.55C760.49 114.55 761.258 114.76 761.918 115.18C762.59 115.6 763.07 116.176 763.358 116.908C763.61 117.532 763.736 118.48 763.736 119.752V119.806ZM762.152 118.6C762.152 117.796 761.912 117.148 761.432 116.656C760.964 116.152 760.358 115.9 759.614 115.9C758.858 115.9 758.24 116.146 757.76 116.638C757.292 117.118 757.028 117.772 756.968 118.6H762.152ZM773.562 119.806H766.74C766.752 120.598 766.92 121.228 767.244 121.696C767.76 122.452 768.504 122.83 769.476 122.83C770.676 122.83 771.486 122.26 771.906 121.12H773.382C773.19 122.092 772.746 122.848 772.05 123.388C771.354 123.928 770.478 124.198 769.422 124.198C768.018 124.198 766.944 123.718 766.2 122.758C765.54 121.918 765.21 120.808 765.21 119.428C765.21 117.832 765.642 116.59 766.506 115.702C767.262 114.934 768.24 114.55 769.44 114.55C770.316 114.55 771.084 114.76 771.744 115.18C772.416 115.6 772.896 116.176 773.184 116.908C773.436 117.532 773.562 118.48 773.562 119.752V119.806ZM771.978 118.6C771.978 117.796 771.738 117.148 771.258 116.656C770.79 116.152 770.184 115.9 769.44 115.9C768.684 115.9 768.066 116.146 767.586 116.638C767.118 117.118 766.854 117.772 766.794 118.6H771.978Z" fill="black"/>
<path d="M990.438 111.112V124H988.764V111.112H990.438ZM993.164 114.748H994.532V116.314C995.276 115.138 996.296 114.55 997.592 114.55C998.492 114.55 999.206 114.778 999.734 115.234C1000.26 115.678 1000.53 116.278 1000.53 117.034V124H999.068V117.628C999.068 117.076 998.894 116.638 998.546 116.314C998.21 115.99 997.748 115.828 997.16 115.828C996.392 115.828 995.78 116.11 995.324 116.674C994.868 117.238 994.64 117.988 994.64 118.924V124H993.164V114.748ZM1009.56 117.286H1007.94C1007.89 116.362 1007.27 115.9 1006.09 115.9C1005.47 115.9 1004.99 116.02 1004.63 116.26C1004.28 116.488 1004.11 116.8 1004.11 117.196C1004.11 117.796 1004.68 118.228 1005.82 118.492L1007.24 118.816C1008.16 119.032 1008.83 119.338 1009.24 119.734C1009.64 120.13 1009.85 120.67 1009.85 121.354C1009.85 122.23 1009.51 122.926 1008.82 123.442C1008.14 123.946 1007.21 124.198 1006.05 124.198C1004.78 124.198 1003.81 123.898 1003.15 123.298C1002.6 122.806 1002.31 122.152 1002.27 121.336H1003.94C1004.04 121.756 1004.17 122.062 1004.34 122.254C1004.66 122.638 1005.27 122.83 1006.16 122.83C1006.82 122.83 1007.34 122.71 1007.72 122.47C1008.12 122.218 1008.32 121.888 1008.32 121.48C1008.32 120.868 1007.84 120.448 1006.9 120.22L1005.51 119.896C1004.45 119.644 1003.72 119.344 1003.3 118.996C1002.82 118.6 1002.58 118.03 1002.58 117.286C1002.58 116.446 1002.89 115.78 1003.53 115.288C1004.18 114.796 1005.04 114.55 1006.12 114.55C1007.25 114.55 1008.13 114.832 1008.75 115.396C1009.29 115.888 1009.56 116.518 1009.56 117.286ZM1015.45 114.748V115.936H1013.56V122.092C1013.56 122.308 1013.63 122.494 1013.78 122.65C1013.93 122.794 1014.13 122.866 1014.37 122.866C1014.6 122.866 1014.95 122.812 1015.41 122.704L1015.58 124C1014.83 124.132 1014.27 124.198 1013.88 124.198C1012.7 124.198 1012.1 123.712 1012.1 122.74V115.936H1010.84V114.748H1012.1V112.858L1013.56 112.192V114.748H1015.45ZM1025.38 122.758V123.946C1024.98 124.09 1024.66 124.162 1024.43 124.162C1023.47 124.162 1022.95 123.724 1022.86 122.848C1022.2 123.748 1021.15 124.198 1019.71 124.198C1018.72 124.198 1017.94 123.922 1017.39 123.37C1016.91 122.89 1016.67 122.272 1016.67 121.516C1016.67 120.652 1016.98 119.986 1017.59 119.518C1017.94 119.254 1018.66 118.996 1019.77 118.744L1022.79 118.06L1022.81 117.286C1022.81 116.362 1022.11 115.9 1020.72 115.9C1019.39 115.9 1018.68 116.44 1018.58 117.52H1017.09C1017.12 116.704 1017.33 116.08 1017.7 115.648C1018.33 114.916 1019.37 114.55 1020.79 114.55C1023.11 114.55 1024.27 115.39 1024.27 117.07V122.236C1024.27 122.692 1024.47 122.92 1024.86 122.92C1024.91 122.92 1025.04 122.884 1025.24 122.812C1025.31 122.788 1025.36 122.77 1025.38 122.758ZM1022.81 119.266L1020.43 119.878C1019.58 120.094 1018.99 120.316 1018.67 120.544C1018.36 120.772 1018.2 121.09 1018.2 121.498C1018.2 122.446 1018.81 122.92 1020.04 122.92C1020.9 122.92 1021.63 122.638 1022.23 122.074C1022.62 121.726 1022.81 121.33 1022.81 120.886V119.266ZM1027 114.748H1028.37V116.314C1029.11 115.138 1030.13 114.55 1031.43 114.55C1032.33 114.55 1033.04 114.778 1033.57 115.234C1034.1 115.678 1034.36 116.278 1034.36 117.034V124H1032.91V117.628C1032.91 117.076 1032.73 116.638 1032.38 116.314C1032.05 115.99 1031.59 115.828 1031 115.828C1030.23 115.828 1029.62 116.11 1029.16 116.674C1028.71 117.238 1028.48 117.988 1028.48 118.924V124H1027V114.748ZM1040.45 114.748V115.936H1038.56V122.092C1038.56 122.308 1038.63 122.494 1038.77 122.65C1038.93 122.794 1039.13 122.866 1039.37 122.866C1039.59 122.866 1039.94 122.812 1040.41 122.704L1040.57 124C1039.83 124.132 1039.26 124.198 1038.88 124.198C1037.69 124.198 1037.1 123.712 1037.1 122.74V115.936H1035.84V114.748H1037.1V112.858L1038.56 112.192V114.748H1040.45Z" fill="black"/>
<g clip-path="url(#clip0_0_1)">
<path d="M177.822 251.881V248.231C177.822 246.834 176.641 245.92 174.614 245.92C173.6 245.92 172.498 246.161 171.74 246.955C171.15 246.289 170.303 245.92 169.034 245.92C168.187 245.92 167.341 246.104 166.672 246.77V246.04H164.901V251.881H166.672V248.656C166.672 247.621 167.43 247.132 168.611 247.132C169.792 247.132 170.382 247.678 170.382 248.656V251.881H172.153V248.656C172.153 247.621 173 247.132 174.092 247.132C175.273 247.132 175.863 247.678 175.863 248.656V251.881H177.822ZM204.097 246.04H201.223V244.276H199.452V246.04H197.848V247.196H199.452V249.875C199.452 251.215 200.21 252.001 202.237 252.001C202.995 252.001 203.841 251.817 204.432 251.576L203.92 250.477C203.408 250.718 202.818 250.782 202.394 250.782C201.548 250.782 201.214 250.414 201.214 249.811V247.196H204.087V246.04H204.097ZM219.134 245.913C218.12 245.913 217.441 246.281 217.018 246.763V246.033H215.247V251.874H217.018V248.585C217.018 247.614 217.608 247.061 218.711 247.061C219.045 247.061 219.468 247.125 219.813 247.182L220.324 245.962C219.97 245.913 219.468 245.913 219.134 245.913ZM196.411 246.522C195.565 246.097 194.384 245.913 193.114 245.913C191.087 245.913 189.739 246.643 189.739 247.798C189.739 248.769 190.753 249.322 192.524 249.499L193.37 249.563C194.295 249.684 194.807 249.868 194.807 250.173C194.807 250.598 194.128 250.903 192.947 250.903C191.766 250.903 190.831 250.598 190.241 250.293L189.395 251.264C190.32 251.753 191.589 251.994 192.859 251.994C195.22 251.994 196.578 251.2 196.578 250.109C196.578 249.074 195.476 248.528 193.794 248.344L192.947 248.28C192.189 248.216 191.599 248.096 191.599 247.734C191.599 247.309 192.189 247.068 193.124 247.068C194.138 247.068 195.152 247.373 195.663 247.557L196.411 246.522ZM243.539 245.913C242.525 245.913 241.846 246.281 241.423 246.763V246.033H239.652V251.874H241.423V248.585C241.423 247.614 242.014 247.061 243.116 247.061C243.451 247.061 243.874 247.125 244.218 247.182L244.73 245.977C244.385 245.913 243.883 245.913 243.539 245.913ZM220.905 248.961C220.905 250.725 222.598 252.001 225.215 252.001C226.396 252.001 227.243 251.817 228.089 251.335L227.243 250.3C226.564 250.669 225.894 250.846 225.127 250.846C223.69 250.846 222.676 250.116 222.676 248.961C222.676 247.862 223.69 247.132 225.127 247.075C225.885 247.075 226.564 247.26 227.243 247.621L228.089 246.586C227.243 246.097 226.396 245.92 225.215 245.92C222.598 245.913 220.905 247.196 220.905 248.961ZM237.29 248.961V246.04H235.519V246.77C234.928 246.225 234.082 245.92 232.98 245.92C230.697 245.92 228.926 247.196 228.926 248.961C228.926 250.725 230.697 252.001 232.98 252.001C234.161 252.001 235.007 251.696 235.519 251.151V251.881H237.29V248.961ZM230.785 248.961C230.785 247.926 231.71 247.075 233.236 247.075C234.672 247.075 235.686 247.869 235.686 248.961C235.686 249.995 234.672 250.846 233.236 250.846C231.72 250.782 230.785 249.988 230.785 248.961ZM209.588 245.913C207.226 245.913 205.534 247.132 205.534 248.954C205.534 250.782 207.226 251.994 209.677 251.994C210.858 251.994 212.038 251.753 212.973 251.2L212.127 250.286C211.448 250.655 210.602 250.896 209.765 250.896C208.663 250.896 207.571 250.527 207.315 249.499H213.308C213.308 249.315 213.308 249.195 213.308 249.01C213.387 247.132 211.861 245.913 209.588 245.913ZM209.588 247.012C210.69 247.012 211.448 247.501 211.615 248.408H207.394C207.561 247.621 208.319 247.012 209.588 247.012ZM253.597 248.961V243.73H251.825V246.77C251.235 246.225 250.388 245.92 249.286 245.92C247.003 245.92 245.232 247.196 245.232 248.961C245.232 250.725 247.003 252.001 249.286 252.001C250.467 252.001 251.313 251.696 251.825 251.151V251.881H253.597V248.961ZM247.092 248.961C247.092 247.926 248.017 247.075 249.542 247.075C250.979 247.075 251.992 247.869 251.992 248.961C251.992 249.995 250.979 250.846 249.542 250.846C248.017 250.782 247.092 249.988 247.092 248.961ZM187.791 248.961V246.04H186.019V246.77C185.429 246.225 184.582 245.92 183.48 245.92C181.197 245.92 179.426 247.196 179.426 248.961C179.426 250.725 181.197 252.001 183.48 252.001C184.661 252.001 185.508 251.696 186.019 251.151V251.881H187.791V248.961ZM181.207 248.961C181.207 247.926 182.132 247.075 183.657 247.075C185.094 247.075 186.108 247.869 186.108 248.961C186.108 249.995 185.094 250.846 183.657 250.846C182.132 250.782 181.207 249.988 181.207 248.961Z" fill="black"/>
<path d="M222.43 201.686H195.82V236.118H222.43V201.686Z" fill="#FF5A00"/>
<path d="M197.592 218.901C197.592 211.906 202.158 205.697 209.165 201.685C204.008 198.765 197.504 197 190.408 197C173.6 197 160 206.795 160 218.901C160 231.007 173.6 240.803 190.408 240.803C197.504 240.803 204.008 239.038 209.165 236.117C202.149 232.162 197.592 225.897 197.592 218.901Z" fill="#EB001B"/>
<path d="M258.33 218.901C258.33 231.007 244.73 240.802 227.922 240.802C220.826 240.802 214.322 239.038 209.165 236.117C216.26 232.099 220.738 225.897 220.738 218.901C220.738 211.906 216.172 205.697 209.165 201.685C214.312 198.765 220.817 197 227.912 197C244.73 197 258.33 206.859 258.33 218.901Z" fill="#F79E1B"/>
</g>
<path d="M458.148 214.112V226.316L457.374 227H456.618V215.948L454.386 217.82L453.576 216.812L456.78 214.112H458.148ZM464.15 227.234C462.554 227.234 461.414 226.4 460.73 224.732C460.286 223.664 460.064 222.338 460.064 220.754C460.064 218.762 460.412 217.118 461.108 215.822C461.792 214.526 462.806 213.878 464.15 213.878C465.458 213.878 466.46 214.508 467.156 215.768C467.888 217.052 468.254 218.696 468.254 220.7C468.254 222.584 467.954 224.096 467.354 225.236C466.646 226.568 465.578 227.234 464.15 227.234ZM466.688 220.736C466.688 217.076 465.842 215.246 464.15 215.246C462.47 215.246 461.63 217.064 461.63 220.7C461.63 222.224 461.768 223.37 462.044 224.138C462.44 225.278 463.142 225.848 464.15 225.848C465.842 225.848 466.688 224.144 466.688 220.736ZM473.66 227.234C472.064 227.234 470.924 226.4 470.24 224.732C469.796 223.664 469.574 222.338 469.574 220.754C469.574 218.762 469.922 217.118 470.618 215.822C471.302 214.526 472.316 213.878 473.66 213.878C474.968 213.878 475.97 214.508 476.666 215.768C477.398 217.052 477.764 218.696 477.764 220.7C477.764 222.584 477.464 224.096 476.864 225.236C476.156 226.568 475.088 227.234 473.66 227.234ZM476.198 220.736C476.198 217.076 475.352 215.246 473.66 215.246C471.98 215.246 471.14 217.064 471.14 220.7C471.14 222.224 471.278 223.37 471.554 224.138C471.95 225.278 472.652 225.848 473.66 225.848C475.352 225.848 476.198 224.144 476.198 220.736ZM491.479 214.112H493.117V222.95C493.117 224.342 492.607 225.422 491.587 226.19C490.711 226.862 489.565 227.198 488.149 227.198C486.517 227.198 485.257 226.772 484.369 225.92C483.601 225.164 483.217 224.174 483.217 222.95V214.112H484.855V222.95C484.855 223.838 485.143 224.528 485.719 225.02C486.295 225.5 487.105 225.74 488.149 225.74C489.253 225.74 490.105 225.464 490.705 224.912C491.221 224.42 491.479 223.766 491.479 222.95V214.112ZM505.014 217.82H503.466C503.43 216.14 502.356 215.3 500.244 215.3C499.38 215.3 498.684 215.498 498.156 215.894C497.628 216.278 497.364 216.788 497.364 217.424C497.364 217.904 497.52 218.288 497.832 218.576C498.156 218.852 498.708 219.092 499.488 219.296L502.548 220.088C504.492 220.604 505.464 221.684 505.464 223.328C505.464 224.516 504.99 225.482 504.042 226.226C503.202 226.874 501.996 227.198 500.424 227.198C498.432 227.198 496.986 226.598 496.086 225.398C495.606 224.75 495.354 223.88 495.33 222.788H496.878V222.824C496.878 223.76 497.196 224.486 497.832 225.002C498.48 225.506 499.38 225.758 500.532 225.758C501.588 225.758 502.374 225.584 502.89 225.236C503.502 224.816 503.808 224.228 503.808 223.472C503.808 222.512 503.022 221.834 501.45 221.438L498.246 220.61C496.566 220.178 495.726 219.188 495.726 217.64C495.726 216.416 496.188 215.468 497.112 214.796C497.916 214.208 498.978 213.914 500.298 213.914C502.17 213.914 503.508 214.46 504.312 215.552C504.78 216.188 505.014 216.878 505.014 217.622C505.014 217.658 505.014 217.724 505.014 217.82ZM507.845 227V214.112H512.813C514.553 214.112 515.891 214.76 516.827 216.056C517.643 217.196 518.051 218.696 518.051 220.556C518.051 222.692 517.523 224.336 516.467 225.488C515.543 226.496 514.325 227 512.813 227H507.845ZM509.483 225.542H512.525C515.117 225.542 516.413 223.88 516.413 220.556C516.413 217.232 515.117 215.57 512.525 215.57H509.483V225.542Z" fill="black"/>
<path d="M741.222 221.132V227H739.584V214.112H748.224V215.57H741.222V219.674H747.378V221.132H741.222ZM750.017 217.748H751.385V219.44C751.925 218.168 752.777 217.532 753.941 217.532C754.085 217.532 754.259 217.55 754.463 217.586V219.098C753.503 219.11 752.843 219.248 752.483 219.512C751.823 219.992 751.493 220.886 751.493 222.194V227H750.017V217.748ZM763.736 222.806H756.914C756.926 223.598 757.094 224.228 757.418 224.696C757.934 225.452 758.678 225.83 759.65 225.83C760.85 225.83 761.66 225.26 762.08 224.12H763.556C763.364 225.092 762.92 225.848 762.224 226.388C761.528 226.928 760.652 227.198 759.596 227.198C758.192 227.198 757.118 226.718 756.374 225.758C755.714 224.918 755.384 223.808 755.384 222.428C755.384 220.832 755.816 219.59 756.68 218.702C757.436 217.934 758.414 217.55 759.614 217.55C760.49 217.55 761.258 217.76 761.918 218.18C762.59 218.6 763.07 219.176 763.358 219.908C763.61 220.532 763.736 221.48 763.736 222.752V222.806ZM762.152 221.6C762.152 220.796 761.912 220.148 761.432 219.656C760.964 219.152 760.358 218.9 759.614 218.9C758.858 218.9 758.24 219.146 757.76 219.638C757.292 220.118 757.028 220.772 756.968 221.6H762.152ZM773.562 222.806H766.74C766.752 223.598 766.92 224.228 767.244 224.696C767.76 225.452 768.504 225.83 769.476 225.83C770.676 225.83 771.486 225.26 771.906 224.12H773.382C773.19 225.092 772.746 225.848 772.05 226.388C771.354 226.928 770.478 227.198 769.422 227.198C768.018 227.198 766.944 226.718 766.2 225.758C765.54 224.918 765.21 223.808 765.21 222.428C765.21 220.832 765.642 219.59 766.506 218.702C767.262 217.934 768.24 217.55 769.44 217.55C770.316 217.55 771.084 217.76 771.744 218.18C772.416 218.6 772.896 219.176 773.184 219.908C773.436 220.532 773.562 221.48 773.562 222.752V222.806ZM771.978 221.6C771.978 220.796 771.738 220.148 771.258 219.656C770.79 219.152 770.184 218.9 769.44 218.9C768.684 218.9 768.066 219.146 767.586 219.638C767.118 220.118 766.854 220.772 766.794 221.6H771.978Z" fill="black"/>
<path d="M990.438 214.112V227H988.764V214.112H990.438ZM993.164 217.748H994.532V219.314C995.276 218.138 996.296 217.55 997.592 217.55C998.492 217.55 999.206 217.778 999.734 218.234C1000.26 218.678 1000.53 219.278 1000.53 220.034V227H999.068V220.628C999.068 220.076 998.894 219.638 998.546 219.314C998.21 218.99 997.748 218.828 997.16 218.828C996.392 218.828 995.78 219.11 995.324 219.674C994.868 220.238 994.64 220.988 994.64 221.924V227H993.164V217.748ZM1009.56 220.286H1007.94C1007.89 219.362 1007.27 218.9 1006.09 218.9C1005.47 218.9 1004.99 219.02 1004.63 219.26C1004.28 219.488 1004.11 219.8 1004.11 220.196C1004.11 220.796 1004.68 221.228 1005.82 221.492L1007.24 221.816C1008.16 222.032 1008.83 222.338 1009.24 222.734C1009.64 223.13 1009.85 223.67 1009.85 224.354C1009.85 225.23 1009.51 225.926 1008.82 226.442C1008.14 226.946 1007.21 227.198 1006.05 227.198C1004.78 227.198 1003.81 226.898 1003.15 226.298C1002.6 225.806 1002.31 225.152 1002.27 224.336H1003.94C1004.04 224.756 1004.17 225.062 1004.34 225.254C1004.66 225.638 1005.27 225.83 1006.16 225.83C1006.82 225.83 1007.34 225.71 1007.72 225.47C1008.12 225.218 1008.32 224.888 1008.32 224.48C1008.32 223.868 1007.84 223.448 1006.9 223.22L1005.51 222.896C1004.45 222.644 1003.72 222.344 1003.3 221.996C1002.82 221.6 1002.58 221.03 1002.58 220.286C1002.58 219.446 1002.89 218.78 1003.53 218.288C1004.18 217.796 1005.04 217.55 1006.12 217.55C1007.25 217.55 1008.13 217.832 1008.75 218.396C1009.29 218.888 1009.56 219.518 1009.56 220.286ZM1015.45 217.748V218.936H1013.56V225.092C1013.56 225.308 1013.63 225.494 1013.78 225.65C1013.93 225.794 1014.13 225.866 1014.37 225.866C1014.6 225.866 1014.95 225.812 1015.41 225.704L1015.58 227C1014.83 227.132 1014.27 227.198 1013.88 227.198C1012.7 227.198 1012.1 226.712 1012.1 225.74V218.936H1010.84V217.748H1012.1V215.858L1013.56 215.192V217.748H1015.45ZM1025.38 225.758V226.946C1024.98 227.09 1024.66 227.162 1024.43 227.162C1023.47 227.162 1022.95 226.724 1022.86 225.848C1022.2 226.748 1021.15 227.198 1019.71 227.198C1018.72 227.198 1017.94 226.922 1017.39 226.37C1016.91 225.89 1016.67 225.272 1016.67 224.516C1016.67 223.652 1016.98 222.986 1017.59 222.518C1017.94 222.254 1018.66 221.996 1019.77 221.744L1022.79 221.06L1022.81 220.286C1022.81 219.362 1022.11 218.9 1020.72 218.9C1019.39 218.9 1018.68 219.44 1018.58 220.52H1017.09C1017.12 219.704 1017.33 219.08 1017.7 218.648C1018.33 217.916 1019.37 217.55 1020.79 217.55C1023.11 217.55 1024.27 218.39 1024.27 220.07V225.236C1024.27 225.692 1024.47 225.92 1024.86 225.92C1024.91 225.92 1025.04 225.884 1025.24 225.812C1025.31 225.788 1025.36 225.77 1025.38 225.758ZM1022.81 222.266L1020.43 222.878C1019.58 223.094 1018.99 223.316 1018.67 223.544C1018.36 223.772 1018.2 224.09 1018.2 224.498C1018.2 225.446 1018.81 225.92 1020.04 225.92C1020.9 225.92 1021.63 225.638 1022.23 225.074C1022.62 224.726 1022.81 224.33 1022.81 223.886V222.266ZM1027 217.748H1028.37V219.314C1029.11 218.138 1030.13 217.55 1031.43 217.55C1032.33 217.55 1033.04 217.778 1033.57 218.234C1034.1 218.678 1034.36 219.278 1034.36 220.034V227H1032.91V220.628C1032.91 220.076 1032.73 219.638 1032.38 219.314C1032.05 218.99 1031.59 218.828 1031 218.828C1030.23 218.828 1029.62 219.11 1029.16 219.674C1028.71 220.238 1028.48 220.988 1028.48 221.924V227H1027V217.748ZM1040.45 217.748V218.936H1038.56V225.092C1038.56 225.308 1038.63 225.494 1038.77 225.65C1038.93 225.794 1039.13 225.866 1039.37 225.866C1039.59 225.866 1039.94 225.812 1040.41 225.704L1040.57 227C1039.83 227.132 1039.26 227.198 1038.88 227.198C1037.69 227.198 1037.1 226.712 1037.1 225.74V218.936H1035.84V217.748H1037.1V215.858L1038.56 215.192V217.748H1040.45Z" fill="black"/>
<path d="M257.395 338.623V337.793H257.1L256.756 338.346L256.412 337.793H256.117V338.623H256.313V338L256.657 338.554H256.903L257.247 338V338.623H257.395ZM255.428 338.623V337.931H255.822V337.793H254.838V337.931H255.232V338.623H255.428Z" fill="#00A2E5"/>
<path d="M222.44 342.185H195.842V308.567H222.44V342.185Z" fill="#7375CF"/>
<path d="M197.562 325.375C197.562 318.561 202.085 312.474 209.165 308.565C204.003 305.695 197.464 304 190.384 304C173.619 304 160 313.581 160 325.375C160 337.169 173.619 346.75 190.384 346.75C197.464 346.75 204.003 345.055 209.165 342.184C202.085 338.276 197.562 332.188 197.562 325.375Z" fill="#EB001B"/>
<path d="M258.33 325.375C258.33 337.169 244.711 346.75 227.946 346.75C220.866 346.75 214.327 345.055 209.165 342.184C216.245 338.276 220.768 332.189 220.768 325.375C220.768 318.561 216.245 312.474 209.165 308.566C214.327 305.695 220.866 304 227.946 304C244.711 304 258.33 313.581 258.33 325.375Z" fill="#00A2E5"/>
<path d="M231.386 351.695C231.731 351.695 232.272 351.729 232.616 351.833L232.075 353.009C231.682 352.905 231.337 352.871 230.993 352.871C229.862 352.871 229.272 353.39 229.272 354.324V357.505H227.502V351.833H229.223V352.525C229.715 352.006 230.403 351.695 231.386 351.695ZM224.897 352.94H222.045V355.499C222.045 356.053 222.34 356.433 223.225 356.433C223.668 356.433 224.258 356.329 224.798 356.122L225.29 357.194C224.749 357.471 223.864 357.644 223.078 357.644C221.013 357.644 220.275 356.848 220.275 355.534V352.94H218.653V351.799H220.275V350.069H222.045V351.799H224.897V352.94ZM202.428 354.151C202.625 353.32 203.313 352.767 204.592 352.767C205.722 352.767 206.46 353.251 206.656 354.151H202.428ZM208.476 354.669C208.476 352.905 206.902 351.695 204.641 351.695C202.281 351.695 200.609 352.905 200.609 354.669C200.609 356.468 202.33 357.644 204.739 357.644C205.968 357.644 207.05 357.436 208.033 356.848L207.148 355.949C206.46 356.329 205.624 356.537 204.788 356.537C203.657 356.537 202.625 356.157 202.379 355.154H208.377C208.426 354.981 208.476 354.842 208.476 354.669ZM216.194 353.286C215.703 353.078 214.72 352.802 213.687 352.802C212.704 352.802 212.163 353.044 212.163 353.459C212.163 353.839 212.753 353.943 213.54 354.012L214.375 354.081C216.145 354.254 217.178 354.773 217.178 355.776C217.178 356.848 215.85 357.644 213.49 357.644C212.163 357.644 210.934 357.402 210 356.917L210.836 355.949C211.426 356.26 212.31 356.537 213.54 356.537C214.72 356.537 215.359 356.295 215.359 355.845C215.359 355.534 214.916 355.361 213.933 355.257L213.097 355.188C211.278 355.015 210.295 354.427 210.295 353.528C210.295 352.387 211.622 351.695 213.638 351.695C214.916 351.695 216.096 351.902 216.932 352.283L216.194 353.286ZM237.827 352.836C237.483 352.836 237.139 352.871 236.844 352.975C236.549 353.078 236.254 353.182 236.057 353.355C235.86 353.528 235.664 353.701 235.516 353.943C235.369 354.151 235.32 354.427 235.32 354.669C235.32 354.946 235.369 355.188 235.516 355.396C235.664 355.603 235.811 355.811 236.057 355.984C236.303 356.157 236.549 356.26 236.844 356.364C237.139 356.468 237.483 356.502 237.827 356.502C238.171 356.502 238.515 356.468 238.81 356.364C239.105 356.26 239.4 356.157 239.597 355.984C239.843 355.811 239.99 355.638 240.138 355.396C240.285 355.188 240.334 354.912 240.334 354.669C240.334 354.393 240.285 354.151 240.138 353.943C239.99 353.736 239.843 353.528 239.597 353.355C239.351 353.182 239.105 353.078 238.81 352.975C238.515 352.905 238.171 352.836 237.827 352.836ZM237.827 351.695C238.466 351.695 239.056 351.764 239.548 351.937C240.089 352.075 240.531 352.283 240.924 352.56C241.318 352.836 241.613 353.148 241.859 353.493C242.055 353.874 242.203 354.254 242.203 354.669C242.203 355.084 242.104 355.499 241.859 355.845C241.662 356.226 241.318 356.537 240.924 356.779C240.531 357.056 240.089 357.263 239.548 357.402C239.007 357.54 238.417 357.644 237.827 357.644C237.188 357.644 236.598 357.575 236.106 357.402C235.566 357.263 235.123 357.056 234.73 356.779C234.336 356.502 234.041 356.191 233.796 355.845C233.599 355.465 233.451 355.084 233.451 354.669C233.451 354.254 233.55 353.839 233.796 353.493C233.992 353.113 234.336 352.802 234.73 352.56C235.123 352.283 235.566 352.075 236.106 351.937C236.598 351.764 237.188 351.695 237.827 351.695ZM192.202 354.669C192.202 353.666 193.136 352.836 194.66 352.836C196.135 352.836 197.069 353.632 197.069 354.669C197.069 355.707 196.086 356.468 194.66 356.468C193.136 356.468 192.202 355.672 192.202 354.669ZM198.741 354.669V351.833H196.971V352.525C196.43 352.006 195.594 351.695 194.414 351.695C192.153 351.695 190.383 352.94 190.383 354.669C190.383 356.399 192.153 357.644 194.414 357.644C195.545 357.644 196.381 357.333 196.971 356.814V357.505H198.741V354.669ZM188.859 357.505V353.943C188.859 352.594 187.63 351.695 185.663 351.695C184.63 351.695 183.549 351.902 182.811 352.698C182.271 352.075 181.386 351.695 180.156 351.695C179.321 351.695 178.436 351.868 177.797 352.525V351.833H176.027V357.505H177.797V354.358C177.797 353.39 178.583 352.836 179.763 352.836C180.943 352.836 181.533 353.355 181.533 354.324V357.471H183.303V354.324C183.303 353.355 184.139 352.802 185.27 352.802C186.45 352.802 187.04 353.32 187.04 354.289V357.436H188.859V357.505Z" fill="black"/>
<path d="M244.071 357.055V357.193H244.268C244.317 357.193 244.366 357.193 244.366 357.159C244.415 357.159 244.415 357.124 244.415 357.089C244.415 357.055 244.415 357.055 244.366 357.055C244.366 357.055 244.317 357.02 244.268 357.02H244.071V357.055ZM244.268 356.986C244.366 356.986 244.415 356.986 244.464 357.02C244.514 357.055 244.563 357.089 244.563 357.159C244.563 357.193 244.563 357.228 244.514 357.262C244.464 357.297 244.415 357.297 244.317 357.297L244.563 357.505H244.366L244.12 357.297H244.071V357.505H243.924V356.986H244.268ZM244.219 357.677C244.317 357.677 244.366 357.677 244.464 357.643C244.563 357.608 244.612 357.574 244.661 357.539C244.71 357.505 244.759 357.47 244.809 357.401C244.858 357.332 244.858 357.297 244.858 357.228C244.858 357.159 244.858 357.124 244.809 357.055C244.759 356.986 244.71 356.951 244.661 356.917C244.612 356.882 244.563 356.847 244.464 356.813C244.415 356.778 244.317 356.778 244.219 356.778C244.12 356.778 244.071 356.778 243.973 356.813C243.874 356.847 243.825 356.882 243.776 356.917C243.727 356.951 243.678 357.02 243.629 357.055C243.58 357.124 243.58 357.159 243.58 357.228C243.58 357.297 243.58 357.332 243.629 357.401C243.678 357.47 243.727 357.505 243.776 357.539C243.825 357.574 243.924 357.608 243.973 357.643C244.071 357.677 244.12 357.677 244.219 357.677ZM244.219 356.674C244.317 356.674 244.415 356.674 244.514 356.709C244.612 356.744 244.71 356.778 244.759 356.813C244.809 356.847 244.907 356.917 244.956 356.986C245.005 357.055 245.005 357.124 245.005 357.193C245.005 357.262 245.005 357.332 244.956 357.401C244.907 357.47 244.858 357.539 244.759 357.574C244.661 357.608 244.612 357.677 244.514 357.712C244.415 357.747 244.317 357.747 244.219 357.747C244.12 357.747 243.973 357.747 243.874 357.712C243.776 357.677 243.678 357.643 243.629 357.574C243.58 357.539 243.481 357.47 243.432 357.401C243.383 357.332 243.383 357.262 243.383 357.193C243.383 357.124 243.383 357.055 243.432 356.986C243.481 356.917 243.53 356.847 243.629 356.813C243.678 356.778 243.776 356.709 243.874 356.709C243.973 356.674 244.12 356.674 244.219 356.674Z" fill="black"/>
<path d="M458.148 317.112V329.316L457.374 330H456.618V318.948L454.386 320.82L453.576 319.812L456.78 317.112H458.148ZM464.15 330.234C462.554 330.234 461.414 329.4 460.73 327.732C460.286 326.664 460.064 325.338 460.064 323.754C460.064 321.762 460.412 320.118 461.108 318.822C461.792 317.526 462.806 316.878 464.15 316.878C465.458 316.878 466.46 317.508 467.156 318.768C467.888 320.052 468.254 321.696 468.254 323.7C468.254 325.584 467.954 327.096 467.354 328.236C466.646 329.568 465.578 330.234 464.15 330.234ZM466.688 323.736C466.688 320.076 465.842 318.246 464.15 318.246C462.47 318.246 461.63 320.064 461.63 323.7C461.63 325.224 461.768 326.37 462.044 327.138C462.44 328.278 463.142 328.848 464.15 328.848C465.842 328.848 466.688 327.144 466.688 323.736ZM473.66 330.234C472.064 330.234 470.924 329.4 470.24 327.732C469.796 326.664 469.574 325.338 469.574 323.754C469.574 321.762 469.922 320.118 470.618 318.822C471.302 317.526 472.316 316.878 473.66 316.878C474.968 316.878 475.97 317.508 476.666 318.768C477.398 320.052 477.764 321.696 477.764 323.7C477.764 325.584 477.464 327.096 476.864 328.236C476.156 329.568 475.088 330.234 473.66 330.234ZM476.198 323.736C476.198 320.076 475.352 318.246 473.66 318.246C471.98 318.246 471.14 320.064 471.14 323.7C471.14 325.224 471.278 326.37 471.554 327.138C471.95 328.278 472.652 328.848 473.66 328.848C475.352 328.848 476.198 327.144 476.198 323.736ZM491.479 317.112H493.117V325.95C493.117 327.342 492.607 328.422 491.587 329.19C490.711 329.862 489.565 330.198 488.149 330.198C486.517 330.198 485.257 329.772 484.369 328.92C483.601 328.164 483.217 327.174 483.217 325.95V317.112H484.855V325.95C484.855 326.838 485.143 327.528 485.719 328.02C486.295 328.5 487.105 328.74 488.149 328.74C489.253 328.74 490.105 328.464 490.705 327.912C491.221 327.42 491.479 326.766 491.479 325.95V317.112ZM505.014 320.82H503.466C503.43 319.14 502.356 318.3 500.244 318.3C499.38 318.3 498.684 318.498 498.156 318.894C497.628 319.278 497.364 319.788 497.364 320.424C497.364 320.904 497.52 321.288 497.832 321.576C498.156 321.852 498.708 322.092 499.488 322.296L502.548 323.088C504.492 323.604 505.464 324.684 505.464 326.328C505.464 327.516 504.99 328.482 504.042 329.226C503.202 329.874 501.996 330.198 500.424 330.198C498.432 330.198 496.986 329.598 496.086 328.398C495.606 327.75 495.354 326.88 495.33 325.788H496.878V325.824C496.878 326.76 497.196 327.486 497.832 328.002C498.48 328.506 499.38 328.758 500.532 328.758C501.588 328.758 502.374 328.584 502.89 328.236C503.502 327.816 503.808 327.228 503.808 326.472C503.808 325.512 503.022 324.834 501.45 324.438L498.246 323.61C496.566 323.178 495.726 322.188 495.726 320.64C495.726 319.416 496.188 318.468 497.112 317.796C497.916 317.208 498.978 316.914 500.298 316.914C502.17 316.914 503.508 317.46 504.312 318.552C504.78 319.188 505.014 319.878 505.014 320.622C505.014 320.658 505.014 320.724 505.014 320.82ZM507.845 330V317.112H512.813C514.553 317.112 515.891 317.76 516.827 319.056C517.643 320.196 518.051 321.696 518.051 323.556C518.051 325.692 517.523 327.336 516.467 328.488C515.543 329.496 514.325 330 512.813 330H507.845ZM509.483 328.542H512.525C515.117 328.542 516.413 326.88 516.413 323.556C516.413 320.232 515.117 318.57 512.525 318.57H509.483V328.542Z" fill="black"/>
<path d="M741.222 324.132V330H739.584V317.112H748.224V318.57H741.222V322.674H747.378V324.132H741.222ZM750.017 320.748H751.385V322.44C751.925 321.168 752.777 320.532 753.941 320.532C754.085 320.532 754.259 320.55 754.463 320.586V322.098C753.503 322.11 752.843 322.248 752.483 322.512C751.823 322.992 751.493 323.886 751.493 325.194V330H750.017V320.748ZM763.736 325.806H756.914C756.926 326.598 757.094 327.228 757.418 327.696C757.934 328.452 758.678 328.83 759.65 328.83C760.85 328.83 761.66 328.26 762.08 327.12H763.556C763.364 328.092 762.92 328.848 762.224 329.388C761.528 329.928 760.652 330.198 759.596 330.198C758.192 330.198 757.118 329.718 756.374 328.758C755.714 327.918 755.384 326.808 755.384 325.428C755.384 323.832 755.816 322.59 756.68 321.702C757.436 320.934 758.414 320.55 759.614 320.55C760.49 320.55 761.258 320.76 761.918 321.18C762.59 321.6 763.07 322.176 763.358 322.908C763.61 323.532 763.736 324.48 763.736 325.752V325.806ZM762.152 324.6C762.152 323.796 761.912 323.148 761.432 322.656C760.964 322.152 760.358 321.9 759.614 321.9C758.858 321.9 758.24 322.146 757.76 322.638C757.292 323.118 757.028 323.772 756.968 324.6H762.152ZM773.562 325.806H766.74C766.752 326.598 766.92 327.228 767.244 327.696C767.76 328.452 768.504 328.83 769.476 328.83C770.676 328.83 771.486 328.26 771.906 327.12H773.382C773.19 328.092 772.746 328.848 772.05 329.388C771.354 329.928 770.478 330.198 769.422 330.198C768.018 330.198 766.944 329.718 766.2 328.758C765.54 327.918 765.21 326.808 765.21 325.428C765.21 323.832 765.642 322.59 766.506 321.702C767.262 320.934 768.24 320.55 769.44 320.55C770.316 320.55 771.084 320.76 771.744 321.18C772.416 321.6 772.896 322.176 773.184 322.908C773.436 323.532 773.562 324.48 773.562 325.752V325.806ZM771.978 324.6C771.978 323.796 771.738 323.148 771.258 322.656C770.79 322.152 770.184 321.9 769.44 321.9C768.684 321.9 768.066 322.146 767.586 322.638C767.118 323.118 766.854 323.772 766.794 324.6H771.978Z" fill="black"/>
<path d="M995.202 317.248V333H993.156V317.248H995.202ZM998.534 321.692H1000.21V323.606C1001.11 322.169 1002.36 321.45 1003.95 321.45C1005.05 321.45 1005.92 321.729 1006.56 322.286C1007.21 322.829 1007.53 323.562 1007.53 324.486V333H1005.75V325.212C1005.75 324.537 1005.54 324.002 1005.11 323.606C1004.7 323.21 1004.14 323.012 1003.42 323.012C1002.48 323.012 1001.73 323.357 1001.17 324.046C1000.62 324.735 1000.34 325.652 1000.34 326.796V333H998.534V321.692ZM1018.57 324.794H1016.59C1016.53 323.665 1015.78 323.1 1014.33 323.1C1013.58 323.1 1012.99 323.247 1012.55 323.54C1012.12 323.819 1011.91 324.2 1011.91 324.684C1011.91 325.417 1012.6 325.945 1014 326.268L1015.74 326.664C1016.86 326.928 1017.68 327.302 1018.18 327.786C1018.68 328.27 1018.93 328.93 1018.93 329.766C1018.93 330.837 1018.51 331.687 1017.67 332.318C1016.84 332.934 1015.71 333.242 1014.28 333.242C1012.73 333.242 1011.55 332.875 1010.74 332.142C1010.07 331.541 1009.71 330.741 1009.66 329.744H1011.71C1011.83 330.257 1011.99 330.631 1012.19 330.866C1012.59 331.335 1013.33 331.57 1014.42 331.57C1015.22 331.57 1015.86 331.423 1016.33 331.13C1016.81 330.822 1017.06 330.419 1017.06 329.92C1017.06 329.172 1016.48 328.659 1015.32 328.38L1013.62 327.984C1012.33 327.676 1011.43 327.309 1010.92 326.884C1010.33 326.4 1010.04 325.703 1010.04 324.794C1010.04 323.767 1010.43 322.953 1011.2 322.352C1012 321.751 1013.05 321.45 1014.37 321.45C1015.75 321.45 1016.82 321.795 1017.58 322.484C1018.24 323.085 1018.57 323.855 1018.57 324.794ZM1025.77 321.692V323.144H1023.46V330.668C1023.46 330.932 1023.55 331.159 1023.73 331.35C1023.92 331.526 1024.16 331.614 1024.45 331.614C1024.73 331.614 1025.16 331.548 1025.73 331.416L1025.93 333C1025.02 333.161 1024.33 333.242 1023.86 333.242C1022.41 333.242 1021.68 332.648 1021.68 331.46V323.144H1020.14V321.692H1021.68V319.382L1023.46 318.568V321.692H1025.77ZM1037.91 331.482V332.934C1037.41 333.11 1037.03 333.198 1036.75 333.198C1035.57 333.198 1034.94 332.663 1034.83 331.592C1034.03 332.692 1032.74 333.242 1030.98 333.242C1029.77 333.242 1028.82 332.905 1028.15 332.23C1027.56 331.643 1027.27 330.888 1027.27 329.964C1027.27 328.908 1027.64 328.094 1028.39 327.522C1028.81 327.199 1029.7 326.884 1031.05 326.576L1034.75 325.74L1034.77 324.794C1034.77 323.665 1033.92 323.1 1032.22 323.1C1030.59 323.1 1029.71 323.76 1029.6 325.08H1027.77C1027.82 324.083 1028.06 323.32 1028.52 322.792C1029.3 321.897 1030.56 321.45 1032.3 321.45C1035.13 321.45 1036.55 322.477 1036.55 324.53V330.844C1036.55 331.401 1036.79 331.68 1037.28 331.68C1037.33 331.68 1037.49 331.636 1037.74 331.548C1037.83 331.519 1037.88 331.497 1037.91 331.482ZM1034.77 327.214L1031.86 327.962C1030.82 328.226 1030.1 328.497 1029.71 328.776C1029.33 329.055 1029.14 329.443 1029.14 329.942C1029.14 331.101 1029.88 331.68 1031.38 331.68C1032.44 331.68 1033.33 331.335 1034.06 330.646C1034.53 330.221 1034.77 329.737 1034.77 329.194V327.214ZM1039.89 321.692H1041.56V323.606C1042.47 322.169 1043.72 321.45 1045.3 321.45C1046.4 321.45 1047.28 321.729 1047.92 322.286C1048.57 322.829 1048.89 323.562 1048.89 324.486V333H1047.11V325.212C1047.11 324.537 1046.89 324.002 1046.47 323.606C1046.06 323.21 1045.49 323.012 1044.78 323.012C1043.84 323.012 1043.09 323.357 1042.53 324.046C1041.97 324.735 1041.7 325.652 1041.7 326.796V333H1039.89V321.692ZM1056.32 321.692V323.144H1054.01V330.668C1054.01 330.932 1054.1 331.159 1054.28 331.35C1054.47 331.526 1054.71 331.614 1055 331.614C1055.28 331.614 1055.71 331.548 1056.28 331.416L1056.48 333C1055.57 333.161 1054.88 333.242 1054.41 333.242C1052.96 333.242 1052.23 332.648 1052.23 331.46V323.144H1050.69V321.692H1052.23V319.382L1054.01 318.568V321.692H1056.32Z" fill="black"/>
<g clip-path="url(#clip1_0_1)">
<path d="M175.681 459.591C184.893 459.591 192.361 450.849 192.361 440.066C192.361 429.283 184.893 420.541 175.681 420.541C166.468 420.541 159 429.283 159 440.066C159 450.849 166.468 459.591 175.681 459.591Z" fill="#627EEA"/>
<path d="M176.199 425.422V436.246L184.015 440.334L176.199 425.422Z" fill="white" fill-opacity="0.602"/>
<path d="M176.2 425.422L168.383 440.334L176.2 436.246V425.422Z" fill="white"/>
<path d="M176.199 447.35V454.705L184.02 442.04L176.199 447.35Z" fill="white" fill-opacity="0.602"/>
<path d="M176.2 454.705V447.349L168.383 442.039L176.2 454.705Z" fill="white"/>
<path d="M176.199 445.647L184.015 440.335L176.199 436.25V445.647Z" fill="white" fill-opacity="0.2"/>
<path d="M168.383 440.335L176.2 445.647V436.25L168.383 440.335Z" fill="white" fill-opacity="0.602"/>
<path d="M241.359 459.591C250.571 459.591 258.039 450.849 258.039 440.066C258.039 429.283 250.571 420.541 241.359 420.541C232.146 420.541 224.678 429.283 224.678 440.066C224.678 450.849 232.146 459.591 241.359 459.591Z" fill="#26A17B"/>
<path fill-rule="evenodd" clip-rule="evenodd" d="M243.362 441.754V441.751C243.247 441.761 242.656 441.803 241.337 441.803C240.284 441.803 239.543 441.766 239.282 441.751V441.755C235.229 441.546 232.204 440.72 232.204 439.732C232.204 438.744 235.229 437.918 239.282 437.706V440.932C239.547 440.954 240.306 441.007 241.355 441.007C242.613 441.007 243.244 440.946 243.362 440.934V437.708C247.407 437.92 250.425 438.746 250.425 439.732C250.425 440.72 247.407 441.544 243.362 441.754ZM243.362 437.373V434.486H249.006V430.083H233.638V434.486H239.282V437.372C234.695 437.618 231.246 438.682 231.246 439.956C231.246 441.23 234.695 442.293 239.282 442.541V451.793H243.362V442.538C247.942 442.292 251.383 441.229 251.383 439.956C251.383 438.683 247.942 437.621 243.362 437.373Z" fill="white"/>
<path d="M230.251 439.457C230.251 453.842 220.288 465.503 207.999 465.503C195.709 465.503 185.746 453.842 185.746 439.457C185.746 425.072 195.709 413.41 207.999 413.41C220.288 413.41 230.251 425.072 230.251 439.457Z" fill="#F7931A" stroke="white" stroke-width="2"/>
<path d="M218.538 436.06C218.999 432.463 216.657 430.529 213.458 429.239L214.496 424.365L211.963 423.627L210.951 428.372C210.286 428.176 209.603 427.995 208.921 427.813L209.94 423.037L207.406 422.297L206.368 427.169C205.817 427.022 205.275 426.878 204.75 426.723L204.753 426.708L201.258 425.687L200.583 428.854C200.583 428.854 202.464 429.359 202.425 429.39C203.451 429.69 203.636 430.485 203.605 431.116L202.423 436.668C202.494 436.688 202.584 436.719 202.687 436.765L202.419 436.688L200.762 444.465C200.636 444.829 200.318 445.377 199.6 445.169C199.626 445.212 197.758 444.632 197.758 444.632L196.5 448.026L199.799 448.989C200.412 449.169 201.013 449.358 201.604 449.535L200.555 454.463L203.087 455.201L204.125 450.327C204.817 450.545 205.489 450.748 206.146 450.94L205.11 455.793L207.644 456.531L208.692 451.613C213.014 452.57 216.263 452.184 217.631 447.609C218.733 443.927 217.577 441.8 215.303 440.415C216.959 439.969 218.205 438.694 218.538 436.06ZM212.747 445.564C211.966 449.248 206.666 447.256 204.948 446.756L206.34 440.227C208.059 440.729 213.567 441.723 212.747 445.564ZM213.532 436.007C212.818 439.358 208.408 437.654 206.978 437.237L208.239 431.317C209.669 431.734 214.276 432.511 213.532 436.007Z" fill="white"/>
</g>
<path d="M458.148 431.112V443.316L457.374 444H456.618V432.948L454.386 434.82L453.576 433.812L456.78 431.112H458.148ZM464.15 444.234C462.554 444.234 461.414 443.4 460.73 441.732C460.286 440.664 460.064 439.338 460.064 437.754C460.064 435.762 460.412 434.118 461.108 432.822C461.792 431.526 462.806 430.878 464.15 430.878C465.458 430.878 466.46 431.508 467.156 432.768C467.888 434.052 468.254 435.696 468.254 437.7C468.254 439.584 467.954 441.096 467.354 442.236C466.646 443.568 465.578 444.234 464.15 444.234ZM466.688 437.736C466.688 434.076 465.842 432.246 464.15 432.246C462.47 432.246 461.63 434.064 461.63 437.7C461.63 439.224 461.768 440.37 462.044 441.138C462.44 442.278 463.142 442.848 464.15 442.848C465.842 442.848 466.688 441.144 466.688 437.736ZM473.66 444.234C472.064 444.234 470.924 443.4 470.24 441.732C469.796 440.664 469.574 439.338 469.574 437.754C469.574 435.762 469.922 434.118 470.618 432.822C471.302 431.526 472.316 430.878 473.66 430.878C474.968 430.878 475.97 431.508 476.666 432.768C477.398 434.052 477.764 435.696 477.764 437.7C477.764 439.584 477.464 441.096 476.864 442.236C476.156 443.568 475.088 444.234 473.66 444.234ZM476.198 437.736C476.198 434.076 475.352 432.246 473.66 432.246C471.98 432.246 471.14 434.064 471.14 437.7C471.14 439.224 471.278 440.37 471.554 441.138C471.95 442.278 472.652 442.848 473.66 442.848C475.352 442.848 476.198 441.144 476.198 437.736ZM491.479 431.112H493.117V439.95C493.117 441.342 492.607 442.422 491.587 443.19C490.711 443.862 489.565 444.198 488.149 444.198C486.517 444.198 485.257 443.772 484.369 442.92C483.601 442.164 483.217 441.174 483.217 439.95V431.112H484.855V439.95C484.855 440.838 485.143 441.528 485.719 442.02C486.295 442.5 487.105 442.74 488.149 442.74C489.253 442.74 490.105 442.464 490.705 441.912C491.221 441.42 491.479 440.766 491.479 439.95V431.112ZM505.014 434.82H503.466C503.43 433.14 502.356 432.3 500.244 432.3C499.38 432.3 498.684 432.498 498.156 432.894C497.628 433.278 497.364 433.788 497.364 434.424C497.364 434.904 497.52 435.288 497.832 435.576C498.156 435.852 498.708 436.092 499.488 436.296L502.548 437.088C504.492 437.604 505.464 438.684 505.464 440.328C505.464 441.516 504.99 442.482 504.042 443.226C503.202 443.874 501.996 444.198 500.424 444.198C498.432 444.198 496.986 443.598 496.086 442.398C495.606 441.75 495.354 440.88 495.33 439.788H496.878V439.824C496.878 440.76 497.196 441.486 497.832 442.002C498.48 442.506 499.38 442.758 500.532 442.758C501.588 442.758 502.374 442.584 502.89 442.236C503.502 441.816 503.808 441.228 503.808 440.472C503.808 439.512 503.022 438.834 501.45 438.438L498.246 437.61C496.566 437.178 495.726 436.188 495.726 434.64C495.726 433.416 496.188 432.468 497.112 431.796C497.916 431.208 498.978 430.914 500.298 430.914C502.17 430.914 503.508 431.46 504.312 432.552C504.78 433.188 505.014 433.878 505.014 434.622C505.014 434.658 505.014 434.724 505.014 434.82ZM507.845 444V431.112H512.813C514.553 431.112 515.891 431.76 516.827 433.056C517.643 434.196 518.051 435.696 518.051 437.556C518.051 439.692 517.523 441.336 516.467 442.488C515.543 443.496 514.325 444 512.813 444H507.845ZM509.483 442.542H512.525C515.117 442.542 516.413 440.88 516.413 437.556C516.413 434.232 515.117 432.57 512.525 432.57H509.483V442.542Z" fill="black"/>
<path d="M741.222 433.132V439H739.584V426.112H748.224V427.57H741.222V431.674H747.378V433.132H741.222ZM750.017 429.748H751.385V431.44C751.925 430.168 752.777 429.532 753.941 429.532C754.085 429.532 754.259 429.55 754.463 429.586V431.098C753.503 431.11 752.843 431.248 752.483 431.512C751.823 431.992 751.493 432.886 751.493 434.194V439H750.017V429.748ZM763.736 434.806H756.914C756.926 435.598 757.094 436.228 757.418 436.696C757.934 437.452 758.678 437.83 759.65 437.83C760.85 437.83 761.66 437.26 762.08 436.12H763.556C763.364 437.092 762.92 437.848 762.224 438.388C761.528 438.928 760.652 439.198 759.596 439.198C758.192 439.198 757.118 438.718 756.374 437.758C755.714 436.918 755.384 435.808 755.384 434.428C755.384 432.832 755.816 431.59 756.68 430.702C757.436 429.934 758.414 429.55 759.614 429.55C760.49 429.55 761.258 429.76 761.918 430.18C762.59 430.6 763.07 431.176 763.358 431.908C763.61 432.532 763.736 433.48 763.736 434.752V434.806ZM762.152 433.6C762.152 432.796 761.912 432.148 761.432 431.656C760.964 431.152 760.358 430.9 759.614 430.9C758.858 430.9 758.24 431.146 757.76 431.638C757.292 432.118 757.028 432.772 756.968 433.6H762.152ZM773.562 434.806H766.74C766.752 435.598 766.92 436.228 767.244 436.696C767.76 437.452 768.504 437.83 769.476 437.83C770.676 437.83 771.486 437.26 771.906 436.12H773.382C773.19 437.092 772.746 437.848 772.05 438.388C771.354 438.928 770.478 439.198 769.422 439.198C768.018 439.198 766.944 438.718 766.2 437.758C765.54 436.918 765.21 435.808 765.21 434.428C765.21 432.832 765.642 431.59 766.506 430.702C767.262 429.934 768.24 429.55 769.44 429.55C770.316 429.55 771.084 429.76 771.744 430.18C772.416 430.6 772.896 431.176 773.184 431.908C773.436 432.532 773.562 433.48 773.562 434.752V434.806ZM771.978 433.6C771.978 432.796 771.738 432.148 771.258 431.656C770.79 431.152 770.184 430.9 769.44 430.9C768.684 430.9 768.066 431.146 767.586 431.638C767.118 432.118 766.854 432.772 766.794 433.6H771.978Z" fill="black"/>
<path d="M994.438 427.112V440H992.764V427.112H994.438ZM997.164 430.748H998.532V432.314C999.276 431.138 1000.3 430.55 1001.59 430.55C1002.49 430.55 1003.21 430.778 1003.73 431.234C1004.26 431.678 1004.53 432.278 1004.53 433.034V440H1003.07V433.628C1003.07 433.076 1002.89 432.638 1002.55 432.314C1002.21 431.99 1001.75 431.828 1001.16 431.828C1000.39 431.828 999.78 432.11 999.324 432.674C998.868 433.238 998.64 433.988 998.64 434.924V440H997.164V430.748ZM1013.56 433.286H1011.94C1011.89 432.362 1011.27 431.9 1010.09 431.9C1009.47 431.9 1008.99 432.02 1008.63 432.26C1008.28 432.488 1008.11 432.8 1008.11 433.196C1008.11 433.796 1008.68 434.228 1009.82 434.492L1011.24 434.816C1012.16 435.032 1012.83 435.338 1013.24 435.734C1013.64 436.13 1013.85 436.67 1013.85 437.354C1013.85 438.23 1013.51 438.926 1012.82 439.442C1012.14 439.946 1011.21 440.198 1010.05 440.198C1008.78 440.198 1007.81 439.898 1007.15 439.298C1006.6 438.806 1006.31 438.152 1006.27 437.336H1007.94C1008.04 437.756 1008.17 438.062 1008.34 438.254C1008.66 438.638 1009.27 438.83 1010.16 438.83C1010.82 438.83 1011.34 438.71 1011.72 438.47C1012.12 438.218 1012.32 437.888 1012.32 437.48C1012.32 436.868 1011.84 436.448 1010.9 436.22L1009.51 435.896C1008.45 435.644 1007.72 435.344 1007.3 434.996C1006.82 434.6 1006.58 434.03 1006.58 433.286C1006.58 432.446 1006.89 431.78 1007.53 431.288C1008.18 430.796 1009.04 430.55 1010.12 430.55C1011.25 430.55 1012.13 430.832 1012.75 431.396C1013.29 431.888 1013.56 432.518 1013.56 433.286ZM1019.45 430.748V431.936H1017.56V438.092C1017.56 438.308 1017.63 438.494 1017.78 438.65C1017.93 438.794 1018.13 438.866 1018.37 438.866C1018.6 438.866 1018.95 438.812 1019.41 438.704L1019.58 440C1018.83 440.132 1018.27 440.198 1017.88 440.198C1016.7 440.198 1016.1 439.712 1016.1 438.74V431.936H1014.84V430.748H1016.1V428.858L1017.56 428.192V430.748H1019.45ZM1029.38 438.758V439.946C1028.98 440.09 1028.66 440.162 1028.43 440.162C1027.47 440.162 1026.95 439.724 1026.86 438.848C1026.2 439.748 1025.15 440.198 1023.71 440.198C1022.72 440.198 1021.94 439.922 1021.39 439.37C1020.91 438.89 1020.67 438.272 1020.67 437.516C1020.67 436.652 1020.98 435.986 1021.59 435.518C1021.94 435.254 1022.66 434.996 1023.77 434.744L1026.79 434.06L1026.81 433.286C1026.81 432.362 1026.11 431.9 1024.72 431.9C1023.39 431.9 1022.68 432.44 1022.58 433.52H1021.09C1021.12 432.704 1021.33 432.08 1021.7 431.648C1022.33 430.916 1023.37 430.55 1024.79 430.55C1027.11 430.55 1028.27 431.39 1028.27 433.07V438.236C1028.27 438.692 1028.47 438.92 1028.86 438.92C1028.91 438.92 1029.04 438.884 1029.24 438.812C1029.31 438.788 1029.36 438.77 1029.38 438.758ZM1026.81 435.266L1024.43 435.878C1023.58 436.094 1022.99 436.316 1022.67 436.544C1022.36 436.772 1022.2 437.09 1022.2 437.498C1022.2 438.446 1022.81 438.92 1024.04 438.92C1024.9 438.92 1025.63 438.638 1026.23 438.074C1026.62 437.726 1026.81 437.33 1026.81 436.886V435.266ZM1031 430.748H1032.37V432.314C1033.11 431.138 1034.13 430.55 1035.43 430.55C1036.33 430.55 1037.04 430.778 1037.57 431.234C1038.1 431.678 1038.36 432.278 1038.36 433.034V440H1036.91V433.628C1036.91 433.076 1036.73 432.638 1036.38 432.314C1036.05 431.99 1035.59 431.828 1035 431.828C1034.23 431.828 1033.62 432.11 1033.16 432.674C1032.71 433.238 1032.48 433.988 1032.48 434.924V440H1031V430.748ZM1044.45 430.748V431.936H1042.56V438.092C1042.56 438.308 1042.63 438.494 1042.77 438.65C1042.93 438.794 1043.13 438.866 1043.37 438.866C1043.59 438.866 1043.94 438.812 1044.41 438.704L1044.57 440C1043.83 440.132 1043.26 440.198 1042.88 440.198C1041.69 440.198 1041.1 439.712 1041.1 438.74V431.936H1039.84V430.748H1041.1V428.858L1042.56 428.192V430.748H1044.45Z" fill="black"/>
<defs>
<clipPath id="clip0_0_1">
<rect width="100" height="55" fill="white" transform="translate(160 197)"/>
</clipPath>
<clipPath id="clip1_0_1">
<rect width="100" height="55" fill="white" transform="translate(159 412)"/>
</clipPath>
</defs>
</svg>
