<svg width="43" height="42" viewBox="0 0 43 42" fill="none" xmlns="http://www.w3.org/2000/svg">
<path d="M13.2595 15.1983C15.8987 22.3981 18.631 25.2707 25.5818 28.3304L22.5695 32.561C14.5877 28.7396 10.6122 22.2981 8.73983 17.2713L13.2595 15.1983Z" fill="black"/>
<path d="M15.4738 5.25735C16.885 5.25183 17.9581 6.42614 17.8619 7.75585C17.7105 9.84836 17.8716 11.3581 18.3056 13.2294C18.544 14.2574 18.0047 15.3014 17.1476 15.9739C15.9925 16.8802 15.1099 18.0351 14.4085 19.0293C13.4363 20.4073 10.0905 20.3083 9.35062 18.8071C7.82999 15.7219 6.79946 10.038 9.02002 6.19788C9.36882 5.59469 10.0711 5.27848 10.7989 5.27563L15.4738 5.25735Z" fill="black"/>
<path d="M36.8956 28.0884C37.0712 26.7659 35.9658 25.6187 34.5565 25.549C32.3386 25.4393 30.771 25.1066 28.8561 24.4746C27.8042 24.1275 26.6419 24.5076 25.832 25.2303C24.7403 26.2043 23.4201 26.8929 22.2907 27.4309C20.7253 28.1767 20.427 31.3254 21.916 32.1997C24.9762 33.9964 30.8271 35.6461 35.1308 34.026C35.8069 33.7716 36.2237 33.1511 36.3142 32.4692L36.8956 28.0884Z" fill="black"/>
</svg>
