<svg width="1029" height="296" viewBox="0 0 1029 296" fill="none" xmlns="http://www.w3.org/2000/svg">
<path d="M257.456 9H252.488C252.32 6.384 250.52 5.076 247.088 5.076C245.72 5.076 244.628 5.352 243.812 5.904C243.02 6.456 242.624 7.2 242.624 8.136C242.624 9.048 242.96 9.732 243.632 10.188C244.304 10.644 245.6 11.052 247.52 11.412L251.552 12.168C253.928 12.624 255.656 13.404 256.736 14.508C257.816 15.612 258.356 17.172 258.356 19.188C258.356 21.948 257.3 24.048 255.188 25.488C253.364 26.76 250.904 27.396 247.808 27.396C244.28 27.396 241.592 26.58 239.744 24.948C238.136 23.532 237.26 21.564 237.116 19.044H242.264C242.456 21.78 244.388 23.148 248.06 23.148C249.692 23.148 250.964 22.86 251.876 22.284C252.812 21.684 253.28 20.868 253.28 19.836C253.28 18.828 252.908 18.048 252.164 17.496C251.444 16.944 250.196 16.5 248.42 16.164L244.82 15.48C242.204 15 240.332 14.244 239.204 13.212C238.1 12.156 237.548 10.644 237.548 8.676C237.548 6.012 238.52 3.996 240.464 2.628C242.144 1.428 244.424 0.827998 247.304 0.827998C250.784 0.827998 253.4 1.62 255.152 3.204C256.664 4.596 257.432 6.528 257.456 9ZM270.858 7.92V11.196H267.51V21.816C267.51 22.512 267.63 22.992 267.87 23.256C268.134 23.52 268.602 23.652 269.274 23.652C269.826 23.652 270.534 23.436 271.398 23.004C271.47 22.956 271.53 22.92 271.578 22.896L272.154 26.28C270.642 27.024 269.058 27.396 267.402 27.396C264.162 27.396 262.542 25.908 262.542 22.932V11.196H260.094V7.92H262.542V4.752L267.51 1.908V7.92H270.858ZM291.665 25.74V27H286.265C285.905 26.544 285.713 25.896 285.689 25.056C284.369 26.616 282.449 27.396 279.929 27.396C278.081 27.396 276.593 26.832 275.465 25.704C274.553 24.792 274.097 23.532 274.097 21.924C274.097 19.524 275.057 17.82 276.977 16.812C277.793 16.38 279.413 15.948 281.837 15.516L285.725 14.796L285.689 13.428C285.665 12.156 284.705 11.52 282.809 11.52C281.585 11.52 280.721 11.712 280.217 12.096C279.737 12.456 279.437 13.128 279.317 14.112H274.565C274.853 9.72 277.565 7.524 282.701 7.524C285.533 7.524 287.573 8.028 288.821 9.036C289.949 9.996 290.513 11.448 290.513 13.392V24.048C290.513 24.912 290.897 25.476 291.665 25.74ZM285.725 17.784L282.089 18.612C281.057 18.852 280.289 19.2 279.785 19.656C279.305 20.112 279.065 20.676 279.065 21.348C279.065 22.716 279.953 23.4 281.729 23.4C284.297 23.4 285.617 21.996 285.689 19.188L285.725 17.784ZM295.009 7.92H299.977V11.556C300.601 8.868 302.377 7.524 305.305 7.524C305.761 7.524 306.085 7.524 306.277 7.524L306.313 12.42C305.713 12.3 305.089 12.24 304.441 12.24C302.809 12.24 301.681 12.54 301.057 13.14C300.337 13.812 299.977 15.024 299.977 16.776V27H295.009V7.92ZM317.791 7.92V11.196H314.443V21.816C314.443 22.512 314.563 22.992 314.803 23.256C315.067 23.52 315.535 23.652 316.207 23.652C316.759 23.652 317.467 23.436 318.331 23.004C318.403 22.956 318.463 22.92 318.511 22.896L319.087 26.28C317.575 27.024 315.991 27.396 314.335 27.396C311.095 27.396 309.475 25.908 309.475 22.932V11.196H307.027V7.92H309.475V4.752L314.443 1.908V7.92H317.791ZM337.936 7.92V11.196H334.588V21.816C334.588 22.512 334.708 22.992 334.948 23.256C335.212 23.52 335.68 23.652 336.352 23.652C336.904 23.652 337.612 23.436 338.476 23.004C338.548 22.956 338.608 22.92 338.656 22.896L339.232 26.28C337.72 27.024 336.136 27.396 334.48 27.396C331.24 27.396 329.62 25.908 329.62 22.932V11.196H327.172V7.92H329.62V4.752L334.588 1.908V7.92H337.936ZM342.435 7.92H347.403V11.556C348.027 8.868 349.803 7.524 352.731 7.524C353.187 7.524 353.511 7.524 353.703 7.524L353.739 12.42C353.139 12.3 352.515 12.24 351.867 12.24C350.235 12.24 349.107 12.54 348.483 13.14C347.763 13.812 347.403 15.024 347.403 16.776V27H342.435V7.92ZM372.489 25.74V27H367.089C366.729 26.544 366.537 25.896 366.513 25.056C365.193 26.616 363.273 27.396 360.753 27.396C358.905 27.396 357.417 26.832 356.289 25.704C355.377 24.792 354.921 23.532 354.921 21.924C354.921 19.524 355.881 17.82 357.801 16.812C358.617 16.38 360.237 15.948 362.661 15.516L366.549 14.796L366.513 13.428C366.489 12.156 365.529 11.52 363.633 11.52C362.409 11.52 361.545 11.712 361.041 12.096C360.561 12.456 360.261 13.128 360.141 14.112H355.389C355.677 9.72 358.389 7.524 363.525 7.524C366.357 7.524 368.397 8.028 369.645 9.036C370.773 9.996 371.337 11.448 371.337 13.392V24.048C371.337 24.912 371.721 25.476 372.489 25.74ZM366.549 17.784L362.913 18.612C361.881 18.852 361.113 19.2 360.609 19.656C360.129 20.112 359.889 20.676 359.889 21.348C359.889 22.716 360.777 23.4 362.553 23.4C365.121 23.4 366.441 21.996 366.513 19.188L366.549 17.784ZM392.898 1.224V27H387.93V24.876C386.778 26.556 385.038 27.396 382.71 27.396C380.19 27.396 378.162 26.34 376.626 24.228C375.306 22.428 374.646 20.184 374.646 17.496C374.646 14.304 375.486 11.784 377.166 9.936C378.63 8.328 380.466 7.524 382.674 7.524C385.002 7.524 386.754 8.412 387.93 10.188V1.224H392.898ZM383.79 11.592C382.542 11.592 381.534 12.132 380.766 13.212C379.998 14.292 379.614 15.708 379.614 17.46C379.614 19.188 379.986 20.592 380.73 21.672C381.498 22.728 382.518 23.256 383.79 23.256C385.062 23.256 386.07 22.728 386.814 21.672C387.582 20.616 387.966 19.212 387.966 17.46C387.966 15.684 387.582 14.268 386.814 13.212C386.046 12.132 385.038 11.592 383.79 11.592ZM402.6 7.92V27H397.632V7.92H402.6ZM400.08 1.368C400.728 1.368 401.268 1.596 401.7 2.052C402.156 2.508 402.384 3.06 402.384 3.708C402.384 4.356 402.156 4.908 401.7 5.364C401.268 5.796 400.728 6.012 400.08 6.012C399.432 6.012 398.88 5.796 398.424 5.364C397.968 4.908 397.74 4.356 397.74 3.708C397.74 3.06 397.968 2.508 398.424 2.052C398.88 1.596 399.432 1.368 400.08 1.368ZM407.404 7.92H412.372V10.62C413.716 8.556 415.612 7.524 418.06 7.524C420.244 7.524 421.9 8.172 423.028 9.468C423.988 10.62 424.468 12.18 424.468 14.148V27H419.536V15.156C419.536 12.876 418.468 11.736 416.332 11.736C415.132 11.736 414.172 12.084 413.452 12.78C412.732 13.452 412.372 14.352 412.372 15.48V27H407.404V7.92ZM441.121 7.92H445.837V26.82C445.837 29.772 444.913 31.884 443.065 33.156C441.505 34.188 439.369 34.704 436.657 34.704C433.825 34.704 431.665 34.092 430.177 32.868C428.953 31.884 428.317 30.696 428.269 29.304H433.381C433.789 30.792 434.965 31.536 436.909 31.536C438.133 31.536 439.165 31.152 440.005 30.384C440.749 29.712 441.121 28.668 441.121 27.252V24.408C440.209 25.536 439.357 26.316 438.565 26.748C437.773 27.18 436.813 27.396 435.685 27.396C433.213 27.396 431.257 26.388 429.817 24.372C428.545 22.644 427.909 20.448 427.909 17.784C427.909 14.64 428.761 12.072 430.465 10.08C431.953 8.376 433.753 7.524 435.865 7.524C437.929 7.524 439.681 8.52 441.121 10.512V7.92ZM436.873 11.664C435.673 11.664 434.701 12.216 433.957 13.32C433.237 14.424 432.877 15.864 432.877 17.64C432.877 19.344 433.237 20.712 433.957 21.744C434.701 22.776 435.673 23.292 436.873 23.292C438.121 23.292 439.153 22.764 439.969 21.708C440.737 20.724 441.121 19.356 441.121 17.604C441.121 15.708 440.677 14.208 439.789 13.104C439.021 12.144 438.049 11.664 436.873 11.664ZM466.186 7.92V11.196H462.838V21.816C462.838 22.512 462.958 22.992 463.198 23.256C463.462 23.52 463.93 23.652 464.602 23.652C465.154 23.652 465.862 23.436 466.726 23.004C466.798 22.956 466.858 22.92 466.906 22.896L467.482 26.28C465.97 27.024 464.386 27.396 462.73 27.396C459.49 27.396 457.87 25.908 457.87 22.932V11.196H455.422V7.92H457.87V4.752L462.838 1.908V7.92H466.186ZM479.109 7.524C482.253 7.524 484.665 8.532 486.345 10.548C487.809 12.276 488.541 14.58 488.541 17.46C488.541 20.772 487.593 23.316 485.697 25.092C484.041 26.628 481.845 27.396 479.109 27.396C475.965 27.396 473.553 26.4 471.873 24.408C470.409 22.656 469.677 20.34 469.677 17.46C469.677 14.172 470.625 11.64 472.521 9.864C474.177 8.304 476.373 7.524 479.109 7.524ZM479.109 11.52C477.765 11.52 476.685 12.072 475.869 13.176C475.053 14.256 474.645 15.684 474.645 17.46C474.645 19.38 475.101 20.892 476.013 21.996C476.829 22.932 477.861 23.4 479.109 23.4C480.453 23.4 481.533 22.86 482.349 21.78C483.189 20.676 483.609 19.236 483.609 17.46C483.609 15.564 483.141 14.064 482.205 12.96C481.389 12 480.357 11.52 479.109 11.52ZM509.265 1.224V27H504.297V24.876C503.145 26.556 501.405 27.396 499.077 27.396C496.557 27.396 494.529 26.34 492.993 24.228C491.673 22.428 491.013 20.184 491.013 17.496C491.013 14.304 491.853 11.784 493.533 9.936C494.997 8.328 496.833 7.524 499.041 7.524C501.369 7.524 503.121 8.412 504.297 10.188V1.224H509.265ZM500.157 11.592C498.909 11.592 497.901 12.132 497.133 13.212C496.365 14.292 495.981 15.708 495.981 17.46C495.981 19.188 496.353 20.592 497.097 21.672C497.865 22.728 498.885 23.256 500.157 23.256C501.429 23.256 502.437 22.728 503.181 21.672C503.949 20.616 504.333 19.212 504.333 17.46C504.333 15.684 503.949 14.268 503.181 13.212C502.413 12.132 501.405 11.592 500.157 11.592ZM530.235 25.74V27H524.835C524.475 26.544 524.283 25.896 524.259 25.056C522.939 26.616 521.019 27.396 518.499 27.396C516.651 27.396 515.163 26.832 514.035 25.704C513.123 24.792 512.667 23.532 512.667 21.924C512.667 19.524 513.627 17.82 515.547 16.812C516.363 16.38 517.983 15.948 520.407 15.516L524.295 14.796L524.259 13.428C524.235 12.156 523.275 11.52 521.379 11.52C520.155 11.52 519.291 11.712 518.787 12.096C518.307 12.456 518.007 13.128 517.887 14.112H513.135C513.423 9.72 516.135 7.524 521.271 7.524C524.103 7.524 526.143 8.028 527.391 9.036C528.519 9.996 529.083 11.448 529.083 13.392V24.048C529.083 24.912 529.467 25.476 530.235 25.74ZM524.295 17.784L520.659 18.612C519.627 18.852 518.859 19.2 518.355 19.656C517.875 20.112 517.635 20.676 517.635 21.348C517.635 22.716 518.523 23.4 520.299 23.4C522.867 23.4 524.187 21.996 524.259 19.188L524.295 17.784ZM545.28 7.92H550.356L542.508 30.456C541.956 32.064 541.224 33.168 540.312 33.768C539.4 34.392 538.044 34.704 536.244 34.704C534.588 34.704 533.436 34.488 532.788 34.056L533.544 30.708C534.408 30.924 535.128 31.032 535.704 31.032C536.544 31.032 537.264 30.744 537.864 30.168C538.464 29.616 538.764 28.956 538.764 28.188V27.792L531.672 7.92H537.108L541.356 21.816L545.28 7.92ZM564.881 7.92V27H559.913V7.92H564.881ZM562.361 1.368C563.009 1.368 563.549 1.596 563.981 2.052C564.437 2.508 564.665 3.06 564.665 3.708C564.665 4.356 564.437 4.908 563.981 5.364C563.549 5.796 563.009 6.012 562.361 6.012C561.713 6.012 561.161 5.796 560.705 5.364C560.249 4.908 560.021 4.356 560.021 3.708C560.021 3.06 560.249 2.508 560.705 2.052C561.161 1.596 561.713 1.368 562.361 1.368ZM569.685 7.92H574.653V10.62C575.997 8.556 577.893 7.524 580.341 7.524C582.525 7.524 584.181 8.172 585.309 9.468C586.269 10.62 586.749 12.18 586.749 14.148V27H581.817V15.156C581.817 12.876 580.749 11.736 578.613 11.736C577.413 11.736 576.453 12.084 575.733 12.78C575.013 13.452 574.653 14.352 574.653 15.48V27H569.685V7.92ZM598.78 1.8C600.604 1.224 602.104 0.935999 603.28 0.935999C605.8 0.935999 607.804 1.596 609.292 2.916C610.732 4.188 611.452 5.88 611.452 7.992C611.452 11.088 609.964 13.044 606.988 13.86C608.74 14.22 610.084 14.964 611.02 16.092C612.004 17.292 612.496 18.636 612.496 20.124C612.496 22.596 611.464 24.504 609.4 25.848C607.816 26.88 605.908 27.396 603.676 27.396C602.116 27.396 600.58 27.204 599.068 26.82L597.664 25.092V23.436C599.344 23.748 600.784 23.904 601.984 23.904C606.064 23.904 608.104 22.656 608.104 20.16C608.104 18.864 607.54 17.772 606.412 16.884C605.692 16.332 604.924 15.96 604.108 15.768C603.316 15.576 602.08 15.456 600.4 15.408V12.06H604.036C604.948 12.06 605.704 11.748 606.304 11.124C606.904 10.476 607.204 9.672 607.204 8.712C607.204 7.488 606.784 6.54 605.944 5.868C605.128 5.172 604 4.824 602.56 4.824C601.648 4.824 600.388 5.028 598.78 5.436V1.8ZM639.086 18.756H626.27C626.342 20.292 626.582 21.384 626.99 22.032C627.686 23.088 628.778 23.616 630.266 23.616C632.114 23.616 633.35 22.848 633.974 21.312H638.87C638.318 23.184 637.238 24.672 635.63 25.776C634.046 26.856 632.186 27.396 630.05 27.396C627.146 27.396 624.914 26.424 623.354 24.48C621.986 22.776 621.302 20.532 621.302 17.748C621.302 14.364 622.19 11.748 623.966 9.9C625.526 8.316 627.578 7.524 630.122 7.524C632.066 7.524 633.77 8.004 635.234 8.964C636.698 9.924 637.742 11.268 638.366 12.996C638.87 14.34 639.122 15.96 639.122 17.856C639.122 18.096 639.11 18.396 639.086 18.756ZM633.938 15.48C633.698 12.696 632.414 11.304 630.086 11.304C627.902 11.304 626.654 12.696 626.342 15.48H633.938ZM658.907 25.74V27H653.507C653.147 26.544 652.955 25.896 652.931 25.056C651.611 26.616 649.691 27.396 647.171 27.396C645.323 27.396 643.835 26.832 642.707 25.704C641.795 24.792 641.339 23.532 641.339 21.924C641.339 19.524 642.299 17.82 644.219 16.812C645.035 16.38 646.655 15.948 649.079 15.516L652.967 14.796L652.931 13.428C652.907 12.156 651.947 11.52 650.051 11.52C648.827 11.52 647.963 11.712 647.459 12.096C646.979 12.456 646.679 13.128 646.559 14.112H641.807C642.095 9.72 644.807 7.524 649.943 7.524C652.775 7.524 654.815 8.028 656.063 9.036C657.191 9.996 657.755 11.448 657.755 13.392V24.048C657.755 24.912 658.139 25.476 658.907 25.74ZM652.967 17.784L649.331 18.612C648.299 18.852 647.531 19.2 647.027 19.656C646.547 20.112 646.307 20.676 646.307 21.348C646.307 22.716 647.195 23.4 648.971 23.4C651.539 23.4 652.859 21.996 652.931 19.188L652.967 17.784ZM678.128 13.536H673.088C673.064 12.768 672.788 12.228 672.26 11.916C671.732 11.58 670.82 11.412 669.524 11.412C667.628 11.412 666.68 11.964 666.68 13.068C666.68 13.716 667.256 14.196 668.408 14.508L674.672 16.272C677.168 16.968 678.416 18.552 678.416 21.024C678.416 22.968 677.66 24.54 676.148 25.74C674.732 26.844 672.692 27.396 670.028 27.396C666.764 27.396 664.424 26.916 663.008 25.956C661.616 25.044 660.872 23.568 660.776 21.528H665.708C665.852 22.32 666.188 22.848 666.716 23.112C667.268 23.376 668.276 23.508 669.74 23.508C672.212 23.508 673.448 22.92 673.448 21.744C673.448 21.048 672.896 20.532 671.792 20.196L665.888 18.396C664.376 17.94 663.344 17.412 662.792 16.812C662.072 16.068 661.712 15.06 661.712 13.788C661.712 11.7 662.504 10.092 664.088 8.964C665.48 8.004 667.304 7.524 669.56 7.524C672.296 7.524 674.456 8.136 676.04 9.36C677.408 10.44 678.104 11.832 678.128 13.536ZM693.604 7.92H698.68L690.832 30.456C690.28 32.064 689.548 33.168 688.636 33.768C687.724 34.392 686.368 34.704 684.568 34.704C682.912 34.704 681.76 34.488 681.112 34.056L681.868 30.708C682.732 30.924 683.452 31.032 684.028 31.032C684.868 31.032 685.588 30.744 686.188 30.168C686.788 29.616 687.088 28.956 687.088 28.188V27.792L679.996 7.92H685.432L689.68 21.816L693.604 7.92ZM724.042 13.536H719.002C718.978 12.768 718.702 12.228 718.174 11.916C717.646 11.58 716.734 11.412 715.438 11.412C713.542 11.412 712.594 11.964 712.594 13.068C712.594 13.716 713.17 14.196 714.322 14.508L720.586 16.272C723.082 16.968 724.33 18.552 724.33 21.024C724.33 22.968 723.574 24.54 722.062 25.74C720.646 26.844 718.606 27.396 715.942 27.396C712.678 27.396 710.338 26.916 708.922 25.956C707.53 25.044 706.786 23.568 706.69 21.528H711.622C711.766 22.32 712.102 22.848 712.63 23.112C713.182 23.376 714.19 23.508 715.654 23.508C718.126 23.508 719.362 22.92 719.362 21.744C719.362 21.048 718.81 20.532 717.706 20.196L711.802 18.396C710.29 17.94 709.258 17.412 708.706 16.812C707.986 16.068 707.626 15.06 707.626 13.788C707.626 11.7 708.418 10.092 710.002 8.964C711.394 8.004 713.218 7.524 715.474 7.524C718.21 7.524 720.37 8.136 721.954 9.36C723.322 10.44 724.018 11.832 724.042 13.536ZM736.854 7.92V11.196H733.506V21.816C733.506 22.512 733.626 22.992 733.866 23.256C734.13 23.52 734.598 23.652 735.27 23.652C735.822 23.652 736.53 23.436 737.394 23.004C737.466 22.956 737.526 22.92 737.574 22.896L738.15 26.28C736.638 27.024 735.054 27.396 733.398 27.396C730.158 27.396 728.538 25.908 728.538 22.932V11.196H726.09V7.92H728.538V4.752L733.506 1.908V7.92H736.854ZM757.949 18.756H745.133C745.205 20.292 745.445 21.384 745.853 22.032C746.549 23.088 747.641 23.616 749.129 23.616C750.977 23.616 752.213 22.848 752.837 21.312H757.733C757.181 23.184 756.101 24.672 754.493 25.776C752.909 26.856 751.049 27.396 748.913 27.396C746.009 27.396 743.777 26.424 742.217 24.48C740.849 22.776 740.165 20.532 740.165 17.748C740.165 14.364 741.053 11.748 742.829 9.9C744.389 8.316 746.441 7.524 748.985 7.524C750.929 7.524 752.633 8.004 754.097 8.964C755.561 9.924 756.605 11.268 757.229 12.996C757.733 14.34 757.985 15.96 757.985 17.856C757.985 18.096 757.973 18.396 757.949 18.756ZM752.801 15.48C752.561 12.696 751.277 11.304 748.949 11.304C746.765 11.304 745.517 12.696 745.205 15.48H752.801ZM766.394 7.92V10.656C767.546 8.568 769.31 7.524 771.686 7.524C772.814 7.524 773.918 7.8 774.998 8.352C776.102 8.904 776.978 9.624 777.626 10.512C778.994 12.408 779.678 14.772 779.678 17.604C779.678 20.652 778.826 23.112 777.122 24.984C775.658 26.592 773.846 27.396 771.686 27.396C769.334 27.396 767.57 26.496 766.394 24.696V34.704H761.426V7.92H766.394ZM770.534 11.664C769.286 11.664 768.278 12.204 767.51 13.284C766.742 14.34 766.358 15.744 766.358 17.496C766.358 19.224 766.742 20.616 767.51 21.672C768.278 22.728 769.286 23.256 770.534 23.256C771.782 23.256 772.79 22.728 773.558 21.672C774.326 20.616 774.71 19.224 774.71 17.496C774.71 15.744 774.326 14.34 773.558 13.284C772.79 12.204 771.782 11.664 770.534 11.664ZM799.065 13.536H794.025C794.001 12.768 793.725 12.228 793.197 11.916C792.669 11.58 791.757 11.412 790.461 11.412C788.565 11.412 787.617 11.964 787.617 13.068C787.617 13.716 788.193 14.196 789.345 14.508L795.609 16.272C798.105 16.968 799.353 18.552 799.353 21.024C799.353 22.968 798.597 24.54 797.085 25.74C795.669 26.844 793.629 27.396 790.965 27.396C787.701 27.396 785.361 26.916 783.945 25.956C782.553 25.044 781.809 23.568 781.713 21.528H786.645C786.789 22.32 787.125 22.848 787.653 23.112C788.205 23.376 789.213 23.508 790.677 23.508C793.149 23.508 794.385 22.92 794.385 21.744C794.385 21.048 793.833 20.532 792.729 20.196L786.825 18.396C785.313 17.94 784.281 17.412 783.729 16.812C783.009 16.068 782.649 15.06 782.649 13.788C782.649 11.7 783.441 10.092 785.025 8.964C786.417 8.004 788.241 7.524 790.497 7.524C793.233 7.524 795.393 8.136 796.977 9.36C798.345 10.44 799.041 11.832 799.065 13.536ZM807.269 1.224V19.224L805.289 20.808H803.345V1.224H807.269ZM805.397 22.536C806.045 22.536 806.597 22.764 807.053 23.22C807.509 23.652 807.737 24.192 807.737 24.84C807.737 25.488 807.509 26.04 807.053 26.496C806.597 26.952 806.045 27.18 805.397 27.18C804.773 27.18 804.233 26.952 803.777 26.496C803.321 26.04 803.093 25.488 803.093 24.84C803.093 24.192 803.309 23.652 803.741 23.22C804.197 22.764 804.749 22.536 805.397 22.536Z" fill="black"/>
<line x1="10.0009" y1="134.5" x2="988.999" y2="136.221" stroke="black" stroke-dasharray="8 8"/>
<circle cx="61" cy="131" r="55" fill="#FF914D"/>
<circle cx="504" cy="131" r="55" fill="#FF914D"/>
<circle cx="939" cy="131" r="55" fill="#FF914D"/>
<path d="M63.12 117.36V143.84L60.64 146H58.24V122.92L53.6 126.84L51.28 123.92L59.04 117.36H63.12Z" fill="black"/>
<path d="M495.48 119.52C498.013 117.867 500.573 117.04 503.16 117.04C505.747 117.04 507.72 117.8 509.08 119.32C510.28 120.627 510.88 122.373 510.88 124.56C510.88 126.187 510.493 127.787 509.72 129.36C508.947 130.933 507.6 132.893 505.68 135.24C503.52 137.853 502.32 139.28 502.08 139.52L499.72 141.92H511.44V143.52L509.44 146H494.28V141.92L497.24 138.88L500.12 135.6C502.333 133.147 503.76 131.453 504.4 130.52C505.76 128.573 506.44 126.853 506.44 125.36C506.44 124.187 506.053 123.24 505.28 122.52C504.533 121.773 503.547 121.4 502.32 121.4C500.88 121.4 499.413 121.92 497.92 122.96L495.48 119.52Z" fill="black"/>
<path d="M929.44 118C931.467 117.36 933.133 117.04 934.44 117.04C937.24 117.04 939.467 117.773 941.12 119.24C942.72 120.653 943.52 122.533 943.52 124.88C943.52 128.32 941.867 130.493 938.56 131.4C940.507 131.8 942 132.627 943.04 133.88C944.133 135.213 944.68 136.707 944.68 138.36C944.68 141.107 943.533 143.227 941.24 144.72C939.48 145.867 937.36 146.44 934.88 146.44C933.147 146.44 931.44 146.227 929.76 145.8L928.2 143.88V142.04C930.067 142.387 931.667 142.56 933 142.56C937.533 142.56 939.8 141.173 939.8 138.4C939.8 136.96 939.173 135.747 937.92 134.76C937.12 134.147 936.267 133.733 935.36 133.52C934.48 133.307 933.107 133.173 931.24 133.12V129.4H935.28C936.293 129.4 937.133 129.053 937.8 128.36C938.467 127.64 938.8 126.747 938.8 125.68C938.8 124.32 938.333 123.267 937.4 122.52C936.493 121.747 935.24 121.36 933.64 121.36C932.627 121.36 931.227 121.587 929.44 122.04V118Z" fill="black"/>
<path d="M22.884 231.752V238H19.65V222.248H28.098C29.4327 222.248 30.452 222.607 31.156 223.326C31.948 224.133 32.344 225.196 32.344 226.516C32.344 228.423 31.4493 229.721 29.66 230.41C30.672 230.806 31.288 231.297 31.508 231.884C31.6693 232.309 31.7867 233.725 31.86 236.13C31.8747 236.731 32.102 237.157 32.542 237.406V238H29.066C28.7433 237.399 28.582 236.511 28.582 235.338C28.582 235.045 28.5893 234.685 28.604 234.26C28.604 233.967 28.604 233.754 28.604 233.622C28.604 232.375 27.9367 231.752 26.602 231.752H22.884ZM22.884 229.046H26.8C27.6213 229.046 28.1933 228.914 28.516 228.65C28.912 228.313 29.11 227.755 29.11 226.978C29.11 226.23 28.912 225.695 28.516 225.372C28.1787 225.093 27.6067 224.954 26.8 224.954H22.884V229.046ZM45.0392 232.962H37.2072C37.2512 233.901 37.3979 234.568 37.6472 234.964C38.0725 235.609 38.7399 235.932 39.6492 235.932C40.7785 235.932 41.5339 235.463 41.9152 234.524H44.9072C44.5699 235.668 43.9099 236.577 42.9272 237.252C41.9592 237.912 40.8225 238.242 39.5172 238.242C37.7425 238.242 36.3785 237.648 35.4252 236.46C34.5892 235.419 34.1712 234.047 34.1712 232.346C34.1712 230.278 34.7139 228.679 35.7992 227.55C36.7525 226.582 38.0065 226.098 39.5612 226.098C40.7492 226.098 41.7905 226.391 42.6852 226.978C43.5799 227.565 44.2179 228.386 44.5992 229.442C44.9072 230.263 45.0612 231.253 45.0612 232.412C45.0612 232.559 45.0539 232.742 45.0392 232.962ZM41.8932 230.96C41.7465 229.259 40.9619 228.408 39.5392 228.408C38.2045 228.408 37.4419 229.259 37.2512 230.96H41.8932ZM54.5783 226.34H57.4603V237.89C57.4603 239.694 56.8956 240.985 55.7663 241.762C54.8129 242.393 53.5076 242.708 51.8503 242.708C50.1196 242.708 48.7996 242.334 47.8903 241.586C47.1423 240.985 46.7536 240.259 46.7243 239.408H49.8483C50.0976 240.317 50.8163 240.772 52.0043 240.772C52.7523 240.772 53.3829 240.537 53.8963 240.068C54.3509 239.657 54.5783 239.019 54.5783 238.154V236.416C54.0209 237.105 53.5003 237.582 53.0163 237.846C52.5323 238.11 51.9456 238.242 51.2563 238.242C49.7456 238.242 48.5503 237.626 47.6703 236.394C46.8929 235.338 46.5043 233.996 46.5043 232.368C46.5043 230.447 47.0249 228.877 48.0663 227.66C48.9756 226.619 50.0756 226.098 51.3663 226.098C52.6276 226.098 53.6983 226.707 54.5783 227.924V226.34ZM51.9823 228.628C51.2489 228.628 50.6549 228.965 50.2003 229.64C49.7603 230.315 49.5403 231.195 49.5403 232.28C49.5403 233.321 49.7603 234.157 50.2003 234.788C50.6549 235.419 51.2489 235.734 51.9823 235.734C52.7449 235.734 53.3756 235.411 53.8743 234.766C54.3436 234.165 54.5783 233.329 54.5783 232.258C54.5783 231.099 54.3069 230.183 53.7643 229.508C53.2949 228.921 52.7009 228.628 51.9823 228.628ZM63.4147 226.34V238H60.3787V226.34H63.4147ZM61.8747 222.336C62.2707 222.336 62.6007 222.475 62.8647 222.754C63.1434 223.033 63.2827 223.37 63.2827 223.766C63.2827 224.162 63.1434 224.499 62.8647 224.778C62.6007 225.042 62.2707 225.174 61.8747 225.174C61.4787 225.174 61.1414 225.042 60.8627 224.778C60.584 224.499 60.4447 224.162 60.4447 223.766C60.4447 223.37 60.584 223.033 60.8627 222.754C61.1414 222.475 61.4787 222.336 61.8747 222.336ZM76.0523 229.772H72.9723C72.9577 229.303 72.789 228.973 72.4663 228.782C72.1437 228.577 71.5863 228.474 70.7943 228.474C69.6357 228.474 69.0563 228.811 69.0563 229.486C69.0563 229.882 69.4083 230.175 70.1123 230.366L73.9403 231.444C75.4657 231.869 76.2283 232.837 76.2283 234.348C76.2283 235.536 75.7663 236.497 74.8423 237.23C73.977 237.905 72.7303 238.242 71.1023 238.242C69.1077 238.242 67.6777 237.949 66.8123 237.362C65.9617 236.805 65.507 235.903 65.4483 234.656H68.4623C68.5503 235.14 68.7557 235.463 69.0783 235.624C69.4157 235.785 70.0317 235.866 70.9263 235.866C72.437 235.866 73.1923 235.507 73.1923 234.788C73.1923 234.363 72.855 234.047 72.1803 233.842L68.5723 232.742C67.6483 232.463 67.0177 232.141 66.6803 231.774C66.2403 231.319 66.0203 230.703 66.0203 229.926C66.0203 228.65 66.5043 227.667 67.4723 226.978C68.323 226.391 69.4377 226.098 70.8163 226.098C72.4883 226.098 73.8083 226.472 74.7763 227.22C75.6123 227.88 76.0377 228.731 76.0523 229.772ZM83.8821 226.34V228.342H81.8361V234.832C81.8361 235.257 81.9094 235.551 82.0561 235.712C82.2174 235.873 82.5034 235.954 82.9141 235.954C83.2514 235.954 83.6841 235.822 84.2121 235.558C84.2561 235.529 84.2928 235.507 84.3221 235.492L84.6741 237.56C83.7501 238.015 82.7821 238.242 81.7701 238.242C79.7901 238.242 78.8001 237.333 78.8001 235.514V228.342H77.3041V226.34H78.8001V224.404L81.8361 222.666V226.34H83.8821ZM96.7736 232.962H88.9416C88.9856 233.901 89.1322 234.568 89.3816 234.964C89.8069 235.609 90.4742 235.932 91.3836 235.932C92.5129 235.932 93.2682 235.463 93.6496 234.524H96.6416C96.3042 235.668 95.6442 236.577 94.6616 237.252C93.6936 237.912 92.5569 238.242 91.2516 238.242C89.4769 238.242 88.1129 237.648 87.1596 236.46C86.3236 235.419 85.9056 234.047 85.9056 232.346C85.9056 230.278 86.4482 228.679 87.5336 227.55C88.4869 226.582 89.7409 226.098 91.2956 226.098C92.4836 226.098 93.5249 226.391 94.4196 226.978C95.3142 227.565 95.9522 228.386 96.3336 229.442C96.6416 230.263 96.7956 231.253 96.7956 232.412C96.7956 232.559 96.7882 232.742 96.7736 232.962ZM93.6276 230.96C93.4809 229.259 92.6962 228.408 91.2736 228.408C89.9389 228.408 89.1762 229.259 88.9856 230.96H93.6276ZM98.9206 226.34H101.957V228.562C102.338 226.919 103.423 226.098 105.213 226.098C105.491 226.098 105.689 226.098 105.807 226.098L105.829 229.09C105.462 229.017 105.081 228.98 104.685 228.98C103.687 228.98 102.998 229.163 102.617 229.53C102.177 229.941 101.957 230.681 101.957 231.752V238H98.9206V226.34Z" fill="black"/>
<path d="M472.824 234.832H466.928L465.872 238H462.572L468.16 222.248H471.746L477.202 238H473.858L472.824 234.832ZM471.944 232.126L469.898 225.966L467.83 232.126H471.944ZM488.818 230.608H485.936C485.76 229.845 485.503 229.31 485.166 229.002C484.843 228.694 484.381 228.54 483.78 228.54C482.87 228.54 482.24 228.863 481.888 229.508C481.506 230.256 481.316 231.173 481.316 232.258C481.316 233.358 481.528 234.231 481.954 234.876C482.394 235.507 482.995 235.822 483.758 235.822C484.359 235.822 484.821 235.668 485.144 235.36C485.481 235.037 485.745 234.509 485.936 233.776H488.818C488.671 235.243 488.084 236.379 487.058 237.186C486.163 237.905 485.056 238.264 483.736 238.264C481.888 238.264 480.487 237.67 479.534 236.482C478.698 235.455 478.28 234.069 478.28 232.324C478.28 230.212 478.83 228.613 479.93 227.528C480.883 226.575 482.174 226.098 483.802 226.098C485.356 226.098 486.588 226.545 487.498 227.44C488.275 228.232 488.715 229.288 488.818 230.608ZM500.784 230.608H497.902C497.726 229.845 497.47 229.31 497.132 229.002C496.81 228.694 496.348 228.54 495.746 228.54C494.837 228.54 494.206 228.863 493.854 229.508C493.473 230.256 493.282 231.173 493.282 232.258C493.282 233.358 493.495 234.231 493.92 234.876C494.36 235.507 494.962 235.822 495.724 235.822C496.326 235.822 496.788 235.668 497.11 235.36C497.448 235.037 497.712 234.509 497.902 233.776H500.784C500.638 235.243 500.051 236.379 499.024 237.186C498.13 237.905 497.022 238.264 495.702 238.264C493.854 238.264 492.454 237.67 491.5 236.482C490.664 235.455 490.246 234.069 490.246 232.324C490.246 230.212 490.796 228.613 491.896 227.528C492.85 226.575 494.14 226.098 495.768 226.098C497.323 226.098 498.555 226.545 499.464 227.44C500.242 228.232 500.682 229.288 500.784 230.608ZM508.043 226.098C509.965 226.098 511.439 226.714 512.465 227.946C513.36 229.002 513.807 230.41 513.807 232.17C513.807 234.194 513.228 235.749 512.069 236.834C511.057 237.773 509.715 238.242 508.043 238.242C506.122 238.242 504.648 237.633 503.621 236.416C502.727 235.345 502.279 233.93 502.279 232.17C502.279 230.161 502.859 228.613 504.017 227.528C505.029 226.575 506.371 226.098 508.043 226.098ZM508.043 228.54C507.222 228.54 506.562 228.877 506.063 229.552C505.565 230.212 505.315 231.085 505.315 232.17C505.315 233.343 505.594 234.267 506.151 234.942C506.65 235.514 507.281 235.8 508.043 235.8C508.865 235.8 509.525 235.47 510.023 234.81C510.537 234.135 510.793 233.255 510.793 232.17C510.793 231.011 510.507 230.095 509.935 229.42C509.437 228.833 508.806 228.54 508.043 228.54ZM526.362 238H523.348V236.35C522.526 237.611 521.36 238.242 519.85 238.242C518.515 238.242 517.503 237.846 516.814 237.054C516.227 236.365 515.934 235.419 515.934 234.216V226.34H518.97V233.578C518.97 234.971 519.615 235.668 520.906 235.668C521.639 235.668 522.226 235.463 522.666 235.052C523.12 234.641 523.348 234.084 523.348 233.38V226.34H526.362V238ZM529.235 226.34H532.271V227.99C533.092 226.729 534.251 226.098 535.747 226.098C537.082 226.098 538.094 226.494 538.783 227.286C539.37 227.99 539.663 228.943 539.663 230.146V238H536.649V230.762C536.649 229.369 535.996 228.672 534.691 228.672C533.958 228.672 533.371 228.885 532.931 229.31C532.491 229.721 532.271 230.271 532.271 230.96V238H529.235V226.34ZM547.97 226.34V228.342H545.924V234.832C545.924 235.257 545.997 235.551 546.144 235.712C546.305 235.873 546.591 235.954 547.002 235.954C547.339 235.954 547.772 235.822 548.3 235.558C548.344 235.529 548.381 235.507 548.41 235.492L548.762 237.56C547.838 238.015 546.87 238.242 545.858 238.242C543.878 238.242 542.888 237.333 542.888 235.514V228.342H541.392V226.34H542.888V224.404L545.924 222.666V226.34H547.97Z" fill="black"/>
<path d="M868.884 231.224V238H865.65V222.248H876.716V224.954H868.884V228.518H875.792V231.224H868.884ZM888.916 238H885.902V236.35C885.081 237.611 883.915 238.242 882.404 238.242C881.07 238.242 880.058 237.846 879.368 237.054C878.782 236.365 878.488 235.419 878.488 234.216V226.34H881.524V233.578C881.524 234.971 882.17 235.668 883.46 235.668C884.194 235.668 884.78 235.463 885.22 235.052C885.675 234.641 885.902 234.084 885.902 233.38V226.34H888.916V238ZM891.79 226.34H894.826V227.99C895.647 226.729 896.806 226.098 898.302 226.098C899.636 226.098 900.648 226.494 901.338 227.286C901.924 227.99 902.218 228.943 902.218 230.146V238H899.204V230.762C899.204 229.369 898.551 228.672 897.246 228.672C896.512 228.672 895.926 228.885 895.486 229.31C895.046 229.721 894.826 230.271 894.826 230.96V238H891.79V226.34ZM915.431 222.248V238H912.395V236.702C911.691 237.729 910.627 238.242 909.205 238.242C907.665 238.242 906.425 237.597 905.487 236.306C904.68 235.206 904.277 233.835 904.277 232.192C904.277 230.241 904.79 228.701 905.817 227.572C906.711 226.589 907.833 226.098 909.183 226.098C910.605 226.098 911.676 226.641 912.395 227.726V222.248H915.431ZM909.865 228.584C909.102 228.584 908.486 228.914 908.017 229.574C907.547 230.234 907.313 231.099 907.313 232.17C907.313 233.226 907.54 234.084 907.995 234.744C908.464 235.389 909.087 235.712 909.865 235.712C910.642 235.712 911.258 235.389 911.713 234.744C912.182 234.099 912.417 233.241 912.417 232.17C912.417 231.085 912.182 230.219 911.713 229.574C911.243 228.914 910.627 228.584 909.865 228.584ZM932.285 237.23V238H928.985C928.765 237.721 928.648 237.325 928.633 236.812C927.826 237.765 926.653 238.242 925.113 238.242C923.984 238.242 923.074 237.897 922.385 237.208C921.828 236.651 921.549 235.881 921.549 234.898C921.549 233.431 922.136 232.39 923.309 231.774C923.808 231.51 924.798 231.246 926.279 230.982L928.655 230.542L928.633 229.706C928.618 228.929 928.032 228.54 926.873 228.54C926.125 228.54 925.597 228.657 925.289 228.892C924.996 229.112 924.812 229.523 924.739 230.124H921.835C922.011 227.44 923.668 226.098 926.807 226.098C928.538 226.098 929.784 226.406 930.547 227.022C931.236 227.609 931.581 228.496 931.581 229.684V236.196C931.581 236.724 931.816 237.069 932.285 237.23ZM928.655 232.368L926.433 232.874C925.802 233.021 925.333 233.233 925.025 233.512C924.732 233.791 924.585 234.135 924.585 234.546C924.585 235.382 925.128 235.8 926.213 235.8C927.782 235.8 928.589 234.942 928.633 233.226L928.655 232.368ZM934.329 226.34H937.365V227.99C938.186 226.729 939.345 226.098 940.841 226.098C942.176 226.098 943.188 226.494 943.877 227.286C944.464 227.99 944.757 228.943 944.757 230.146V238H941.743V230.762C941.743 229.369 941.09 228.672 939.785 228.672C939.052 228.672 938.465 228.885 938.025 229.31C937.585 229.721 937.365 230.271 937.365 230.96V238H934.329V226.34ZM957.97 222.248V238H954.934V236.702C954.23 237.729 953.166 238.242 951.744 238.242C950.204 238.242 948.964 237.597 948.026 236.306C947.219 235.206 946.816 233.835 946.816 232.192C946.816 230.241 947.329 228.701 948.356 227.572C949.25 226.589 950.372 226.098 951.722 226.098C953.144 226.098 954.215 226.641 954.934 227.726V222.248H957.97ZM952.404 228.584C951.641 228.584 951.025 228.914 950.556 229.574C950.086 230.234 949.852 231.099 949.852 232.17C949.852 233.226 950.079 234.084 950.534 234.744C951.003 235.389 951.626 235.712 952.404 235.712C953.181 235.712 953.797 235.389 954.252 234.744C954.721 234.099 954.956 233.241 954.956 232.17C954.956 231.085 954.721 230.219 954.252 229.574C953.782 228.914 953.166 228.584 952.404 228.584ZM970.38 226.34V228.342H968.334V234.832C968.334 235.257 968.407 235.551 968.554 235.712C968.715 235.873 969.001 235.954 969.412 235.954C969.749 235.954 970.182 235.822 970.71 235.558C970.754 235.529 970.791 235.507 970.82 235.492L971.172 237.56C970.248 238.015 969.28 238.242 968.268 238.242C966.288 238.242 965.298 237.333 965.298 235.514V228.342H963.802V226.34H965.298V224.404L968.334 222.666V226.34H970.38ZM973.13 226.34H976.166V228.562C976.547 226.919 977.632 226.098 979.422 226.098C979.7 226.098 979.898 226.098 980.016 226.098L980.038 229.09C979.671 229.017 979.29 228.98 978.894 228.98C977.896 228.98 977.207 229.163 976.826 229.53C976.386 229.941 976.166 230.681 976.166 231.752V238H973.13V226.34ZM991.496 237.23V238H988.196C987.976 237.721 987.859 237.325 987.844 236.812C987.037 237.765 985.864 238.242 984.324 238.242C983.195 238.242 982.285 237.897 981.596 237.208C981.039 236.651 980.76 235.881 980.76 234.898C980.76 233.431 981.347 232.39 982.52 231.774C983.019 231.51 984.009 231.246 985.49 230.982L987.866 230.542L987.844 229.706C987.829 228.929 987.243 228.54 986.084 228.54C985.336 228.54 984.808 228.657 984.5 228.892C984.207 229.112 984.023 229.523 983.95 230.124H981.046C981.222 227.44 982.879 226.098 986.018 226.098C987.749 226.098 988.995 226.406 989.758 227.022C990.447 227.609 990.792 228.496 990.792 229.684V236.196C990.792 236.724 991.027 237.069 991.496 237.23ZM987.866 232.368L985.644 232.874C985.013 233.021 984.544 233.233 984.236 233.512C983.943 233.791 983.796 234.135 983.796 234.546C983.796 235.382 984.339 235.8 985.424 235.8C986.993 235.8 987.8 234.942 987.844 233.226L987.866 232.368ZM1003.97 222.248V238H1000.93V236.702C1000.23 237.729 999.164 238.242 997.742 238.242C996.202 238.242 994.962 237.597 994.024 236.306C993.217 235.206 992.814 233.835 992.814 232.192C992.814 230.241 993.327 228.701 994.354 227.572C995.248 226.589 996.37 226.098 997.72 226.098C999.142 226.098 1000.21 226.641 1000.93 227.726V222.248H1003.97ZM998.402 228.584C997.639 228.584 997.023 228.914 996.554 229.574C996.084 230.234 995.85 231.099 995.85 232.17C995.85 233.226 996.077 234.084 996.532 234.744C997.001 235.389 997.624 235.712 998.402 235.712C999.179 235.712 999.795 235.389 1000.25 234.744C1000.72 234.099 1000.95 233.241 1000.95 232.17C1000.95 231.085 1000.72 230.219 1000.25 229.574C999.78 228.914 999.164 228.584 998.402 228.584ZM1016.96 232.962H1009.13C1009.17 233.901 1009.32 234.568 1009.57 234.964C1009.99 235.609 1010.66 235.932 1011.57 235.932C1012.7 235.932 1013.45 235.463 1013.84 234.524H1016.83C1016.49 235.668 1015.83 236.577 1014.85 237.252C1013.88 237.912 1012.74 238.242 1011.44 238.242C1009.66 238.242 1008.3 237.648 1007.35 236.46C1006.51 235.419 1006.09 234.047 1006.09 232.346C1006.09 230.278 1006.63 228.679 1007.72 227.55C1008.67 226.582 1009.93 226.098 1011.48 226.098C1012.67 226.098 1013.71 226.391 1014.61 226.978C1015.5 227.565 1016.14 228.386 1016.52 229.442C1016.83 230.263 1016.98 231.253 1016.98 232.412C1016.98 232.559 1016.97 232.742 1016.96 232.962ZM1013.81 230.96C1013.67 229.259 1012.88 228.408 1011.46 228.408C1010.12 228.408 1009.36 229.259 1009.17 230.96H1013.81Z" fill="black"/>
<path d="M11.4583 266.132V272H9.82033V259.112H18.4603V260.57H11.4583V264.674H17.6143V266.132H11.4583ZM21.6573 262.748V272H20.1993V262.748H21.6573ZM20.9553 259.13C21.2073 259.13 21.4173 259.22 21.5853 259.4C21.7653 259.568 21.8553 259.772 21.8553 260.012C21.8553 260.264 21.7653 260.48 21.5853 260.66C21.4173 260.828 21.2073 260.912 20.9553 260.912C20.7153 260.912 20.5053 260.828 20.3253 260.66C20.1573 260.48 20.0733 260.264 20.0733 260.012C20.0733 259.772 20.1573 259.568 20.3253 259.4C20.5053 259.22 20.7153 259.13 20.9553 259.13ZM25.6312 259.112V272H24.1552V259.112H25.6312ZM29.5511 259.112V272H28.0751V259.112H29.5511ZM38.9538 262.748V263.936H37.0638V270.092C37.0638 270.308 37.1358 270.494 37.2798 270.65C37.4358 270.794 37.6338 270.866 37.8738 270.866C38.1018 270.866 38.4498 270.812 38.9178 270.704L39.0798 272C38.3358 272.132 37.7718 272.198 37.3878 272.198C36.1998 272.198 35.6058 271.712 35.6058 270.74V263.936H34.3458V262.748H35.6058V260.858L37.0638 260.192V262.748H38.9538ZM40.6795 259.112H42.1375V264.044C42.5815 263.492 43.0255 263.108 43.4695 262.892C43.9135 262.664 44.4655 262.55 45.1255 262.55C46.0255 262.55 46.7335 262.778 47.2495 263.234C47.7655 263.678 48.0235 264.29 48.0235 265.07V272H46.5655V265.664C46.5655 265.016 46.3675 264.542 45.9715 264.242C45.5995 263.966 45.1615 263.828 44.6575 263.828C43.9015 263.828 43.2895 264.11 42.8215 264.674C42.3655 265.238 42.1375 265.988 42.1375 266.924V272H40.6795V259.112ZM58.3177 267.806H51.4957C51.5077 268.598 51.6757 269.228 51.9997 269.696C52.5157 270.452 53.2597 270.83 54.2317 270.83C55.4317 270.83 56.2417 270.26 56.6617 269.12H58.1377C57.9457 270.092 57.5017 270.848 56.8057 271.388C56.1097 271.928 55.2337 272.198 54.1777 272.198C52.7737 272.198 51.6997 271.718 50.9557 270.758C50.2957 269.918 49.9657 268.808 49.9657 267.428C49.9657 265.832 50.3977 264.59 51.2617 263.702C52.0177 262.934 52.9957 262.55 54.1957 262.55C55.0717 262.55 55.8397 262.76 56.4997 263.18C57.1717 263.6 57.6517 264.176 57.9397 264.908C58.1917 265.532 58.3177 266.48 58.3177 267.752V267.806ZM56.7337 266.6C56.7337 265.796 56.4937 265.148 56.0137 264.656C55.5457 264.152 54.9397 263.9 54.1957 263.9C53.4397 263.9 52.8217 264.146 52.3417 264.638C51.8737 265.118 51.6097 265.772 51.5497 266.6H56.7337ZM70.2065 265.286H68.5865C68.5385 264.362 67.9205 263.9 66.7325 263.9C66.1205 263.9 65.6345 264.02 65.2745 264.26C64.9265 264.488 64.7525 264.8 64.7525 265.196C64.7525 265.796 65.3225 266.228 66.4625 266.492L67.8845 266.816C68.8085 267.032 69.4745 267.338 69.8825 267.734C70.2905 268.13 70.4945 268.67 70.4945 269.354C70.4945 270.23 70.1525 270.926 69.4685 271.442C68.7845 271.946 67.8605 272.198 66.6965 272.198C65.4245 272.198 64.4585 271.898 63.7985 271.298C63.2465 270.806 62.9525 270.152 62.9165 269.336H64.5905C64.6865 269.756 64.8185 270.062 64.9865 270.254C65.3105 270.638 65.9165 270.83 66.8045 270.83C67.4645 270.83 67.9865 270.71 68.3705 270.47C68.7665 270.218 68.9645 269.888 68.9645 269.48C68.9645 268.868 68.4905 268.448 67.5425 268.22L66.1565 267.896C65.1005 267.644 64.3625 267.344 63.9425 266.996C63.4625 266.6 63.2225 266.03 63.2225 265.286C63.2225 264.446 63.5405 263.78 64.1765 263.288C64.8245 262.796 65.6885 262.55 66.7685 262.55C67.8965 262.55 68.7725 262.832 69.3965 263.396C69.9365 263.888 70.2065 264.518 70.2065 265.286ZM73.8643 262.748V272H72.4063V262.748H73.8643ZM73.1623 259.13C73.4143 259.13 73.6243 259.22 73.7923 259.4C73.9723 259.568 74.0623 259.772 74.0623 260.012C74.0623 260.264 73.9723 260.48 73.7923 260.66C73.6243 260.828 73.4143 260.912 73.1623 260.912C72.9223 260.912 72.7123 260.828 72.5323 260.66C72.3643 260.48 72.2803 260.264 72.2803 260.012C72.2803 259.772 72.3643 259.568 72.5323 259.4C72.7123 259.22 72.9223 259.13 73.1623 259.13ZM76.3983 262.748H77.7663V264.08C78.4863 263.06 79.4343 262.55 80.6103 262.55C81.7503 262.55 82.5783 263.006 83.0943 263.918C83.5383 263.402 83.9643 263.048 84.3723 262.856C84.7923 262.652 85.3083 262.55 85.9203 262.55C87.7203 262.55 88.6203 263.396 88.6203 265.088V272H87.1443V265.664C87.1443 264.44 86.5683 263.828 85.4163 263.828C84.8163 263.828 84.3063 264.062 83.8863 264.53C83.4663 264.998 83.2563 265.556 83.2563 266.204V272H81.7803V265.664C81.7803 264.44 81.2103 263.828 80.0703 263.828C79.4583 263.828 78.9363 264.062 78.5043 264.53C78.0843 264.986 77.8743 265.544 77.8743 266.204V272H76.3983V262.748ZM90.8407 275.852V262.748H92.2087V264.17C92.8927 263.09 93.8767 262.55 95.1607 262.55C96.4687 262.55 97.4767 263.054 98.1847 264.062C98.8087 264.938 99.1207 266.09 99.1207 267.518C99.1207 269.042 98.7127 270.23 97.8967 271.082C97.1887 271.826 96.2707 272.198 95.1427 272.198C94.0027 272.198 93.0607 271.784 92.3167 270.956V275.852H90.8407ZM94.9087 263.918C94.1287 263.918 93.4987 264.236 93.0187 264.872C92.5507 265.508 92.3167 266.36 92.3167 267.428C92.3167 268.532 92.5867 269.396 93.1267 270.02C93.5827 270.548 94.1767 270.812 94.9087 270.812C95.7247 270.812 96.3727 270.506 96.8527 269.894C97.3447 269.27 97.5907 268.448 97.5907 267.428C97.5907 266.3 97.3147 265.412 96.7627 264.764C96.2707 264.2 95.6527 263.918 94.9087 263.918ZM102.395 259.112V272H100.919V259.112H102.395ZM112.687 267.806H105.865C105.877 268.598 106.045 269.228 106.369 269.696C106.885 270.452 107.629 270.83 108.601 270.83C109.801 270.83 110.611 270.26 111.031 269.12H112.507C112.315 270.092 111.871 270.848 111.175 271.388C110.479 271.928 109.603 272.198 108.547 272.198C107.143 272.198 106.069 271.718 105.325 270.758C104.665 269.918 104.335 268.808 104.335 267.428C104.335 265.832 104.767 264.59 105.631 263.702C106.387 262.934 107.365 262.55 108.565 262.55C109.441 262.55 110.209 262.76 110.869 263.18C111.541 263.6 112.021 264.176 112.309 264.908C112.561 265.532 112.687 266.48 112.687 267.752V267.806ZM111.103 266.6C111.103 265.796 110.863 265.148 110.383 264.656C109.915 264.152 109.309 263.9 108.565 263.9C107.809 263.9 107.191 264.146 106.711 264.638C106.243 265.118 105.979 265.772 105.919 266.6H111.103ZM0.249391 282.748H1.61739V284.44C2.15739 283.168 3.00939 282.532 4.17339 282.532C4.31739 282.532 4.49139 282.55 4.69539 282.586V284.098C3.73539 284.11 3.07539 284.248 2.71539 284.512C2.05539 284.992 1.72539 285.886 1.72539 287.194V292H0.249391V282.748ZM13.9681 287.806H7.14606C7.15806 288.598 7.32606 289.228 7.65006 289.696C8.16606 290.452 8.91006 290.83 9.88206 290.83C11.0821 290.83 11.8921 290.26 12.3121 289.12H13.7881C13.5961 290.092 13.1521 290.848 12.4561 291.388C11.7601 291.928 10.8841 292.198 9.82806 292.198C8.42406 292.198 7.35006 291.718 6.60606 290.758C5.94606 289.918 5.61606 288.808 5.61606 287.428C5.61606 285.832 6.04806 284.59 6.91206 283.702C7.66806 282.934 8.64606 282.55 9.84606 282.55C10.7221 282.55 11.4901 282.76 12.1501 283.18C12.8221 283.6 13.3021 284.176 13.5901 284.908C13.8421 285.532 13.9681 286.48 13.9681 287.752V287.806ZM12.3841 286.6C12.3841 285.796 12.1441 285.148 11.6641 284.656C11.1961 284.152 10.5901 283.9 9.84606 283.9C9.09006 283.9 8.47206 284.146 7.99206 284.638C7.52406 285.118 7.26006 285.772 7.20006 286.6H12.3841ZM22.0122 282.748H23.3802V290.488C23.3802 292.492 23.0562 293.884 22.4082 294.664C21.7602 295.456 20.6982 295.852 19.2222 295.852C18.0702 295.852 17.1702 295.576 16.5222 295.024C15.9462 294.532 15.6222 293.878 15.5502 293.062H17.0622C17.1342 293.542 17.3142 293.896 17.6022 294.124C18.0222 294.448 18.5862 294.61 19.2942 294.61C20.2542 294.61 20.9382 294.322 21.3462 293.746C21.6942 293.254 21.8682 292.414 21.8682 291.226V290.632C21.1002 291.676 20.1762 292.198 19.0962 292.198C18.0402 292.198 17.1462 291.802 16.4142 291.01C15.6342 290.158 15.2442 288.994 15.2442 287.518C15.2442 285.934 15.6522 284.674 16.4682 283.738C17.1882 282.946 18.0942 282.55 19.1862 282.55C20.3622 282.55 21.3042 283.078 22.0122 284.134V282.748ZM19.3482 283.9C18.5562 283.9 17.9262 284.218 17.4582 284.854C17.0022 285.478 16.7742 286.336 16.7742 287.428C16.7742 288.568 17.0382 289.438 17.5662 290.038C18.0102 290.566 18.6102 290.83 19.3662 290.83C20.1582 290.83 20.7702 290.53 21.2022 289.93C21.6462 289.33 21.8682 288.496 21.8682 287.428C21.8682 286.252 21.6162 285.352 21.1122 284.728C20.6682 284.176 20.0802 283.9 19.3482 283.9ZM27.1944 282.748V292H25.7364V282.748H27.1944ZM26.4924 279.13C26.7444 279.13 26.9544 279.22 27.1224 279.4C27.3024 279.568 27.3924 279.772 27.3924 280.012C27.3924 280.264 27.3024 280.48 27.1224 280.66C26.9544 280.828 26.7444 280.912 26.4924 280.912C26.2524 280.912 26.0424 280.828 25.8624 280.66C25.6944 280.48 25.6104 280.264 25.6104 280.012C25.6104 279.772 25.6944 279.568 25.8624 279.4C26.0424 279.22 26.2524 279.13 26.4924 279.13ZM36.2983 285.286H34.6783C34.6303 284.362 34.0123 283.9 32.8243 283.9C32.2123 283.9 31.7263 284.02 31.3663 284.26C31.0183 284.488 30.8443 284.8 30.8443 285.196C30.8443 285.796 31.4143 286.228 32.5543 286.492L33.9763 286.816C34.9003 287.032 35.5663 287.338 35.9743 287.734C36.3823 288.13 36.5863 288.67 36.5863 289.354C36.5863 290.23 36.2443 290.926 35.5603 291.442C34.8763 291.946 33.9523 292.198 32.7883 292.198C31.5163 292.198 30.5503 291.898 29.8903 291.298C29.3383 290.806 29.0443 290.152 29.0083 289.336H30.6823C30.7783 289.756 30.9103 290.062 31.0783 290.254C31.4023 290.638 32.0083 290.83 32.8963 290.83C33.5563 290.83 34.0783 290.71 34.4623 290.47C34.8583 290.218 35.0563 289.888 35.0563 289.48C35.0563 288.868 34.5823 288.448 33.6343 288.22L32.2483 287.896C31.1923 287.644 30.4543 287.344 30.0343 286.996C29.5543 286.6 29.3143 286.03 29.3143 285.286C29.3143 284.446 29.6323 283.78 30.2683 283.288C30.9163 282.796 31.7803 282.55 32.8603 282.55C33.9883 282.55 34.8643 282.832 35.4883 283.396C36.0283 283.888 36.2983 284.518 36.2983 285.286ZM42.1881 282.748V283.936H40.2981V290.092C40.2981 290.308 40.3701 290.494 40.5141 290.65C40.6701 290.794 40.8681 290.866 41.1081 290.866C41.3361 290.866 41.6841 290.812 42.1521 290.704L42.3141 292C41.5701 292.132 41.0061 292.198 40.6221 292.198C39.4341 292.198 38.8401 291.712 38.8401 290.74V283.936H37.5801V282.748H38.8401V280.858L40.2981 280.192V282.748H42.1881ZM43.8959 282.748H45.2639V284.44C45.8039 283.168 46.6559 282.532 47.8199 282.532C47.9639 282.532 48.1379 282.55 48.3419 282.586V284.098C47.3819 284.11 46.7219 284.248 46.3619 284.512C45.7019 284.992 45.3719 285.886 45.3719 287.194V292H43.8959V282.748ZM58.0105 290.758V291.946C57.6025 292.09 57.2845 292.162 57.0565 292.162C56.0965 292.162 55.5745 291.724 55.4905 290.848C54.8305 291.748 53.7805 292.198 52.3405 292.198C51.3445 292.198 50.5705 291.922 50.0185 291.37C49.5385 290.89 49.2985 290.272 49.2985 289.516C49.2985 288.652 49.6045 287.986 50.2165 287.518C50.5645 287.254 51.2905 286.996 52.3945 286.744L55.4185 286.06L55.4365 285.286C55.4365 284.362 54.7405 283.9 53.3485 283.9C52.0165 283.9 51.3025 284.44 51.2065 285.52H49.7125C49.7485 284.704 49.9525 284.08 50.3245 283.648C50.9605 282.916 51.9925 282.55 53.4205 282.55C55.7365 282.55 56.8945 283.39 56.8945 285.07V290.236C56.8945 290.692 57.0925 290.92 57.4885 290.92C57.5365 290.92 57.6625 290.884 57.8665 290.812C57.9385 290.788 57.9865 290.77 58.0105 290.758ZM55.4365 287.266L53.0605 287.878C52.2085 288.094 51.6205 288.316 51.2965 288.544C50.9845 288.772 50.8285 289.09 50.8285 289.498C50.8285 290.446 51.4405 290.92 52.6645 290.92C53.5285 290.92 54.2605 290.638 54.8605 290.074C55.2445 289.726 55.4365 289.33 55.4365 288.886V287.266ZM63.2467 282.748V283.936H61.3567V290.092C61.3567 290.308 61.4287 290.494 61.5727 290.65C61.7287 290.794 61.9267 290.866 62.1667 290.866C62.3947 290.866 62.7427 290.812 63.2107 290.704L63.3727 292C62.6287 292.132 62.0647 292.198 61.6807 292.198C60.4927 292.198 59.8987 291.712 59.8987 290.74V283.936H58.6387V282.748H59.8987V280.858L61.3567 280.192V282.748H63.2467ZM66.3585 282.748V292H64.9005V282.748H66.3585ZM65.6565 279.13C65.9085 279.13 66.1185 279.22 66.2865 279.4C66.4665 279.568 66.5565 279.772 66.5565 280.012C66.5565 280.264 66.4665 280.48 66.2865 280.66C66.1185 280.828 65.9085 280.912 65.6565 280.912C65.4165 280.912 65.2065 280.828 65.0265 280.66C64.8585 280.48 64.7745 280.264 64.7745 280.012C64.7745 279.772 64.8585 279.568 65.0265 279.4C65.2065 279.22 65.4165 279.13 65.6565 279.13ZM72.5104 282.55C73.9024 282.55 74.9644 283.036 75.6964 284.008C76.3444 284.848 76.6684 285.988 76.6684 287.428C76.6684 289.036 76.2484 290.26 75.4084 291.1C74.6884 291.832 73.7164 292.198 72.4924 292.198C71.0764 292.198 69.9964 291.724 69.2524 290.776C68.6044 289.948 68.2804 288.832 68.2804 287.428C68.2804 285.796 68.7064 284.542 69.5584 283.666C70.2904 282.922 71.2744 282.55 72.5104 282.55ZM72.5104 283.9C71.6704 283.9 71.0104 284.218 70.5304 284.854C70.0504 285.478 69.8104 286.336 69.8104 287.428C69.8104 288.568 70.0804 289.438 70.6204 290.038C71.0884 290.566 71.7124 290.83 72.4924 290.83C73.3204 290.83 73.9624 290.53 74.4184 289.93C74.8864 289.33 75.1204 288.496 75.1204 287.428C75.1204 286.252 74.8564 285.352 74.3284 284.728C73.8724 284.176 73.2664 283.9 72.5104 283.9ZM78.7186 282.748H80.0866V284.314C80.8306 283.138 81.8506 282.55 83.1466 282.55C84.0466 282.55 84.7606 282.778 85.2886 283.234C85.8166 283.678 86.0806 284.278 86.0806 285.034V292H84.6226V285.628C84.6226 285.076 84.4486 284.638 84.1006 284.314C83.7646 283.99 83.3026 283.828 82.7146 283.828C81.9466 283.828 81.3346 284.11 80.8786 284.674C80.4226 285.238 80.1946 285.988 80.1946 286.924V292H78.7186V282.748ZM95.1614 282.748V283.936H93.6314V292H92.1734V283.936H90.9314V282.748H92.1734V281.164C92.1734 280.504 92.3594 279.988 92.7314 279.616C93.1154 279.244 93.6494 279.058 94.3334 279.058C94.5974 279.058 94.8734 279.088 95.1614 279.148V280.372H94.9994C94.8674 280.36 94.7534 280.354 94.6574 280.354C93.9734 280.354 93.6314 280.666 93.6314 281.29V282.748H95.1614ZM100.389 282.55C101.781 282.55 102.843 283.036 103.575 284.008C104.223 284.848 104.547 285.988 104.547 287.428C104.547 289.036 104.127 290.26 103.287 291.1C102.567 291.832 101.595 292.198 100.371 292.198C98.9553 292.198 97.8753 291.724 97.1313 290.776C96.4833 289.948 96.1593 288.832 96.1593 287.428C96.1593 285.796 96.5853 284.542 97.4373 283.666C98.1693 282.922 99.1533 282.55 100.389 282.55ZM100.389 283.9C99.5493 283.9 98.8893 284.218 98.4093 284.854C97.9293 285.478 97.6893 286.336 97.6893 287.428C97.6893 288.568 97.9593 289.438 98.4993 290.038C98.9673 290.566 99.5913 290.83 100.371 290.83C101.199 290.83 101.841 290.53 102.297 289.93C102.765 289.33 102.999 288.496 102.999 287.428C102.999 286.252 102.735 285.352 102.207 284.728C101.751 284.176 101.145 283.9 100.389 283.9ZM106.579 282.748H107.947V284.44C108.487 283.168 109.339 282.532 110.503 282.532C110.647 282.532 110.821 282.55 111.025 282.586V284.098C110.065 284.11 109.405 284.248 109.045 284.512C108.385 284.992 108.055 285.886 108.055 287.194V292H106.579V282.748ZM112.486 282.748H113.854V284.08C114.574 283.06 115.522 282.55 116.698 282.55C117.838 282.55 118.666 283.006 119.182 283.918C119.626 283.402 120.052 283.048 120.46 282.856C120.88 282.652 121.396 282.55 122.008 282.55C123.808 282.55 124.708 283.396 124.708 285.088V292H123.232V285.664C123.232 284.44 122.656 283.828 121.504 283.828C120.904 283.828 120.394 284.062 119.974 284.53C119.554 284.998 119.344 285.556 119.344 286.204V292H117.868V285.664C117.868 284.44 117.298 283.828 116.158 283.828C115.546 283.828 115.024 284.062 114.592 284.53C114.172 284.986 113.962 285.544 113.962 286.204V292H112.486V282.748Z" fill="black"/>
<path d="M456.928 263.054H455.236C455.056 262.19 454.744 261.56 454.3 261.164C453.724 260.636 452.884 260.372 451.78 260.372C450.436 260.372 449.398 260.9 448.666 261.956C448.03 262.88 447.712 264.092 447.712 265.592C447.712 267.284 448.138 268.598 448.99 269.534C449.746 270.338 450.718 270.74 451.906 270.74C453.358 270.74 454.36 270.206 454.912 269.138C455.164 268.646 455.362 267.992 455.506 267.176H457.198C456.802 270.524 455.044 272.198 451.924 272.198C450.244 272.198 448.918 271.706 447.946 270.722C446.698 269.462 446.074 267.77 446.074 265.646C446.074 263.582 446.674 261.884 447.874 260.552C448.858 259.46 450.214 258.914 451.942 258.914C454.75 258.914 456.412 260.294 456.928 263.054ZM459.231 259.112H460.689V264.044C461.133 263.492 461.577 263.108 462.021 262.892C462.465 262.664 463.017 262.55 463.677 262.55C464.577 262.55 465.285 262.778 465.801 263.234C466.317 263.678 466.575 264.29 466.575 265.07V272H465.117V265.664C465.117 265.016 464.919 264.542 464.523 264.242C464.151 263.966 463.713 263.828 463.209 263.828C462.453 263.828 461.841 264.11 461.373 264.674C460.917 265.238 460.689 265.988 460.689 266.924V272H459.231V259.112ZM472.675 262.55C474.067 262.55 475.129 263.036 475.861 264.008C476.509 264.848 476.833 265.988 476.833 267.428C476.833 269.036 476.413 270.26 475.573 271.1C474.853 271.832 473.881 272.198 472.657 272.198C471.241 272.198 470.161 271.724 469.417 270.776C468.769 269.948 468.445 268.832 468.445 267.428C468.445 265.796 468.871 264.542 469.723 263.666C470.455 262.922 471.439 262.55 472.675 262.55ZM472.675 263.9C471.835 263.9 471.175 264.218 470.695 264.854C470.215 265.478 469.975 266.336 469.975 267.428C469.975 268.568 470.245 269.438 470.785 270.038C471.253 270.566 471.877 270.83 472.657 270.83C473.485 270.83 474.127 270.53 474.583 269.93C475.051 269.33 475.285 268.496 475.285 267.428C475.285 266.252 475.021 265.352 474.493 264.728C474.037 264.176 473.431 263.9 472.675 263.9ZM482.502 262.55C483.894 262.55 484.956 263.036 485.688 264.008C486.336 264.848 486.66 265.988 486.66 267.428C486.66 269.036 486.24 270.26 485.4 271.1C484.68 271.832 483.708 272.198 482.484 272.198C481.068 272.198 479.988 271.724 479.244 270.776C478.596 269.948 478.272 268.832 478.272 267.428C478.272 265.796 478.698 264.542 479.55 263.666C480.282 262.922 481.266 262.55 482.502 262.55ZM482.502 263.9C481.662 263.9 481.002 264.218 480.522 264.854C480.042 265.478 479.802 266.336 479.802 267.428C479.802 268.568 480.072 269.438 480.612 270.038C481.08 270.566 481.704 270.83 482.484 270.83C483.312 270.83 483.954 270.53 484.41 269.93C484.878 269.33 485.112 268.496 485.112 267.428C485.112 266.252 484.848 265.352 484.32 264.728C483.864 264.176 483.258 263.9 482.502 263.9ZM495.28 265.286H493.66C493.612 264.362 492.994 263.9 491.806 263.9C491.194 263.9 490.708 264.02 490.348 264.26C490 264.488 489.826 264.8 489.826 265.196C489.826 265.796 490.396 266.228 491.536 266.492L492.958 266.816C493.882 267.032 494.548 267.338 494.956 267.734C495.364 268.13 495.568 268.67 495.568 269.354C495.568 270.23 495.226 270.926 494.542 271.442C493.858 271.946 492.934 272.198 491.77 272.198C490.498 272.198 489.532 271.898 488.872 271.298C488.32 270.806 488.026 270.152 487.99 269.336H489.664C489.76 269.756 489.892 270.062 490.06 270.254C490.384 270.638 490.99 270.83 491.878 270.83C492.538 270.83 493.06 270.71 493.444 270.47C493.84 270.218 494.038 269.888 494.038 269.48C494.038 268.868 493.564 268.448 492.616 268.22L491.23 267.896C490.174 267.644 489.436 267.344 489.016 266.996C488.536 266.6 488.296 266.03 488.296 265.286C488.296 264.446 488.614 263.78 489.25 263.288C489.898 262.796 490.762 262.55 491.842 262.55C492.97 262.55 493.846 262.832 494.47 263.396C495.01 263.888 495.28 264.518 495.28 265.286ZM505.364 267.806H498.542C498.554 268.598 498.722 269.228 499.046 269.696C499.562 270.452 500.306 270.83 501.278 270.83C502.478 270.83 503.288 270.26 503.708 269.12H505.184C504.992 270.092 504.548 270.848 503.852 271.388C503.156 271.928 502.28 272.198 501.224 272.198C499.82 272.198 498.746 271.718 498.002 270.758C497.342 269.918 497.012 268.808 497.012 267.428C497.012 265.832 497.444 264.59 498.308 263.702C499.064 262.934 500.042 262.55 501.242 262.55C502.118 262.55 502.886 262.76 503.546 263.18C504.218 263.6 504.698 264.176 504.986 264.908C505.238 265.532 505.364 266.48 505.364 267.752V267.806ZM503.78 266.6C503.78 265.796 503.54 265.148 503.06 264.656C502.592 264.152 501.986 263.9 501.242 263.9C500.486 263.9 499.868 264.146 499.388 264.638C498.92 265.118 498.656 265.772 498.596 266.6H503.78ZM518.89 270.758V271.946C518.482 272.09 518.164 272.162 517.936 272.162C516.976 272.162 516.454 271.724 516.37 270.848C515.71 271.748 514.66 272.198 513.22 272.198C512.224 272.198 511.45 271.922 510.898 271.37C510.418 270.89 510.178 270.272 510.178 269.516C510.178 268.652 510.484 267.986 511.096 267.518C511.444 267.254 512.17 266.996 513.274 266.744L516.298 266.06L516.316 265.286C516.316 264.362 515.62 263.9 514.228 263.9C512.896 263.9 512.182 264.44 512.086 265.52H510.592C510.628 264.704 510.832 264.08 511.204 263.648C511.84 262.916 512.872 262.55 514.3 262.55C516.616 262.55 517.774 263.39 517.774 265.07V270.236C517.774 270.692 517.972 270.92 518.368 270.92C518.416 270.92 518.542 270.884 518.746 270.812C518.818 270.788 518.866 270.77 518.89 270.758ZM516.316 267.266L513.94 267.878C513.088 268.094 512.5 268.316 512.176 268.544C511.864 268.772 511.708 269.09 511.708 269.498C511.708 270.446 512.32 270.92 513.544 270.92C514.408 270.92 515.14 270.638 515.74 270.074C516.124 269.726 516.316 269.33 516.316 268.886V267.266ZM527.583 265.844H526.107C525.927 264.548 525.195 263.9 523.911 263.9C523.107 263.9 522.477 264.218 522.021 264.854C521.565 265.49 521.337 266.372 521.337 267.5C521.337 268.616 521.607 269.468 522.147 270.056C522.603 270.572 523.215 270.83 523.983 270.83C525.219 270.83 525.957 270.158 526.197 268.814H527.691C527.595 269.966 527.181 270.836 526.449 271.424C525.813 271.94 524.979 272.198 523.947 272.198C522.591 272.198 521.535 271.718 520.779 270.758C520.131 269.93 519.807 268.844 519.807 267.5C519.807 265.892 520.233 264.632 521.085 263.72C521.817 262.94 522.765 262.55 523.929 262.55C525.273 262.55 526.281 263 526.953 263.9C527.301 264.368 527.511 265.016 527.583 265.844ZM536.424 265.844H534.948C534.768 264.548 534.036 263.9 532.752 263.9C531.948 263.9 531.318 264.218 530.862 264.854C530.406 265.49 530.178 266.372 530.178 267.5C530.178 268.616 530.448 269.468 530.988 270.056C531.444 270.572 532.056 270.83 532.824 270.83C534.06 270.83 534.798 270.158 535.038 268.814H536.532C536.436 269.966 536.022 270.836 535.29 271.424C534.654 271.94 533.82 272.198 532.788 272.198C531.432 272.198 530.376 271.718 529.62 270.758C528.972 269.93 528.648 268.844 528.648 267.5C528.648 265.892 529.074 264.632 529.926 263.72C530.658 262.94 531.606 262.55 532.77 262.55C534.114 262.55 535.122 263 535.794 263.9C536.142 264.368 536.352 265.016 536.424 265.844ZM541.81 262.55C543.202 262.55 544.264 263.036 544.996 264.008C545.644 264.848 545.968 265.988 545.968 267.428C545.968 269.036 545.548 270.26 544.708 271.1C543.988 271.832 543.016 272.198 541.792 272.198C540.376 272.198 539.296 271.724 538.552 270.776C537.904 269.948 537.58 268.832 537.58 267.428C537.58 265.796 538.006 264.542 538.858 263.666C539.59 262.922 540.574 262.55 541.81 262.55ZM541.81 263.9C540.97 263.9 540.31 264.218 539.83 264.854C539.35 265.478 539.11 266.336 539.11 267.428C539.11 268.568 539.38 269.438 539.92 270.038C540.388 270.566 541.012 270.83 541.792 270.83C542.62 270.83 543.262 270.53 543.718 269.93C544.186 269.33 544.42 268.496 544.42 267.428C544.42 266.252 544.156 265.352 543.628 264.728C543.172 264.176 542.566 263.9 541.81 263.9ZM555.29 272H553.832V270.542C553.172 271.646 552.188 272.198 550.88 272.198C549.98 272.198 549.26 271.976 548.72 271.532C548.192 271.076 547.928 270.47 547.928 269.714V262.748H549.386V269.12C549.386 269.66 549.56 270.092 549.908 270.416C550.256 270.74 550.724 270.902 551.312 270.902C552.08 270.902 552.692 270.626 553.148 270.074C553.604 269.51 553.832 268.754 553.832 267.806V262.748H555.29V272ZM557.845 262.748H559.213V264.314C559.957 263.138 560.977 262.55 562.273 262.55C563.173 262.55 563.887 262.778 564.415 263.234C564.943 263.678 565.207 264.278 565.207 265.034V272H563.749V265.628C563.749 265.076 563.575 264.638 563.227 264.314C562.891 263.99 562.429 263.828 561.841 263.828C561.073 263.828 560.461 264.11 560.005 264.674C559.549 265.238 559.321 265.988 559.321 266.924V272H557.845V262.748ZM571.289 262.748V263.936H569.399V270.092C569.399 270.308 569.471 270.494 569.615 270.65C569.771 270.794 569.969 270.866 570.209 270.866C570.437 270.866 570.785 270.812 571.253 270.704L571.415 272C570.671 272.132 570.107 272.198 569.723 272.198C568.535 272.198 567.941 271.712 567.941 270.74V263.936H566.681V262.748H567.941V260.858L569.399 260.192V262.748H571.289ZM468.571 282.55C469.963 282.55 471.025 283.036 471.757 284.008C472.405 284.848 472.729 285.988 472.729 287.428C472.729 289.036 472.309 290.26 471.469 291.1C470.749 291.832 469.777 292.198 468.553 292.198C467.137 292.198 466.057 291.724 465.313 290.776C464.665 289.948 464.341 288.832 464.341 287.428C464.341 285.796 464.767 284.542 465.619 283.666C466.351 282.922 467.335 282.55 468.571 282.55ZM468.571 283.9C467.731 283.9 467.071 284.218 466.591 284.854C466.111 285.478 465.871 286.336 465.871 287.428C465.871 288.568 466.141 289.438 466.681 290.038C467.149 290.566 467.773 290.83 468.553 290.83C469.381 290.83 470.023 290.53 470.479 289.93C470.947 289.33 471.181 288.496 471.181 287.428C471.181 286.252 470.917 285.352 470.389 284.728C469.933 284.176 469.327 283.9 468.571 283.9ZM478.091 282.748V283.936H476.561V292H475.103V283.936H473.861V282.748H475.103V281.164C475.103 280.504 475.289 279.988 475.661 279.616C476.045 279.244 476.579 279.058 477.263 279.058C477.527 279.058 477.803 279.088 478.091 279.148V280.372H477.929C477.797 280.36 477.683 280.354 477.587 280.354C476.903 280.354 476.561 280.666 476.561 281.29V282.748H478.091ZM488.64 282.748H490.224L486.102 293.944C485.622 295.216 484.824 295.852 483.708 295.852C483.18 295.852 482.718 295.732 482.322 295.492L482.61 294.214C482.91 294.334 483.204 294.394 483.492 294.394C484.068 294.394 484.47 294.094 484.698 293.494L485.256 292.018L482.124 282.748H483.708L486.066 289.948L488.64 282.748ZM495.465 282.55C496.857 282.55 497.919 283.036 498.651 284.008C499.299 284.848 499.623 285.988 499.623 287.428C499.623 289.036 499.203 290.26 498.363 291.1C497.643 291.832 496.671 292.198 495.447 292.198C494.031 292.198 492.951 291.724 492.207 290.776C491.559 289.948 491.235 288.832 491.235 287.428C491.235 285.796 491.661 284.542 492.513 283.666C493.245 282.922 494.229 282.55 495.465 282.55ZM495.465 283.9C494.625 283.9 493.965 284.218 493.485 284.854C493.005 285.478 492.765 286.336 492.765 287.428C492.765 288.568 493.035 289.438 493.575 290.038C494.043 290.566 494.667 290.83 495.447 290.83C496.275 290.83 496.917 290.53 497.373 289.93C497.841 289.33 498.075 288.496 498.075 287.428C498.075 286.252 497.811 285.352 497.283 284.728C496.827 284.176 496.221 283.9 495.465 283.9ZM508.946 292H507.488V290.542C506.828 291.646 505.844 292.198 504.536 292.198C503.636 292.198 502.916 291.976 502.376 291.532C501.848 291.076 501.584 290.47 501.584 289.714V282.748H503.042V289.12C503.042 289.66 503.216 290.092 503.564 290.416C503.912 290.74 504.38 290.902 504.968 290.902C505.736 290.902 506.348 290.626 506.804 290.074C507.26 289.51 507.488 288.754 507.488 287.806V282.748H508.946V292ZM511.482 282.748H512.85V284.44C513.39 283.168 514.242 282.532 515.406 282.532C515.55 282.532 515.724 282.55 515.928 282.586V284.098C514.968 284.11 514.308 284.248 513.948 284.512C513.288 284.992 512.958 285.886 512.958 287.194V292H511.482V282.748ZM524.311 282.748V283.936H522.421V290.092C522.421 290.308 522.493 290.494 522.637 290.65C522.793 290.794 522.991 290.866 523.231 290.866C523.459 290.866 523.807 290.812 524.275 290.704L524.437 292C523.693 292.132 523.129 292.198 522.745 292.198C521.557 292.198 520.963 291.712 520.963 290.74V283.936H519.703V282.748H520.963V280.858L522.421 280.192V282.748H524.311ZM531.671 282.748H533.255L529.133 293.944C528.653 295.216 527.855 295.852 526.739 295.852C526.211 295.852 525.749 295.732 525.353 295.492L525.641 294.214C525.941 294.334 526.235 294.394 526.523 294.394C527.099 294.394 527.501 294.094 527.729 293.494L528.287 292.018L525.155 282.748H526.739L529.097 289.948L531.671 282.748ZM534.591 295.852V282.748H535.959V284.17C536.643 283.09 537.627 282.55 538.911 282.55C540.219 282.55 541.227 283.054 541.935 284.062C542.559 284.938 542.871 286.09 542.871 287.518C542.871 289.042 542.463 290.23 541.647 291.082C540.939 291.826 540.021 292.198 538.893 292.198C537.753 292.198 536.811 291.784 536.067 290.956V295.852H534.591ZM538.659 283.918C537.879 283.918 537.249 284.236 536.769 284.872C536.301 285.508 536.067 286.36 536.067 287.428C536.067 288.532 536.337 289.396 536.877 290.02C537.333 290.548 537.927 290.812 538.659 290.812C539.475 290.812 540.123 290.506 540.603 289.894C541.095 289.27 541.341 288.448 541.341 287.428C541.341 286.3 541.065 285.412 540.513 284.764C540.021 284.2 539.403 283.918 538.659 283.918ZM552.517 287.806H545.695C545.707 288.598 545.875 289.228 546.199 289.696C546.715 290.452 547.459 290.83 548.431 290.83C549.631 290.83 550.441 290.26 550.861 289.12H552.337C552.145 290.092 551.701 290.848 551.005 291.388C550.309 291.928 549.433 292.198 548.377 292.198C546.973 292.198 545.899 291.718 545.155 290.758C544.495 289.918 544.165 288.808 544.165 287.428C544.165 285.832 544.597 284.59 545.461 283.702C546.217 282.934 547.195 282.55 548.395 282.55C549.271 282.55 550.039 282.76 550.699 283.18C551.371 283.6 551.851 284.176 552.139 284.908C552.391 285.532 552.517 286.48 552.517 287.752V287.806ZM550.933 286.6C550.933 285.796 550.693 285.148 550.213 284.656C549.745 284.152 549.139 283.9 548.395 283.9C547.639 283.9 547.021 284.146 546.541 284.638C546.073 285.118 545.809 285.772 545.749 286.6H550.933Z" fill="black"/>
<path d="M867.273 258.914C869.265 258.914 870.837 259.604 871.989 260.984C872.985 262.184 873.483 263.708 873.483 265.556C873.483 267.68 872.841 269.36 871.557 270.596C870.429 271.664 869.001 272.198 867.273 272.198C865.269 272.198 863.691 271.508 862.539 270.128C861.543 268.928 861.045 267.404 861.045 265.556C861.045 263.432 861.693 261.752 862.989 260.516C864.105 259.448 865.533 258.914 867.273 258.914ZM867.255 260.372C865.791 260.372 864.633 260.906 863.781 261.974C863.049 262.91 862.683 264.104 862.683 265.556C862.683 267.224 863.157 268.538 864.105 269.498C864.933 270.326 865.983 270.74 867.255 270.74C868.731 270.74 869.895 270.206 870.747 269.138C871.479 268.202 871.845 267.008 871.845 265.556C871.845 263.888 871.371 262.574 870.423 261.614C869.595 260.786 868.539 260.372 867.255 260.372ZM875.367 262.748H876.735V264.314C877.479 263.138 878.499 262.55 879.795 262.55C880.695 262.55 881.409 262.778 881.937 263.234C882.465 263.678 882.729 264.278 882.729 265.034V272H881.271V265.628C881.271 265.076 881.097 264.638 880.749 264.314C880.413 263.99 879.951 263.828 879.363 263.828C878.595 263.828 877.983 264.11 877.527 264.674C877.071 265.238 876.843 265.988 876.843 266.924V272H875.367V262.748ZM892.267 265.844H890.791C890.611 264.548 889.879 263.9 888.595 263.9C887.791 263.9 887.161 264.218 886.705 264.854C886.249 265.49 886.021 266.372 886.021 267.5C886.021 268.616 886.291 269.468 886.831 270.056C887.287 270.572 887.899 270.83 888.667 270.83C889.903 270.83 890.641 270.158 890.881 268.814H892.375C892.279 269.966 891.865 270.836 891.133 271.424C890.497 271.94 889.663 272.198 888.631 272.198C887.275 272.198 886.219 271.718 885.463 270.758C884.815 269.93 884.491 268.844 884.491 267.5C884.491 265.892 884.917 264.632 885.769 263.72C886.501 262.94 887.449 262.55 888.613 262.55C889.957 262.55 890.965 263 891.637 263.9C891.985 264.368 892.195 265.016 892.267 265.844ZM901.847 267.806H895.025C895.037 268.598 895.205 269.228 895.529 269.696C896.045 270.452 896.789 270.83 897.761 270.83C898.961 270.83 899.771 270.26 900.191 269.12H901.667C901.475 270.092 901.031 270.848 900.335 271.388C899.639 271.928 898.763 272.198 897.707 272.198C896.303 272.198 895.229 271.718 894.485 270.758C893.825 269.918 893.495 268.808 893.495 267.428C893.495 265.832 893.927 264.59 894.791 263.702C895.547 262.934 896.525 262.55 897.725 262.55C898.601 262.55 899.369 262.76 900.029 263.18C900.701 263.6 901.181 264.176 901.469 264.908C901.721 265.532 901.847 266.48 901.847 267.752V267.806ZM900.263 266.6C900.263 265.796 900.023 265.148 899.543 264.656C899.075 264.152 898.469 263.9 897.725 263.9C896.969 263.9 896.351 264.146 895.871 264.638C895.403 265.118 895.139 265.772 895.079 266.6H900.263ZM915.374 270.758V271.946C914.966 272.09 914.648 272.162 914.42 272.162C913.46 272.162 912.938 271.724 912.854 270.848C912.194 271.748 911.144 272.198 909.704 272.198C908.708 272.198 907.934 271.922 907.382 271.37C906.902 270.89 906.662 270.272 906.662 269.516C906.662 268.652 906.968 267.986 907.58 267.518C907.928 267.254 908.654 266.996 909.758 266.744L912.782 266.06L912.8 265.286C912.8 264.362 912.104 263.9 910.712 263.9C909.38 263.9 908.666 264.44 908.57 265.52H907.076C907.112 264.704 907.316 264.08 907.688 263.648C908.324 262.916 909.356 262.55 910.784 262.55C913.1 262.55 914.258 263.39 914.258 265.07V270.236C914.258 270.692 914.456 270.92 914.852 270.92C914.9 270.92 915.026 270.884 915.23 270.812C915.302 270.788 915.35 270.77 915.374 270.758ZM912.8 267.266L910.424 267.878C909.572 268.094 908.984 268.316 908.66 268.544C908.348 268.772 908.192 269.09 908.192 269.498C908.192 270.446 908.804 270.92 910.028 270.92C910.892 270.92 911.624 270.638 912.224 270.074C912.608 269.726 912.8 269.33 912.8 268.886V267.266ZM916.704 275.852V262.748H918.072V264.17C918.756 263.09 919.74 262.55 921.024 262.55C922.332 262.55 923.34 263.054 924.048 264.062C924.672 264.938 924.984 266.09 924.984 267.518C924.984 269.042 924.576 270.23 923.76 271.082C923.052 271.826 922.134 272.198 921.006 272.198C919.866 272.198 918.924 271.784 918.18 270.956V275.852H916.704ZM920.772 263.918C919.992 263.918 919.362 264.236 918.882 264.872C918.414 265.508 918.18 266.36 918.18 267.428C918.18 268.532 918.45 269.396 918.99 270.02C919.446 270.548 920.04 270.812 920.772 270.812C921.588 270.812 922.236 270.506 922.716 269.894C923.208 269.27 923.454 268.448 923.454 267.428C923.454 266.3 923.178 265.412 922.626 264.764C922.134 264.2 921.516 263.918 920.772 263.918ZM926.53 275.852V262.748H927.898V264.17C928.582 263.09 929.566 262.55 930.85 262.55C932.158 262.55 933.166 263.054 933.874 264.062C934.498 264.938 934.81 266.09 934.81 267.518C934.81 269.042 934.402 270.23 933.586 271.082C932.878 271.826 931.96 272.198 930.832 272.198C929.692 272.198 928.75 271.784 928.006 270.956V275.852H926.53ZM930.598 263.918C929.818 263.918 929.188 264.236 928.708 264.872C928.24 265.508 928.006 266.36 928.006 267.428C928.006 268.532 928.276 269.396 928.816 270.02C929.272 270.548 929.866 270.812 930.598 270.812C931.414 270.812 932.062 270.506 932.542 269.894C933.034 269.27 933.28 268.448 933.28 267.428C933.28 266.3 933.004 265.412 932.452 264.764C931.96 264.2 931.342 263.918 930.598 263.918ZM936.626 262.748H937.994V264.44C938.534 263.168 939.386 262.532 940.55 262.532C940.694 262.532 940.868 262.55 941.072 262.586V264.098C940.112 264.11 939.452 264.248 939.092 264.512C938.432 264.992 938.102 265.886 938.102 267.194V272H936.626V262.748ZM946.151 262.55C947.543 262.55 948.605 263.036 949.337 264.008C949.985 264.848 950.309 265.988 950.309 267.428C950.309 269.036 949.889 270.26 949.049 271.1C948.329 271.832 947.357 272.198 946.133 272.198C944.717 272.198 943.637 271.724 942.893 270.776C942.245 269.948 941.921 268.832 941.921 267.428C941.921 265.796 942.347 264.542 943.199 263.666C943.931 262.922 944.915 262.55 946.151 262.55ZM946.151 263.9C945.311 263.9 944.651 264.218 944.171 264.854C943.691 265.478 943.451 266.336 943.451 267.428C943.451 268.568 943.721 269.438 944.261 270.038C944.729 270.566 945.353 270.83 946.133 270.83C946.961 270.83 947.603 270.53 948.059 269.93C948.527 269.33 948.761 268.496 948.761 267.428C948.761 266.252 948.497 265.352 947.969 264.728C947.513 264.176 946.907 263.9 946.151 263.9ZM956.157 272H954.555L951.297 262.748H952.971L955.419 270.236L958.047 262.748H959.703L956.157 272ZM969.013 267.806H962.191C962.203 268.598 962.371 269.228 962.695 269.696C963.211 270.452 963.955 270.83 964.927 270.83C966.127 270.83 966.937 270.26 967.357 269.12H968.833C968.641 270.092 968.197 270.848 967.501 271.388C966.805 271.928 965.929 272.198 964.873 272.198C963.469 272.198 962.395 271.718 961.651 270.758C960.991 269.918 960.661 268.808 960.661 267.428C960.661 265.832 961.093 264.59 961.957 263.702C962.713 262.934 963.691 262.55 964.891 262.55C965.767 262.55 966.535 262.76 967.195 263.18C967.867 263.6 968.347 264.176 968.635 264.908C968.887 265.532 969.013 266.48 969.013 267.752V267.806ZM967.429 266.6C967.429 265.796 967.189 265.148 966.709 264.656C966.241 264.152 965.635 263.9 964.891 263.9C964.135 263.9 963.517 264.146 963.037 264.638C962.569 265.118 962.305 265.772 962.245 266.6H967.429ZM978.551 259.112V272H977.075V270.722C976.487 271.718 975.575 272.216 974.339 272.216C972.983 272.216 971.939 271.724 971.207 270.74C970.571 269.876 970.253 268.736 970.253 267.32C970.253 265.772 970.667 264.56 971.495 263.684C972.203 262.928 973.121 262.55 974.249 262.55C975.497 262.55 976.439 263.018 977.075 263.954V259.112H978.551ZM974.501 263.918C973.685 263.918 973.025 264.242 972.521 264.89C972.029 265.526 971.783 266.372 971.783 267.428C971.783 268.52 972.071 269.378 972.647 270.002C973.139 270.554 973.763 270.83 974.519 270.83C975.299 270.83 975.917 270.524 976.373 269.912C976.841 269.3 977.075 268.472 977.075 267.428C977.075 266.288 976.811 265.4 976.283 264.764C975.815 264.2 975.221 263.918 974.501 263.918ZM987.47 262.748V263.936H985.94V272H984.482V263.936H983.24V262.748H984.482V261.164C984.482 260.504 984.668 259.988 985.04 259.616C985.424 259.244 985.958 259.058 986.642 259.058C986.906 259.058 987.182 259.088 987.47 259.148V260.372H987.308C987.176 260.36 987.062 260.354 986.966 260.354C986.282 260.354 985.94 260.666 985.94 261.29V262.748H987.47ZM996.352 272H994.894V270.542C994.234 271.646 993.25 272.198 991.942 272.198C991.042 272.198 990.322 271.976 989.782 271.532C989.254 271.076 988.99 270.47 988.99 269.714V262.748H990.448V269.12C990.448 269.66 990.622 270.092 990.97 270.416C991.318 270.74 991.786 270.902 992.374 270.902C993.142 270.902 993.754 270.626 994.21 270.074C994.666 269.51 994.894 268.754 994.894 267.806V262.748H996.352V272ZM998.906 262.748H1000.27V264.314C1001.02 263.138 1002.04 262.55 1003.33 262.55C1004.23 262.55 1004.95 262.778 1005.48 263.234C1006 263.678 1006.27 264.278 1006.27 265.034V272H1004.81V265.628C1004.81 265.076 1004.64 264.638 1004.29 264.314C1003.95 263.99 1003.49 263.828 1002.9 263.828C1002.13 263.828 1001.52 264.11 1001.07 264.674C1000.61 265.238 1000.38 265.988 1000.38 266.924V272H998.906V262.748ZM1016.26 259.112V272H1014.78V270.722C1014.19 271.718 1013.28 272.216 1012.04 272.216C1010.69 272.216 1009.64 271.724 1008.91 270.74C1008.28 269.876 1007.96 268.736 1007.96 267.32C1007.96 265.772 1008.37 264.56 1009.2 263.684C1009.91 262.928 1010.83 262.55 1011.95 262.55C1013.2 262.55 1014.14 263.018 1014.78 263.954V259.112H1016.26ZM1012.21 263.918C1011.39 263.918 1010.73 264.242 1010.23 264.89C1009.73 265.526 1009.49 266.372 1009.49 267.428C1009.49 268.52 1009.78 269.378 1010.35 270.002C1010.84 270.554 1011.47 270.83 1012.22 270.83C1013 270.83 1013.62 270.524 1014.08 269.912C1014.55 269.3 1014.78 268.472 1014.78 267.428C1014.78 266.288 1014.52 265.4 1013.99 264.764C1013.52 264.2 1012.93 263.918 1012.21 263.918ZM858.967 282.748H860.551L856.429 293.944C855.949 295.216 855.151 295.852 854.035 295.852C853.507 295.852 853.045 295.732 852.649 295.492L852.937 294.214C853.237 294.334 853.531 294.394 853.819 294.394C854.395 294.394 854.797 294.094 855.025 293.494L855.583 292.018L852.451 282.748H854.035L856.393 289.948L858.967 282.748ZM865.793 282.55C867.185 282.55 868.247 283.036 868.979 284.008C869.627 284.848 869.951 285.988 869.951 287.428C869.951 289.036 869.531 290.26 868.691 291.1C867.971 291.832 866.999 292.198 865.775 292.198C864.359 292.198 863.279 291.724 862.535 290.776C861.887 289.948 861.563 288.832 861.563 287.428C861.563 285.796 861.989 284.542 862.841 283.666C863.573 282.922 864.557 282.55 865.793 282.55ZM865.793 283.9C864.953 283.9 864.293 284.218 863.813 284.854C863.333 285.478 863.093 286.336 863.093 287.428C863.093 288.568 863.363 289.438 863.903 290.038C864.371 290.566 864.995 290.83 865.775 290.83C866.603 290.83 867.245 290.53 867.701 289.93C868.169 289.33 868.403 288.496 868.403 287.428C868.403 286.252 868.139 285.352 867.611 284.728C867.155 284.176 866.549 283.9 865.793 283.9ZM879.273 292H877.815V290.542C877.155 291.646 876.171 292.198 874.863 292.198C873.963 292.198 873.243 291.976 872.703 291.532C872.175 291.076 871.911 290.47 871.911 289.714V282.748H873.369V289.12C873.369 289.66 873.543 290.092 873.891 290.416C874.239 290.74 874.707 290.902 875.295 290.902C876.063 290.902 876.675 290.626 877.131 290.074C877.587 289.51 877.815 288.754 877.815 287.806V282.748H879.273V292ZM881.809 282.748H883.177V284.44C883.717 283.168 884.569 282.532 885.733 282.532C885.877 282.532 886.051 282.55 886.255 282.586V284.098C885.295 284.11 884.635 284.248 884.275 284.512C883.615 284.992 883.285 285.886 883.285 287.194V292H881.809V282.748ZM899.228 290.758V291.946C898.82 292.09 898.502 292.162 898.274 292.162C897.314 292.162 896.792 291.724 896.708 290.848C896.048 291.748 894.998 292.198 893.558 292.198C892.562 292.198 891.788 291.922 891.236 291.37C890.756 290.89 890.516 290.272 890.516 289.516C890.516 288.652 890.822 287.986 891.434 287.518C891.782 287.254 892.508 286.996 893.612 286.744L896.636 286.06L896.654 285.286C896.654 284.362 895.958 283.9 894.566 283.9C893.234 283.9 892.52 284.44 892.424 285.52H890.93C890.966 284.704 891.17 284.08 891.542 283.648C892.178 282.916 893.21 282.55 894.638 282.55C896.954 282.55 898.112 283.39 898.112 285.07V290.236C898.112 290.692 898.31 290.92 898.706 290.92C898.754 290.92 898.88 290.884 899.084 290.812C899.156 290.788 899.204 290.77 899.228 290.758ZM896.654 287.266L894.278 287.878C893.426 288.094 892.838 288.316 892.514 288.544C892.202 288.772 892.046 289.09 892.046 289.498C892.046 290.446 892.658 290.92 893.882 290.92C894.746 290.92 895.478 290.638 896.078 290.074C896.462 289.726 896.654 289.33 896.654 288.886V287.266ZM907.92 285.844H906.444C906.264 284.548 905.532 283.9 904.248 283.9C903.444 283.9 902.814 284.218 902.358 284.854C901.902 285.49 901.674 286.372 901.674 287.5C901.674 288.616 901.944 289.468 902.484 290.056C902.94 290.572 903.552 290.83 904.32 290.83C905.556 290.83 906.294 290.158 906.534 288.814H908.028C907.932 289.966 907.518 290.836 906.786 291.424C906.15 291.94 905.316 292.198 904.284 292.198C902.928 292.198 901.872 291.718 901.116 290.758C900.468 289.93 900.144 288.844 900.144 287.5C900.144 285.892 900.57 284.632 901.422 283.72C902.154 282.94 903.102 282.55 904.266 282.55C905.61 282.55 906.618 283 907.29 283.9C907.638 284.368 907.848 285.016 907.92 285.844ZM916.762 285.844H915.286C915.106 284.548 914.374 283.9 913.09 283.9C912.286 283.9 911.656 284.218 911.2 284.854C910.744 285.49 910.516 286.372 910.516 287.5C910.516 288.616 910.786 289.468 911.326 290.056C911.782 290.572 912.394 290.83 913.162 290.83C914.398 290.83 915.136 290.158 915.376 288.814H916.87C916.774 289.966 916.36 290.836 915.628 291.424C914.992 291.94 914.158 292.198 913.126 292.198C911.77 292.198 910.714 291.718 909.958 290.758C909.31 289.93 908.986 288.844 908.986 287.5C908.986 285.892 909.412 284.632 910.264 283.72C910.996 282.94 911.944 282.55 913.108 282.55C914.452 282.55 915.46 283 916.132 283.9C916.48 284.368 916.69 285.016 916.762 285.844ZM922.148 282.55C923.54 282.55 924.602 283.036 925.334 284.008C925.982 284.848 926.306 285.988 926.306 287.428C926.306 289.036 925.886 290.26 925.046 291.1C924.326 291.832 923.354 292.198 922.13 292.198C920.714 292.198 919.634 291.724 918.89 290.776C918.242 289.948 917.918 288.832 917.918 287.428C917.918 285.796 918.344 284.542 919.196 283.666C919.928 282.922 920.912 282.55 922.148 282.55ZM922.148 283.9C921.308 283.9 920.648 284.218 920.168 284.854C919.688 285.478 919.448 286.336 919.448 287.428C919.448 288.568 919.718 289.438 920.258 290.038C920.726 290.566 921.35 290.83 922.13 290.83C922.958 290.83 923.6 290.53 924.056 289.93C924.524 289.33 924.758 288.496 924.758 287.428C924.758 286.252 924.494 285.352 923.966 284.728C923.51 284.176 922.904 283.9 922.148 283.9ZM935.628 292H934.17V290.542C933.51 291.646 932.526 292.198 931.218 292.198C930.318 292.198 929.598 291.976 929.058 291.532C928.53 291.076 928.266 290.47 928.266 289.714V282.748H929.724V289.12C929.724 289.66 929.898 290.092 930.246 290.416C930.594 290.74 931.062 290.902 931.65 290.902C932.418 290.902 933.03 290.626 933.486 290.074C933.942 289.51 934.17 288.754 934.17 287.806V282.748H935.628V292ZM938.182 282.748H939.55V284.314C940.294 283.138 941.314 282.55 942.61 282.55C943.51 282.55 944.224 282.778 944.752 283.234C945.28 283.678 945.544 284.278 945.544 285.034V292H944.086V285.628C944.086 285.076 943.912 284.638 943.564 284.314C943.228 283.99 942.766 283.828 942.178 283.828C941.41 283.828 940.798 284.11 940.342 284.674C939.886 285.238 939.658 285.988 939.658 286.924V292H938.182V282.748ZM951.627 282.748V283.936H949.737V290.092C949.737 290.308 949.809 290.494 949.953 290.65C950.109 290.794 950.307 290.866 950.547 290.866C950.775 290.866 951.123 290.812 951.591 290.704L951.753 292C951.009 292.132 950.445 292.198 950.061 292.198C948.873 292.198 948.279 291.712 948.279 290.74V283.936H947.019V282.748H948.279V280.858L949.737 280.192V282.748H951.627ZM964.865 290.758V291.946C964.457 292.09 964.139 292.162 963.911 292.162C962.951 292.162 962.429 291.724 962.345 290.848C961.685 291.748 960.635 292.198 959.195 292.198C958.199 292.198 957.425 291.922 956.873 291.37C956.393 290.89 956.153 290.272 956.153 289.516C956.153 288.652 956.459 287.986 957.071 287.518C957.419 287.254 958.145 286.996 959.249 286.744L962.273 286.06L962.291 285.286C962.291 284.362 961.595 283.9 960.203 283.9C958.871 283.9 958.157 284.44 958.061 285.52H956.567C956.603 284.704 956.807 284.08 957.179 283.648C957.815 282.916 958.847 282.55 960.275 282.55C962.591 282.55 963.749 283.39 963.749 285.07V290.236C963.749 290.692 963.947 290.92 964.343 290.92C964.391 290.92 964.517 290.884 964.721 290.812C964.793 290.788 964.841 290.77 964.865 290.758ZM962.291 287.266L959.915 287.878C959.063 288.094 958.475 288.316 958.151 288.544C957.839 288.772 957.683 289.09 957.683 289.498C957.683 290.446 958.295 290.92 959.519 290.92C960.383 290.92 961.115 290.638 961.715 290.074C962.099 289.726 962.291 289.33 962.291 288.886V287.266ZM966.483 282.748H967.851V284.314C968.595 283.138 969.615 282.55 970.911 282.55C971.811 282.55 972.525 282.778 973.053 283.234C973.581 283.678 973.845 284.278 973.845 285.034V292H972.387V285.628C972.387 285.076 972.213 284.638 971.865 284.314C971.529 283.99 971.067 283.828 970.479 283.828C969.711 283.828 969.099 284.11 968.643 284.674C968.187 285.238 967.959 285.988 967.959 286.924V292H966.483V282.748ZM983.833 279.112V292H982.357V290.722C981.769 291.718 980.857 292.216 979.621 292.216C978.265 292.216 977.221 291.724 976.489 290.74C975.853 289.876 975.535 288.736 975.535 287.32C975.535 285.772 975.949 284.56 976.777 283.684C977.485 282.928 978.403 282.55 979.531 282.55C980.779 282.55 981.721 283.018 982.357 283.954V279.112H983.833ZM979.783 283.918C978.967 283.918 978.307 284.242 977.803 284.89C977.311 285.526 977.065 286.372 977.065 287.428C977.065 288.52 977.353 289.378 977.929 290.002C978.421 290.554 979.045 290.83 979.801 290.83C980.581 290.83 981.199 290.524 981.655 289.912C982.123 289.3 982.357 288.472 982.357 287.428C982.357 286.288 982.093 285.4 981.565 284.764C981.097 284.2 980.503 283.918 979.783 283.918ZM993.058 282.748V283.936H991.168V290.092C991.168 290.308 991.24 290.494 991.384 290.65C991.54 290.794 991.738 290.866 991.978 290.866C992.206 290.866 992.554 290.812 993.022 290.704L993.184 292C992.44 292.132 991.876 292.198 991.492 292.198C990.304 292.198 989.71 291.712 989.71 290.74V283.936H988.45V282.748H989.71V280.858L991.168 280.192V282.748H993.058ZM994.766 282.748H996.134V284.44C996.674 283.168 997.526 282.532 998.69 282.532C998.834 282.532 999.008 282.55 999.212 282.586V284.098C998.252 284.11 997.592 284.248 997.232 284.512C996.572 284.992 996.242 285.886 996.242 287.194V292H994.766V282.748ZM1008.88 290.758V291.946C1008.47 292.09 1008.15 292.162 1007.93 292.162C1006.97 292.162 1006.44 291.724 1006.36 290.848C1005.7 291.748 1004.65 292.198 1003.21 292.198C1002.21 292.198 1001.44 291.922 1000.89 291.37C1000.41 290.89 1000.17 290.272 1000.17 289.516C1000.17 288.652 1000.47 287.986 1001.09 287.518C1001.43 287.254 1002.16 286.996 1003.26 286.744L1006.29 286.06L1006.31 285.286C1006.31 284.362 1005.61 283.9 1004.22 283.9C1002.89 283.9 1002.17 284.44 1002.08 285.52H1000.58C1000.62 284.704 1000.82 284.08 1001.19 283.648C1001.83 282.916 1002.86 282.55 1004.29 282.55C1006.61 282.55 1007.76 283.39 1007.76 285.07V290.236C1007.76 290.692 1007.96 290.92 1008.36 290.92C1008.41 290.92 1008.53 290.884 1008.74 290.812C1008.81 290.788 1008.86 290.77 1008.88 290.758ZM1006.31 287.266L1003.93 287.878C1003.08 288.094 1002.49 288.316 1002.17 288.544C1001.85 288.772 1001.7 289.09 1001.7 289.498C1001.7 290.446 1002.31 290.92 1003.53 290.92C1004.4 290.92 1005.13 290.638 1005.73 290.074C1006.11 289.726 1006.31 289.33 1006.31 288.886V287.266ZM1018.02 279.112V292H1016.55V290.722C1015.96 291.718 1015.05 292.216 1013.81 292.216C1012.45 292.216 1011.41 291.724 1010.68 290.74C1010.04 289.876 1009.72 288.736 1009.72 287.32C1009.72 285.772 1010.14 284.56 1010.97 283.684C1011.67 282.928 1012.59 282.55 1013.72 282.55C1014.97 282.55 1015.91 283.018 1016.55 283.954V279.112H1018.02ZM1013.97 283.918C1013.16 283.918 1012.5 284.242 1011.99 284.89C1011.5 285.526 1011.25 286.372 1011.25 287.428C1011.25 288.52 1011.54 289.378 1012.12 290.002C1012.61 290.554 1013.23 290.83 1013.99 290.83C1014.77 290.83 1015.39 290.524 1015.84 289.912C1016.31 289.3 1016.55 288.472 1016.55 287.428C1016.55 286.288 1016.28 285.4 1015.75 284.764C1015.29 284.2 1014.69 283.918 1013.97 283.918ZM1028.14 287.806H1021.32C1021.33 288.598 1021.5 289.228 1021.82 289.696C1022.34 290.452 1023.08 290.83 1024.05 290.83C1025.25 290.83 1026.06 290.26 1026.48 289.12H1027.96C1027.77 290.092 1027.32 290.848 1026.63 291.388C1025.93 291.928 1025.05 292.198 1024 292.198C1022.59 292.198 1021.52 291.718 1020.78 290.758C1020.12 289.918 1019.79 288.808 1019.79 287.428C1019.79 285.832 1020.22 284.59 1021.08 283.702C1021.84 282.934 1022.82 282.55 1024.02 282.55C1024.89 282.55 1025.66 282.76 1026.32 283.18C1026.99 283.6 1027.47 284.176 1027.76 284.908C1028.01 285.532 1028.14 286.48 1028.14 287.752V287.806ZM1026.55 286.6C1026.55 285.796 1026.31 285.148 1025.83 284.656C1025.37 284.152 1024.76 283.9 1024.02 283.9C1023.26 283.9 1022.64 284.146 1022.16 284.638C1021.69 285.118 1021.43 285.772 1021.37 286.6H1026.55Z" fill="black"/>
</svg>
