<svg width="404" height="525" viewBox="0 0 404 525" fill="none" xmlns="http://www.w3.org/2000/svg">
<path d="M121.884 130.752V137H118.65V121.248H127.098C128.433 121.248 129.452 121.607 130.156 122.326C130.948 123.133 131.344 124.196 131.344 125.516C131.344 127.423 130.449 128.721 128.66 129.41C129.672 129.806 130.288 130.297 130.508 130.884C130.669 131.309 130.787 132.725 130.86 135.13C130.875 135.731 131.102 136.157 131.542 136.406V137H128.066C127.743 136.399 127.582 135.511 127.582 134.338C127.582 134.045 127.589 133.685 127.604 133.26C127.604 132.967 127.604 132.754 127.604 132.622C127.604 131.375 126.937 130.752 125.602 130.752H121.884ZM121.884 128.046H125.8C126.621 128.046 127.193 127.914 127.516 127.65C127.912 127.313 128.11 126.755 128.11 125.978C128.11 125.23 127.912 124.695 127.516 124.372C127.179 124.093 126.607 123.954 125.8 123.954H121.884V128.046ZM144.039 131.962H136.207C136.251 132.901 136.398 133.568 136.647 133.964C137.073 134.609 137.74 134.932 138.649 134.932C139.779 134.932 140.534 134.463 140.915 133.524H143.907C143.57 134.668 142.91 135.577 141.927 136.252C140.959 136.912 139.823 137.242 138.517 137.242C136.743 137.242 135.379 136.648 134.425 135.46C133.589 134.419 133.171 133.047 133.171 131.346C133.171 129.278 133.714 127.679 134.799 126.55C135.753 125.582 137.007 125.098 138.561 125.098C139.749 125.098 140.791 125.391 141.685 125.978C142.58 126.565 143.218 127.386 143.599 128.442C143.907 129.263 144.061 130.253 144.061 131.412C144.061 131.559 144.054 131.742 144.039 131.962ZM140.893 129.96C140.747 128.259 139.962 127.408 138.539 127.408C137.205 127.408 136.442 128.259 136.251 129.96H140.893ZM153.578 125.34H156.46V136.89C156.46 138.694 155.896 139.985 154.766 140.762C153.813 141.393 152.508 141.708 150.85 141.708C149.12 141.708 147.8 141.334 146.89 140.586C146.142 139.985 145.754 139.259 145.724 138.408H148.848C149.098 139.317 149.816 139.772 151.004 139.772C151.752 139.772 152.383 139.537 152.896 139.068C153.351 138.657 153.578 138.019 153.578 137.154V135.416C153.021 136.105 152.5 136.582 152.016 136.846C151.532 137.11 150.946 137.242 150.256 137.242C148.746 137.242 147.55 136.626 146.67 135.394C145.893 134.338 145.504 132.996 145.504 131.368C145.504 129.447 146.025 127.877 147.066 126.66C147.976 125.619 149.076 125.098 150.366 125.098C151.628 125.098 152.698 125.707 153.578 126.924V125.34ZM150.982 127.628C150.249 127.628 149.655 127.965 149.2 128.64C148.76 129.315 148.54 130.195 148.54 131.28C148.54 132.321 148.76 133.157 149.2 133.788C149.655 134.419 150.249 134.734 150.982 134.734C151.745 134.734 152.376 134.411 152.874 133.766C153.344 133.165 153.578 132.329 153.578 131.258C153.578 130.099 153.307 129.183 152.764 128.508C152.295 127.921 151.701 127.628 150.982 127.628ZM162.415 125.34V137H159.379V125.34H162.415ZM160.875 121.336C161.271 121.336 161.601 121.475 161.865 121.754C162.143 122.033 162.283 122.37 162.283 122.766C162.283 123.162 162.143 123.499 161.865 123.778C161.601 124.042 161.271 124.174 160.875 124.174C160.479 124.174 160.141 124.042 159.863 123.778C159.584 123.499 159.445 123.162 159.445 122.766C159.445 122.37 159.584 122.033 159.863 121.754C160.141 121.475 160.479 121.336 160.875 121.336ZM175.052 128.772H171.972C171.958 128.303 171.789 127.973 171.466 127.782C171.144 127.577 170.586 127.474 169.794 127.474C168.636 127.474 168.056 127.811 168.056 128.486C168.056 128.882 168.408 129.175 169.112 129.366L172.94 130.444C174.466 130.869 175.228 131.837 175.228 133.348C175.228 134.536 174.766 135.497 173.842 136.23C172.977 136.905 171.73 137.242 170.102 137.242C168.108 137.242 166.678 136.949 165.812 136.362C164.962 135.805 164.507 134.903 164.448 133.656H167.462C167.55 134.14 167.756 134.463 168.078 134.624C168.416 134.785 169.032 134.866 169.926 134.866C171.437 134.866 172.192 134.507 172.192 133.788C172.192 133.363 171.855 133.047 171.18 132.842L167.572 131.742C166.648 131.463 166.018 131.141 165.68 130.774C165.24 130.319 165.02 129.703 165.02 128.926C165.02 127.65 165.504 126.667 166.472 125.978C167.323 125.391 168.438 125.098 169.816 125.098C171.488 125.098 172.808 125.472 173.776 126.22C174.612 126.88 175.038 127.731 175.052 128.772ZM182.882 125.34V127.342H180.836V133.832C180.836 134.257 180.909 134.551 181.056 134.712C181.217 134.873 181.503 134.954 181.914 134.954C182.251 134.954 182.684 134.822 183.212 134.558C183.256 134.529 183.293 134.507 183.322 134.492L183.674 136.56C182.75 137.015 181.782 137.242 180.77 137.242C178.79 137.242 177.8 136.333 177.8 134.514V127.342H176.304V125.34H177.8V123.404L180.836 121.666V125.34H182.882ZM195.774 131.962H187.942C187.986 132.901 188.132 133.568 188.382 133.964C188.807 134.609 189.474 134.932 190.384 134.932C191.513 134.932 192.268 134.463 192.65 133.524H195.642C195.304 134.668 194.644 135.577 193.662 136.252C192.694 136.912 191.557 137.242 190.252 137.242C188.477 137.242 187.113 136.648 186.16 135.46C185.324 134.419 184.906 133.047 184.906 131.346C184.906 129.278 185.448 127.679 186.534 126.55C187.487 125.582 188.741 125.098 190.296 125.098C191.484 125.098 192.525 125.391 193.42 125.978C194.314 126.565 194.952 127.386 195.334 128.442C195.642 129.263 195.796 130.253 195.796 131.412C195.796 131.559 195.788 131.742 195.774 131.962ZM192.628 129.96C192.481 128.259 191.696 127.408 190.274 127.408C188.939 127.408 188.176 128.259 187.986 129.96H192.628ZM197.921 125.34H200.957V127.562C201.338 125.919 202.423 125.098 204.213 125.098C204.491 125.098 204.689 125.098 204.807 125.098L204.829 128.09C204.462 128.017 204.081 127.98 203.685 127.98C202.687 127.98 201.998 128.163 201.617 128.53C201.177 128.941 200.957 129.681 200.957 130.752V137H197.921V125.34Z" fill="black"/>
<path d="M70.3761 7H66.2361C66.0961 4.82 64.5961 3.73 61.7361 3.73C60.5961 3.73 59.6861 3.96 59.0061 4.42C58.3461 4.88 58.0161 5.5 58.0161 6.28C58.0161 7.04 58.2961 7.61 58.8561 7.99C59.4161 8.37 60.4961 8.71 62.0961 9.01L65.4561 9.64C67.4361 10.02 68.8761 10.67 69.7761 11.59C70.6761 12.51 71.1261 13.81 71.1261 15.49C71.1261 17.79 70.2461 19.54 68.4861 20.74C66.9661 21.8 64.9161 22.33 62.3361 22.33C59.3961 22.33 57.1561 21.65 55.6161 20.29C54.2761 19.11 53.5461 17.47 53.4261 15.37H57.7161C57.8761 17.65 59.4861 18.79 62.5461 18.79C63.9061 18.79 64.9661 18.55 65.7261 18.07C66.5061 17.57 66.8961 16.89 66.8961 16.03C66.8961 15.19 66.5861 14.54 65.9661 14.08C65.3661 13.62 64.3261 13.25 62.8461 12.97L59.8461 12.4C57.6661 12 56.1061 11.37 55.1661 10.51C54.2461 9.63 53.7861 8.37 53.7861 6.73C53.7861 4.51 54.5961 2.83 56.2161 1.69C57.6161 0.689998 59.5161 0.189998 61.9161 0.189998C64.8161 0.189998 66.9961 0.849999 68.4561 2.17C69.7161 3.33 70.3561 4.94 70.3761 7ZM81.5443 6.1V8.83H78.7543V17.68C78.7543 18.26 78.8543 18.66 79.0543 18.88C79.2743 19.1 79.6643 19.21 80.2243 19.21C80.6843 19.21 81.2743 19.03 81.9943 18.67C82.0543 18.63 82.1043 18.6 82.1443 18.58L82.6243 21.4C81.3643 22.02 80.0443 22.33 78.6643 22.33C75.9643 22.33 74.6143 21.09 74.6143 18.61V8.83H72.5743V6.1H74.6143V3.46L78.7543 1.09V6.1H81.5443ZM98.8836 20.95V22H94.3836C94.0836 21.62 93.9236 21.08 93.9036 20.38C92.8036 21.68 91.2036 22.33 89.1036 22.33C87.5636 22.33 86.3236 21.86 85.3836 20.92C84.6236 20.16 84.2436 19.11 84.2436 17.77C84.2436 15.77 85.0436 14.35 86.6436 13.51C87.3236 13.15 88.6736 12.79 90.6936 12.43L93.9336 11.83L93.9036 10.69C93.8836 9.63 93.0836 9.1 91.5036 9.1C90.4836 9.1 89.7636 9.26 89.3436 9.58C88.9436 9.88 88.6936 10.44 88.5936 11.26H84.6336C84.8736 7.6 87.1336 5.77 91.4136 5.77C93.7736 5.77 95.4736 6.19 96.5136 7.03C97.4536 7.83 97.9236 9.04 97.9236 10.66V19.54C97.9236 20.26 98.2436 20.73 98.8836 20.95ZM93.9336 14.32L90.9036 15.01C90.0436 15.21 89.4036 15.5 88.9836 15.88C88.5836 16.26 88.3836 16.73 88.3836 17.29C88.3836 18.43 89.1236 19 90.6036 19C92.7436 19 93.8436 17.83 93.9036 15.49L93.9336 14.32ZM101.671 6.1H105.811V9.13C106.331 6.89 107.811 5.77 110.251 5.77C110.631 5.77 110.901 5.77 111.061 5.77L111.091 9.85C110.591 9.75 110.071 9.7 109.531 9.7C108.171 9.7 107.231 9.95 106.711 10.45C106.111 11.01 105.811 12.02 105.811 13.48V22H101.671V6.1ZM120.656 6.1V8.83H117.866V17.68C117.866 18.26 117.966 18.66 118.166 18.88C118.386 19.1 118.776 19.21 119.336 19.21C119.796 19.21 120.386 19.03 121.106 18.67C121.166 18.63 121.216 18.6 121.256 18.58L121.736 21.4C120.476 22.02 119.156 22.33 117.776 22.33C115.076 22.33 113.726 21.09 113.726 18.61V8.83H111.686V6.1H113.726V3.46L117.866 1.09V6.1H120.656ZM137.443 6.1V8.83H134.653V17.68C134.653 18.26 134.753 18.66 134.953 18.88C135.173 19.1 135.563 19.21 136.123 19.21C136.583 19.21 137.173 19.03 137.893 18.67C137.953 18.63 138.003 18.6 138.043 18.58L138.523 21.4C137.263 22.02 135.943 22.33 134.563 22.33C131.863 22.33 130.513 21.09 130.513 18.61V8.83H128.473V6.1H130.513V3.46L134.653 1.09V6.1H137.443ZM141.192 6.1H145.332V9.13C145.852 6.89 147.332 5.77 149.772 5.77C150.152 5.77 150.422 5.77 150.582 5.77L150.612 9.85C150.112 9.75 149.592 9.7 149.052 9.7C147.692 9.7 146.752 9.95 146.232 10.45C145.632 11.01 145.332 12.02 145.332 13.48V22H141.192V6.1ZM166.237 20.95V22H161.737C161.437 21.62 161.277 21.08 161.257 20.38C160.157 21.68 158.557 22.33 156.457 22.33C154.917 22.33 153.677 21.86 152.737 20.92C151.977 20.16 151.597 19.11 151.597 17.77C151.597 15.77 152.397 14.35 153.997 13.51C154.677 13.15 156.027 12.79 158.047 12.43L161.287 11.83L161.257 10.69C161.237 9.63 160.437 9.1 158.857 9.1C157.837 9.1 157.117 9.26 156.697 9.58C156.297 9.88 156.047 10.44 155.947 11.26H151.987C152.227 7.6 154.487 5.77 158.767 5.77C161.127 5.77 162.827 6.19 163.867 7.03C164.807 7.83 165.277 9.04 165.277 10.66V19.54C165.277 20.26 165.597 20.73 166.237 20.95ZM161.287 14.32L158.257 15.01C157.397 15.21 156.757 15.5 156.337 15.88C155.937 16.26 155.737 16.73 155.737 17.29C155.737 18.43 156.477 19 157.957 19C160.097 19 161.197 17.83 161.257 15.49L161.287 14.32ZM183.244 0.519999V22H179.104V20.23C178.144 21.63 176.694 22.33 174.754 22.33C172.654 22.33 170.964 21.45 169.684 19.69C168.584 18.19 168.034 16.32 168.034 14.08C168.034 11.42 168.734 9.32 170.134 7.78C171.354 6.44 172.884 5.77 174.724 5.77C176.664 5.77 178.124 6.51 179.104 7.99V0.519999H183.244ZM175.654 9.16C174.614 9.16 173.774 9.61 173.134 10.51C172.494 11.41 172.174 12.59 172.174 14.05C172.174 15.49 172.484 16.66 173.104 17.56C173.744 18.44 174.594 18.88 175.654 18.88C176.714 18.88 177.554 18.44 178.174 17.56C178.814 16.68 179.134 15.51 179.134 14.05C179.134 12.57 178.814 11.39 178.174 10.51C177.534 9.61 176.694 9.16 175.654 9.16ZM191.33 6.1V22H187.19V6.1H191.33ZM189.23 0.64C189.77 0.64 190.22 0.83 190.58 1.21C190.96 1.59 191.15 2.05 191.15 2.59C191.15 3.13 190.96 3.59 190.58 3.97C190.22 4.33 189.77 4.51 189.23 4.51C188.69 4.51 188.23 4.33 187.85 3.97C187.47 3.59 187.28 3.13 187.28 2.59C187.28 2.05 187.47 1.59 187.85 1.21C188.23 0.83 188.69 0.64 189.23 0.64ZM195.333 6.1H199.473V8.35C200.593 6.63 202.173 5.77 204.213 5.77C206.033 5.77 207.413 6.31 208.353 7.39C209.153 8.35 209.553 9.65 209.553 11.29V22H205.443V12.13C205.443 10.23 204.553 9.28 202.773 9.28C201.773 9.28 200.973 9.57 200.373 10.15C199.773 10.71 199.473 11.46 199.473 12.4V22H195.333V6.1ZM223.43 6.1H227.36V21.85C227.36 24.31 226.59 26.07 225.05 27.13C223.75 27.99 221.97 28.42 219.71 28.42C217.35 28.42 215.55 27.91 214.31 26.89C213.29 26.07 212.76 25.08 212.72 23.92H216.98C217.32 25.16 218.3 25.78 219.92 25.78C220.94 25.78 221.8 25.46 222.5 24.82C223.12 24.26 223.43 23.39 223.43 22.21V19.84C222.67 20.78 221.96 21.43 221.3 21.79C220.64 22.15 219.84 22.33 218.9 22.33C216.84 22.33 215.21 21.49 214.01 19.81C212.95 18.37 212.42 16.54 212.42 14.32C212.42 11.7 213.13 9.56 214.55 7.9C215.79 6.48 217.29 5.77 219.05 5.77C220.77 5.77 222.23 6.6 223.43 8.26V6.1ZM219.89 9.22C218.89 9.22 218.08 9.68 217.46 10.6C216.86 11.52 216.56 12.72 216.56 14.2C216.56 15.62 216.86 16.76 217.46 17.62C218.08 18.48 218.89 18.91 219.89 18.91C220.93 18.91 221.79 18.47 222.47 17.59C223.11 16.77 223.43 15.63 223.43 14.17C223.43 12.59 223.06 11.34 222.32 10.42C221.68 9.62 220.87 9.22 219.89 9.22ZM244.318 6.1V8.83H241.528V17.68C241.528 18.26 241.628 18.66 241.828 18.88C242.048 19.1 242.438 19.21 242.998 19.21C243.458 19.21 244.048 19.03 244.768 18.67C244.828 18.63 244.878 18.6 244.918 18.58L245.398 21.4C244.138 22.02 242.818 22.33 241.438 22.33C238.738 22.33 237.388 21.09 237.388 18.61V8.83H235.348V6.1H237.388V3.46L241.528 1.09V6.1H244.318ZM255.087 5.77C257.707 5.77 259.717 6.61 261.117 8.29C262.337 9.73 262.947 11.65 262.947 14.05C262.947 16.81 262.157 18.93 260.577 20.41C259.197 21.69 257.367 22.33 255.087 22.33C252.467 22.33 250.457 21.5 249.057 19.84C247.837 18.38 247.227 16.45 247.227 14.05C247.227 11.31 248.017 9.2 249.597 7.72C250.977 6.42 252.807 5.77 255.087 5.77ZM255.087 9.1C253.967 9.1 253.067 9.56 252.387 10.48C251.707 11.38 251.367 12.57 251.367 14.05C251.367 15.65 251.747 16.91 252.507 17.83C253.187 18.61 254.047 19 255.087 19C256.207 19 257.107 18.55 257.787 17.65C258.487 16.73 258.837 15.53 258.837 14.05C258.837 12.47 258.447 11.22 257.667 10.3C256.987 9.5 256.127 9.1 255.087 9.1ZM280.217 0.519999V22H276.077V20.23C275.117 21.63 273.667 22.33 271.727 22.33C269.627 22.33 267.937 21.45 266.657 19.69C265.557 18.19 265.007 16.32 265.007 14.08C265.007 11.42 265.707 9.32 267.107 7.78C268.327 6.44 269.857 5.77 271.697 5.77C273.637 5.77 275.097 6.51 276.077 7.99V0.519999H280.217ZM272.627 9.16C271.587 9.16 270.747 9.61 270.107 10.51C269.467 11.41 269.147 12.59 269.147 14.05C269.147 15.49 269.457 16.66 270.077 17.56C270.717 18.44 271.567 18.88 272.627 18.88C273.687 18.88 274.527 18.44 275.147 17.56C275.787 16.68 276.107 15.51 276.107 14.05C276.107 12.57 275.787 11.39 275.147 10.51C274.507 9.61 273.667 9.16 272.627 9.16ZM297.692 20.95V22H293.192C292.892 21.62 292.732 21.08 292.712 20.38C291.612 21.68 290.012 22.33 287.912 22.33C286.372 22.33 285.132 21.86 284.192 20.92C283.432 20.16 283.052 19.11 283.052 17.77C283.052 15.77 283.852 14.35 285.452 13.51C286.132 13.15 287.482 12.79 289.502 12.43L292.742 11.83L292.712 10.69C292.692 9.63 291.892 9.1 290.312 9.1C289.292 9.1 288.572 9.26 288.152 9.58C287.752 9.88 287.502 10.44 287.402 11.26H283.442C283.682 7.6 285.942 5.77 290.222 5.77C292.582 5.77 294.282 6.19 295.322 7.03C296.262 7.83 296.732 9.04 296.732 10.66V19.54C296.732 20.26 297.052 20.73 297.692 20.95ZM292.742 14.32L289.712 15.01C288.852 15.21 288.212 15.5 287.792 15.88C287.392 16.26 287.192 16.73 287.192 17.29C287.192 18.43 287.932 19 289.412 19C291.552 19 292.652 17.83 292.712 15.49L292.742 14.32ZM310.229 6.1H314.459L307.919 24.88C307.459 26.22 306.849 27.14 306.089 27.64C305.329 28.16 304.199 28.42 302.699 28.42C301.319 28.42 300.359 28.24 299.819 27.88L300.449 25.09C301.169 25.27 301.769 25.36 302.249 25.36C302.949 25.36 303.549 25.12 304.049 24.64C304.549 24.18 304.799 23.63 304.799 22.99V22.66L298.889 6.1H303.419L306.959 17.68L310.229 6.1ZM87.311 39.1V55H83.171V39.1H87.311ZM85.211 33.64C85.751 33.64 86.201 33.83 86.561 34.21C86.941 34.59 87.131 35.05 87.131 35.59C87.131 36.13 86.941 36.59 86.561 36.97C86.201 37.33 85.751 37.51 85.211 37.51C84.671 37.51 84.211 37.33 83.831 36.97C83.451 36.59 83.261 36.13 83.261 35.59C83.261 35.05 83.451 34.59 83.831 34.21C84.211 33.83 84.671 33.64 85.211 33.64ZM91.3141 39.1H95.4541V41.35C96.5741 39.63 98.1541 38.77 100.194 38.77C102.014 38.77 103.394 39.31 104.334 40.39C105.134 41.35 105.534 42.65 105.534 44.29V55H101.424V45.13C101.424 43.23 100.534 42.28 98.7541 42.28C97.7541 42.28 96.9541 42.57 96.3541 43.15C95.7541 43.71 95.4541 44.46 95.4541 45.4V55H91.3141V39.1ZM115.559 34C117.079 33.52 118.329 33.28 119.309 33.28C121.409 33.28 123.079 33.83 124.319 34.93C125.519 35.99 126.119 37.4 126.119 39.16C126.119 41.74 124.879 43.37 122.399 44.05C123.859 44.35 124.979 44.97 125.759 45.91C126.579 46.91 126.989 48.03 126.989 49.27C126.989 51.33 126.129 52.92 124.409 54.04C123.089 54.9 121.499 55.33 119.639 55.33C118.339 55.33 117.059 55.17 115.799 54.85L114.629 53.41V52.03C116.029 52.29 117.229 52.42 118.229 52.42C121.629 52.42 123.329 51.38 123.329 49.3C123.329 48.22 122.859 47.31 121.919 46.57C121.319 46.11 120.679 45.8 119.999 45.64C119.339 45.48 118.309 45.38 116.909 45.34V42.55H119.939C120.699 42.55 121.329 42.29 121.829 41.77C122.329 41.23 122.579 40.56 122.579 39.76C122.579 38.74 122.229 37.95 121.529 37.39C120.849 36.81 119.909 36.52 118.709 36.52C117.949 36.52 116.899 36.69 115.559 37.03V34ZM149.148 48.13H138.468C138.528 49.41 138.728 50.32 139.068 50.86C139.648 51.74 140.558 52.18 141.798 52.18C143.338 52.18 144.368 51.54 144.888 50.26H148.968C148.508 51.82 147.608 53.06 146.268 53.98C144.948 54.88 143.398 55.33 141.618 55.33C139.198 55.33 137.338 54.52 136.038 52.9C134.898 51.48 134.328 49.61 134.328 47.29C134.328 44.47 135.068 42.29 136.548 40.75C137.848 39.43 139.558 38.77 141.678 38.77C143.298 38.77 144.718 39.17 145.938 39.97C147.158 40.77 148.028 41.89 148.548 43.33C148.968 44.45 149.178 45.8 149.178 47.38C149.178 47.58 149.168 47.83 149.148 48.13ZM144.858 45.4C144.658 43.08 143.588 41.92 141.648 41.92C139.828 41.92 138.788 43.08 138.528 45.4H144.858ZM165.666 53.95V55H161.166C160.866 54.62 160.706 54.08 160.686 53.38C159.586 54.68 157.986 55.33 155.886 55.33C154.346 55.33 153.106 54.86 152.166 53.92C151.406 53.16 151.026 52.11 151.026 50.77C151.026 48.77 151.826 47.35 153.426 46.51C154.106 46.15 155.456 45.79 157.476 45.43L160.716 44.83L160.686 43.69C160.666 42.63 159.866 42.1 158.286 42.1C157.266 42.1 156.546 42.26 156.126 42.58C155.726 42.88 155.476 43.44 155.376 44.26H151.416C151.656 40.6 153.916 38.77 158.196 38.77C160.556 38.77 162.256 39.19 163.296 40.03C164.236 40.83 164.706 42.04 164.706 43.66V52.54C164.706 53.26 165.026 53.73 165.666 53.95ZM160.716 47.32L157.686 48.01C156.826 48.21 156.186 48.5 155.766 48.88C155.366 49.26 155.166 49.73 155.166 50.29C155.166 51.43 155.906 52 157.386 52C159.526 52 160.626 50.83 160.686 48.49L160.716 47.32ZM181.683 43.78H177.483C177.463 43.14 177.233 42.69 176.793 42.43C176.353 42.15 175.593 42.01 174.513 42.01C172.933 42.01 172.143 42.47 172.143 43.39C172.143 43.93 172.623 44.33 173.583 44.59L178.803 46.06C180.883 46.64 181.923 47.96 181.923 50.02C181.923 51.64 181.293 52.95 180.033 53.95C178.853 54.87 177.153 55.33 174.933 55.33C172.213 55.33 170.263 54.93 169.083 54.13C167.923 53.37 167.303 52.14 167.223 50.44H171.333C171.453 51.1 171.733 51.54 172.173 51.76C172.633 51.98 173.473 52.09 174.693 52.09C176.753 52.09 177.783 51.6 177.783 50.62C177.783 50.04 177.323 49.61 176.403 49.33L171.483 47.83C170.223 47.45 169.363 47.01 168.903 46.51C168.303 45.89 168.003 45.05 168.003 43.99C168.003 42.25 168.663 40.91 169.983 39.97C171.143 39.17 172.663 38.77 174.543 38.77C176.823 38.77 178.623 39.28 179.943 40.3C181.083 41.2 181.663 42.36 181.683 43.78ZM194.58 39.1H198.81L192.27 57.88C191.81 59.22 191.2 60.14 190.44 60.64C189.68 61.16 188.55 61.42 187.05 61.42C185.67 61.42 184.71 61.24 184.17 60.88L184.8 58.09C185.52 58.27 186.12 58.36 186.6 58.36C187.3 58.36 187.9 58.12 188.4 57.64C188.9 57.18 189.15 56.63 189.15 55.99V55.66L183.24 39.1H187.77L191.31 50.68L194.58 39.1ZM219.944 43.78H215.744C215.724 43.14 215.494 42.69 215.054 42.43C214.614 42.15 213.854 42.01 212.774 42.01C211.194 42.01 210.404 42.47 210.404 43.39C210.404 43.93 210.884 44.33 211.844 44.59L217.064 46.06C219.144 46.64 220.184 47.96 220.184 50.02C220.184 51.64 219.554 52.95 218.294 53.95C217.114 54.87 215.414 55.33 213.194 55.33C210.474 55.33 208.524 54.93 207.344 54.13C206.184 53.37 205.564 52.14 205.484 50.44H209.594C209.714 51.1 209.994 51.54 210.434 51.76C210.894 51.98 211.734 52.09 212.954 52.09C215.014 52.09 216.044 51.6 216.044 50.62C216.044 50.04 215.584 49.61 214.664 49.33L209.744 47.83C208.484 47.45 207.624 47.01 207.164 46.51C206.564 45.89 206.264 45.05 206.264 43.99C206.264 42.25 206.924 40.91 208.244 39.97C209.404 39.17 210.924 38.77 212.804 38.77C215.084 38.77 216.884 39.28 218.204 40.3C219.344 41.2 219.924 42.36 219.944 43.78ZM230.621 39.1V41.83H227.831V50.68C227.831 51.26 227.931 51.66 228.131 51.88C228.351 52.1 228.741 52.21 229.301 52.21C229.761 52.21 230.351 52.03 231.071 51.67C231.131 51.63 231.181 51.6 231.221 51.58L231.701 54.4C230.441 55.02 229.121 55.33 227.741 55.33C225.041 55.33 223.691 54.09 223.691 51.61V41.83H221.651V39.1H223.691V36.46L227.831 34.09V39.1H230.621ZM248.201 48.13H237.521C237.581 49.41 237.781 50.32 238.121 50.86C238.701 51.74 239.611 52.18 240.851 52.18C242.391 52.18 243.421 51.54 243.941 50.26H248.021C247.561 51.82 246.661 53.06 245.321 53.98C244.001 54.88 242.451 55.33 240.671 55.33C238.251 55.33 236.391 54.52 235.091 52.9C233.951 51.48 233.381 49.61 233.381 47.29C233.381 44.47 234.121 42.29 235.601 40.75C236.901 39.43 238.611 38.77 240.731 38.77C242.351 38.77 243.771 39.17 244.991 39.97C246.211 40.77 247.081 41.89 247.601 43.33C248.021 44.45 248.231 45.8 248.231 47.38C248.231 47.58 248.221 47.83 248.201 48.13ZM243.911 45.4C243.711 43.08 242.641 41.92 240.701 41.92C238.881 41.92 237.841 43.08 237.581 45.4H243.911ZM255.239 39.1V41.38C256.199 39.64 257.669 38.77 259.649 38.77C260.589 38.77 261.509 39 262.409 39.46C263.329 39.92 264.059 40.52 264.599 41.26C265.739 42.84 266.309 44.81 266.309 47.17C266.309 49.71 265.599 51.76 264.179 53.32C262.959 54.66 261.449 55.33 259.649 55.33C257.689 55.33 256.219 54.58 255.239 53.08V61.42H251.099V39.1H255.239ZM258.689 42.22C257.649 42.22 256.809 42.67 256.169 43.57C255.529 44.45 255.209 45.62 255.209 47.08C255.209 48.52 255.529 49.68 256.169 50.56C256.809 51.44 257.649 51.88 258.689 51.88C259.729 51.88 260.569 51.44 261.209 50.56C261.849 49.68 262.169 48.52 262.169 47.08C262.169 45.62 261.849 44.45 261.209 43.57C260.569 42.67 259.729 42.22 258.689 42.22ZM282.464 43.78H278.264C278.244 43.14 278.014 42.69 277.574 42.43C277.134 42.15 276.374 42.01 275.294 42.01C273.714 42.01 272.924 42.47 272.924 43.39C272.924 43.93 273.404 44.33 274.364 44.59L279.584 46.06C281.664 46.64 282.704 47.96 282.704 50.02C282.704 51.64 282.074 52.95 280.814 53.95C279.634 54.87 277.934 55.33 275.714 55.33C272.994 55.33 271.044 54.93 269.864 54.13C268.704 53.37 268.084 52.14 268.004 50.44H272.114C272.234 51.1 272.514 51.54 272.954 51.76C273.414 51.98 274.254 52.09 275.474 52.09C277.534 52.09 278.564 51.6 278.564 50.62C278.564 50.04 278.104 49.61 277.184 49.33L272.264 47.83C271.004 47.45 270.144 47.01 269.684 46.51C269.084 45.89 268.784 45.05 268.784 43.99C268.784 42.25 269.444 40.91 270.764 39.97C271.924 39.17 273.444 38.77 275.324 38.77C277.604 38.77 279.404 39.28 280.724 40.3C281.864 41.2 282.444 42.36 282.464 43.78ZM289.301 33.52V48.52L287.651 49.84H286.031V33.52H289.301ZM287.741 51.28C288.281 51.28 288.741 51.47 289.121 51.85C289.501 52.21 289.691 52.66 289.691 53.2C289.691 53.74 289.501 54.2 289.121 54.58C288.741 54.96 288.281 55.15 287.741 55.15C287.221 55.15 286.771 54.96 286.391 54.58C286.011 54.2 285.821 53.74 285.821 53.2C285.821 52.66 286.001 52.21 286.361 51.85C286.741 51.47 287.201 51.28 287.741 51.28Z" fill="black"/>
<line x1="41.5" y1="163.998" x2="42.5" y2="474.998" stroke="black" stroke-dasharray="8 8"/>
<circle cx="40" cy="470" r="40" fill="#FF914D"/>
<path d="M34.58 460C36.1 459.52 37.35 459.28 38.33 459.28C40.43 459.28 42.1 459.83 43.34 460.93C44.54 461.99 45.14 463.4 45.14 465.16C45.14 467.74 43.9 469.37 41.42 470.05C42.88 470.35 44 470.97 44.78 471.91C45.6 472.91 46.01 474.03 46.01 475.27C46.01 477.33 45.15 478.92 43.43 480.04C42.11 480.9 40.52 481.33 38.66 481.33C37.36 481.33 36.08 481.17 34.82 480.85L33.65 479.41V478.03C35.05 478.29 36.25 478.42 37.25 478.42C40.65 478.42 42.35 477.38 42.35 475.3C42.35 474.22 41.88 473.31 40.94 472.57C40.34 472.11 39.7 471.8 39.02 471.64C38.36 471.48 37.33 471.38 35.93 471.34V468.55H38.96C39.72 468.55 40.35 468.29 40.85 467.77C41.35 467.23 41.6 466.56 41.6 465.76C41.6 464.74 41.25 463.95 40.55 463.39C39.87 462.81 38.93 462.52 37.73 462.52C36.97 462.52 35.92 462.69 34.58 463.03V460Z" fill="black"/>
<circle cx="40" cy="311" r="40" fill="#FF914D"/>
<path d="M33.86 302.14C35.76 300.9 37.68 300.28 39.62 300.28C41.56 300.28 43.04 300.85 44.06 301.99C44.96 302.97 45.41 304.28 45.41 305.92C45.41 307.14 45.12 308.34 44.54 309.52C43.96 310.7 42.95 312.17 41.51 313.93C39.89 315.89 38.99 316.96 38.81 317.14L37.04 318.94H45.83V320.14L44.33 322H32.96V318.94L35.18 316.66L37.34 314.2C39 312.36 40.07 311.09 40.55 310.39C41.57 308.93 42.08 307.64 42.08 306.52C42.08 305.64 41.79 304.93 41.21 304.39C40.65 303.83 39.91 303.55 38.99 303.55C37.91 303.55 36.81 303.94 35.69 304.72L33.86 302.14Z" fill="black"/>
<circle cx="40" cy="154" r="40" fill="#FF914D"/>
<path d="M41.84 143.52V163.38L39.98 165H38.18V147.69L34.7 150.63L32.96 148.44L38.78 143.52H41.84Z" fill="black"/>
<path d="M127.824 287.832H121.928L120.872 291H117.572L123.16 275.248H126.746L132.202 291H128.858L127.824 287.832ZM126.944 285.126L124.898 278.966L122.83 285.126H126.944ZM143.818 283.608H140.936C140.76 282.845 140.503 282.31 140.166 282.002C139.843 281.694 139.381 281.54 138.78 281.54C137.87 281.54 137.24 281.863 136.888 282.508C136.506 283.256 136.316 284.173 136.316 285.258C136.316 286.358 136.528 287.231 136.954 287.876C137.394 288.507 137.995 288.822 138.758 288.822C139.359 288.822 139.821 288.668 140.144 288.36C140.481 288.037 140.745 287.509 140.936 286.776H143.818C143.671 288.243 143.084 289.379 142.058 290.186C141.163 290.905 140.056 291.264 138.736 291.264C136.888 291.264 135.487 290.67 134.534 289.482C133.698 288.455 133.28 287.069 133.28 285.324C133.28 283.212 133.83 281.613 134.93 280.528C135.883 279.575 137.174 279.098 138.802 279.098C140.356 279.098 141.588 279.545 142.498 280.44C143.275 281.232 143.715 282.288 143.818 283.608ZM155.784 283.608H152.902C152.726 282.845 152.47 282.31 152.132 282.002C151.81 281.694 151.348 281.54 150.746 281.54C149.837 281.54 149.206 281.863 148.854 282.508C148.473 283.256 148.282 284.173 148.282 285.258C148.282 286.358 148.495 287.231 148.92 287.876C149.36 288.507 149.962 288.822 150.724 288.822C151.326 288.822 151.788 288.668 152.11 288.36C152.448 288.037 152.712 287.509 152.902 286.776H155.784C155.638 288.243 155.051 289.379 154.024 290.186C153.13 290.905 152.022 291.264 150.702 291.264C148.854 291.264 147.454 290.67 146.5 289.482C145.664 288.455 145.246 287.069 145.246 285.324C145.246 283.212 145.796 281.613 146.896 280.528C147.85 279.575 149.14 279.098 150.768 279.098C152.323 279.098 153.555 279.545 154.464 280.44C155.242 281.232 155.682 282.288 155.784 283.608ZM163.043 279.098C164.965 279.098 166.439 279.714 167.465 280.946C168.36 282.002 168.807 283.41 168.807 285.17C168.807 287.194 168.228 288.749 167.069 289.834C166.057 290.773 164.715 291.242 163.043 291.242C161.122 291.242 159.648 290.633 158.621 289.416C157.727 288.345 157.279 286.93 157.279 285.17C157.279 283.161 157.859 281.613 159.017 280.528C160.029 279.575 161.371 279.098 163.043 279.098ZM163.043 281.54C162.222 281.54 161.562 281.877 161.063 282.552C160.565 283.212 160.315 284.085 160.315 285.17C160.315 286.343 160.594 287.267 161.151 287.942C161.65 288.514 162.281 288.8 163.043 288.8C163.865 288.8 164.525 288.47 165.023 287.81C165.537 287.135 165.793 286.255 165.793 285.17C165.793 284.011 165.507 283.095 164.935 282.42C164.437 281.833 163.806 281.54 163.043 281.54ZM181.362 291H178.348V289.35C177.526 290.611 176.36 291.242 174.85 291.242C173.515 291.242 172.503 290.846 171.814 290.054C171.227 289.365 170.934 288.419 170.934 287.216V279.34H173.97V286.578C173.97 287.971 174.615 288.668 175.906 288.668C176.639 288.668 177.226 288.463 177.666 288.052C178.12 287.641 178.348 287.084 178.348 286.38V279.34H181.362V291ZM184.235 279.34H187.271V280.99C188.092 279.729 189.251 279.098 190.747 279.098C192.082 279.098 193.094 279.494 193.783 280.286C194.37 280.99 194.663 281.943 194.663 283.146V291H191.649V283.762C191.649 282.369 190.996 281.672 189.691 281.672C188.958 281.672 188.371 281.885 187.931 282.31C187.491 282.721 187.271 283.271 187.271 283.96V291H184.235V279.34ZM202.97 279.34V281.342H200.924V287.832C200.924 288.257 200.997 288.551 201.144 288.712C201.305 288.873 201.591 288.954 202.002 288.954C202.339 288.954 202.772 288.822 203.3 288.558C203.344 288.529 203.381 288.507 203.41 288.492L203.762 290.56C202.838 291.015 201.87 291.242 200.858 291.242C198.878 291.242 197.888 290.333 197.888 288.514V281.342H196.392V279.34H197.888V277.404L200.924 275.666V279.34H202.97Z" fill="black"/>
<path d="M121.884 448.224V455H118.65V439.248H129.716V441.954H121.884V445.518H128.792V448.224H121.884ZM141.916 455H138.902V453.35C138.081 454.611 136.915 455.242 135.404 455.242C134.07 455.242 133.058 454.846 132.368 454.054C131.782 453.365 131.488 452.419 131.488 451.216V443.34H134.524V450.578C134.524 451.971 135.17 452.668 136.46 452.668C137.194 452.668 137.78 452.463 138.22 452.052C138.675 451.641 138.902 451.084 138.902 450.38V443.34H141.916V455ZM144.79 443.34H147.826V444.99C148.647 443.729 149.806 443.098 151.302 443.098C152.636 443.098 153.648 443.494 154.338 444.286C154.924 444.99 155.218 445.943 155.218 447.146V455H152.204V447.762C152.204 446.369 151.551 445.672 150.246 445.672C149.512 445.672 148.926 445.885 148.486 446.31C148.046 446.721 147.826 447.271 147.826 447.96V455H144.79V443.34ZM168.431 439.248V455H165.395V453.702C164.691 454.729 163.627 455.242 162.205 455.242C160.665 455.242 159.425 454.597 158.487 453.306C157.68 452.206 157.277 450.835 157.277 449.192C157.277 447.241 157.79 445.701 158.817 444.572C159.711 443.589 160.833 443.098 162.183 443.098C163.605 443.098 164.676 443.641 165.395 444.726V439.248H168.431ZM162.865 445.584C162.102 445.584 161.486 445.914 161.017 446.574C160.547 447.234 160.313 448.099 160.313 449.17C160.313 450.226 160.54 451.084 160.995 451.744C161.464 452.389 162.087 452.712 162.865 452.712C163.642 452.712 164.258 452.389 164.713 451.744C165.182 451.099 165.417 450.241 165.417 449.17C165.417 448.085 165.182 447.219 164.713 446.574C164.243 445.914 163.627 445.584 162.865 445.584ZM185.285 454.23V455H181.985C181.765 454.721 181.648 454.325 181.633 453.812C180.826 454.765 179.653 455.242 178.113 455.242C176.984 455.242 176.074 454.897 175.385 454.208C174.828 453.651 174.549 452.881 174.549 451.898C174.549 450.431 175.136 449.39 176.309 448.774C176.808 448.51 177.798 448.246 179.279 447.982L181.655 447.542L181.633 446.706C181.618 445.929 181.032 445.54 179.873 445.54C179.125 445.54 178.597 445.657 178.289 445.892C177.996 446.112 177.812 446.523 177.739 447.124H174.835C175.011 444.44 176.668 443.098 179.807 443.098C181.538 443.098 182.784 443.406 183.547 444.022C184.236 444.609 184.581 445.496 184.581 446.684V453.196C184.581 453.724 184.816 454.069 185.285 454.23ZM181.655 449.368L179.433 449.874C178.802 450.021 178.333 450.233 178.025 450.512C177.732 450.791 177.585 451.135 177.585 451.546C177.585 452.382 178.128 452.8 179.213 452.8C180.782 452.8 181.589 451.942 181.633 450.226L181.655 449.368ZM187.329 443.34H190.365V444.99C191.186 443.729 192.345 443.098 193.841 443.098C195.176 443.098 196.188 443.494 196.877 444.286C197.464 444.99 197.757 445.943 197.757 447.146V455H194.743V447.762C194.743 446.369 194.09 445.672 192.785 445.672C192.052 445.672 191.465 445.885 191.025 446.31C190.585 446.721 190.365 447.271 190.365 447.96V455H187.329V443.34ZM210.97 439.248V455H207.934V453.702C207.23 454.729 206.166 455.242 204.744 455.242C203.204 455.242 201.964 454.597 201.026 453.306C200.219 452.206 199.816 450.835 199.816 449.192C199.816 447.241 200.329 445.701 201.356 444.572C202.25 443.589 203.372 443.098 204.722 443.098C206.144 443.098 207.215 443.641 207.934 444.726V439.248H210.97ZM205.404 445.584C204.641 445.584 204.025 445.914 203.556 446.574C203.086 447.234 202.852 448.099 202.852 449.17C202.852 450.226 203.079 451.084 203.534 451.744C204.003 452.389 204.626 452.712 205.404 452.712C206.181 452.712 206.797 452.389 207.252 451.744C207.721 451.099 207.956 450.241 207.956 449.17C207.956 448.085 207.721 447.219 207.252 446.574C206.782 445.914 206.166 445.584 205.404 445.584ZM223.38 443.34V445.342H221.334V451.832C221.334 452.257 221.407 452.551 221.554 452.712C221.715 452.873 222.001 452.954 222.412 452.954C222.749 452.954 223.182 452.822 223.71 452.558C223.754 452.529 223.791 452.507 223.82 452.492L224.172 454.56C223.248 455.015 222.28 455.242 221.268 455.242C219.288 455.242 218.298 454.333 218.298 452.514V445.342H216.802V443.34H218.298V441.404L221.334 439.666V443.34H223.38ZM226.13 443.34H229.166V445.562C229.547 443.919 230.632 443.098 232.422 443.098C232.7 443.098 232.898 443.098 233.016 443.098L233.038 446.09C232.671 446.017 232.29 445.98 231.894 445.98C230.896 445.98 230.207 446.163 229.826 446.53C229.386 446.941 229.166 447.681 229.166 448.752V455H226.13V443.34ZM244.496 454.23V455H241.196C240.976 454.721 240.859 454.325 240.844 453.812C240.037 454.765 238.864 455.242 237.324 455.242C236.195 455.242 235.285 454.897 234.596 454.208C234.039 453.651 233.76 452.881 233.76 451.898C233.76 450.431 234.347 449.39 235.52 448.774C236.019 448.51 237.009 448.246 238.49 447.982L240.866 447.542L240.844 446.706C240.829 445.929 240.243 445.54 239.084 445.54C238.336 445.54 237.808 445.657 237.5 445.892C237.207 446.112 237.023 446.523 236.95 447.124H234.046C234.222 444.44 235.879 443.098 239.018 443.098C240.749 443.098 241.995 443.406 242.758 444.022C243.447 444.609 243.792 445.496 243.792 446.684V453.196C243.792 453.724 244.027 454.069 244.496 454.23ZM240.866 449.368L238.644 449.874C238.013 450.021 237.544 450.233 237.236 450.512C236.943 450.791 236.796 451.135 236.796 451.546C236.796 452.382 237.339 452.8 238.424 452.8C239.993 452.8 240.8 451.942 240.844 450.226L240.866 449.368ZM256.968 439.248V455H253.932V453.702C253.228 454.729 252.164 455.242 250.742 455.242C249.202 455.242 247.962 454.597 247.024 453.306C246.217 452.206 245.814 450.835 245.814 449.192C245.814 447.241 246.327 445.701 247.354 444.572C248.248 443.589 249.37 443.098 250.72 443.098C252.142 443.098 253.213 443.641 253.932 444.726V439.248H256.968ZM251.402 445.584C250.639 445.584 250.023 445.914 249.554 446.574C249.084 447.234 248.85 448.099 248.85 449.17C248.85 450.226 249.077 451.084 249.532 451.744C250.001 452.389 250.624 452.712 251.402 452.712C252.179 452.712 252.795 452.389 253.25 451.744C253.719 451.099 253.954 450.241 253.954 449.17C253.954 448.085 253.719 447.219 253.25 446.574C252.78 445.914 252.164 445.584 251.402 445.584ZM269.959 449.962H262.127C262.171 450.901 262.318 451.568 262.567 451.964C262.992 452.609 263.66 452.932 264.569 452.932C265.698 452.932 266.454 452.463 266.835 451.524H269.827C269.49 452.668 268.83 453.577 267.847 454.252C266.879 454.912 265.742 455.242 264.437 455.242C262.662 455.242 261.298 454.648 260.345 453.46C259.509 452.419 259.091 451.047 259.091 449.346C259.091 447.278 259.634 445.679 260.719 444.55C261.672 443.582 262.926 443.098 264.481 443.098C265.669 443.098 266.71 443.391 267.605 443.978C268.5 444.565 269.138 445.386 269.519 446.442C269.827 447.263 269.981 448.253 269.981 449.412C269.981 449.559 269.974 449.742 269.959 449.962ZM266.813 447.96C266.666 446.259 265.882 445.408 264.459 445.408C263.124 445.408 262.362 446.259 262.171 447.96H266.813Z" fill="black"/>
<path d="M120.938 173.828V181H118.936V165.248H129.496V167.03H120.938V172.046H128.462V173.828H120.938ZM133.403 169.692V181H131.621V169.692H133.403ZM132.545 165.27C132.853 165.27 133.11 165.38 133.315 165.6C133.535 165.805 133.645 166.055 133.645 166.348C133.645 166.656 133.535 166.92 133.315 167.14C133.11 167.345 132.853 167.448 132.545 167.448C132.252 167.448 131.995 167.345 131.775 167.14C131.57 166.92 131.467 166.656 131.467 166.348C131.467 166.055 131.57 165.805 131.775 165.6C131.995 165.38 132.252 165.27 132.545 165.27ZM138.26 165.248V181H136.456V165.248H138.26ZM143.051 165.248V181H141.247V165.248H143.051ZM154.544 169.692V171.144H152.234V178.668C152.234 178.932 152.322 179.159 152.498 179.35C152.688 179.526 152.93 179.614 153.224 179.614C153.502 179.614 153.928 179.548 154.5 179.416L154.698 181C153.788 181.161 153.099 181.242 152.63 181.242C151.178 181.242 150.452 180.648 150.452 179.46V171.144H148.912V169.692H150.452V167.382L152.234 166.568V169.692H154.544ZM156.653 165.248H158.435V171.276C158.977 170.601 159.52 170.132 160.063 169.868C160.605 169.589 161.28 169.45 162.087 169.45C163.187 169.45 164.052 169.729 164.683 170.286C165.313 170.829 165.629 171.577 165.629 172.53V181H163.847V173.256C163.847 172.464 163.605 171.885 163.121 171.518C162.666 171.181 162.131 171.012 161.515 171.012C160.591 171.012 159.843 171.357 159.271 172.046C158.713 172.735 158.435 173.652 158.435 174.796V181H156.653V165.248ZM178.211 175.874H169.873C169.887 176.842 170.093 177.612 170.489 178.184C171.119 179.108 172.029 179.57 173.217 179.57C174.683 179.57 175.673 178.873 176.187 177.48H177.991C177.756 178.668 177.213 179.592 176.363 180.252C175.512 180.912 174.441 181.242 173.151 181.242C171.435 181.242 170.122 180.655 169.213 179.482C168.406 178.455 168.003 177.099 168.003 175.412C168.003 173.461 168.531 171.943 169.587 170.858C170.511 169.919 171.706 169.45 173.173 169.45C174.243 169.45 175.182 169.707 175.989 170.22C176.81 170.733 177.397 171.437 177.749 172.332C178.057 173.095 178.211 174.253 178.211 175.808V175.874ZM176.275 174.4C176.275 173.417 175.981 172.625 175.395 172.024C174.823 171.408 174.082 171.1 173.173 171.1C172.249 171.1 171.493 171.401 170.907 172.002C170.335 172.589 170.012 173.388 169.939 174.4H176.275ZM192.741 172.794H190.761C190.703 171.665 189.947 171.1 188.495 171.1C187.747 171.1 187.153 171.247 186.713 171.54C186.288 171.819 186.075 172.2 186.075 172.684C186.075 173.417 186.772 173.945 188.165 174.268L189.903 174.664C191.033 174.928 191.847 175.302 192.345 175.786C192.844 176.27 193.093 176.93 193.093 177.766C193.093 178.837 192.675 179.687 191.839 180.318C191.003 180.934 189.874 181.242 188.451 181.242C186.897 181.242 185.716 180.875 184.909 180.142C184.235 179.541 183.875 178.741 183.831 177.744H185.877C185.995 178.257 186.156 178.631 186.361 178.866C186.757 179.335 187.498 179.57 188.583 179.57C189.39 179.57 190.028 179.423 190.497 179.13C190.981 178.822 191.223 178.419 191.223 177.92C191.223 177.172 190.644 176.659 189.485 176.38L187.791 175.984C186.501 175.676 185.599 175.309 185.085 174.884C184.499 174.4 184.205 173.703 184.205 172.794C184.205 171.767 184.594 170.953 185.371 170.352C186.163 169.751 187.219 169.45 188.539 169.45C189.918 169.45 190.989 169.795 191.751 170.484C192.411 171.085 192.741 171.855 192.741 172.794ZM197.212 169.692V181H195.43V169.692H197.212ZM196.354 165.27C196.662 165.27 196.919 165.38 197.124 165.6C197.344 165.805 197.454 166.055 197.454 166.348C197.454 166.656 197.344 166.92 197.124 167.14C196.919 167.345 196.662 167.448 196.354 167.448C196.061 167.448 195.804 167.345 195.584 167.14C195.379 166.92 195.276 166.656 195.276 166.348C195.276 166.055 195.379 165.805 195.584 165.6C195.804 165.38 196.061 165.27 196.354 165.27ZM200.309 169.692H201.981V171.32C202.861 170.073 204.02 169.45 205.457 169.45C206.85 169.45 207.862 170.007 208.493 171.122C209.036 170.491 209.556 170.059 210.055 169.824C210.568 169.575 211.199 169.45 211.947 169.45C214.147 169.45 215.247 170.484 215.247 172.552V181H213.443V173.256C213.443 171.76 212.739 171.012 211.331 171.012C210.598 171.012 209.974 171.298 209.461 171.87C208.948 172.442 208.691 173.124 208.691 173.916V181H206.887V173.256C206.887 171.76 206.19 171.012 204.797 171.012C204.049 171.012 203.411 171.298 202.883 171.87C202.37 172.427 202.113 173.109 202.113 173.916V181H200.309V169.692ZM217.961 185.708V169.692H219.633V171.43C220.469 170.11 221.672 169.45 223.241 169.45C224.84 169.45 226.072 170.066 226.937 171.298C227.7 172.369 228.081 173.777 228.081 175.522C228.081 177.385 227.582 178.837 226.585 179.878C225.72 180.787 224.598 181.242 223.219 181.242C221.826 181.242 220.674 180.736 219.765 179.724V185.708H217.961ZM222.933 171.122C221.98 171.122 221.21 171.511 220.623 172.288C220.051 173.065 219.765 174.107 219.765 175.412C219.765 176.761 220.095 177.817 220.755 178.58C221.312 179.225 222.038 179.548 222.933 179.548C223.93 179.548 224.722 179.174 225.309 178.426C225.91 177.663 226.211 176.659 226.211 175.412C226.211 174.033 225.874 172.948 225.199 172.156C224.598 171.467 223.842 171.122 222.933 171.122ZM232.083 165.248V181H230.279V165.248H232.083ZM244.662 175.874H236.324C236.338 176.842 236.544 177.612 236.94 178.184C237.57 179.108 238.48 179.57 239.668 179.57C241.134 179.57 242.124 178.873 242.638 177.48H244.442C244.207 178.668 243.664 179.592 242.814 180.252C241.963 180.912 240.892 181.242 239.602 181.242C237.886 181.242 236.573 180.655 235.664 179.482C234.857 178.455 234.454 177.099 234.454 175.412C234.454 173.461 234.982 171.943 236.038 170.858C236.962 169.919 238.157 169.45 239.624 169.45C240.694 169.45 241.633 169.707 242.44 170.22C243.261 170.733 243.848 171.437 244.2 172.332C244.508 173.095 244.662 174.253 244.662 175.808V175.874ZM242.726 174.4C242.726 173.417 242.432 172.625 241.846 172.024C241.274 171.408 240.533 171.1 239.624 171.1C238.7 171.1 237.944 171.401 237.358 172.002C236.786 172.589 236.463 173.388 236.39 174.4H242.726ZM251.141 169.692H252.813V171.76C253.473 170.205 254.514 169.428 255.937 169.428C256.113 169.428 256.325 169.45 256.575 169.494V171.342C255.401 171.357 254.595 171.525 254.155 171.848C253.348 172.435 252.945 173.527 252.945 175.126V181H251.141V169.692ZM267.908 175.874H259.57C259.584 176.842 259.79 177.612 260.186 178.184C260.816 179.108 261.726 179.57 262.914 179.57C264.38 179.57 265.37 178.873 265.884 177.48H267.688C267.453 178.668 266.91 179.592 266.06 180.252C265.209 180.912 264.138 181.242 262.848 181.242C261.132 181.242 259.819 180.655 258.91 179.482C258.103 178.455 257.7 177.099 257.7 175.412C257.7 173.461 258.228 171.943 259.284 170.858C260.208 169.919 261.403 169.45 262.87 169.45C263.94 169.45 264.879 169.707 265.686 170.22C266.507 170.733 267.094 171.437 267.446 172.332C267.754 173.095 267.908 174.253 267.908 175.808V175.874ZM265.972 174.4C265.972 173.417 265.678 172.625 265.092 172.024C264.52 171.408 263.779 171.1 262.87 171.1C261.946 171.1 261.19 171.401 260.604 172.002C260.032 172.589 259.709 173.388 259.636 174.4H265.972ZM277.74 169.692H279.412V179.152C279.412 181.601 279.016 183.303 278.224 184.256C277.432 185.224 276.134 185.708 274.33 185.708C272.922 185.708 271.822 185.371 271.03 184.696C270.326 184.095 269.93 183.295 269.842 182.298H271.69C271.778 182.885 271.998 183.317 272.35 183.596C272.863 183.992 273.552 184.19 274.418 184.19C275.591 184.19 276.427 183.838 276.926 183.134C277.351 182.533 277.564 181.506 277.564 180.054V179.328C276.625 180.604 275.496 181.242 274.176 181.242C272.885 181.242 271.792 180.758 270.898 179.79C269.944 178.749 269.468 177.326 269.468 175.522C269.468 173.586 269.966 172.046 270.964 170.902C271.844 169.934 272.951 169.45 274.286 169.45C275.723 169.45 276.874 170.095 277.74 171.386V169.692ZM274.484 171.1C273.516 171.1 272.746 171.489 272.174 172.266C271.616 173.029 271.338 174.077 271.338 175.412C271.338 176.805 271.66 177.869 272.306 178.602C272.848 179.247 273.582 179.57 274.506 179.57C275.474 179.57 276.222 179.203 276.75 178.47C277.292 177.737 277.564 176.717 277.564 175.412C277.564 173.975 277.256 172.875 276.64 172.112C276.097 171.437 275.378 171.1 274.484 171.1ZM284.073 169.692V181H282.291V169.692H284.073ZM283.215 165.27C283.523 165.27 283.78 165.38 283.985 165.6C284.205 165.805 284.315 166.055 284.315 166.348C284.315 166.656 284.205 166.92 283.985 167.14C283.78 167.345 283.523 167.448 283.215 167.448C282.922 167.448 282.665 167.345 282.445 167.14C282.24 166.92 282.137 166.656 282.137 166.348C282.137 166.055 282.24 165.805 282.445 165.6C282.665 165.38 282.922 165.27 283.215 165.27ZM295.2 172.794H293.22C293.162 171.665 292.406 171.1 290.954 171.1C290.206 171.1 289.612 171.247 289.172 171.54C288.747 171.819 288.534 172.2 288.534 172.684C288.534 173.417 289.231 173.945 290.624 174.268L292.362 174.664C293.492 174.928 294.306 175.302 294.804 175.786C295.303 176.27 295.552 176.93 295.552 177.766C295.552 178.837 295.134 179.687 294.298 180.318C293.462 180.934 292.333 181.242 290.91 181.242C289.356 181.242 288.175 180.875 287.368 180.142C286.694 179.541 286.334 178.741 286.29 177.744H288.336C288.454 178.257 288.615 178.631 288.82 178.866C289.216 179.335 289.957 179.57 291.042 179.57C291.849 179.57 292.487 179.423 292.956 179.13C293.44 178.822 293.682 178.419 293.682 177.92C293.682 177.172 293.103 176.659 291.944 176.38L290.25 175.984C288.96 175.676 288.058 175.309 287.544 174.884C286.958 174.4 286.664 173.703 286.664 172.794C286.664 171.767 287.053 170.953 287.83 170.352C288.622 169.751 289.678 169.45 290.998 169.45C292.377 169.45 293.448 169.795 294.21 170.484C294.87 171.085 295.2 171.855 295.2 172.794ZM302.399 169.692V171.144H300.089V178.668C300.089 178.932 300.177 179.159 300.353 179.35C300.544 179.526 300.786 179.614 301.079 179.614C301.358 179.614 301.783 179.548 302.355 179.416L302.553 181C301.644 181.161 300.954 181.242 300.485 181.242C299.033 181.242 298.307 180.648 298.307 179.46V171.144H296.767V169.692H298.307V167.382L300.089 166.568V169.692H302.399ZM304.486 169.692H306.158V171.76C306.818 170.205 307.86 169.428 309.282 169.428C309.458 169.428 309.671 169.45 309.92 169.494V171.342C308.747 171.357 307.94 171.525 307.5 171.848C306.694 172.435 306.29 173.527 306.29 175.126V181H304.486V169.692ZM321.738 179.482V180.934C321.239 181.11 320.85 181.198 320.572 181.198C319.398 181.198 318.76 180.663 318.658 179.592C317.851 180.692 316.568 181.242 314.808 181.242C313.59 181.242 312.644 180.905 311.97 180.23C311.383 179.643 311.09 178.888 311.09 177.964C311.09 176.908 311.464 176.094 312.212 175.522C312.637 175.199 313.524 174.884 314.874 174.576L318.57 173.74L318.592 172.794C318.592 171.665 317.741 171.1 316.04 171.1C314.412 171.1 313.539 171.76 313.421 173.08H311.596C311.64 172.083 311.889 171.32 312.344 170.792C313.121 169.897 314.382 169.45 316.128 169.45C318.958 169.45 320.374 170.477 320.374 172.53V178.844C320.374 179.401 320.616 179.68 321.1 179.68C321.158 179.68 321.312 179.636 321.562 179.548C321.65 179.519 321.708 179.497 321.738 179.482ZM318.592 175.214L315.688 175.962C314.646 176.226 313.928 176.497 313.532 176.776C313.15 177.055 312.96 177.443 312.96 177.942C312.96 179.101 313.708 179.68 315.204 179.68C316.26 179.68 317.154 179.335 317.888 178.646C318.357 178.221 318.592 177.737 318.592 177.194V175.214ZM328.137 169.692V171.144H325.827V178.668C325.827 178.932 325.915 179.159 326.091 179.35C326.282 179.526 326.524 179.614 326.817 179.614C327.096 179.614 327.521 179.548 328.093 179.416L328.291 181C327.382 181.161 326.693 181.242 326.223 181.242C324.771 181.242 324.045 180.648 324.045 179.46V171.144H322.505V169.692H324.045V167.382L325.827 166.568V169.692H328.137ZM331.941 169.692V181H330.159V169.692H331.941ZM331.083 165.27C331.391 165.27 331.647 165.38 331.853 165.6C332.073 165.805 332.183 166.055 332.183 166.348C332.183 166.656 332.073 166.92 331.853 167.14C331.647 167.345 331.391 167.448 331.083 167.448C330.789 167.448 330.533 167.345 330.313 167.14C330.107 166.92 330.005 166.656 330.005 166.348C330.005 166.055 330.107 165.805 330.313 165.6C330.533 165.38 330.789 165.27 331.083 165.27ZM339.46 169.45C341.161 169.45 342.459 170.044 343.354 171.232C344.146 172.259 344.542 173.652 344.542 175.412C344.542 177.377 344.028 178.873 343.002 179.9C342.122 180.795 340.934 181.242 339.438 181.242C337.707 181.242 336.387 180.663 335.478 179.504C334.686 178.492 334.29 177.128 334.29 175.412C334.29 173.417 334.81 171.885 335.852 170.814C336.746 169.905 337.949 169.45 339.46 169.45ZM339.46 171.1C338.433 171.1 337.626 171.489 337.04 172.266C336.453 173.029 336.16 174.077 336.16 175.412C336.16 176.805 336.49 177.869 337.15 178.602C337.722 179.247 338.484 179.57 339.438 179.57C340.45 179.57 341.234 179.203 341.792 178.47C342.364 177.737 342.65 176.717 342.65 175.412C342.65 173.975 342.327 172.875 341.682 172.112C341.124 171.437 340.384 171.1 339.46 171.1ZM347.047 169.692H348.719V171.606C349.629 170.169 350.875 169.45 352.459 169.45C353.559 169.45 354.432 169.729 355.077 170.286C355.723 170.829 356.045 171.562 356.045 172.486V181H354.263V173.212C354.263 172.537 354.051 172.002 353.625 171.606C353.215 171.21 352.65 171.012 351.931 171.012C350.993 171.012 350.245 171.357 349.687 172.046C349.13 172.735 348.851 173.652 348.851 174.796V181H347.047V169.692ZM367.144 169.692V171.144H365.274V181H363.492V171.144H361.974V169.692H363.492V167.756C363.492 166.949 363.719 166.319 364.174 165.864C364.643 165.409 365.296 165.182 366.132 165.182C366.455 165.182 366.792 165.219 367.144 165.292V166.788H366.946C366.785 166.773 366.645 166.766 366.528 166.766C365.692 166.766 365.274 167.147 365.274 167.91V169.692H367.144ZM373.534 169.45C375.235 169.45 376.533 170.044 377.428 171.232C378.22 172.259 378.616 173.652 378.616 175.412C378.616 177.377 378.102 178.873 377.076 179.9C376.196 180.795 375.008 181.242 373.512 181.242C371.781 181.242 370.461 180.663 369.552 179.504C368.76 178.492 368.364 177.128 368.364 175.412C368.364 173.417 368.884 171.885 369.926 170.814C370.82 169.905 372.023 169.45 373.534 169.45ZM373.534 171.1C372.507 171.1 371.7 171.489 371.114 172.266C370.527 173.029 370.234 174.077 370.234 175.412C370.234 176.805 370.564 177.869 371.224 178.602C371.796 179.247 372.558 179.57 373.512 179.57C374.524 179.57 375.308 179.203 375.866 178.47C376.438 177.737 376.724 176.717 376.724 175.412C376.724 173.975 376.401 172.875 375.756 172.112C375.198 171.437 374.458 171.1 373.534 171.1ZM381.1 169.692H382.772V171.76C383.432 170.205 384.473 169.428 385.896 169.428C386.072 169.428 386.284 169.45 386.534 169.494V171.342C385.36 171.357 384.554 171.525 384.114 171.848C383.307 172.435 382.904 173.527 382.904 175.126V181H381.1V169.692ZM388.319 169.692H389.991V171.32C390.871 170.073 392.029 169.45 393.467 169.45C394.86 169.45 395.872 170.007 396.503 171.122C397.045 170.491 397.566 170.059 398.065 169.824C398.578 169.575 399.209 169.45 399.957 169.45C402.157 169.45 403.257 170.484 403.257 172.552V181H401.453V173.256C401.453 171.76 400.749 171.012 399.341 171.012C398.607 171.012 397.984 171.298 397.471 171.87C396.957 172.442 396.701 173.124 396.701 173.916V181H394.897V173.256C394.897 171.76 394.2 171.012 392.807 171.012C392.059 171.012 391.421 171.298 390.893 171.87C390.379 172.427 390.123 173.109 390.123 173.916V181H388.319V169.692Z" fill="black"/>
<path d="M131.3 327.066H129.232C129.012 326.01 128.631 325.24 128.088 324.756C127.384 324.111 126.357 323.788 125.008 323.788C123.365 323.788 122.097 324.433 121.202 325.724C120.425 326.853 120.036 328.335 120.036 330.168C120.036 332.236 120.557 333.842 121.598 334.986C122.522 335.969 123.71 336.46 125.162 336.46C126.937 336.46 128.161 335.807 128.836 334.502C129.144 333.901 129.386 333.101 129.562 332.104H131.63C131.146 336.196 128.997 338.242 125.184 338.242C123.131 338.242 121.51 337.641 120.322 336.438C118.797 334.898 118.034 332.83 118.034 330.234C118.034 327.711 118.767 325.636 120.234 324.008C121.437 322.673 123.094 322.006 125.206 322.006C128.638 322.006 130.669 323.693 131.3 327.066ZM134.116 322.248H135.898V328.276C136.44 327.601 136.983 327.132 137.526 326.868C138.068 326.589 138.743 326.45 139.55 326.45C140.65 326.45 141.515 326.729 142.146 327.286C142.776 327.829 143.092 328.577 143.092 329.53V338H141.31V330.256C141.31 329.464 141.068 328.885 140.584 328.518C140.129 328.181 139.594 328.012 138.978 328.012C138.054 328.012 137.306 328.357 136.734 329.046C136.176 329.735 135.898 330.652 135.898 331.796V338H134.116V322.248ZM150.547 326.45C152.249 326.45 153.547 327.044 154.441 328.232C155.233 329.259 155.629 330.652 155.629 332.412C155.629 334.377 155.116 335.873 154.089 336.9C153.209 337.795 152.021 338.242 150.525 338.242C148.795 338.242 147.475 337.663 146.565 336.504C145.773 335.492 145.377 334.128 145.377 332.412C145.377 330.417 145.898 328.885 146.939 327.814C147.834 326.905 149.037 326.45 150.547 326.45ZM150.547 328.1C149.521 328.1 148.714 328.489 148.127 329.266C147.541 330.029 147.247 331.077 147.247 332.412C147.247 333.805 147.577 334.869 148.237 335.602C148.809 336.247 149.572 336.57 150.525 336.57C151.537 336.57 152.322 336.203 152.879 335.47C153.451 334.737 153.737 333.717 153.737 332.412C153.737 330.975 153.415 329.875 152.769 329.112C152.212 328.437 151.471 328.1 150.547 328.1ZM162.557 326.45C164.259 326.45 165.557 327.044 166.451 328.232C167.243 329.259 167.639 330.652 167.639 332.412C167.639 334.377 167.126 335.873 166.099 336.9C165.219 337.795 164.031 338.242 162.535 338.242C160.805 338.242 159.485 337.663 158.575 336.504C157.783 335.492 157.387 334.128 157.387 332.412C157.387 330.417 157.908 328.885 158.949 327.814C159.844 326.905 161.047 326.45 162.557 326.45ZM162.557 328.1C161.531 328.1 160.724 328.489 160.137 329.266C159.551 330.029 159.257 331.077 159.257 332.412C159.257 333.805 159.587 334.869 160.247 335.602C160.819 336.247 161.582 336.57 162.535 336.57C163.547 336.57 164.332 336.203 164.889 335.47C165.461 334.737 165.747 333.717 165.747 332.412C165.747 330.975 165.425 329.875 164.779 329.112C164.222 328.437 163.481 328.1 162.557 328.1ZM178.175 329.794H176.195C176.136 328.665 175.381 328.1 173.929 328.1C173.181 328.1 172.587 328.247 172.147 328.54C171.722 328.819 171.509 329.2 171.509 329.684C171.509 330.417 172.206 330.945 173.599 331.268L175.337 331.664C176.466 331.928 177.28 332.302 177.779 332.786C178.278 333.27 178.527 333.93 178.527 334.766C178.527 335.837 178.109 336.687 177.273 337.318C176.437 337.934 175.308 338.242 173.885 338.242C172.33 338.242 171.15 337.875 170.343 337.142C169.668 336.541 169.309 335.741 169.265 334.744H171.311C171.428 335.257 171.59 335.631 171.795 335.866C172.191 336.335 172.932 336.57 174.017 336.57C174.824 336.57 175.462 336.423 175.931 336.13C176.415 335.822 176.657 335.419 176.657 334.92C176.657 334.172 176.078 333.659 174.919 333.38L173.225 332.984C171.934 332.676 171.032 332.309 170.519 331.884C169.932 331.4 169.639 330.703 169.639 329.794C169.639 328.767 170.028 327.953 170.805 327.352C171.597 326.751 172.653 326.45 173.973 326.45C175.352 326.45 176.422 326.795 177.185 327.484C177.845 328.085 178.175 328.855 178.175 329.794ZM190.5 332.874H182.162C182.176 333.842 182.382 334.612 182.778 335.184C183.408 336.108 184.318 336.57 185.506 336.57C186.972 336.57 187.962 335.873 188.476 334.48H190.28C190.045 335.668 189.502 336.592 188.652 337.252C187.801 337.912 186.73 338.242 185.44 338.242C183.724 338.242 182.411 337.655 181.502 336.482C180.695 335.455 180.292 334.099 180.292 332.412C180.292 330.461 180.82 328.943 181.876 327.858C182.8 326.919 183.995 326.45 185.462 326.45C186.532 326.45 187.471 326.707 188.278 327.22C189.099 327.733 189.686 328.437 190.038 329.332C190.346 330.095 190.5 331.253 190.5 332.808V332.874ZM188.564 331.4C188.564 330.417 188.27 329.625 187.684 329.024C187.112 328.408 186.371 328.1 185.462 328.1C184.538 328.1 183.782 328.401 183.196 329.002C182.624 329.589 182.301 330.388 182.228 331.4H188.564ZM207.032 336.482V337.934C206.534 338.11 206.145 338.198 205.866 338.198C204.693 338.198 204.055 337.663 203.952 336.592C203.146 337.692 201.862 338.242 200.102 338.242C198.885 338.242 197.939 337.905 197.264 337.23C196.678 336.643 196.384 335.888 196.384 334.964C196.384 333.908 196.758 333.094 197.506 332.522C197.932 332.199 198.819 331.884 200.168 331.576L203.864 330.74L203.886 329.794C203.886 328.665 203.036 328.1 201.334 328.1C199.706 328.1 198.834 328.76 198.716 330.08H196.89C196.934 329.083 197.184 328.32 197.638 327.792C198.416 326.897 199.677 326.45 201.422 326.45C204.253 326.45 205.668 327.477 205.668 329.53V335.844C205.668 336.401 205.91 336.68 206.394 336.68C206.453 336.68 206.607 336.636 206.856 336.548C206.944 336.519 207.003 336.497 207.032 336.482ZM203.886 332.214L200.982 332.962C199.941 333.226 199.222 333.497 198.826 333.776C198.445 334.055 198.254 334.443 198.254 334.942C198.254 336.101 199.002 336.68 200.498 336.68C201.554 336.68 202.449 336.335 203.182 335.646C203.652 335.221 203.886 334.737 203.886 334.194V332.214ZM217.656 330.476H215.852C215.632 328.892 214.738 328.1 213.168 328.1C212.186 328.1 211.416 328.489 210.858 329.266C210.301 330.043 210.022 331.121 210.022 332.5C210.022 333.864 210.352 334.905 211.012 335.624C211.57 336.255 212.318 336.57 213.256 336.57C214.767 336.57 215.669 335.749 215.962 334.106H217.788C217.671 335.514 217.165 336.577 216.27 337.296C215.493 337.927 214.474 338.242 213.212 338.242C211.555 338.242 210.264 337.655 209.34 336.482C208.548 335.47 208.152 334.143 208.152 332.5C208.152 330.535 208.673 328.995 209.714 327.88C210.609 326.927 211.768 326.45 213.19 326.45C214.833 326.45 216.065 327 216.886 328.1C217.312 328.672 217.568 329.464 217.656 330.476ZM228.463 330.476H226.659C226.439 328.892 225.544 328.1 223.975 328.1C222.992 328.1 222.222 328.489 221.665 329.266C221.107 330.043 220.829 331.121 220.829 332.5C220.829 333.864 221.159 334.905 221.819 335.624C222.376 336.255 223.124 336.57 224.063 336.57C225.573 336.57 226.475 335.749 226.769 334.106H228.595C228.477 335.514 227.971 336.577 227.077 337.296C226.299 337.927 225.28 338.242 224.019 338.242C222.361 338.242 221.071 337.655 220.147 336.482C219.355 335.47 218.959 334.143 218.959 332.5C218.959 330.535 219.479 328.995 220.521 327.88C221.415 326.927 222.574 326.45 223.997 326.45C225.639 326.45 226.871 327 227.693 328.1C228.118 328.672 228.375 329.464 228.463 330.476ZM235.045 326.45C236.747 326.45 238.045 327.044 238.939 328.232C239.731 329.259 240.127 330.652 240.127 332.412C240.127 334.377 239.614 335.873 238.587 336.9C237.707 337.795 236.519 338.242 235.023 338.242C233.293 338.242 231.973 337.663 231.063 336.504C230.271 335.492 229.875 334.128 229.875 332.412C229.875 330.417 230.396 328.885 231.437 327.814C232.332 326.905 233.535 326.45 235.045 326.45ZM235.045 328.1C234.019 328.1 233.212 328.489 232.625 329.266C232.039 330.029 231.745 331.077 231.745 332.412C231.745 333.805 232.075 334.869 232.735 335.602C233.307 336.247 234.07 336.57 235.023 336.57C236.035 336.57 236.82 336.203 237.377 335.47C237.949 334.737 238.235 333.717 238.235 332.412C238.235 330.975 237.913 329.875 237.267 329.112C236.71 328.437 235.969 328.1 235.045 328.1ZM251.521 338H249.739V336.218C248.933 337.567 247.73 338.242 246.131 338.242C245.031 338.242 244.151 337.971 243.491 337.428C242.846 336.871 242.523 336.13 242.523 335.206V326.692H244.305V334.48C244.305 335.14 244.518 335.668 244.943 336.064C245.369 336.46 245.941 336.658 246.659 336.658C247.598 336.658 248.346 336.321 248.903 335.646C249.461 334.957 249.739 334.033 249.739 332.874V326.692H251.521V338ZM254.643 326.692H256.315V328.606C257.224 327.169 258.471 326.45 260.055 326.45C261.155 326.45 262.028 326.729 262.673 327.286C263.318 327.829 263.641 328.562 263.641 329.486V338H261.859V330.212C261.859 329.537 261.646 329.002 261.221 328.606C260.81 328.21 260.246 328.012 259.527 328.012C258.588 328.012 257.84 328.357 257.283 329.046C256.726 329.735 256.447 330.652 256.447 331.796V338H254.643V326.692ZM271.075 326.692V328.144H268.765V335.668C268.765 335.932 268.853 336.159 269.029 336.35C269.219 336.526 269.461 336.614 269.755 336.614C270.033 336.614 270.459 336.548 271.031 336.416L271.229 338C270.319 338.161 269.63 338.242 269.161 338.242C267.709 338.242 266.983 337.648 266.983 336.46V328.144H265.443V326.692H266.983V324.382L268.765 323.568V326.692H271.075ZM281.645 326.45C283.346 326.45 284.644 327.044 285.539 328.232C286.331 329.259 286.727 330.652 286.727 332.412C286.727 334.377 286.214 335.873 285.187 336.9C284.307 337.795 283.119 338.242 281.623 338.242C279.892 338.242 278.572 337.663 277.663 336.504C276.871 335.492 276.475 334.128 276.475 332.412C276.475 330.417 276.996 328.885 278.037 327.814C278.932 326.905 280.134 326.45 281.645 326.45ZM281.645 328.1C280.618 328.1 279.812 328.489 279.225 329.266C278.638 330.029 278.345 331.077 278.345 332.412C278.345 333.805 278.675 334.869 279.335 335.602C279.907 336.247 280.67 336.57 281.623 336.57C282.635 336.57 283.42 336.203 283.977 335.47C284.549 334.737 284.835 333.717 284.835 332.412C284.835 330.975 284.512 329.875 283.867 329.112C283.31 328.437 282.569 328.1 281.645 328.1ZM293.281 326.692V328.144H291.411V338H289.629V328.144H288.111V326.692H289.629V324.756C289.629 323.949 289.856 323.319 290.311 322.864C290.78 322.409 291.433 322.182 292.269 322.182C292.592 322.182 292.929 322.219 293.281 322.292V323.788H293.083C292.922 323.773 292.782 323.766 292.665 323.766C291.829 323.766 291.411 324.147 291.411 324.91V326.692H293.281ZM306.174 326.692H308.11L303.072 340.376C302.485 341.931 301.51 342.708 300.146 342.708C299.5 342.708 298.936 342.561 298.452 342.268L298.804 340.706C299.17 340.853 299.53 340.926 299.882 340.926C300.586 340.926 301.077 340.559 301.356 339.826L302.038 338.022L298.21 326.692H300.146L303.028 335.492L306.174 326.692ZM314.516 326.45C316.218 326.45 317.516 327.044 318.41 328.232C319.202 329.259 319.598 330.652 319.598 332.412C319.598 334.377 319.085 335.873 318.058 336.9C317.178 337.795 315.99 338.242 314.494 338.242C312.764 338.242 311.444 337.663 310.534 336.504C309.742 335.492 309.346 334.128 309.346 332.412C309.346 330.417 309.867 328.885 310.908 327.814C311.803 326.905 313.006 326.45 314.516 326.45ZM314.516 328.1C313.49 328.1 312.683 328.489 312.096 329.266C311.51 330.029 311.216 331.077 311.216 332.412C311.216 333.805 311.546 334.869 312.206 335.602C312.778 336.247 313.541 336.57 314.494 336.57C315.506 336.57 316.291 336.203 316.848 335.47C317.42 334.737 317.706 333.717 317.706 332.412C317.706 330.975 317.384 329.875 316.738 329.112C316.181 328.437 315.44 328.1 314.516 328.1ZM330.992 338H329.21V336.218C328.403 337.567 327.201 338.242 325.602 338.242C324.502 338.242 323.622 337.971 322.962 337.428C322.317 336.871 321.994 336.13 321.994 335.206V326.692H323.776V334.48C323.776 335.14 323.989 335.668 324.414 336.064C324.839 336.46 325.411 336.658 326.13 336.658C327.069 336.658 327.817 336.321 328.374 335.646C328.931 334.957 329.21 334.033 329.21 332.874V326.692H330.992V338ZM334.092 326.692H335.764V328.76C336.424 327.205 337.465 326.428 338.888 326.428C339.064 326.428 339.276 326.45 339.526 326.494V328.342C338.352 328.357 337.546 328.525 337.106 328.848C336.299 329.435 335.896 330.527 335.896 332.126V338H334.092V326.692ZM122.94 351.692V353.144H120.63V360.668C120.63 360.932 120.718 361.159 120.894 361.35C121.085 361.526 121.327 361.614 121.62 361.614C121.899 361.614 122.324 361.548 122.896 361.416L123.094 363C122.185 363.161 121.495 363.242 121.026 363.242C119.574 363.242 118.848 362.648 118.848 361.46V353.144H117.308V351.692H118.848V349.382L120.63 348.568V351.692H122.94ZM131.935 351.692H133.871L128.833 365.376C128.247 366.931 127.271 367.708 125.907 367.708C125.262 367.708 124.697 367.561 124.213 367.268L124.565 365.706C124.932 365.853 125.291 365.926 125.643 365.926C126.347 365.926 126.839 365.559 127.117 364.826L127.799 363.022L123.971 351.692H125.907L128.789 360.492L131.935 351.692ZM135.504 367.708V351.692H137.176V353.43C138.012 352.11 139.215 351.45 140.784 351.45C142.383 351.45 143.615 352.066 144.48 353.298C145.243 354.369 145.624 355.777 145.624 357.522C145.624 359.385 145.125 360.837 144.128 361.878C143.263 362.787 142.141 363.242 140.762 363.242C139.369 363.242 138.217 362.736 137.308 361.724V367.708H135.504ZM140.476 353.122C139.523 353.122 138.753 353.511 138.166 354.288C137.594 355.065 137.308 356.107 137.308 357.412C137.308 358.761 137.638 359.817 138.298 360.58C138.855 361.225 139.581 361.548 140.476 361.548C141.473 361.548 142.265 361.174 142.852 360.426C143.453 359.663 143.754 358.659 143.754 357.412C143.754 356.033 143.417 354.948 142.742 354.156C142.141 353.467 141.385 353.122 140.476 353.122ZM157.414 357.874H149.076C149.09 358.842 149.296 359.612 149.692 360.184C150.322 361.108 151.232 361.57 152.42 361.57C153.886 361.57 154.876 360.873 155.39 359.48H157.194C156.959 360.668 156.416 361.592 155.566 362.252C154.715 362.912 153.644 363.242 152.354 363.242C150.638 363.242 149.325 362.655 148.416 361.482C147.609 360.455 147.206 359.099 147.206 357.412C147.206 355.461 147.734 353.943 148.79 352.858C149.714 351.919 150.909 351.45 152.376 351.45C153.446 351.45 154.385 351.707 155.192 352.22C156.013 352.733 156.6 353.437 156.952 354.332C157.26 355.095 157.414 356.253 157.414 357.808V357.874ZM155.478 356.4C155.478 355.417 155.184 354.625 154.598 354.024C154.026 353.408 153.285 353.1 152.376 353.1C151.452 353.1 150.696 353.401 150.11 354.002C149.538 354.589 149.215 355.388 149.142 356.4H155.478Z" fill="black"/>
<path d="M125.426 483.006C127.861 483.006 129.782 483.849 131.19 485.536C132.407 487.003 133.016 488.865 133.016 491.124C133.016 493.72 132.231 495.773 130.662 497.284C129.283 498.589 127.538 499.242 125.426 499.242C122.977 499.242 121.048 498.399 119.64 496.712C118.423 495.245 117.814 493.383 117.814 491.124C117.814 488.528 118.606 486.475 120.19 484.964C121.554 483.659 123.299 483.006 125.426 483.006ZM125.404 484.788C123.615 484.788 122.199 485.441 121.158 486.746C120.263 487.89 119.816 489.349 119.816 491.124C119.816 493.163 120.395 494.769 121.554 495.942C122.566 496.954 123.849 497.46 125.404 497.46C127.208 497.46 128.631 496.807 129.672 495.502C130.567 494.358 131.014 492.899 131.014 491.124C131.014 489.085 130.435 487.479 129.276 486.306C128.264 485.294 126.973 484.788 125.404 484.788ZM135.319 487.692H136.991V489.606C137.9 488.169 139.147 487.45 140.731 487.45C141.831 487.45 142.703 487.729 143.349 488.286C143.994 488.829 144.317 489.562 144.317 490.486V499H142.535V491.212C142.535 490.537 142.322 490.002 141.897 489.606C141.486 489.21 140.921 489.012 140.203 489.012C139.264 489.012 138.516 489.357 137.959 490.046C137.401 490.735 137.123 491.652 137.123 492.796V499H135.319V487.692ZM155.975 491.476H154.171C153.951 489.892 153.056 489.1 151.487 489.1C150.504 489.1 149.734 489.489 149.177 490.266C148.619 491.043 148.341 492.121 148.341 493.5C148.341 494.864 148.671 495.905 149.331 496.624C149.888 497.255 150.636 497.57 151.575 497.57C153.085 497.57 153.987 496.749 154.281 495.106H156.107C155.989 496.514 155.483 497.577 154.589 498.296C153.811 498.927 152.792 499.242 151.531 499.242C149.873 499.242 148.583 498.655 147.659 497.482C146.867 496.47 146.471 495.143 146.471 493.5C146.471 491.535 146.991 489.995 148.033 488.88C148.927 487.927 150.086 487.45 151.509 487.45C153.151 487.45 154.383 488 155.205 489.1C155.63 489.672 155.887 490.464 155.975 491.476ZM167.683 493.874H159.345C159.36 494.842 159.565 495.612 159.961 496.184C160.592 497.108 161.501 497.57 162.689 497.57C164.156 497.57 165.146 496.873 165.659 495.48H167.463C167.229 496.668 166.686 497.592 165.835 498.252C164.985 498.912 163.914 499.242 162.623 499.242C160.907 499.242 159.595 498.655 158.685 497.482C157.879 496.455 157.475 495.099 157.475 493.412C157.475 491.461 158.003 489.943 159.059 488.858C159.983 487.919 161.179 487.45 162.645 487.45C163.716 487.45 164.655 487.707 165.461 488.22C166.283 488.733 166.869 489.437 167.221 490.332C167.529 491.095 167.683 492.253 167.683 493.808V493.874ZM165.747 492.4C165.747 491.417 165.454 490.625 164.867 490.024C164.295 489.408 163.555 489.1 162.645 489.1C161.721 489.1 160.966 489.401 160.379 490.002C159.807 490.589 159.485 491.388 159.411 492.4H165.747ZM184.216 497.482V498.934C183.717 499.11 183.329 499.198 183.05 499.198C181.877 499.198 181.239 498.663 181.136 497.592C180.329 498.692 179.046 499.242 177.286 499.242C176.069 499.242 175.123 498.905 174.448 498.23C173.861 497.643 173.568 496.888 173.568 495.964C173.568 494.908 173.942 494.094 174.69 493.522C175.115 493.199 176.003 492.884 177.352 492.576L181.048 491.74L181.07 490.794C181.07 489.665 180.219 489.1 178.518 489.1C176.89 489.1 176.017 489.76 175.9 491.08H174.074C174.118 490.083 174.367 489.32 174.822 488.792C175.599 487.897 176.861 487.45 178.606 487.45C181.437 487.45 182.852 488.477 182.852 490.53V496.844C182.852 497.401 183.094 497.68 183.578 497.68C183.637 497.68 183.791 497.636 184.04 497.548C184.128 497.519 184.187 497.497 184.216 497.482ZM181.07 493.214L178.166 493.962C177.125 494.226 176.406 494.497 176.01 494.776C175.629 495.055 175.438 495.443 175.438 495.942C175.438 497.101 176.186 497.68 177.682 497.68C178.738 497.68 179.633 497.335 180.366 496.646C180.835 496.221 181.07 495.737 181.07 495.194V493.214ZM185.842 503.708V487.692H187.514V489.43C188.35 488.11 189.552 487.45 191.122 487.45C192.72 487.45 193.952 488.066 194.818 489.298C195.58 490.369 195.962 491.777 195.962 493.522C195.962 495.385 195.463 496.837 194.466 497.878C193.6 498.787 192.478 499.242 191.1 499.242C189.706 499.242 188.555 498.736 187.646 497.724V503.708H185.842ZM190.814 489.122C189.86 489.122 189.09 489.511 188.504 490.288C187.932 491.065 187.646 492.107 187.646 493.412C187.646 494.761 187.976 495.817 188.636 496.58C189.193 497.225 189.919 497.548 190.814 497.548C191.811 497.548 192.603 497.174 193.19 496.426C193.791 495.663 194.092 494.659 194.092 493.412C194.092 492.033 193.754 490.948 193.08 490.156C192.478 489.467 191.723 489.122 190.814 489.122ZM197.852 503.708V487.692H199.524V489.43C200.36 488.11 201.562 487.45 203.132 487.45C204.73 487.45 205.962 488.066 206.828 489.298C207.59 490.369 207.972 491.777 207.972 493.522C207.972 495.385 207.473 496.837 206.476 497.878C205.61 498.787 204.488 499.242 203.11 499.242C201.716 499.242 200.565 498.736 199.656 497.724V503.708H197.852ZM202.824 489.122C201.87 489.122 201.1 489.511 200.514 490.288C199.942 491.065 199.656 492.107 199.656 493.412C199.656 494.761 199.986 495.817 200.646 496.58C201.203 497.225 201.929 497.548 202.824 497.548C203.821 497.548 204.613 497.174 205.2 496.426C205.801 495.663 206.102 494.659 206.102 493.412C206.102 492.033 205.764 490.948 205.09 490.156C204.488 489.467 203.733 489.122 202.824 489.122ZM210.191 487.692H211.863V489.76C212.523 488.205 213.565 487.428 214.987 487.428C215.163 487.428 215.376 487.45 215.625 487.494V489.342C214.452 489.357 213.645 489.525 213.205 489.848C212.399 490.435 211.995 491.527 211.995 493.126V499H210.191V487.692ZM221.833 487.45C223.534 487.45 224.832 488.044 225.727 489.232C226.519 490.259 226.915 491.652 226.915 493.412C226.915 495.377 226.401 496.873 225.375 497.9C224.495 498.795 223.307 499.242 221.811 499.242C220.08 499.242 218.76 498.663 217.851 497.504C217.059 496.492 216.663 495.128 216.663 493.412C216.663 491.417 217.183 489.885 218.225 488.814C219.119 487.905 220.322 487.45 221.833 487.45ZM221.833 489.1C220.806 489.1 219.999 489.489 219.413 490.266C218.826 491.029 218.533 492.077 218.533 493.412C218.533 494.805 218.863 495.869 219.523 496.602C220.095 497.247 220.857 497.57 221.811 497.57C222.823 497.57 223.607 497.203 224.165 496.47C224.737 495.737 225.023 494.717 225.023 493.412C225.023 491.975 224.7 490.875 224.055 490.112C223.497 489.437 222.757 489.1 221.833 489.1ZM234.062 499H232.104L228.122 487.692H230.168L233.16 496.844L236.372 487.692H238.396L234.062 499ZM249.775 493.874H241.437C241.452 494.842 241.657 495.612 242.053 496.184C242.684 497.108 243.593 497.57 244.781 497.57C246.248 497.57 247.238 496.873 247.751 495.48H249.555C249.32 496.668 248.778 497.592 247.927 498.252C247.076 498.912 246.006 499.242 244.715 499.242C242.999 499.242 241.686 498.655 240.777 497.482C239.97 496.455 239.567 495.099 239.567 493.412C239.567 491.461 240.095 489.943 241.151 488.858C242.075 487.919 243.27 487.45 244.737 487.45C245.808 487.45 246.746 487.707 247.553 488.22C248.374 488.733 248.961 489.437 249.313 490.332C249.621 491.095 249.775 492.253 249.775 493.808V493.874ZM247.839 492.4C247.839 491.417 247.546 490.625 246.959 490.024C246.387 489.408 245.646 489.1 244.737 489.1C243.813 489.1 243.058 489.401 242.471 490.002C241.899 490.589 241.576 491.388 241.503 492.4H247.839ZM261.433 483.248V499H259.629V497.438C258.91 498.655 257.795 499.264 256.285 499.264C254.627 499.264 253.351 498.663 252.457 497.46C251.679 496.404 251.291 495.011 251.291 493.28C251.291 491.388 251.797 489.907 252.809 488.836C253.674 487.912 254.796 487.45 256.175 487.45C257.7 487.45 258.851 488.022 259.629 489.166V483.248H261.433ZM256.483 489.122C255.485 489.122 254.679 489.518 254.063 490.31C253.461 491.087 253.161 492.121 253.161 493.412C253.161 494.747 253.513 495.795 254.217 496.558C254.818 497.233 255.581 497.57 256.505 497.57C257.458 497.57 258.213 497.196 258.771 496.448C259.343 495.7 259.629 494.688 259.629 493.412C259.629 492.019 259.306 490.933 258.661 490.156C258.089 489.467 257.363 489.122 256.483 489.122ZM272.334 487.692V489.144H270.464V499H268.682V489.144H267.164V487.692H268.682V485.756C268.682 484.949 268.909 484.319 269.364 483.864C269.833 483.409 270.486 483.182 271.322 483.182C271.644 483.182 271.982 483.219 272.334 483.292V484.788H272.136C271.974 484.773 271.835 484.766 271.718 484.766C270.882 484.766 270.464 485.147 270.464 485.91V487.692H272.334ZM283.189 499H281.407V497.218C280.601 498.567 279.398 499.242 277.799 499.242C276.699 499.242 275.819 498.971 275.159 498.428C274.514 497.871 274.191 497.13 274.191 496.206V487.692H275.973V495.48C275.973 496.14 276.186 496.668 276.611 497.064C277.037 497.46 277.609 497.658 278.327 497.658C279.266 497.658 280.014 497.321 280.571 496.646C281.129 495.957 281.407 495.033 281.407 493.874V487.692H283.189V499ZM286.311 487.692H287.983V489.606C288.892 488.169 290.139 487.45 291.723 487.45C292.823 487.45 293.696 487.729 294.341 488.286C294.986 488.829 295.309 489.562 295.309 490.486V499H293.527V491.212C293.527 490.537 293.314 490.002 292.889 489.606C292.478 489.21 291.914 489.012 291.195 489.012C290.256 489.012 289.508 489.357 288.951 490.046C288.394 490.735 288.115 491.652 288.115 492.796V499H286.311V487.692ZM307.517 483.248V499H305.713V497.438C304.994 498.655 303.879 499.264 302.369 499.264C300.711 499.264 299.435 498.663 298.541 497.46C297.763 496.404 297.375 495.011 297.375 493.28C297.375 491.388 297.881 489.907 298.893 488.836C299.758 487.912 300.88 487.45 302.259 487.45C303.784 487.45 304.935 488.022 305.713 489.166V483.248H307.517ZM302.567 489.122C301.569 489.122 300.763 489.518 300.147 490.31C299.545 491.087 299.245 492.121 299.245 493.412C299.245 494.747 299.597 495.795 300.301 496.558C300.902 497.233 301.665 497.57 302.589 497.57C303.542 497.57 304.297 497.196 304.855 496.448C305.427 495.7 305.713 494.688 305.713 493.412C305.713 492.019 305.39 490.933 304.745 490.156C304.173 489.467 303.447 489.122 302.567 489.122ZM321.256 487.692H323.192L318.154 501.376C317.567 502.931 316.592 503.708 315.228 503.708C314.582 503.708 314.018 503.561 313.534 503.268L313.886 501.706C314.252 501.853 314.612 501.926 314.964 501.926C315.668 501.926 316.159 501.559 316.438 500.826L317.12 499.022L313.292 487.692H315.228L318.11 496.492L321.256 487.692ZM329.598 487.45C331.3 487.45 332.598 488.044 333.492 489.232C334.284 490.259 334.68 491.652 334.68 493.412C334.68 495.377 334.167 496.873 333.14 497.9C332.26 498.795 331.072 499.242 329.576 499.242C327.846 499.242 326.526 498.663 325.616 497.504C324.824 496.492 324.428 495.128 324.428 493.412C324.428 491.417 324.949 489.885 325.99 488.814C326.885 487.905 328.088 487.45 329.598 487.45ZM329.598 489.1C328.572 489.1 327.765 489.489 327.178 490.266C326.592 491.029 326.298 492.077 326.298 493.412C326.298 494.805 326.628 495.869 327.288 496.602C327.86 497.247 328.623 497.57 329.576 497.57C330.588 497.57 331.373 497.203 331.93 496.47C332.502 495.737 332.788 494.717 332.788 493.412C332.788 491.975 332.466 490.875 331.82 490.112C331.263 489.437 330.522 489.1 329.598 489.1ZM346.074 499H344.292V497.218C343.485 498.567 342.283 499.242 340.684 499.242C339.584 499.242 338.704 498.971 338.044 498.428C337.399 497.871 337.076 497.13 337.076 496.206V487.692H338.858V495.48C338.858 496.14 339.071 496.668 339.496 497.064C339.921 497.46 340.493 497.658 341.212 497.658C342.151 497.658 342.899 497.321 343.456 496.646C344.013 495.957 344.292 495.033 344.292 493.874V487.692H346.074V499ZM349.174 487.692H350.846V489.76C351.506 488.205 352.547 487.428 353.97 487.428C354.146 487.428 354.358 487.45 354.608 487.494V489.342C353.434 489.357 352.628 489.525 352.188 489.848C351.381 490.435 350.978 491.527 350.978 493.126V499H349.174V487.692ZM128.55 522.482V523.934C128.051 524.11 127.663 524.198 127.384 524.198C126.211 524.198 125.573 523.663 125.47 522.592C124.663 523.692 123.38 524.242 121.62 524.242C120.403 524.242 119.457 523.905 118.782 523.23C118.195 522.643 117.902 521.888 117.902 520.964C117.902 519.908 118.276 519.094 119.024 518.522C119.449 518.199 120.337 517.884 121.686 517.576L125.382 516.74L125.404 515.794C125.404 514.665 124.553 514.1 122.852 514.1C121.224 514.1 120.351 514.76 120.234 516.08H118.408C118.452 515.083 118.701 514.32 119.156 513.792C119.933 512.897 121.195 512.45 122.94 512.45C125.771 512.45 127.186 513.477 127.186 515.53V521.844C127.186 522.401 127.428 522.68 127.912 522.68C127.971 522.68 128.125 522.636 128.374 522.548C128.462 522.519 128.521 522.497 128.55 522.482ZM125.404 518.214L122.5 518.962C121.459 519.226 120.74 519.497 120.344 519.776C119.963 520.055 119.772 520.443 119.772 520.942C119.772 522.101 120.52 522.68 122.016 522.68C123.072 522.68 123.967 522.335 124.7 521.646C125.169 521.221 125.404 520.737 125.404 520.194V518.214ZM139.174 516.476H137.37C137.15 514.892 136.255 514.1 134.686 514.1C133.703 514.1 132.933 514.489 132.376 515.266C131.818 516.043 131.54 517.121 131.54 518.5C131.54 519.864 131.87 520.905 132.53 521.624C133.087 522.255 133.835 522.57 134.774 522.57C136.284 522.57 137.186 521.749 137.48 520.106H139.306C139.188 521.514 138.682 522.577 137.788 523.296C137.01 523.927 135.991 524.242 134.73 524.242C133.072 524.242 131.782 523.655 130.858 522.482C130.066 521.47 129.67 520.143 129.67 518.5C129.67 516.535 130.19 514.995 131.232 513.88C132.126 512.927 133.285 512.45 134.708 512.45C136.35 512.45 137.582 513 138.404 514.1C138.829 514.672 139.086 515.464 139.174 516.476ZM149.98 516.476H148.176C147.956 514.892 147.062 514.1 145.492 514.1C144.51 514.1 143.74 514.489 143.182 515.266C142.625 516.043 142.346 517.121 142.346 518.5C142.346 519.864 142.676 520.905 143.336 521.624C143.894 522.255 144.642 522.57 145.58 522.57C147.091 522.57 147.993 521.749 148.286 520.106H150.112C149.995 521.514 149.489 522.577 148.594 523.296C147.817 523.927 146.798 524.242 145.536 524.242C143.879 524.242 142.588 523.655 141.664 522.482C140.872 521.47 140.476 520.143 140.476 518.5C140.476 516.535 140.997 514.995 142.038 513.88C142.933 512.927 144.092 512.45 145.514 512.45C147.157 512.45 148.389 513 149.21 514.1C149.636 514.672 149.892 515.464 149.98 516.476ZM156.563 512.45C158.264 512.45 159.562 513.044 160.457 514.232C161.249 515.259 161.645 516.652 161.645 518.412C161.645 520.377 161.132 521.873 160.105 522.9C159.225 523.795 158.037 524.242 156.541 524.242C154.81 524.242 153.49 523.663 152.581 522.504C151.789 521.492 151.393 520.128 151.393 518.412C151.393 516.417 151.914 514.885 152.955 513.814C153.85 512.905 155.052 512.45 156.563 512.45ZM156.563 514.1C155.536 514.1 154.73 514.489 154.143 515.266C153.556 516.029 153.263 517.077 153.263 518.412C153.263 519.805 153.593 520.869 154.253 521.602C154.825 522.247 155.588 522.57 156.541 522.57C157.553 522.57 158.338 522.203 158.895 521.47C159.467 520.737 159.753 519.717 159.753 518.412C159.753 516.975 159.43 515.875 158.785 515.112C158.228 514.437 157.487 514.1 156.563 514.1ZM173.039 524H171.257V522.218C170.45 523.567 169.247 524.242 167.649 524.242C166.549 524.242 165.669 523.971 165.009 523.428C164.363 522.871 164.041 522.13 164.041 521.206V512.692H165.823V520.48C165.823 521.14 166.035 521.668 166.461 522.064C166.886 522.46 167.458 522.658 168.177 522.658C169.115 522.658 169.863 522.321 170.421 521.646C170.978 520.957 171.257 520.033 171.257 518.874V512.692H173.039V524ZM176.161 512.692H177.833V514.606C178.742 513.169 179.989 512.45 181.573 512.45C182.673 512.45 183.545 512.729 184.191 513.286C184.836 513.829 185.159 514.562 185.159 515.486V524H183.377V516.212C183.377 515.537 183.164 515.002 182.739 514.606C182.328 514.21 181.763 514.012 181.045 514.012C180.106 514.012 179.358 514.357 178.801 515.046C178.243 515.735 177.965 516.652 177.965 517.796V524H176.161V512.692ZM192.592 512.692V514.144H190.282V521.668C190.282 521.932 190.37 522.159 190.546 522.35C190.737 522.526 190.979 522.614 191.272 522.614C191.551 522.614 191.976 522.548 192.548 522.416L192.746 524C191.837 524.161 191.148 524.242 190.678 524.242C189.226 524.242 188.5 523.648 188.5 522.46V514.144H186.96V512.692H188.5V510.382L190.282 509.568V512.692H192.592ZM208.773 522.482V523.934C208.274 524.11 207.885 524.198 207.607 524.198C206.433 524.198 205.795 523.663 205.693 522.592C204.886 523.692 203.603 524.242 201.843 524.242C200.625 524.242 199.679 523.905 199.005 523.23C198.418 522.643 198.125 521.888 198.125 520.964C198.125 519.908 198.499 519.094 199.247 518.522C199.672 518.199 200.559 517.884 201.909 517.576L205.605 516.74L205.627 515.794C205.627 514.665 204.776 514.1 203.075 514.1C201.447 514.1 200.574 514.76 200.457 516.08H198.631C198.675 515.083 198.924 514.32 199.379 513.792C200.156 512.897 201.417 512.45 203.163 512.45C205.993 512.45 207.409 513.477 207.409 515.53V521.844C207.409 522.401 207.651 522.68 208.135 522.68C208.193 522.68 208.347 522.636 208.597 522.548C208.685 522.519 208.743 522.497 208.773 522.482ZM205.627 518.214L202.723 518.962C201.681 519.226 200.963 519.497 200.567 519.776C200.185 520.055 199.995 520.443 199.995 520.942C199.995 522.101 200.743 522.68 202.239 522.68C203.295 522.68 204.189 522.335 204.923 521.646C205.392 521.221 205.627 520.737 205.627 520.194V518.214ZM210.75 512.692H212.422V514.606C213.332 513.169 214.578 512.45 216.162 512.45C217.262 512.45 218.135 512.729 218.78 513.286C219.426 513.829 219.748 514.562 219.748 515.486V524H217.966V516.212C217.966 515.537 217.754 515.002 217.328 514.606C216.918 514.21 216.353 514.012 215.634 514.012C214.696 514.012 213.948 514.357 213.39 515.046C212.833 515.735 212.554 516.652 212.554 517.796V524H210.75V512.692ZM231.956 508.248V524H230.152V522.438C229.434 523.655 228.319 524.264 226.808 524.264C225.151 524.264 223.875 523.663 222.98 522.46C222.203 521.404 221.814 520.011 221.814 518.28C221.814 516.388 222.32 514.907 223.332 513.836C224.198 512.912 225.32 512.45 226.698 512.45C228.224 512.45 229.375 513.022 230.152 514.166V508.248H231.956ZM227.006 514.122C226.009 514.122 225.202 514.518 224.586 515.31C223.985 516.087 223.684 517.121 223.684 518.412C223.684 519.747 224.036 520.795 224.74 521.558C225.342 522.233 226.104 522.57 227.028 522.57C227.982 522.57 228.737 522.196 229.294 521.448C229.866 520.7 230.152 519.688 230.152 518.412C230.152 517.019 229.83 515.933 229.184 515.156C228.612 514.467 227.886 514.122 227.006 514.122ZM243.231 512.692V514.144H240.921V521.668C240.921 521.932 241.009 522.159 241.185 522.35C241.376 522.526 241.618 522.614 241.911 522.614C242.19 522.614 242.615 522.548 243.187 522.416L243.385 524C242.476 524.161 241.786 524.242 241.317 524.242C239.865 524.242 239.139 523.648 239.139 522.46V514.144H237.599V512.692H239.139V510.382L240.921 509.568V512.692H243.231ZM245.318 512.692H246.99V514.76C247.65 513.205 248.692 512.428 250.114 512.428C250.29 512.428 250.503 512.45 250.752 512.494V514.342C249.579 514.357 248.772 514.525 248.332 514.848C247.526 515.435 247.122 516.527 247.122 518.126V524H245.318V512.692ZM262.57 522.482V523.934C262.071 524.11 261.682 524.198 261.404 524.198C260.23 524.198 259.592 523.663 259.49 522.592C258.683 523.692 257.4 524.242 255.64 524.242C254.422 524.242 253.476 523.905 252.802 523.23C252.215 522.643 251.922 521.888 251.922 520.964C251.922 519.908 252.296 519.094 253.044 518.522C253.469 518.199 254.356 517.884 255.706 517.576L259.402 516.74L259.424 515.794C259.424 514.665 258.573 514.1 256.872 514.1C255.244 514.1 254.371 514.76 254.254 516.08H252.428C252.472 515.083 252.721 514.32 253.176 513.792C253.953 512.897 255.214 512.45 256.96 512.45C259.79 512.45 261.206 513.477 261.206 515.53V521.844C261.206 522.401 261.448 522.68 261.932 522.68C261.99 522.68 262.144 522.636 262.394 522.548C262.482 522.519 262.54 522.497 262.57 522.482ZM259.424 518.214L256.52 518.962C255.478 519.226 254.76 519.497 254.364 519.776C253.982 520.055 253.792 520.443 253.792 520.942C253.792 522.101 254.54 522.68 256.036 522.68C257.092 522.68 257.986 522.335 258.72 521.646C259.189 521.221 259.424 520.737 259.424 520.194V518.214ZM273.743 508.248V524H271.939V522.438C271.221 523.655 270.106 524.264 268.595 524.264C266.938 524.264 265.662 523.663 264.767 522.46C263.99 521.404 263.601 520.011 263.601 518.28C263.601 516.388 264.107 514.907 265.119 513.836C265.985 512.912 267.107 512.45 268.485 512.45C270.011 512.45 271.162 513.022 271.939 514.166V508.248H273.743ZM268.793 514.122C267.796 514.122 266.989 514.518 266.373 515.31C265.772 516.087 265.471 517.121 265.471 518.412C265.471 519.747 265.823 520.795 266.527 521.558C267.129 522.233 267.891 522.57 268.815 522.57C269.769 522.57 270.524 522.196 271.081 521.448C271.653 520.7 271.939 519.688 271.939 518.412C271.939 517.019 271.617 515.933 270.971 515.156C270.399 514.467 269.673 514.122 268.793 514.122ZM286.105 518.874H277.767C277.782 519.842 277.987 520.612 278.383 521.184C279.014 522.108 279.923 522.57 281.111 522.57C282.578 522.57 283.568 521.873 284.081 520.48H285.885C285.65 521.668 285.108 522.592 284.257 523.252C283.406 523.912 282.336 524.242 281.045 524.242C279.329 524.242 278.016 523.655 277.107 522.482C276.3 521.455 275.897 520.099 275.897 518.412C275.897 516.461 276.425 514.943 277.481 513.858C278.405 512.919 279.6 512.45 281.067 512.45C282.138 512.45 283.076 512.707 283.883 513.22C284.704 513.733 285.291 514.437 285.643 515.332C285.951 516.095 286.105 517.253 286.105 518.808V518.874ZM284.169 517.4C284.169 516.417 283.876 515.625 283.289 515.024C282.717 514.408 281.976 514.1 281.067 514.1C280.143 514.1 279.388 514.401 278.801 515.002C278.229 515.589 277.906 516.388 277.833 517.4H284.169Z" fill="black"/>
</svg>
