<svg width="24" height="24" viewBox="0 0 24 24" fill="none" xmlns="http://www.w3.org/2000/svg">
<path fill-rule="evenodd" clip-rule="evenodd" d="M12 4C7.58172 4 4 7.58172 4 12C4 16.4183 7.58172 20 12 20C16.4183 20 20 16.4183 20 12C20 7.58172 16.4183 4 12 4ZM2 12C2 6.47715 6.47715 2 12 2C17.5228 2 22 6.47715 22 12C22 17.5228 17.5228 22 12 22C6.47715 22 2 17.5228 2 12ZM13.7426 8.5C14.2949 8.5 14.7426 8.94772 14.7426 9.5V13.7426C14.7426 14.0079 14.6373 14.2622 14.4497 14.4497C14.2622 14.6373 14.0079 14.7426 13.7426 14.7426L9.5 14.7426C8.94772 14.7426 8.5 14.2949 8.5 13.7426C8.5 13.1904 8.94772 12.7426 9.5 12.7426L12.7426 12.7426V9.5C12.7426 8.94772 13.1904 8.5 13.7426 8.5Z" fill="black"/>
</svg>
