<svg width="24" height="24" viewBox="0 0 24 24" fill="none" xmlns="http://www.w3.org/2000/svg">
<path fill-rule="evenodd" clip-rule="evenodd" d="M17.6569 6.34315C14.5327 3.21895 9.46734 3.21895 6.34315 6.34315C3.21895 9.46734 3.21895 14.5327 6.34315 17.6569C9.46734 20.7811 14.5327 20.7811 17.6569 17.6569C20.7811 14.5327 20.7811 9.46734 17.6569 6.34315ZM4.92893 4.92893C8.83418 1.02369 15.1658 1.02369 19.0711 4.92893C22.9763 8.83418 22.9763 15.1658 19.0711 19.0711C15.1658 22.9763 8.83418 22.9763 4.92893 19.0711C1.02369 15.1658 1.02369 8.83418 4.92893 4.92893ZM9.87868 10.8787C9.3264 10.8787 8.87868 10.431 8.87868 9.87868C8.87868 9.3264 9.3264 8.87868 9.87868 8.87868H14.1213C14.6736 8.87868 15.1213 9.3264 15.1213 9.87868V14.1213C15.1213 14.6736 14.6736 15.1213 14.1213 15.1213C13.569 15.1213 13.1213 14.6736 13.1213 14.1213V12.2929L10.5858 14.8284C10.1953 15.219 9.5621 15.219 9.17157 14.8284C8.78105 14.4379 8.78105 13.8047 9.17157 13.4142L11.7071 10.8787H9.87868Z" fill="black"/>
</svg>
